<svg xmlns="http://www.w3.org/2000/svg" xmlns:xlink="http://www.w3.org/1999/xlink" viewBox="0 0 1163.93 1104.44"><defs><style>.cls-1,.cls-12{fill:none;}.cls-2{clip-path:url(#clip-path);}.cls-3{fill:#b4d8fa;}.cls-4{fill:#155da1;}.cls-5{fill:#2d4979;}.cls-6{fill:#3e87cd;}.cls-7{fill:#fff;}.cls-8{fill:#0e4e8a;}.cls-9{fill:#ba594f;}.cls-10{fill:#253e68;}.cls-11{fill:#13294e;}.cls-12{stroke:#13294e;stroke-miterlimit:10;stroke-width:4px;}.cls-13{fill:#223a5e;}.cls-14{fill:#6180af;}</style><clipPath id="clip-path" transform="translate(77.55 38.83)"><circle class="cls-1" cx="497.43" cy="497.43" r="497.43"/></clipPath></defs><g id="Layer_2" data-name="Layer 2"><g id="Layer_2-2" data-name="Layer 2"><g class="cls-2"><rect class="cls-3" x="32.88" y="24.44" width="1080" height="1080"/><rect class="cls-4" x="32.88" y="530.01" width="1080" height="319.19"/><rect class="cls-5" x="32.88" y="846.33" width="1080" height="255.24"/><circle class="cls-6" cx="605.13" cy="233.89" r="182.87"/><circle class="cls-3" cx="605.13" cy="233.89" r="139.11"/><circle class="cls-7" cx="605.13" cy="233.89" r="94.62"/><rect class="cls-7" x="819.73" width="228.34" height="34.56" rx="17.28"/><rect class="cls-7" x="779.14" y="33.4" width="344.67" height="34.56" rx="17.28"/><rect class="cls-6" x="303.52" y="379.54" width="99.73" height="150.47"/><rect class="cls-6" x="422.7" y="421.54" width="62.27" height="106.74"/><rect class="cls-6" x="427.21" y="446.22" width="62.27" height="83.63"/><rect class="cls-7" x="256.05" y="155.38" width="233.2" height="34.56" rx="17.28"/><rect class="cls-7" x="151.13" y="188.61" width="294.78" height="34.56" rx="17.28"/><rect class="cls-6" x="848.24" y="8.82" width="315.68" height="34.56" rx="17.28"/><rect class="cls-6" x="813.07" y="41.15" width="292.94" height="34.56" rx="17.28"/><rect class="cls-6" x="433.33" y="488.2" width="64.67" height="41.82"/><rect class="cls-6" x="90.47" y="199.21" width="315.68" height="34.56" rx="17.28"/><rect class="cls-6" x="221.56" y="164.76" width="213.62" height="34.56" rx="17.28"/><rect class="cls-4" x="836.33" y="421.54" width="128.22" height="268.07"/><rect class="cls-6" x="797.29" y="379.54" width="99.73" height="148.73"/><rect class="cls-4" x="978.34" y="296.02" width="128.22" height="393.48"/><rect class="cls-4" x="59.54" y="296.02" width="88.16" height="393.48"/><rect class="cls-4" x="87.58" y="355.05" width="88.16" height="340.27"/><rect class="cls-4" x="208.6" y="245.42" width="88.16" height="450.97"/><rect class="cls-4" x="230.27" y="322.66" width="88.16" height="370.74"/><rect class="cls-4" x="372.4" y="460.83" width="99.73" height="228.68"/><rect class="cls-4" x="99.62" y="409.11" width="88.16" height="289"/><rect class="cls-8" x="795.12" y="479.24" width="82.43" height="368.95"/><rect class="cls-8" x="782.09" y="516.72" width="108.48" height="328.46"/><rect class="cls-9" x="1043.65" y="689.92" width="14.78" height="4.45"/><polygon class="cls-8" points="1080.92 450.72 1080.92 689.92 1043.65 689.92 1043.65 694.37 935.17 694.37 935.17 390.3 949.95 390.3 949.95 364.7 1058.43 364.7 1058.43 450.72 1080.92 450.72"/><rect class="cls-8" x="33.44" y="452.78" width="113.83" height="245.34"/><rect class="cls-8" x="32.88" y="385.85" width="95.38" height="71.37"/><rect class="cls-8" x="112.71" y="559" width="113.83" height="139.11"/><rect class="cls-6" x="1040.12" y="376.91" width="10.08" height="17.12"/><rect class="cls-8" x="32.88" y="689.61" width="1080" height="159.6"/><rect class="cls-4" x="1040.12" y="404.05" width="10.08" height="17.12"/><rect class="cls-4" x="1040.12" y="431.88" width="10.08" height="17.12"/><rect class="cls-6" x="1062.97" y="457.71" width="10.08" height="17.12"/><rect class="cls-4" x="1040.12" y="457.71" width="10.08" height="17.12"/><rect class="cls-4" x="1062.97" y="482.66" width="10.08" height="17.12"/><rect class="cls-4" x="1062.97" y="507.49" width="10.08" height="17.12"/><rect class="cls-6" x="745.18" y="445.54" width="5.92" height="31.69" transform="matrix(1, -0.01, 0.01, 1, 74.82, 43.29)"/><rect class="cls-6" x="734.36" y="445.52" width="5.92" height="31.69" transform="matrix(1, -0.01, 0.01, 1, 74.82, 43.22)"/><rect class="cls-6" x="723.54" y="445.5" width="5.92" height="31.69" transform="translate(74.82 43.16) rotate(-0.34)"/><rect class="cls-6" x="756" y="445.49" width="5.92" height="31.69" transform="matrix(1, -0.01, 0.01, 1, 74.82, 43.35)"/><rect class="cls-6" x="766.82" y="445.44" width="5.92" height="31.69" transform="translate(74.82 43.42) rotate(-0.34)"/><rect class="cls-6" x="777.64" y="445.39" width="5.92" height="31.69" transform="matrix(1, -0.01, 0.01, 1, 74.82, 43.48)"/><rect class="cls-6" x="788.47" y="445.34" width="5.92" height="31.69" transform="translate(74.82 43.55) rotate(-0.34)"/><rect class="cls-4" x="1020.39" y="376.91" width="10.08" height="17.12"/><rect class="cls-4" x="1000.67" y="376.91" width="10.08" height="17.12"/><rect class="cls-6" x="980.95" y="376.91" width="10.08" height="17.12"/><rect class="cls-6" x="961.22" y="376.91" width="10.08" height="17.12"/><rect class="cls-6" x="1020.39" y="404.05" width="10.08" height="17.12"/><rect class="cls-4" x="102.48" y="395.59" width="19.08" height="9.74"/><rect class="cls-4" x="76.28" y="395.59" width="19.08" height="9.74"/><rect class="cls-6" x="50.09" y="395.59" width="19.08" height="9.74"/><rect class="cls-4" x="23.9" y="395.59" width="19.08" height="9.74"/><rect class="cls-4" x="102.48" y="413.07" width="19.08" height="9.74"/><rect class="cls-6" x="76.28" y="413.07" width="19.08" height="9.74"/><rect class="cls-4" x="102.48" y="430.56" width="19.08" height="9.74"/><rect class="cls-4" x="76.28" y="430.56" width="19.08" height="9.74"/><rect class="cls-4" x="50.09" y="413.07" width="19.08" height="9.74"/><polygon class="cls-10" points="1114.98 927.86 33.44 1049.53 33.44 972.43 1114.98 850.75 1114.98 927.86"/><rect class="cls-11" x="6.7" y="877.9" width="274.02" height="6.79" rx="3.39"/><rect class="cls-11" x="105.85" y="895.78" width="171.9" height="6.79" rx="3.39"/><rect class="cls-11" x="12.97" y="895.78" width="77.57" height="6.79" rx="3.39"/><path class="cls-12" d="M845.2,490.38A467.27,467.27,0,0,0,908,581.81,470.93,470.93,0,0,0,1040.2,686.32" transform="translate(77.55 38.83)"/><path class="cls-12" d="M159.37,328.07c4.11,21.34,46.14,221.43,229.53,303.08,26.79,11.93,148.71,66.21,282.46,9.64C770.5,598.87,819.6,520,835.5,491.58" transform="translate(77.55 38.83)"/><rect class="cls-13" x="211.8" y="368.02" width="39.51" height="604.1"/><rect class="cls-14" x="192.51" y="368.02" width="19.29" height="604.1"/><rect class="cls-14" x="201.16" y="345.39" width="35.76" height="22.63"/><rect class="cls-13" x="223.41" y="345.39" width="16.28" height="19.3"/><rect class="cls-14" x="211.35" y="322.56" width="15.37" height="22.83"/><rect class="cls-13" x="218.58" y="322.66" width="8.14" height="19.91"/><rect class="cls-5" x="916.98" y="529.21" width="21.33" height="357.43"/><rect class="cls-14" x="906.32" y="529.21" width="10.67" height="357.43"/><rect class="cls-14" x="913.05" y="518.01" width="16.14" height="11.19"/><rect class="cls-5" x="921.84" y="518.01" width="7.35" height="8.24"/><rect class="cls-14" x="917.65" y="506.71" width="6.94" height="11.3"/><rect class="cls-5" x="920.91" y="506.77" width="3.68" height="9.13"/><rect class="cls-14" x="236.92" y="379.54" width="136.8" height="32.09"/><rect class="cls-14" x="236.92" y="479.44" width="136.8" height="32.09"/><rect class="cls-14" x="236.92" y="579.33" width="136.8" height="32.09"/><rect class="cls-14" x="236.92" y="679.23" width="136.8" height="32.09"/><rect class="cls-14" x="921.53" y="534.38" width="82.32" height="19.31"/><path class="cls-12" d="M-76.42,565.31c8.67-5.92,19.52-15.18,31.75-26.76C12.4,484.48,106.17,384.94,141,332.08" transform="translate(77.55 38.83)"/><rect class="cls-14" x="921.53" y="594.48" width="82.32" height="19.31"/><rect class="cls-14" x="921.53" y="654.59" width="82.32" height="19.31"/><rect class="cls-5" x="242.86" y="484.51" width="5.52" height="21.94"/><rect class="cls-5" x="252.04" y="484.51" width="5.52" height="21.94"/><rect class="cls-5" x="261.22" y="484.51" width="5.52" height="21.94"/><rect class="cls-5" x="270.41" y="484.51" width="5.52" height="21.94"/><rect class="cls-5" x="279.59" y="484.51" width="5.52" height="21.94"/><rect class="cls-5" x="288.78" y="484.51" width="5.52" height="21.94"/><rect class="cls-5" x="297.96" y="484.51" width="5.52" height="21.94"/><rect class="cls-5" x="307.14" y="484.51" width="5.52" height="21.94"/><rect class="cls-5" x="316.33" y="484.51" width="5.52" height="21.94"/><rect class="cls-5" x="325.51" y="484.51" width="5.52" height="21.94"/><rect class="cls-5" x="334.69" y="484.51" width="5.52" height="21.94"/><rect class="cls-5" x="242.86" y="584.41" width="5.52" height="21.94"/><rect class="cls-5" x="252.04" y="584.41" width="5.52" height="21.94"/><rect class="cls-5" x="261.22" y="584.41" width="5.52" height="21.94"/><rect class="cls-5" x="270.41" y="584.41" width="5.52" height="21.94"/><rect class="cls-5" x="279.59" y="584.41" width="5.52" height="21.94"/><rect class="cls-5" x="288.78" y="584.41" width="5.52" height="21.94"/><rect class="cls-5" x="297.96" y="584.41" width="5.52" height="21.94"/><rect class="cls-5" x="307.14" y="584.41" width="5.52" height="21.94"/><rect class="cls-5" x="316.33" y="584.41" width="5.52" height="21.94"/><rect class="cls-5" x="325.51" y="584.41" width="5.52" height="21.94"/><rect class="cls-5" x="334.69" y="584.41" width="5.52" height="21.94"/><rect class="cls-5" x="242.86" y="684.3" width="5.52" height="21.94"/><rect class="cls-5" x="252.04" y="684.3" width="5.52" height="21.94"/><rect class="cls-5" x="261.22" y="684.3" width="5.52" height="21.94"/><rect class="cls-5" x="270.41" y="684.3" width="5.52" height="21.94"/><rect class="cls-5" x="279.59" y="684.3" width="5.52" height="21.94"/><rect class="cls-5" x="288.78" y="684.3" width="5.52" height="21.94"/><rect class="cls-5" x="297.96" y="684.3" width="5.52" height="21.94"/><rect class="cls-5" x="307.14" y="684.3" width="5.52" height="21.94"/><rect class="cls-5" x="316.33" y="684.3" width="5.52" height="21.94"/><rect class="cls-5" x="325.51" y="684.3" width="5.52" height="21.94"/><rect class="cls-5" x="334.69" y="684.3" width="5.52" height="21.94"/><rect class="cls-5" x="929.74" y="536.26" width="3.74" height="14.85"/><rect class="cls-5" x="935.96" y="536.26" width="3.74" height="14.85"/><rect class="cls-5" x="942.17" y="536.26" width="3.74" height="14.85"/><rect class="cls-5" x="948.39" y="536.26" width="3.74" height="14.85"/><rect class="cls-5" x="954.6" y="536.26" width="3.74" height="14.85"/><rect class="cls-5" x="960.82" y="536.26" width="3.74" height="14.85"/><rect class="cls-5" x="967.03" y="536.26" width="3.74" height="14.85"/><rect class="cls-5" x="973.25" y="536.26" width="3.74" height="14.85"/><rect class="cls-5" x="979.46" y="536.26" width="3.74" height="14.85"/><rect class="cls-5" x="985.67" y="536.26" width="3.74" height="14.85"/><rect class="cls-5" x="991.89" y="536.26" width="3.74" height="14.85"/><rect class="cls-5" x="929.74" y="596.71" width="3.74" height="14.85"/><rect class="cls-5" x="935.96" y="596.71" width="3.74" height="14.85"/><rect class="cls-5" x="942.17" y="596.71" width="3.74" height="14.85"/><rect class="cls-5" x="948.39" y="596.71" width="3.74" height="14.85"/><rect class="cls-5" x="954.6" y="596.71" width="3.74" height="14.85"/><rect class="cls-5" x="960.82" y="596.71" width="3.74" height="14.85"/><rect class="cls-5" x="967.03" y="596.71" width="3.74" height="14.85"/><rect class="cls-5" x="973.25" y="596.71" width="3.74" height="14.85"/><rect class="cls-5" x="979.46" y="596.71" width="3.74" height="14.85"/><rect class="cls-5" x="985.67" y="596.71" width="3.74" height="14.85"/><rect class="cls-5" x="991.89" y="596.71" width="3.74" height="14.85"/><rect class="cls-5" x="929.74" y="656.82" width="3.74" height="14.85"/><rect class="cls-5" x="935.96" y="656.82" width="3.74" height="14.85"/><rect class="cls-5" x="942.17" y="656.82" width="3.74" height="14.85"/><rect class="cls-5" x="948.39" y="656.82" width="3.74" height="14.85"/><rect class="cls-5" x="954.6" y="656.82" width="3.74" height="14.85"/><rect class="cls-5" x="960.82" y="656.82" width="3.74" height="14.85"/><rect class="cls-5" x="967.03" y="656.82" width="3.74" height="14.85"/><rect class="cls-5" x="973.25" y="656.82" width="3.74" height="14.85"/><rect class="cls-5" x="979.46" y="656.82" width="3.74" height="14.85"/><rect class="cls-5" x="985.67" y="656.82" width="3.74" height="14.85"/><rect class="cls-5" x="991.89" y="656.82" width="3.74" height="14.85"/><rect class="cls-14" x="921.53" y="714.7" width="82.32" height="19.31"/><rect class="cls-14" x="32.88" y="769.58" width="1080" height="20.57"/><rect class="cls-5" x="929.74" y="716.93" width="3.74" height="14.85"/><rect class="cls-5" x="935.96" y="716.93" width="3.74" height="14.85"/><rect class="cls-5" x="942.17" y="716.93" width="3.74" height="14.85"/><rect class="cls-5" x="948.39" y="716.93" width="3.74" height="14.85"/><rect class="cls-5" x="954.6" y="716.93" width="3.74" height="14.85"/><rect class="cls-5" x="960.82" y="716.93" width="3.74" height="14.85"/><rect class="cls-5" x="967.03" y="716.93" width="3.74" height="14.85"/><rect class="cls-5" x="973.25" y="716.93" width="3.74" height="14.85"/><rect class="cls-5" x="979.46" y="716.93" width="3.74" height="14.85"/><rect class="cls-5" x="985.67" y="716.93" width="3.74" height="14.85"/><rect class="cls-5" x="991.89" y="716.93" width="3.74" height="14.85"/><rect class="cls-11" x="32.88" y="759.85" width="1082.1" height="10.29"/><path class="cls-12" d="M944.51,494c14.7,27.65,34.93,55.81,62.77,87.84a485.85,485.85,0,0,0,35.79,37" transform="translate(77.55 38.83)"/><rect class="cls-13" x="363.03" y="368.02" width="39.51" height="604.1"/><rect class="cls-14" x="353.38" y="345.39" width="35.76" height="22.63"/><rect class="cls-14" x="363.58" y="322.56" width="15.37" height="22.83"/><rect class="cls-13" x="372.88" y="345.39" width="16.28" height="19.3"/><rect class="cls-13" x="370.45" y="322.66" width="8.14" height="19.91"/><rect class="cls-14" x="343.74" y="368.02" width="19.29" height="604.1"/><rect class="cls-14" x="1005.91" y="518.01" width="16.14" height="11.19"/><rect class="cls-5" x="1014.71" y="518.01" width="7.35" height="8.24"/><rect class="cls-14" x="1010.52" y="506.71" width="6.94" height="11.3"/><rect class="cls-5" x="1013.78" y="506.77" width="3.68" height="9.13"/><rect class="cls-5" x="1009.17" y="529.21" width="21.33" height="357.43"/><rect class="cls-14" x="998.51" y="529.21" width="10.67" height="357.43"/><path class="cls-12" d="M296.17,334.17c9.55,31.42,78.88,242.87,277.88,309.12,40.94,13.64,136.68,45.52,233.28-3.7,86.46-44.05,119.56-121.91,128.9-147.06" transform="translate(77.55 38.83)"/><path class="cls-12" d="M293.71,334.17c-42.33,64.19-99.27,133-178.75,209A1253,1253,0,0,1-44.67,672.5" transform="translate(77.55 38.83)"/><line class="cls-12" x1="46.14" y1="564.44" x2="46.14" y2="759.85"/><line class="cls-12" x1="70.81" y1="538.96" x2="70.81" y2="759.67"/><line class="cls-12" x1="96.4" y1="513.88" x2="95.47" y2="760.02"/><line class="cls-12" x1="122.07" y1="488.98" x2="121.05" y2="759.85"/><line class="cls-12" x1="147.83" y1="458.44" x2="146.7" y2="759.8"/><line class="cls-12" x1="172.43" y1="430.29" x2="172.43" y2="760.02"/><line class="cls-12" x1="420.69" y1="479.44" x2="420.69" y2="760.17"/><line class="cls-12" x1="445.36" y1="521.03" x2="445.36" y2="760"/><line class="cls-12" x1="470.02" y1="553.69" x2="470.02" y2="760.35"/><line class="cls-12" x1="495.6" y1="582.42" x2="495.6" y2="760.17"/><line class="cls-12" x1="521.25" y1="607.53" x2="521.25" y2="760.13"/><line class="cls-12" x1="546.98" y1="628.38" x2="546.98" y2="760.35"/><line class="cls-12" x1="571.62" y1="644.27" x2="571.62" y2="760.17"/><line class="cls-12" x1="596.28" y1="658.22" x2="596.28" y2="760"/><line class="cls-12" x1="621.87" y1="671.3" x2="620.95" y2="760.35"/><line class="cls-12" x1="647.54" y1="681.12" x2="646.53" y2="760.17"/><line class="cls-12" x1="673.31" y1="688.82" x2="672.18" y2="760.13"/><line class="cls-12" x1="697.91" y1="695.28" x2="697.91" y2="760.35"/><line class="cls-12" x1="717.01" y1="689.61" x2="717.01" y2="760.17"/><line class="cls-12" x1="741.68" y1="682.57" x2="741.68" y2="760"/><line class="cls-12" x1="766.34" y1="671.67" x2="766.34" y2="760.35"/><line class="cls-12" x1="791.92" y1="656.82" x2="791.92" y2="760.17"/><line class="cls-12" x1="817.57" y1="639.29" x2="817.57" y2="760.35"/><line class="cls-12" x1="843.3" y1="618.66" x2="843.3" y2="760.35"/><line class="cls-12" x1="864.5" y1="597.44" x2="864.5" y2="760.17"/><line class="cls-12" x1="889.17" y1="567.43" x2="889.17" y2="760"/><line class="cls-12" x1="1042.45" y1="566.39" x2="1042.45" y2="760.35"/><line class="cls-12" x1="1062.97" y1="594.48" x2="1062.97" y2="760.35"/><line class="cls-12" x1="1084.16" y1="620.64" x2="1084.16" y2="760.17"/><line class="cls-12" x1="1101.42" y1="638.78" x2="1101.42" y2="760"/><line class="cls-12" x1="911.76" y1="662.33" x2="910.83" y2="760.17"/><line class="cls-12" x1="945.43" y1="636.05" x2="944.41" y2="760.17"/><line class="cls-12" x1="969.19" y1="607.71" x2="968.06" y2="760.13"/><line class="cls-12" x1="990.79" y1="578.81" x2="990.79" y2="760.35"/><line class="cls-12" x1="325.51" y1="436.58" x2="325.51" y2="759.67"/><line class="cls-12" x1="201.16" y1="396.93" x2="201.16" y2="759.67"/><line class="cls-12" x1="304.21" y1="461.7" x2="304.21" y2="760.02"/><line class="cls-12" x1="277.74" y1="493.86" x2="277.74" y2="760.02"/><line class="cls-12" x1="258.09" y1="515.31" x2="258.09" y2="760.02"/><line class="cls-12" x1="258.09" y1="437.69" x2="258.09" y2="479.44"/><rect class="cls-11" x="236.92" y="412.97" width="14.33" height="67.48"/><rect class="cls-11" x="236.92" y="789.68" width="14.33" height="179.89"/><rect class="cls-5" x="242.86" y="385.85" width="5.52" height="21.94"/><rect class="cls-5" x="252.04" y="385.85" width="5.52" height="21.94"/><rect class="cls-5" x="261.22" y="385.85" width="5.52" height="21.94"/><rect class="cls-5" x="270.41" y="385.85" width="5.52" height="21.94"/><rect class="cls-5" x="279.59" y="385.85" width="5.52" height="21.94"/><rect class="cls-5" x="288.78" y="385.85" width="5.52" height="21.94"/><rect class="cls-5" x="297.96" y="385.85" width="5.52" height="21.94"/><rect class="cls-5" x="307.14" y="385.85" width="5.52" height="21.94"/><rect class="cls-5" x="316.33" y="385.85" width="5.52" height="21.94"/><rect class="cls-5" x="325.51" y="385.85" width="5.52" height="21.94"/><rect class="cls-5" x="334.69" y="385.85" width="5.52" height="21.94"/><rect class="cls-11" x="926.01" y="614.16" width="9.17" height="40.6"/><rect class="cls-11" x="926.01" y="554.34" width="9.17" height="40.6"/><rect class="cls-11" x="929.31" y="673.9" width="9.21" height="40.8"/><rect class="cls-10" x="929.31" y="734.01" width="9.21" height="25.84"/><rect class="cls-11" x="929.31" y="790.15" width="9.21" height="96.49"/><rect class="cls-11" x="236.92" y="512.39" width="14.33" height="67.48"/><rect class="cls-11" x="236.92" y="611.81" width="14.33" height="67.48"/><rect class="cls-11" x="236.92" y="711.23" width="14.33" height="48.3"/><rect class="cls-11" x="600.02" y="1019.41" width="283.11" height="6.79" rx="3.39"/><rect class="cls-11" x="168.31" y="972.43" width="274.02" height="6.79" rx="3.39"/><rect class="cls-11" x="186.11" y="991.32" width="131" height="6.79" rx="3.39"/><rect class="cls-11" x="256.05" y="1010.2" width="131" height="6.79" rx="3.39"/><rect class="cls-11" x="329.7" y="991.32" width="65.5" height="6.79" rx="3.39"/><rect class="cls-11" x="741.58" y="1037.13" width="283.11" height="6.79" rx="3.39"/><rect class="cls-11" x="461.09" y="861.02" width="199.66" height="6.36" rx="3.18"/><rect class="cls-11" x="560.92" y="876.93" width="162.88" height="6.36" rx="3.18"/><rect class="cls-11" x="489.06" y="895.17" width="96.71" height="6.36" rx="3.18"/><rect class="cls-11" x="447.24" y="876.93" width="96.71" height="6.36" rx="3.18"/><rect class="cls-11" x="904.69" y="1019.41" width="141.56" height="6.79" rx="3.39"/><rect class="cls-11" x="710.61" y="1054.85" width="141.56" height="6.79" rx="3.39"/><rect class="cls-11" x="1067.4" y="1019.41" width="70.78" height="6.79" rx="3.39"/><rect class="cls-11" x="874.86" y="1054.85" width="70.78" height="6.79" rx="3.39"/><rect class="cls-11" x="775.23" y="888.34" width="173.04" height="6.79" rx="3.39"/><rect class="cls-11" x="861.75" y="906.06" width="173.04" height="6.79" rx="3.39"/><rect class="cls-11" x="961.45" y="888.34" width="86.52" height="6.79" rx="3.39"/><rect class="cls-11" x="842.83" y="922.78" width="86.52" height="6.79" rx="3.39"/><rect class="cls-11" x="1060.9" y="888.34" width="43.26" height="6.79" rx="3.39"/><rect class="cls-11" x="943.21" y="922.78" width="43.26" height="6.79" rx="3.39"/></g></g></g></svg>