<svg id="Layer_1" data-name="Layer 1" xmlns="http://www.w3.org/2000/svg" viewBox="0 0 800 600"><defs><style>.cls-1{fill:#b4d8fa;}.cls-2{fill:#fff;}.cls-3,.cls-4{fill:#3e87cd;}.cls-4{font-size:300px;font-family:Chivo-Regular, Chivo;}</style></defs><rect class="cls-1" width="800" height="600" rx="31.42"/><circle class="cls-1" cx="432.98" cy="452.37" r="27.59"/><path class="cls-2" d="M477.64,226.11a111.94,111.94,0,0,1-2.87,24.59c-1,4.77,0,7.32,5.17,8.95a102.82,102.82,0,0,1,33.13,17.05c18.13,14.21,18.29,32.79,0,46.81a104.36,104.36,0,0,1-32.38,16.81c-5.05,1.6-6.84,3.31-5.53,9.15,3.05,13.55,3.77,27.34.85,41.14-3.66,17.33-15.94,25.17-33.07,20.93-14.4-3.56-26.27-11.76-37-21.41-5-4.55-7.64-3.48-11.95.43-9.91,9-20.89,16.45-33.93,20.43-19,5.8-32.17-2.17-36.09-21.49-2.64-13.05-1.75-26,1-38.74,1.29-6,.23-8.61-5.88-10.61-12.95-4.26-25.29-10.12-35.39-19.57-14.56-13.61-13.86-30,1.54-42.61,10.21-8.39,21.93-14.1,34.37-18.17,5.32-1.73,6.41-3.89,5.29-9.4-2.75-13.58-4.12-27.35-.78-41.14,4.48-18.48,17.28-25.81,35.56-20.15,13.24,4.09,24.48,11.76,34.67,20.81,4.23,3.75,6.26,4.48,11,.24,10.72-9.59,22.42-18,36.83-21.68,16.62-4.24,27.54,1.66,32.61,18A58.45,58.45,0,0,1,477.64,226.11Z"/><path class="cls-1" d="M400.21,259.1c18.82-5.35,27.94,5,35.85,20.22,10.79,20.77,10,19.7.85,40.82-8.58,19.87-23.15,23.07-41.46,21.67-4.6-.35-9.19-1-13.78-1-3.7,0-5.85-1.49-7.85-4.52a337,337,0,0,1-18.31-31.61c-1.67-3.23-1.76-5.92,0-9.05,5.55-9.61,11.13-19.21,16.31-29,3-5.74,7.19-8.18,13.69-7.56C390.4,259.47,395.32,259.1,400.21,259.1Z"/><path class="cls-1" d="M515.29,300.42c-.36,6.68-5,10.69-9.67,14.3-8.83,6.85-19,11.34-29.44,15.18-3.58,1.31-5.73.89-6.69-3a10.83,10.83,0,0,0-1-3.06c-10.22-16.89-7.93-33.52.72-50.15,1.24-2.39,1.18-5.43,5.33-4,12.84,4.51,25.27,9.79,35.25,19.39C512.86,292.09,515.58,295.6,515.29,300.42Z"/><path class="cls-1" d="M333.58,372.81c.17-7.66,1.76-15.05,3.11-22.49.58-3.16,1.29-4.47,5.22-3.59,8.15,1.81,16.5,2.77,24.79,3.92a8.63,8.63,0,0,1,6,3.71c5,6.77,10,13.49,16.09,19.32,2.64,2.53,2.18,4.34-.32,6.64-8.23,7.6-17.18,14.13-27.56,18.4-15.81,6.49-22.51,2.87-26-13.87C334.11,380.91,334,376.82,333.58,372.81Z"/><path class="cls-1" d="M334.07,227.63a44.52,44.52,0,0,1,1.66-17.27c2.78-10.14,8.85-13.68,19-10.81,13.07,3.7,23.7,11.58,33.8,20.31,2.74,2.37,2.36,4.07.09,6.63-5.38,6.06-10.42,12.42-15.55,18.7a10.36,10.36,0,0,1-7.42,4.22c-7.5.82-15.16,1.56-22.31,3.76-5.8,1.79-6.86-1.1-7.33-5.06C335.19,241.16,333,234.33,334.07,227.63Z"/><path class="cls-1" d="M466.14,226.3v2.06c-.17,25.9-1,26.23-25.81,22-7.87-1.32-13.64-3.85-17.57-10.76-1.45-2.56-3.64-4.7-5.53-7-8.9-10.84-8.91-10.85,2.76-19.73,7.35-5.59,15-10.6,24.08-13.13,11.47-3.2,18,.34,20.36,11.72C465.51,216.75,467,222,466.14,226.3Z"/><path class="cls-1" d="M284.81,299.71c.26-5.31,3.46-9.1,7.17-12.27,9.63-8.24,21-13.28,32.88-17.5,3.72-1.32,4.75.18,5.79,3.22,2.72,7.94,5.55,15.85,8.61,23.67a8.61,8.61,0,0,1,0,7c-3,7.55-5.9,15.15-8.51,22.84-1.05,3.08-2.26,5-5.74,3.66-13-4.92-25.88-10.07-35.75-20.42C286.58,307.06,284.57,303.88,284.81,299.71Z"/><path class="cls-1" d="M466,371.76a51.05,51.05,0,0,1-1.45,16.73c-2.94,11.39-8.55,15.26-19.65,12-13-3.84-23.7-11.67-33.63-20.65-2.38-2.16-2.09-3.74-.07-6.05,5.7-6.51,11.18-13.21,16.63-19.93a8.83,8.83,0,0,1,6.21-3.28c7.76-1,15.65-1.72,23.17-3.73,5.16-1.38,6.35.86,6.78,4.68C464.81,358.46,467.09,365.28,466,371.76Z"/><path class="cls-1" d="M386.68,352.51h26.61c-2.08,6.57-7.77,9.8-11.31,14.6-1.29,1.77-2.91.78-4.06-.55C394.24,362.33,389.49,359,386.68,352.51Z"/><path class="cls-1" d="M387.4,247.58c0-1.23-.09-1.54,0-1.72,10.39-16.79,15.07-16.59,25.15,1.08-.43.21-.86.61-1.29.61C403.41,247.59,395.54,247.58,387.4,247.58Z"/><path class="cls-1" d="M452.43,314.87c9.56,22.67,11.23,20-12.86,23.24a5,5,0,0,1,.33-1.58C443.94,329.5,448,322.48,452.43,314.87Z"/><path class="cls-1" d="M347.74,315.16c4.41,7.6,8.47,14.56,12.48,21.54.23.4.11,1,.18,1.85-1.11-.11-2.15-.14-3.16-.34C338.16,334.33,337.9,333.74,347.74,315.16Z"/><path class="cls-1" d="M347.53,285.3c-1.06-2.17-1.85-3.54-2.41-5-6-15.83-3.34-19.05,14.67-17.29a19.79,19.79,0,0,1-1.1,2.94C355.13,272.19,351.51,278.41,347.53,285.3Z"/><path class="cls-1" d="M452.38,285.11c-4.33-7.6-8.38-14.7-12.64-22.19,6.4-1.51,11.42,1.11,16.63,1.9,1.91.29,3.41,1.39,2.4,4C456.75,274,455.89,279.69,452.38,285.11Z"/><path class="cls-3" d="M423.71,300.49c-.13,12.27-11.38,23.39-23.68,23.4-12.72,0-23.81-11.31-23.69-24.16a23.69,23.69,0,0,1,47.37.76Z"/><text class="cls-4" transform="translate(152.34 378.95)">{</text><text class="cls-4" transform="translate(549.66 378.95)">}</text></svg>