<svg id="Layer_1" data-name="Layer 1" xmlns="http://www.w3.org/2000/svg" viewBox="0 0 800 600"><defs><style>.cls-1{fill:#b4d8fa;}.cls-2{fill:#fff;}.cls-3{fill:#155da1;}.cls-4{fill:#3e87cd;}.cls-5{fill:#0e4e8a;}.cls-6{fill:#2d4979;}.cls-7{fill:#7d9cd2;}.cls-8{fill:#415f94;}.cls-9{fill:#13294e;}</style></defs><rect class="cls-1" width="800" height="600" rx="31.42"/><path class="cls-2" d="M619.39,288.46c0,137.74-146.4,234-219.39,219.39-8.35-1.68-25.75-5.16-37.07-19.43-29.45-37.11,20-99.68-5.9-126.83-15.45-16.19-50.65-13.67-72.11-2.72-27.43,14-28.65,39.72-50.92,43.17-23,3.56-43.9-20.41-47-24.12C155.77,341,171,283.5,175.39,263,190.5,191.72,265.79,66.9,400,69.07,521.36,71,619.42,175.7,619.39,288.46Z"/><circle class="cls-3" cx="223.66" cy="316.74" r="27.59"/><circle class="cls-4" cx="251.25" cy="219.67" r="27.59"/><circle class="cls-5" cx="315.67" cy="147.08" r="27.59"/><circle class="cls-6" cx="400" cy="126.1" r="27.59"/><circle class="cls-7" cx="487.63" cy="159.43" r="27.59"/><circle class="cls-8" cx="547.44" cy="231.84" r="27.59"/><circle class="cls-9" cx="564.58" cy="320.63" r="27.59"/><circle class="cls-1" cx="432.98" cy="452.37" r="27.59"/><path class="cls-4" d="M359.7,197.76q6.48,50.6,13,101.19a99.09,99.09,0,0,0,33.59,62.77c27.15,23.23,56.78,30.07,72.37,21,15-8.67,24-36.07,18.23-69.5-5.22-30.17-24.58-56-51.65-70.33Z"/><path class="cls-1" d="M478.1,382.75h45.43a9.27,9.27,0,0,1,9.27,9.27v39.42a0,0,0,0,1,0,0h-64a0,0,0,0,1,0,0V392A9.27,9.27,0,0,1,478.1,382.75Z" transform="translate(-141.74 346.51) rotate(-33.72)"/><rect class="cls-1" x="505" y="424.91" width="63.98" height="72.77" transform="translate(-165.74 375.71) rotate(-33.72)"/><rect class="cls-4" x="496.21" y="378.45" width="22.1" height="48.69" transform="translate(-138.26 349.36) rotate(-33.72)"/><rect class="cls-4" x="518.32" y="370.05" width="3.06" height="48.69" transform="translate(-131.48 354.94) rotate(-33.72)"/><path class="cls-1" d="M359.7,197.76c.62,6.31,1.63,15.85,3.14,27.45,1.57,12,2.36,16.17,3.41,23.68,4.49,32.22,3,49.67,6.42,50.06,4.52.51,7.28-26.7,17.11-27.71,11.22-1.16,19.88,33.07,30.07,31.38,4.95-.83,8.35-9.78,8.78-16.67,1-16.15-14.11-25.17-10.36-33.25,2.14-4.58,8.72-6.42,13-6.26,5.81.21,7.48,4.12,15.38,8,8.91,4.37,19.17,5.54,20,3.67S458.45,249.42,453,247a66.9,66.9,0,0,1-7.81-4c-1.25-.75-2.15-1.36-2.33-1.47-4-2.43-9-4.71-34.53-18C387.8,212.77,371,203.83,359.7,197.76Z"/><path class="cls-4" d="M426.32,286.78a11.44,11.44,0,0,1-4.11,5.51,11.13,11.13,0,0,1-3.72,1.69c-3.05,1.3-5.18.6-5.31,1.32-.19,1,4,3.72,7.37,2.51,2-.7,3-2.49,3.72-3.72A21.5,21.5,0,0,0,426.32,286.78Z"/><path class="cls-4" d="M375.75,289.55c-.16-.06-1.08,4.29-3.15,4.52-1,.11-1.7-.75-1.93-.52s1,3,2.24,3C374.89,296.43,376,289.61,375.75,289.55Z"/><path class="cls-4" d="M458.7,254.31c.21-.56-3.06-2.08-2.94-2.36s7.4,1.75,7.22,3c-.15,1-5.19,1.49-9.42-.06-1.24-.45-2.48-1.1-2.41-1.33C451.32,253,458.4,255.12,458.7,254.31Z"/></svg>