<svg id="Layer_1" data-name="Layer 1" xmlns="http://www.w3.org/2000/svg" viewBox="0 0 834.37 259.75"><defs><style>.cls-1{fill:#0d3f6e;}.cls-2{fill:#415f94;}.cls-3{isolation:isolate;}</style></defs><title>bridge_full_logo</title><g id="Layer_3" data-name="Layer 3"><g id="Layer_2-2" data-name="Layer 2-2"><g id="Layer_1_Image" data-name="Layer 1 Image"><rect class="cls-1" y="42.77" width="27.31" height="143.81" rx="2.18"/><rect class="cls-1" y="159.27" width="199.96" height="27.31" rx="2.21"/><path class="cls-1" d="M15.72,183.75,5,162.09A429.43,429.43,0,0,0,114.64,84.51c23.15-22.59,40.86-50.71,55.08-73.29,2.25-3.57,4.38-7,6.41-10.12l20.35,13.05c-2,3.11-4.09,6.44-6.3,10-14.12,22.42-33.44,53.11-58.66,77.72A454,454,0,0,1,15.72,183.75Z"/><rect class="cls-2" x="118.02" width="27.31" height="259.75" rx="2.23"/><rect class="cls-2" x="172.65" width="27.31" height="259.75" rx="2.23"/><path class="cls-2" d="M120.26,159.27h77.47a2.23,2.23,0,0,1,2.27,2.19v0h0v25a.06.06,0,0,1-.06.06H118V161.5a2.23,2.23,0,0,1,2.23-2.23Z"/></g></g><g class="cls-3"><g class="cls-3"><path class="cls-1" d="M316.84,172.94v11.31H298.27V51.16h18.57v50.15C323.16,92.92,332.68,88,344.74,88c25.45,0,39.21,22.52,39.21,49.1s-13.76,49-39,49C333.05,186.13,323.16,181.52,316.84,172.94Zm48.83-35.82c0-17.43-7.92-32.7-25.36-32.7s-25.16,15.17-25.16,32.7,7.73,32.52,25.16,32.52S365.67,154.65,365.67,137.12Z"/></g><g class="cls-3"><path class="cls-1" d="M411.29,90.09h18.19v17.06c3.68-12.53,15.27-18.47,24.79-18.47,5.47,0,13,1.6,17.72,5.18l-7.44,15.27c-3.11-2.73-6.79-3.77-11.22-3.77-15.27,0-24,16.68-24,37.14v41.75h-18Z"/></g><g class="cls-3"><path class="cls-1" d="M488.61,51.07H508.5v19.6H488.61Zm.66,39h18.29v94.16H489.27Z"/><path class="cls-1" d="M616,51.07V184.25H598.6l-.66-11.78c-6.41,8.86-16.11,13.66-28.46,13.66-25.17,0-39.12-22.43-39.12-49s13.95-49,38.93-49c11.88,0,21.77,4.62,28.18,13.2V51.07Zm-17,86.05c0-17.53-7.35-32.33-25-32.33-17.43,0-25.07,14.9-25.07,32.33,0,17.63,7.64,32.24,25.07,32.24C591.63,169.36,599,154.94,599,137.12Z"/></g><g class="cls-3"><path class="cls-1" d="M727.49,197.82c0,20.64-18.1,30.26-39.59,30.26-26.11,0-42.23-14.05-42.23-33a21,21,0,0,1,.29-3.58l11.87-11.31c-6.31-3.77-10.74-9.71-10.74-19.32a21.45,21.45,0,0,1,7.82-17.06A32.61,32.61,0,0,1,647,122.14c0-20.17,16.59-33.27,36.86-33.27a39.93,39.93,0,0,1,23.37,7.06L721.45,83.3l9.9,12.26-14.51,11.5a33.26,33.26,0,0,1,3.77,15.83c0,20.55-16.31,33.27-36.39,33.27a41.83,41.83,0,0,1-17.81-3.77,7.13,7.13,0,0,0-3.49,6.32c0,8.76,12.82,10.37,26.68,12.16C708.26,173.41,727.49,176.9,727.49,197.82Zm-17,2c0-9.89-12.82-10.37-26.86-12.53-4.62-.66-9.43-1.42-14-2.55l-8,11c.95,9.14,10.94,16.87,27,16.87C700.81,212.62,710.52,208.57,710.52,199.8Zm-44.77-77.38c0,10.93,6.79,18.66,18.38,18.66s18.29-7.91,18.29-18.66c0-10.56-6.79-19.32-18.29-19.32S665.75,112,665.75,122.42Z"/></g><g class="cls-3"><path class="cls-1" d="M739.43,137.69c0-25,14.14-48.82,43-48.82,32.43,0,42,24.12,42,49.1a28.87,28.87,0,0,1-.56,5.19H758.76c.56,14.32,9,25.54,25.07,25.54,10.74,0,18.09-1.89,25.16-9.24l12.63,10.65c-10.74,11-22.24,15.27-37.6,15.27C754.14,185.38,739.43,163,739.43,137.69Zm67.3-8.39c-.66-15-8.39-24.69-24.32-24.69-15.08,0-22.43,10.93-23.65,24.69Z"/></g></g></g></svg>