<svg xmlns="http://www.w3.org/2000/svg" viewBox="0 0 834.37 259.75"><defs><style>.cls-1,.cls-3{fill:#0d3f6e;}.cls-2{fill:#415f94;}.cls-3{font-size:193.02px;font-family:HKGrotesk-Medium, HK Grotesk;font-weight:500;}.cls-4{letter-spacing:0em;}.cls-5{letter-spacing:-0.02em;}</style></defs><g id="Layer_2" data-name="Layer 2"><g id="Layer_3" data-name="Layer 3"><g id="Layer_2-2" data-name="Layer 2"><g id="Layer_1_Image" data-name="Layer 1 Image"><rect class="cls-1" y="42.77" width="27.31" height="143.81" rx="2.18"/><rect class="cls-1" y="159.27" width="199.96" height="27.31" rx="2.21"/><path class="cls-1" d="M15.72,183.75,5,162.09A429.66,429.66,0,0,0,114.64,84.51c23.15-22.59,40.86-50.71,55.08-73.29,2.25-3.57,4.38-7,6.41-10.12l20.35,13.05c-2,3.11-4.09,6.44-6.3,10-14.12,22.42-33.44,53.11-58.66,77.72A453.81,453.81,0,0,1,15.72,183.75Z"/><rect class="cls-2" x="118.02" width="27.31" height="259.75" rx="2.23"/><rect class="cls-2" x="172.65" width="27.31" height="259.75" rx="2.23"/><path class="cls-2" d="M120.26,159.27h77.47A2.23,2.23,0,0,1,200,161.5h0v25a.06.06,0,0,1-.06.06H118V161.5a2.23,2.23,0,0,1,2.23-2.23Z"/></g></g><text class="cls-3" transform="translate(283.1 184.25)">b<tspan class="cls-4" x="113.3" y="0">r</tspan><tspan x="191.28" y="0">id</tspan><tspan class="cls-5" x="353.62" y="0">g</tspan><tspan x="449.36" y="0">e</tspan></text></g></g></svg>