<svg xmlns="http://www.w3.org/2000/svg" viewBox="0 0 741.57 963.32"><defs><style>.cls-1{fill:#0d3f6e;}.cls-2{fill:#415f94;}</style></defs><g id="Layer_2" data-name="Layer 2"><g id="Layer_1_Image" data-name="Layer 1 Image"><rect class="cls-1" y="158.62" width="101.29" height="533.34" rx="8.07"/><rect class="cls-1" y="590.66" width="741.57" height="101.29" rx="8.2"/><path class="cls-1" d="M58.3,681.48,18.52,601.13A1593.87,1593.87,0,0,0,425.15,313.42C511,229.63,576.68,125.37,629.43,41.6c8.33-13.24,16.25-25.8,23.76-37.52l75.47,48.41C721.27,64,713.49,76.36,705.3,89.36c-52.35,83.15-124,197-217.54,288.24A1683.37,1683.37,0,0,1,58.3,681.48Z"/><rect class="cls-2" x="437.7" width="101.29" height="963.32" rx="8.28"/><rect class="cls-2" x="640.28" width="101.29" height="963.32" rx="8.28"/><path class="cls-2" d="M446,590.66h287.3a8.28,8.28,0,0,1,8.28,8.28v92.79a.22.22,0,0,1-.22.22H437.7a0,0,0,0,1,0,0v-93A8.28,8.28,0,0,1,446,590.66Z"/></g></g></svg>