<?xml version="1.0" encoding="UTF-8"?>
<svg width="167px" height="167px" viewBox="0 0 167 167" version="1.1" xmlns="http://www.w3.org/2000/svg" xmlns:xlink="http://www.w3.org/1999/xlink">
    <!-- Generator: Sketch 58 (84663) - https://sketch.com -->
    <title>Favicon - 167x</title>
    <desc>Created with Sketch.</desc>
    <g id="Favicon---167x" stroke="none" stroke-width="1" fill="none" fill-rule="evenodd">
        <g id="h4i-bridge-logo-copy-2" transform="translate(20.000000, 13.000000)" fill-rule="nonzero">
            <rect id="Rectangle" fill="#0D3F6E" x="0" y="24" width="17" height="80" rx="3"></rect>
            <rect id="Rectangle" fill="#0D3F6E" x="0" y="92" width="124" height="14" rx="3"></rect>
            <path d="M8.66603768,102 L2,90.0198553 C27.0997412,78.9865639 50.0938308,64.5106845 70.1400428,47.1224387 C84.5261498,34.6293918 95.5323176,19.0842781 104.371772,6.59421317 C105.767651,4.62013581 107.094826,2.74744612 108.353297,1 L121,8.2179067 C119.761639,9.93404193 118.457924,11.7769117 117.085504,13.7152052 C108.313079,26.1128285 96.3065029,43.0878063 80.6317628,56.6916445 C59.4602463,75.0570014 35.1751609,90.3464643 8.66603768,102 L8.66603768,102 Z" id="Path" fill="#0D3F6E"></path>
            <rect id="Rectangle" fill="#415F94" x="72" y="0" width="17" height="147" rx="3"></rect>
            <rect id="Rectangle" fill="#415F94" x="107" y="0" width="17" height="147" rx="3"></rect>
            <path d="M73.4202985,92 L122.583125,92 C123.365643,92 124,92.512385 124,93.1444398 L124,105.969592 C124,105.977657 123.996034,105.985391 123.988974,105.991094 C123.981914,105.996796 123.972338,106 123.962354,106 L72,106 L72,93.145822 C72,92.8415796 72.1490914,92.5497124 72.4155972,92.3347101 C72.6821029,92.1197077 73.0436305,91.9992682 73.4202985,92 Z" id="Path" fill="#415F94"></path>
        </g>
    </g>
</svg>