<?xml version="1.0" encoding="UTF-8"?>
<svg width="196px" height="196px" viewBox="0 0 196 196" version="1.1" xmlns="http://www.w3.org/2000/svg" xmlns:xlink="http://www.w3.org/1999/xlink">
    <!-- Generator: Sketch 58 (84663) - https://sketch.com -->
    <title>Favicon - 196x</title>
    <desc>Created with Sketch.</desc>
    <g id="Favicon---196x" stroke="none" stroke-width="1" fill="none" fill-rule="evenodd">
        <g id="h4i-bridge-logo-copy-5" transform="translate(19.000000, 7.000000)" fill-rule="nonzero">
            <rect id="Rectangle" fill="#0D3F6E" x="0" y="29" width="21" height="99" rx="3"></rect>
            <rect id="Rectangle" fill="#0D3F6E" x="0" y="114" width="153" height="18" rx="3"></rect>
            <path d="M10.2345171,126 L2,111.173088 C33.0055627,97.5180246 61.4100263,79.6023324 86.1729941,58.0822262 C103.944067,42.6205344 117.539922,23.3815323 128.459247,7.92353115 C130.183569,5.48036611 131.823021,3.16268084 133.377602,1 L149,9.93305285 C147.470259,12.0569826 145.859788,14.337762 144.164446,16.7366401 C133.327921,32.0802332 118.496268,53.0888692 99.133354,69.9253026 C72.9803043,92.6547047 42.9810811,111.577307 10.2345171,126 L10.2345171,126 Z" id="Path" fill="#0D3F6E"></path>
            <rect id="Rectangle" fill="#415F94" x="89" y="0" width="21" height="182" rx="3"></rect>
            <rect id="Rectangle" fill="#415F94" x="132" y="0" width="21" height="182" rx="3"></rect>
            <path d="M91.7207463,114 L151.283401,114 C152.231453,114 153,114.658781 153,115.471423 L153,131.960904 C153,131.971273 152.995195,131.981217 152.986641,131.988549 C152.978088,131.995881 152.966486,132 152.95439,132 L90,132 L90,115.4732 C90,115.082031 90.18063,114.706773 90.503512,114.430341 C90.8263939,114.15391 91.2643985,113.999059 91.7207463,114 Z" id="Path" fill="#415F94"></path>
        </g>
    </g>
</svg>