<?xml version="1.0" encoding="UTF-8"?>
<svg width="16px" height="16px" viewBox="0 0 16 16" version="1.1" xmlns="http://www.w3.org/2000/svg" xmlns:xlink="http://www.w3.org/1999/xlink">
    <!-- Generator: Sketch 58 (84663) - https://sketch.com -->
    <title>Favicon - 16x</title>
    <desc>Created with Sketch.</desc>
    <g id="Favicon---16x" stroke="none" stroke-width="1" fill="none" fill-rule="evenodd">
        <g id="h4i-bridge-logo-copy-2" transform="translate(2.000000, 2.000000)" fill-rule="nonzero">
            <rect id="Rectangle" fill="#0D3F6E" x="0" y="2" width="1" height="7" rx="0.3"></rect>
            <rect id="Rectangle" fill="#0D3F6E" x="0" y="8" width="11" height="1" rx="0.5"></rect>
            <path d="M0,7.05107765 C2.32014415,6.17715358 4.44564823,5.03054927 6.29865942,3.65326247 C7.62846763,2.6637142 8.71728672,1.52282961 9.53437913,0.53351753 C9.66341002,0.377154967 9.90465593,0.138411574 10.0209851,0 C10.1537113,0.118718891 10.2448828,0.190210959 10.2944995,0.214476203 C10.5046656,0.317258822 10.7398325,0.436338548 11,0.571715382 C10.8855296,0.707646885 10.7650182,0.85361677 10.6381559,1.00714497 C9.82725941,1.98913493 8.71740784,3.33368763 7.26848227,4.41121937 C5.31145134,5.8659011 3.06661151,7.07694766 0.616188357,8 L0,7.05107765 Z" id="Path" fill="#0D3F6E"></path>
            <path d="M6.3,0 L6.7,0 C6.86568542,-3.04359188e-17 7,0.134314575 7,0.3 L7,12.7 C7,12.8656854 6.86568542,13 6.7,13 L6.3,13 C6.13431458,13 6,12.8656854 6,12.7 L6,8.28801167 L6,8.28801167 L6,0.3 C6,0.134314575 6.13431458,-1.36097535e-16 6.3,0 Z" id="Rectangle" fill="#415F94"></path>
            <rect id="Rectangle" fill="#415F94" x="10" y="0" width="1" height="13" rx="0.3"></rect>
            <path d="M6.13656716,8 L10.863762,8 C10.9390042,8 11,8.03659893 11,8.0817457 L11,8.99782802 C11,8.99840406 10.9996186,8.99895652 10.9989398,8.99936384 C10.9982609,8.99977117 10.9973402,9 10.9963802,9 L6,9 L6,8.08184443 C6,8.06011283 6.01433572,8.03926517 6.03996127,8.02390786 C6.06558682,8.00855055 6.10034909,7.99994773 6.13656716,8 Z" id="Path" fill="#415F94"></path>
        </g>
    </g>
</svg>