<?xml version="1.0" encoding="UTF-8"?>
<svg width="32px" height="32px" viewBox="0 0 32 32" version="1.1" xmlns="http://www.w3.org/2000/svg" xmlns:xlink="http://www.w3.org/1999/xlink">
    <!-- Generator: Sketch 58 (84663) - https://sketch.com -->
    <title>Favicon - 32x</title>
    <desc>Created with Sketch.</desc>
    <g id="Favicon---32x" stroke="none" stroke-width="1" fill="none" fill-rule="evenodd">
        <g id="h4i-bridge-logo-copy" transform="translate(5.000000, 2.000000)" fill-rule="nonzero">
            <rect id="Rectangle" fill="#0D3F6E" x="0" y="4" width="3" height="16" rx="0.3"></rect>
            <rect id="Rectangle" fill="#0D3F6E" x="0" y="17" width="22" height="3" rx="1.5"></rect>
            <path d="M0,16.7463094 C4.4293661,14.6707397 8.48714661,11.9475545 12.0247134,8.67649838 C14.5634382,6.32632123 16.6420928,3.61672031 18.2019965,1.26710413 C18.4483282,0.895743048 18.9088886,0.328727487 19.1309716,0 C19.3843579,0.281957366 19.5584125,0.451751027 19.6531353,0.509380983 C20.0543617,0.753489701 20.5033166,1.03630405 21,1.35782403 C20.7814656,1.68066135 20.5513983,2.02733983 20.3092066,2.39196929 C18.7611316,4.72419545 16.642324,7.91750812 13.8761934,10.476646 C10.1400435,13.9315151 5.85444016,16.8077507 1.17635959,19 L0,16.7463094 Z" id="Path" fill="#0D3F6E"></path>
            <rect id="Rectangle" fill="#415F94" x="13" y="0" width="3" height="28" rx="0.3"></rect>
            <rect id="Rectangle" fill="#415F94" x="19" y="0" width="3" height="28" rx="0.3"></rect>
            <path d="M13.2458209,17 L21.7547716,17 C21.8902075,17 22,17.1097968 22,17.2452371 L22,19.9934841 C22,19.9952122 21.9993135,19.9968695 21.9980916,19.9980915 C21.9968697,19.9993135 21.9952123,20 21.9934843,20 L13,20 L13,17.2455333 C13,17.1803385 13.0258043,17.1177955 13.0719303,17.0717236 C13.1180563,17.0256517 13.1806284,16.9998432 13.2458209,17 Z" id="Path" fill="#415F94"></path>
        </g>
    </g>
</svg>