<svg width="550" height="589" viewBox="0 0 550 589" fill="none" xmlns="http://www.w3.org/2000/svg">
<rect width="550" height="589" fill="#FCFCFC"/>
<rect width="550" height="18" fill="#A62B31"/>
<path d="M46.2891 281.156C49.0312 281.156 50.1562 279.172 50.1562 276.875V269.961H48.9141V276.602C48.9141 278.508 48.2969 279.984 46.2891 279.984C44.2812 279.984 43.6875 278.508 43.6875 276.602V269.961H42.4531V276.953C42.4531 279.172 43.5469 281.156 46.2891 281.156ZM55.5722 281.156C56.9472 281.156 58.2675 280.344 58.2675 278.703C58.2675 275.75 54.0097 276.984 54.0097 275.18C54.0097 274.547 54.5331 274.07 55.3768 274.07C56.1972 274.07 56.7206 274.523 57.0565 275.117L57.9784 274.586C57.5253 273.789 56.6425 273.078 55.4237 273.078C54.0878 273.078 52.9393 273.922 52.9393 275.359C52.9393 278.117 57.1425 276.836 57.1425 278.875C57.1425 279.766 56.3612 280.117 55.619 280.117C54.6425 280.117 53.9237 279.508 53.6581 278.719L52.6815 279.227C53.0253 280.234 54.1034 281.156 55.5722 281.156ZM63.5974 281.094C64.8474 281.094 65.7302 280.75 66.5896 279.891L65.7927 279.25C65.1834 279.891 64.5115 280.062 63.5818 280.062C62.074 280.062 61.3006 278.875 61.3162 277.492H66.7537C66.7537 277.492 66.7927 277.289 66.7927 277.195C66.7927 275.07 66.0193 273.094 63.4646 273.094C61.2224 273.094 60.0896 275.047 60.0896 277.141C60.0896 279.266 61.2381 281.094 63.5974 281.094ZM61.3162 276.539C61.3709 275.219 62.0506 274.133 63.4646 274.133C64.9646 274.133 65.6834 275.125 65.6756 276.539H61.3162ZM75.9292 281.156C77.0386 281.156 78.1011 280.664 78.6714 279.492L78.6949 281H79.687V276.211C79.687 274.312 78.6167 273.062 76.6324 273.062C75.3433 273.062 74.3824 273.594 73.687 274.562L74.5386 275.227C74.9136 274.688 75.5855 274.078 76.7027 274.078C78.1167 274.078 78.6167 275.07 78.6167 276.539H76.8277C74.6167 276.539 73.3745 277.266 73.3745 278.828C73.3745 280.297 74.4605 281.156 75.9292 281.156ZM76.062 280.172C75.2495 280.172 74.5855 279.789 74.5855 278.859C74.5855 277.82 75.398 277.422 76.9449 277.422H78.6167C78.6167 278.68 77.6636 280.172 76.062 280.172ZM84.1889 280.141C83.8295 280.141 83.7983 279.719 83.7983 279.695V269.961H82.6264V279.422C82.6264 280.367 82.7045 281.156 83.892 281.156C84.2826 281.156 84.6889 281.078 84.9389 281V280.062C84.767 280.094 84.4545 280.141 84.1889 280.141ZM88.7532 280.141C88.3938 280.141 88.3626 279.719 88.3626 279.695V269.961H87.1907V279.422C87.1907 280.367 87.2688 281.156 88.4563 281.156C88.847 281.156 89.2532 281.078 89.5032 281V280.062C89.3313 280.094 89.0188 280.141 88.7532 280.141ZM99.0616 281.18C100.28 281.18 101.194 280.352 101.515 279.68V281H102.671V273.195H101.515V277.586C101.515 279.047 100.437 280.172 99.1788 280.172C97.8506 280.172 97.5381 278.93 97.5381 277.867V273.195H96.3741V277.82C96.3741 279.633 97.1319 281.18 99.0616 281.18ZM105.813 284.422H106.985V279.938C107.485 280.672 108.274 281.156 109.407 281.156C111.446 281.156 112.548 279.32 112.548 277.094C112.548 274.867 111.446 273.031 109.407 273.031C108.267 273.031 107.477 273.531 106.985 274.258V273.195H105.813V284.422ZM109.095 280.133C107.548 280.133 106.868 278.688 106.868 277.094C106.868 275.516 107.548 274.062 109.095 274.062C110.696 274.062 111.384 275.516 111.384 277.094C111.384 278.688 110.696 280.133 109.095 280.133ZM115.143 284.422H116.315V279.938C116.815 280.672 117.604 281.156 118.737 281.156C120.776 281.156 121.878 279.32 121.878 277.094C121.878 274.867 120.776 273.031 118.737 273.031C117.597 273.031 116.807 273.531 116.315 274.258V273.195H115.143V284.422ZM118.425 280.133C116.878 280.133 116.198 278.688 116.198 277.094C116.198 275.516 116.878 274.062 118.425 274.062C120.026 274.062 120.714 275.516 120.714 277.094C120.714 278.688 120.026 280.133 118.425 280.133ZM127.348 281.094C128.598 281.094 129.481 280.75 130.341 279.891L129.544 279.25C128.934 279.891 128.262 280.062 127.333 280.062C125.825 280.062 125.051 278.875 125.067 277.492H130.505C130.505 277.492 130.544 277.289 130.544 277.195C130.544 275.07 129.77 273.094 127.216 273.094C124.973 273.094 123.841 275.047 123.841 277.141C123.841 279.266 124.989 281.094 127.348 281.094ZM125.067 276.539C125.122 275.219 125.801 274.133 127.216 274.133C128.716 274.133 129.434 275.125 129.426 276.539H125.067ZM133.038 281H134.21V277.68C134.21 275.711 134.936 274.078 136.366 274.078C136.694 274.078 137.069 274.172 137.358 274.43L137.764 273.438C137.428 273.195 136.842 273.078 136.444 273.078C135.545 273.078 134.483 273.68 134.225 274.711V273.195H133.038V281ZM142.516 281.156C143.93 281.156 144.993 280.383 145.454 279.086L144.438 278.648C144.204 279.57 143.446 280.164 142.5 280.164C140.868 280.164 140.321 278.539 140.321 277.109C140.321 275.703 140.883 274.062 142.5 274.062C143.438 274.062 144.204 274.633 144.438 275.578L145.547 275.109C144.993 273.852 143.915 273.062 142.5 273.062C140.25 273.062 139.125 275.016 139.125 277.109C139.125 279.227 140.266 281.156 142.516 281.156ZM149.698 281.156C150.807 281.156 151.869 280.664 152.44 279.492L152.463 281H153.455V276.211C153.455 274.312 152.385 273.062 150.401 273.062C149.112 273.062 148.151 273.594 147.455 274.562L148.307 275.227C148.682 274.688 149.354 274.078 150.471 274.078C151.885 274.078 152.385 275.07 152.385 276.539H150.596C148.385 276.539 147.143 277.266 147.143 278.828C147.143 280.297 148.229 281.156 149.698 281.156ZM149.83 280.172C149.018 280.172 148.354 279.789 148.354 278.859C148.354 277.82 149.166 277.422 150.713 277.422H152.385C152.385 278.68 151.432 280.172 149.83 280.172ZM158.582 281.156C159.957 281.156 161.278 280.344 161.278 278.703C161.278 275.75 157.02 276.984 157.02 275.18C157.02 274.547 157.543 274.07 158.387 274.07C159.207 274.07 159.731 274.523 160.067 275.117L160.989 274.586C160.535 273.789 159.653 273.078 158.434 273.078C157.098 273.078 155.949 273.922 155.949 275.359C155.949 278.117 160.153 276.836 160.153 278.875C160.153 279.766 159.371 280.117 158.629 280.117C157.653 280.117 156.934 279.508 156.668 278.719L155.692 279.227C156.035 280.234 157.114 281.156 158.582 281.156ZM166.608 281.094C167.858 281.094 168.74 280.75 169.6 279.891L168.803 279.25C168.193 279.891 167.522 280.062 166.592 280.062C165.084 280.062 164.311 278.875 164.326 277.492H169.764C169.764 277.492 169.803 277.289 169.803 277.195C169.803 275.07 169.029 273.094 166.475 273.094C164.233 273.094 163.1 275.047 163.1 277.141C163.1 279.266 164.248 281.094 166.608 281.094ZM164.326 276.539C164.381 275.219 165.061 274.133 166.475 274.133C167.975 274.133 168.693 275.125 168.686 276.539H164.326ZM180.158 281.156C182.338 281.156 183.861 279.352 183.861 277.125C183.861 274.906 182.338 273.094 180.158 273.094C177.947 273.094 176.463 274.906 176.463 277.125C176.463 279.352 177.947 281.156 180.158 281.156ZM180.158 280.125C178.432 280.125 177.767 278.688 177.767 277.125C177.767 275.562 178.432 274.133 180.158 274.133C181.9 274.133 182.557 275.562 182.557 277.125C182.557 278.688 181.9 280.125 180.158 280.125ZM186.363 281H187.535V277.68C187.535 275.711 188.261 274.078 189.691 274.078C190.019 274.078 190.394 274.172 190.683 274.43L191.09 273.438C190.754 273.195 190.168 273.078 189.769 273.078C188.871 273.078 187.808 273.68 187.551 274.711V273.195H186.363V281ZM199.742 281.156C200.851 281.156 201.914 280.664 202.484 279.492L202.507 281H203.5V276.211C203.5 274.312 202.429 273.062 200.445 273.062C199.156 273.062 198.195 273.594 197.5 274.562L198.351 275.227C198.726 274.688 199.398 274.078 200.515 274.078C201.929 274.078 202.429 275.07 202.429 276.539H200.64C198.429 276.539 197.187 277.266 197.187 278.828C197.187 280.297 198.273 281.156 199.742 281.156ZM199.875 280.172C199.062 280.172 198.398 279.789 198.398 278.859C198.398 277.82 199.21 277.422 200.757 277.422H202.429C202.429 278.68 201.476 280.172 199.875 280.172ZM208.001 280.141C207.642 280.141 207.611 279.719 207.611 279.695V269.961H206.439V279.422C206.439 280.367 206.517 281.156 207.704 281.156C208.095 281.156 208.501 281.078 208.751 281V280.062C208.579 280.094 208.267 280.141 208.001 280.141ZM212.566 280.141C212.206 280.141 212.175 279.719 212.175 279.695V269.961H211.003V279.422C211.003 280.367 211.081 281.156 212.269 281.156C212.659 281.156 213.066 281.078 213.316 281V280.062C213.144 280.094 212.831 280.141 212.566 280.141ZM221.929 280.141C221.569 280.141 221.538 279.719 221.538 279.695V269.961H220.366V279.422C220.366 280.367 220.444 281.156 221.632 281.156C222.023 281.156 222.429 281.078 222.679 281V280.062C222.507 280.094 222.194 280.141 221.929 280.141ZM228.001 281.156C230.181 281.156 231.704 279.352 231.704 277.125C231.704 274.906 230.181 273.094 228.001 273.094C225.79 273.094 224.306 274.906 224.306 277.125C224.306 279.352 225.79 281.156 228.001 281.156ZM228.001 280.125C226.274 280.125 225.61 278.688 225.61 277.125C225.61 275.562 226.274 274.133 228.001 274.133C229.743 274.133 230.399 275.562 230.399 277.125C230.399 278.688 229.743 280.125 228.001 280.125ZM235.472 281.008H236.612L238.464 274.664L240.284 281H241.417L243.604 273.195H242.362L240.776 279.445L238.987 273.195H237.917L236.128 279.461L234.526 273.195H233.292L235.472 281.008ZM248.723 281.094C249.973 281.094 250.856 280.75 251.716 279.891L250.919 279.25C250.309 279.891 249.637 280.062 248.708 280.062C247.2 280.062 246.426 278.875 246.442 277.492H251.88C251.88 277.492 251.919 277.289 251.919 277.195C251.919 275.07 251.145 273.094 248.591 273.094C246.348 273.094 245.216 275.047 245.216 277.141C245.216 279.266 246.364 281.094 248.723 281.094ZM246.442 276.539C246.497 275.219 247.176 274.133 248.591 274.133C250.091 274.133 250.809 275.125 250.801 276.539H246.442ZM254.413 281H255.585V277.68C255.585 275.711 256.311 274.078 257.741 274.078C258.069 274.078 258.444 274.172 258.733 274.43L259.139 273.438C258.803 273.195 258.217 273.078 257.819 273.078C256.921 273.078 255.858 273.68 255.6 274.711V273.195H254.413V281ZM263.891 281.156C265.305 281.156 266.368 280.383 266.829 279.086L265.813 278.648C265.579 279.57 264.821 280.164 263.875 280.164C262.243 280.164 261.696 278.539 261.696 277.109C261.696 275.703 262.258 274.062 263.875 274.062C264.813 274.062 265.579 274.633 265.813 275.578L266.922 275.109C266.368 273.852 265.29 273.062 263.875 273.062C261.625 273.062 260.5 275.016 260.5 277.109C260.5 279.227 261.641 281.156 263.891 281.156ZM271.073 281.156C272.182 281.156 273.244 280.664 273.815 279.492L273.838 281H274.83V276.211C274.83 274.312 273.76 273.062 271.776 273.062C270.487 273.062 269.526 273.594 268.83 274.562L269.682 275.227C270.057 274.688 270.729 274.078 271.846 274.078C273.26 274.078 273.76 275.07 273.76 276.539H271.971C269.76 276.539 268.518 277.266 268.518 278.828C268.518 280.297 269.604 281.156 271.073 281.156ZM271.205 280.172C270.393 280.172 269.729 279.789 269.729 278.859C269.729 277.82 270.541 277.422 272.088 277.422H273.76C273.76 278.68 272.807 280.172 271.205 280.172ZM279.957 281.156C281.332 281.156 282.653 280.344 282.653 278.703C282.653 275.75 278.395 276.984 278.395 275.18C278.395 274.547 278.918 274.07 279.762 274.07C280.582 274.07 281.106 274.523 281.442 275.117L282.364 274.586C281.91 273.789 281.028 273.078 279.809 273.078C278.473 273.078 277.324 273.922 277.324 275.359C277.324 278.117 281.528 276.836 281.528 278.875C281.528 279.766 280.746 280.117 280.004 280.117C279.028 280.117 278.309 279.508 278.043 278.719L277.067 279.227C277.41 280.234 278.489 281.156 279.957 281.156ZM287.983 281.094C289.233 281.094 290.115 280.75 290.975 279.891L290.178 279.25C289.568 279.891 288.897 280.062 287.967 280.062C286.459 280.062 285.686 278.875 285.701 277.492H291.139C291.139 277.492 291.178 277.289 291.178 277.195C291.178 275.07 290.404 273.094 287.85 273.094C285.608 273.094 284.475 275.047 284.475 277.141C284.475 279.266 285.623 281.094 287.983 281.094ZM285.701 276.539C285.756 275.219 286.436 274.133 287.85 274.133C289.35 274.133 290.068 275.125 290.061 276.539H285.701ZM300.025 280.141C299.666 280.141 299.635 279.719 299.635 279.695V269.961H298.463V279.422C298.463 280.367 298.541 281.156 299.728 281.156C300.119 281.156 300.525 281.078 300.775 281V280.062C300.603 280.094 300.291 280.141 300.025 280.141ZM305.926 281.094C307.176 281.094 308.058 280.75 308.918 279.891L308.121 279.25C307.511 279.891 306.84 280.062 305.91 280.062C304.402 280.062 303.629 278.875 303.644 277.492H309.082C309.082 277.492 309.121 277.289 309.121 277.195C309.121 275.07 308.347 273.094 305.793 273.094C303.551 273.094 302.418 275.047 302.418 277.141C302.418 279.266 303.566 281.094 305.926 281.094ZM303.644 276.539C303.699 275.219 304.379 274.133 305.793 274.133C307.293 274.133 308.011 275.125 308.004 276.539H303.644ZM313.771 281.156C314.248 281.156 314.646 281.07 314.818 281V280C314.576 280.117 314.302 280.195 314.037 280.195C313.466 280.195 313.029 279.797 313.029 278.938V274.18H315.029V273.195H313.029V270.344L311.865 271.438V273.195H310.638V274.18H311.865V278.93C311.865 280.266 312.388 281.156 313.771 281.156ZM319.523 281.156C320 281.156 320.398 281.07 320.57 281V280C320.328 280.117 320.054 280.195 319.789 280.195C319.218 280.195 318.781 279.797 318.781 278.938V274.18H320.781V273.195H318.781V270.344L317.617 271.438V273.195H316.39V274.18H317.617V278.93C317.617 280.266 318.14 281.156 319.523 281.156ZM326.009 281.094C327.259 281.094 328.142 280.75 329.001 279.891L328.204 279.25C327.595 279.891 326.923 280.062 325.994 280.062C324.486 280.062 323.712 278.875 323.728 277.492H329.165C329.165 277.492 329.204 277.289 329.204 277.195C329.204 275.07 328.431 273.094 325.876 273.094C323.634 273.094 322.501 275.047 322.501 277.141C322.501 279.266 323.65 281.094 326.009 281.094ZM323.728 276.539C323.783 275.219 324.462 274.133 325.876 274.133C327.376 274.133 328.095 275.125 328.087 276.539H323.728ZM331.699 281H332.87V277.68C332.87 275.711 333.597 274.078 335.027 274.078C335.355 274.078 335.73 274.172 336.019 274.43L336.425 273.438C336.089 273.195 335.503 273.078 335.105 273.078C334.206 273.078 333.144 273.68 332.886 274.711V273.195H331.699V281ZM340.552 281.156C341.927 281.156 343.247 280.344 343.247 278.703C343.247 275.75 338.989 276.984 338.989 275.18C338.989 274.547 339.513 274.07 340.357 274.07C341.177 274.07 341.7 274.523 342.036 275.117L342.958 274.586C342.505 273.789 341.622 273.078 340.404 273.078C339.068 273.078 337.919 273.922 337.919 275.359C337.919 278.117 342.122 276.836 342.122 278.875C342.122 279.766 341.341 280.117 340.599 280.117C339.622 280.117 338.904 279.508 338.638 278.719L337.661 279.227C338.005 280.234 339.083 281.156 340.552 281.156ZM350.415 271.461H351.759V269.961H350.415V271.461ZM350.485 281H351.673V273.195H350.485V281ZM354.8 281H355.964V276.562C355.964 275.289 357.018 274.172 358.276 274.172C359.628 274.172 359.932 275.312 359.932 276.375V281H361.104V276.258C361.104 274.523 360.362 273.062 358.417 273.062C357.417 273.062 356.464 273.602 355.964 274.422V273.195H354.8V281ZM370.71 281.156C371.819 281.156 372.881 280.664 373.452 279.492L373.475 281H374.467V276.211C374.467 274.312 373.397 273.062 371.413 273.062C370.124 273.062 369.163 273.594 368.467 274.562L369.319 275.227C369.694 274.688 370.366 274.078 371.483 274.078C372.897 274.078 373.397 275.07 373.397 276.539H371.608C369.397 276.539 368.155 277.266 368.155 278.828C368.155 280.297 369.241 281.156 370.71 281.156ZM370.842 280.172C370.03 280.172 369.366 279.789 369.366 278.859C369.366 277.82 370.178 277.422 371.725 277.422H373.397C373.397 278.68 372.444 280.172 370.842 280.172ZM384.369 281.156C384.846 281.156 385.244 281.07 385.416 281V280C385.174 280.117 384.901 280.195 384.635 280.195C384.065 280.195 383.627 279.797 383.627 278.938V274.18H385.627V273.195H383.627V270.344L382.463 271.438V273.195H381.237V274.18H382.463V278.93C382.463 280.266 382.987 281.156 384.369 281.156ZM389.809 281.156C390.918 281.156 391.981 280.664 392.551 279.492L392.574 281H393.567V276.211C393.567 274.312 392.496 273.062 390.512 273.062C389.223 273.062 388.262 273.594 387.567 274.562L388.418 275.227C388.793 274.688 389.465 274.078 390.582 274.078C391.996 274.078 392.496 275.07 392.496 276.539H390.707C388.496 276.539 387.254 277.266 387.254 278.828C387.254 280.297 388.34 281.156 389.809 281.156ZM389.942 280.172C389.129 280.172 388.465 279.789 388.465 278.859C388.465 277.82 389.278 277.422 390.824 277.422H392.496C392.496 278.68 391.543 280.172 389.942 280.172ZM399.287 279.992C398.209 279.844 397.201 279.609 397.201 278.805C397.201 278.539 397.334 278.352 397.537 278.195C397.967 278.406 398.467 278.523 399.006 278.523C400.631 278.523 401.897 277.516 401.897 275.836C401.897 275.367 401.795 274.938 401.6 274.562L402.858 273.578L402.201 272.75L401.022 273.812C400.522 273.359 399.818 273.094 399.006 273.094C397.365 273.094 396.092 274.164 396.092 275.82C396.092 276.539 396.334 277.141 396.74 277.602C396.303 277.977 396.178 278.43 396.178 278.883C396.178 279.68 396.592 280.172 397.162 280.492L396.037 281.625C396.022 281.734 396.014 281.828 396.014 281.922C396.014 283.414 397.35 284.578 399.381 284.578C401.029 284.578 402.506 283.812 402.506 282.195C402.506 280.445 400.881 280.203 399.287 279.992ZM398.99 274.016C400.053 274.016 400.725 274.836 400.725 275.805C400.725 276.844 400.045 277.555 398.99 277.555C397.943 277.555 397.272 276.852 397.272 275.805C397.272 274.859 397.928 274.016 398.99 274.016ZM399.483 283.539C397.959 283.539 397.108 282.734 397.092 281.945L398.014 280.82C398.318 280.914 398.639 280.969 398.951 281.023C400.24 281.242 401.467 281.281 401.467 282.281C401.467 283.141 400.506 283.539 399.483 283.539ZM405.305 281H406.852V279.484H405.305V281Z" fill="black"/>
<path d="M47.2891 408.156C50.0312 408.156 51.1562 406.172 51.1562 403.875V396.961H49.9141V403.602C49.9141 405.508 49.2969 406.984 47.2891 406.984C45.2812 406.984 44.6875 405.508 44.6875 403.602V396.961H43.4531V403.953C43.4531 406.172 44.5469 408.156 47.2891 408.156ZM56.5722 408.156C57.9472 408.156 59.2675 407.344 59.2675 405.703C59.2675 402.75 55.0097 403.984 55.0097 402.18C55.0097 401.547 55.5331 401.07 56.3768 401.07C57.1972 401.07 57.7206 401.523 58.0565 402.117L58.9784 401.586C58.5253 400.789 57.6425 400.078 56.4237 400.078C55.0878 400.078 53.9393 400.922 53.9393 402.359C53.9393 405.117 58.1425 403.836 58.1425 405.875C58.1425 406.766 57.3612 407.117 56.619 407.117C55.6425 407.117 54.9237 406.508 54.6581 405.719L53.6815 406.227C54.0253 407.234 55.1034 408.156 56.5722 408.156ZM64.5974 408.094C65.8474 408.094 66.7302 407.75 67.5896 406.891L66.7927 406.25C66.1834 406.891 65.5115 407.062 64.5818 407.062C63.074 407.062 62.3006 405.875 62.3162 404.492H67.7537C67.7537 404.492 67.7927 404.289 67.7927 404.195C67.7927 402.07 67.0193 400.094 64.4646 400.094C62.2224 400.094 61.0896 402.047 61.0896 404.141C61.0896 406.266 62.2381 408.094 64.5974 408.094ZM62.3162 403.539C62.3709 402.219 63.0506 401.133 64.4646 401.133C65.9646 401.133 66.6834 402.125 66.6756 403.539H62.3162ZM75.0855 408H76.2652V403.547C76.2652 402.266 76.9605 401.047 78.2495 401.047C79.5933 401.047 79.898 402.266 79.898 403.344V408H81.0777V403.547C81.0777 402.266 81.773 401.047 83.0542 401.047C84.4058 401.047 84.7339 402.312 84.7339 403.375V408H85.9136V403.258C85.9136 401.523 85.1402 400.062 83.1949 400.062C82.1011 400.062 81.2652 400.617 80.773 401.633C80.3902 400.547 79.4917 400.047 78.3745 400.047C77.4136 400.047 76.5855 400.648 76.2652 401.531V400.195H75.0855V408ZM91.3529 408.18C92.5717 408.18 93.4858 407.352 93.8061 406.68V408H94.9623V400.195H93.8061V404.586C93.8061 406.047 92.7279 407.172 91.4701 407.172C90.142 407.172 89.8295 405.93 89.8295 404.867V400.195H88.6654V404.82C88.6654 406.633 89.4233 408.18 91.3529 408.18ZM99.6438 407.141C99.2845 407.141 99.2532 406.719 99.2532 406.695V396.961H98.0813V406.422C98.0813 407.367 98.1595 408.156 99.347 408.156C99.7376 408.156 100.144 408.078 100.394 408V407.062C100.222 407.094 99.9095 407.141 99.6438 407.141ZM104.81 408.156C105.286 408.156 105.685 408.07 105.857 408V407C105.614 407.117 105.341 407.195 105.075 407.195C104.505 407.195 104.068 406.797 104.068 405.938V401.18H106.068V400.195H104.068V397.344L102.903 398.438V400.195H101.677V401.18H102.903V405.93C102.903 407.266 103.427 408.156 104.81 408.156ZM108.335 398.461H109.679V396.961H108.335V398.461ZM108.405 408H109.593V400.195H108.405V408ZM112.735 411.422H113.907V406.938C114.407 407.672 115.196 408.156 116.329 408.156C118.368 408.156 119.47 406.32 119.47 404.094C119.47 401.867 118.368 400.031 116.329 400.031C115.188 400.031 114.399 400.531 113.907 401.258V400.195H112.735V411.422ZM116.017 407.133C114.47 407.133 113.79 405.688 113.79 404.094C113.79 402.516 114.47 401.062 116.017 401.062C117.618 401.062 118.306 402.516 118.306 404.094C118.306 405.688 117.618 407.133 116.017 407.133ZM123.604 407.141C123.245 407.141 123.214 406.719 123.214 406.695V396.961H122.042V406.422C122.042 407.367 122.12 408.156 123.307 408.156C123.698 408.156 124.104 408.078 124.354 408V407.062C124.182 407.094 123.87 407.141 123.604 407.141ZM129.505 408.094C130.755 408.094 131.637 407.75 132.497 406.891L131.7 406.25C131.091 406.891 130.419 407.062 129.489 407.062C127.981 407.062 127.208 405.875 127.223 404.492H132.661C132.661 404.492 132.7 404.289 132.7 404.195C132.7 402.07 131.926 400.094 129.372 400.094C127.13 400.094 125.997 402.047 125.997 404.141C125.997 406.266 127.145 408.094 129.505 408.094ZM127.223 403.539C127.278 402.219 127.958 401.133 129.372 401.133C130.872 401.133 131.591 402.125 131.583 403.539H127.223ZM141.547 407.141C141.188 407.141 141.157 406.719 141.157 406.695V396.961H139.985V406.422C139.985 407.367 140.063 408.156 141.25 408.156C141.641 408.156 142.047 408.078 142.297 408V407.062C142.125 407.094 141.813 407.141 141.547 407.141ZM144.487 398.461H145.83V396.961H144.487V398.461ZM144.557 408H145.744V400.195H144.557V408ZM148.871 408H150.035V403.562C150.035 402.289 151.09 401.172 152.348 401.172C153.699 401.172 154.004 402.312 154.004 403.375V408H155.176V403.258C155.176 401.523 154.434 400.062 152.489 400.062C151.489 400.062 150.535 400.602 150.035 401.422V400.195H148.871V408ZM161.029 408.094C162.279 408.094 163.162 407.75 164.022 406.891L163.225 406.25C162.615 406.891 161.943 407.062 161.014 407.062C159.506 407.062 158.733 405.875 158.748 404.492H164.186C164.186 404.492 164.225 404.289 164.225 404.195C164.225 402.07 163.451 400.094 160.897 400.094C158.654 400.094 157.522 402.047 157.522 404.141C157.522 406.266 158.67 408.094 161.029 408.094ZM158.748 403.539C158.803 402.219 159.483 401.133 160.897 401.133C162.397 401.133 163.115 402.125 163.108 403.539H158.748ZM168.898 408.156C170.273 408.156 171.594 407.344 171.594 405.703C171.594 402.75 167.336 403.984 167.336 402.18C167.336 401.547 167.859 401.07 168.703 401.07C169.523 401.07 170.047 401.523 170.383 402.117L171.305 401.586C170.852 400.789 169.969 400.078 168.75 400.078C167.414 400.078 166.266 400.922 166.266 402.359C166.266 405.117 170.469 403.836 170.469 405.875C170.469 406.766 169.688 407.117 168.945 407.117C167.969 407.117 167.25 406.508 166.984 405.719L166.008 406.227C166.352 407.234 167.43 408.156 168.898 408.156ZM181.894 408.156C184.074 408.156 185.597 406.352 185.597 404.125C185.597 401.906 184.074 400.094 181.894 400.094C179.683 400.094 178.199 401.906 178.199 404.125C178.199 406.352 179.683 408.156 181.894 408.156ZM181.894 407.125C180.168 407.125 179.504 405.688 179.504 404.125C179.504 402.562 180.168 401.133 181.894 401.133C183.636 401.133 184.293 402.562 184.293 404.125C184.293 405.688 183.636 407.125 181.894 407.125ZM188.466 408H189.631V401.148H191.881V400.195H189.631V398.789C189.631 398.18 190.17 397.812 190.763 397.812C191.263 397.812 191.584 398.023 191.584 398.023L191.865 397.094C191.498 396.914 191.045 396.797 190.599 396.797C189.427 396.797 188.474 397.477 188.474 398.758V400.211H187.045V401.148H188.466V408ZM200.884 408.156C201.361 408.156 201.759 408.07 201.931 408V407C201.689 407.117 201.415 407.195 201.15 407.195C200.579 407.195 200.142 406.797 200.142 405.938V401.18H202.142V400.195H200.142V397.344L198.978 398.438V400.195H197.751V401.18H198.978V405.93C198.978 407.266 199.501 408.156 200.884 408.156ZM207.37 408.094C208.62 408.094 209.503 407.75 210.363 406.891L209.566 406.25C208.956 406.891 208.284 407.062 207.355 407.062C205.847 407.062 205.074 405.875 205.089 404.492H210.527C210.527 404.492 210.566 404.289 210.566 404.195C210.566 402.07 209.792 400.094 207.238 400.094C204.995 400.094 203.863 402.047 203.863 404.141C203.863 406.266 205.011 408.094 207.37 408.094ZM205.089 403.539C205.144 402.219 205.824 401.133 207.238 401.133C208.738 401.133 209.456 402.125 209.449 403.539H205.089ZM212.122 408H213.544L215.364 405.047L217.2 408H218.583L215.989 404.062L218.583 400.195H217.2L215.364 403.086L213.544 400.195H212.122L214.755 404.062L212.122 408ZM222.937 408.156C223.413 408.156 223.812 408.07 223.983 408V407C223.741 407.117 223.468 407.195 223.202 407.195C222.632 407.195 222.194 406.797 222.194 405.938V401.18H224.194V400.195H222.194V397.344L221.03 398.438V400.195H219.804V401.18H221.03V405.93C221.03 407.266 221.554 408.156 222.937 408.156ZM232.597 408.008H233.737L235.589 401.664L237.409 408H238.542L240.729 400.195H239.487L237.901 406.445L236.112 400.195H235.042L233.253 406.461L231.651 400.195H230.417L232.597 408.008ZM242.887 398.461H244.231V396.961H242.887V398.461ZM242.958 408H244.145V400.195H242.958V408ZM249.428 408.156C249.905 408.156 250.303 408.07 250.475 408V407C250.233 407.117 249.96 407.195 249.694 407.195C249.124 407.195 248.686 406.797 248.686 405.938V401.18H250.686V400.195H248.686V397.344L247.522 398.438V400.195H246.296V401.18H247.522V405.93C247.522 407.266 248.046 408.156 249.428 408.156ZM253.04 408H254.188V403.727C254.188 402.352 255.219 401.164 256.555 401.164C257.868 401.164 258.172 402.312 258.172 403.375V408H259.352V403.188C259.352 401.523 258.602 400.062 256.727 400.062C255.719 400.062 254.711 400.617 254.188 401.477V396.961H253.04V408ZM262.237 398.461H263.58V396.961H262.237V398.461ZM262.307 408H263.494V400.195H262.307V408ZM266.621 408H267.785V403.562C267.785 402.289 268.84 401.172 270.098 401.172C271.449 401.172 271.754 402.312 271.754 403.375V408H272.926V403.258C272.926 401.523 272.184 400.062 270.239 400.062C269.239 400.062 268.285 400.602 267.785 401.422V400.195H266.621V408ZM282.531 408.156C283.641 408.156 284.703 407.664 285.273 406.492L285.297 408H286.289V403.211C286.289 401.312 285.219 400.062 283.234 400.062C281.945 400.062 280.984 400.594 280.289 401.562L281.141 402.227C281.516 401.688 282.188 401.078 283.305 401.078C284.719 401.078 285.219 402.07 285.219 403.539H283.43C281.219 403.539 279.977 404.266 279.977 405.828C279.977 407.297 281.062 408.156 282.531 408.156ZM282.664 407.172C281.852 407.172 281.188 406.789 281.188 405.859C281.188 404.82 282 404.422 283.547 404.422H285.219C285.219 405.68 284.266 407.172 282.664 407.172ZM296.215 408.156C297.59 408.156 298.91 407.344 298.91 405.703C298.91 402.75 294.652 403.984 294.652 402.18C294.652 401.547 295.176 401.07 296.019 401.07C296.84 401.07 297.363 401.523 297.699 402.117L298.621 401.586C298.168 400.789 297.285 400.078 296.066 400.078C294.73 400.078 293.582 400.922 293.582 402.359C293.582 405.117 297.785 403.836 297.785 405.875C297.785 406.766 297.004 407.117 296.261 407.117C295.285 407.117 294.566 406.508 294.301 405.719L293.324 406.227C293.668 407.234 294.746 408.156 296.215 408.156ZM301.279 398.461H302.623V396.961H301.279V398.461ZM301.349 408H302.537V400.195H301.349V408ZM305.664 408H306.828V403.562C306.828 402.289 307.882 401.172 309.14 401.172C310.492 401.172 310.796 402.312 310.796 403.375V408H311.968V403.258C311.968 401.523 311.226 400.062 309.281 400.062C308.281 400.062 307.328 400.602 306.828 401.422V400.195H305.664V408ZM317.704 406.992C316.626 406.844 315.619 406.609 315.619 405.805C315.619 405.539 315.751 405.352 315.954 405.195C316.384 405.406 316.884 405.523 317.423 405.523C319.048 405.523 320.314 404.516 320.314 402.836C320.314 402.367 320.212 401.938 320.017 401.562L321.275 400.578L320.619 399.75L319.439 400.812C318.939 400.359 318.236 400.094 317.423 400.094C315.783 400.094 314.509 401.164 314.509 402.82C314.509 403.539 314.751 404.141 315.158 404.602C314.72 404.977 314.595 405.43 314.595 405.883C314.595 406.68 315.009 407.172 315.579 407.492L314.454 408.625C314.439 408.734 314.431 408.828 314.431 408.922C314.431 410.414 315.767 411.578 317.798 411.578C319.447 411.578 320.923 410.812 320.923 409.195C320.923 407.445 319.298 407.203 317.704 406.992ZM317.408 401.016C318.47 401.016 319.142 401.836 319.142 402.805C319.142 403.844 318.462 404.555 317.408 404.555C316.361 404.555 315.689 403.852 315.689 402.805C315.689 401.859 316.345 401.016 317.408 401.016ZM317.9 410.539C316.376 410.539 315.525 409.734 315.509 408.945L316.431 407.82C316.736 407.914 317.056 407.969 317.369 408.023C318.658 408.242 319.884 408.281 319.884 409.281C319.884 410.141 318.923 410.539 317.9 410.539ZM324.769 407.141C324.409 407.141 324.378 406.719 324.378 406.695V396.961H323.206V406.422C323.206 407.367 323.284 408.156 324.472 408.156C324.863 408.156 325.269 408.078 325.519 408V407.062C325.347 407.094 325.034 407.141 324.769 407.141ZM330.669 408.094C331.919 408.094 332.802 407.75 333.661 406.891L332.864 406.25C332.255 406.891 331.583 407.062 330.654 407.062C329.146 407.062 328.372 405.875 328.388 404.492H333.825C333.825 404.492 333.864 404.289 333.864 404.195C333.864 402.07 333.091 400.094 330.536 400.094C328.294 400.094 327.161 402.047 327.161 404.141C327.161 406.266 328.31 408.094 330.669 408.094ZM328.388 403.539C328.443 402.219 329.122 401.133 330.536 401.133C332.036 401.133 332.755 402.125 332.747 403.539H328.388ZM343.313 408.156C343.79 408.156 344.188 408.07 344.36 408V407C344.118 407.117 343.845 407.195 343.579 407.195C343.009 407.195 342.571 406.797 342.571 405.938V401.18H344.571V400.195H342.571V397.344L341.407 398.438V400.195H340.181V401.18H341.407V405.93C341.407 407.266 341.931 408.156 343.313 408.156ZM349.8 408.094C351.05 408.094 351.932 407.75 352.792 406.891L351.995 406.25C351.386 406.891 350.714 407.062 349.784 407.062C348.276 407.062 347.503 405.875 347.518 404.492H352.956C352.956 404.492 352.995 404.289 352.995 404.195C352.995 402.07 352.221 400.094 349.667 400.094C347.425 400.094 346.292 402.047 346.292 404.141C346.292 406.266 347.44 408.094 349.8 408.094ZM347.518 403.539C347.573 402.219 348.253 401.133 349.667 401.133C351.167 401.133 351.886 402.125 351.878 403.539H347.518ZM354.551 408H355.973L357.794 405.047L359.63 408H361.012L358.419 404.062L361.012 400.195H359.63L357.794 403.086L355.973 400.195H354.551L357.184 404.062L354.551 408ZM365.366 408.156C365.842 408.156 366.241 408.07 366.413 408V407C366.171 407.117 365.897 407.195 365.631 407.195C365.061 407.195 364.624 406.797 364.624 405.938V401.18H366.624V400.195H364.624V397.344L363.46 398.438V400.195H362.233V401.18H363.46V405.93C363.46 407.266 363.983 408.156 365.366 408.156ZM375.315 407.141C374.955 407.141 374.924 406.719 374.924 406.695V396.961H373.752V406.422C373.752 407.367 373.83 408.156 375.018 408.156C375.409 408.156 375.815 408.078 376.065 408V407.062C375.893 407.094 375.58 407.141 375.315 407.141ZM380.168 408.156C381.278 408.156 382.34 407.664 382.91 406.492L382.934 408H383.926V403.211C383.926 401.312 382.856 400.062 380.871 400.062C379.582 400.062 378.621 400.594 377.926 401.562L378.778 402.227C379.153 401.688 379.824 401.078 380.942 401.078C382.356 401.078 382.856 402.07 382.856 403.539H381.067C378.856 403.539 377.614 404.266 377.614 405.828C377.614 407.297 378.699 408.156 380.168 408.156ZM380.301 407.172C379.489 407.172 378.824 406.789 378.824 405.859C378.824 404.82 379.637 404.422 381.184 404.422H382.856C382.856 405.68 381.903 407.172 380.301 407.172ZM390.483 408.156C392.514 408.156 393.615 406.32 393.615 404.094C393.615 401.867 392.514 400.016 390.475 400.016C389.334 400.016 388.553 400.531 388.053 401.258V396.961H386.889V408H388.053V406.938C388.553 407.672 389.342 408.156 390.483 408.156ZM390.178 407.133C388.608 407.133 387.951 405.688 387.951 404.094C387.951 402.516 388.608 401.047 390.178 401.047C391.748 401.047 392.451 402.516 392.451 404.094C392.451 405.688 391.748 407.133 390.178 407.133ZM399.094 408.094C400.344 408.094 401.227 407.75 402.086 406.891L401.289 406.25C400.68 406.891 400.008 407.062 399.078 407.062C397.57 407.062 396.797 405.875 396.812 404.492H402.25C402.25 404.492 402.289 404.289 402.289 404.195C402.289 402.07 401.516 400.094 398.961 400.094C396.719 400.094 395.586 402.047 395.586 404.141C395.586 406.266 396.734 408.094 399.094 408.094ZM396.812 403.539C396.867 402.219 397.547 401.133 398.961 401.133C400.461 401.133 401.18 402.125 401.172 403.539H396.812ZM406.338 407.141C405.978 407.141 405.947 406.719 405.947 406.695V396.961H404.775V406.422C404.775 407.367 404.853 408.156 406.041 408.156C406.432 408.156 406.838 408.078 407.088 408V407.062C406.916 407.094 406.603 407.141 406.338 407.141ZM409.855 408H411.402V406.484H409.855V408Z" fill="black"/>
<path d="M42.6797 159H43.9219V149.031L47.2266 158.039H48.5859L51.9141 149.031V159H53.1406V147.961H51.1172L47.8828 156.828L44.6953 147.961H42.6797V159ZM56.5565 149.461H57.9003V147.961H56.5565V149.461ZM56.6268 159H57.8143V151.195H56.6268V159ZM60.0037 159H61.4256L63.2459 156.047L65.0818 159H66.4646L63.8709 155.062L66.4646 151.195H65.0818L63.2459 154.086L61.4256 151.195H60.0037L62.6365 155.062L60.0037 159ZM75.6402 159.156C77.0152 159.156 78.3355 158.344 78.3355 156.703C78.3355 153.75 74.0777 154.984 74.0777 153.18C74.0777 152.547 74.6011 152.07 75.4449 152.07C76.2652 152.07 76.7886 152.523 77.1245 153.117L78.0464 152.586C77.5933 151.789 76.7105 151.078 75.4917 151.078C74.1558 151.078 73.0074 151.922 73.0074 153.359C73.0074 156.117 77.2105 154.836 77.2105 156.875C77.2105 157.766 76.4292 158.117 75.687 158.117C74.7105 158.117 73.9917 157.508 73.7261 156.719L72.7495 157.227C73.0933 158.234 74.1714 159.156 75.6402 159.156ZM80.7904 159H81.9389V154.727C81.9389 153.352 82.9701 152.164 84.3061 152.164C85.6186 152.164 85.9233 153.312 85.9233 154.375V159H87.1029V154.188C87.1029 152.523 86.3529 151.062 84.4779 151.062C83.4701 151.062 82.4623 151.617 81.9389 152.477V147.961H80.7904V159ZM91.9017 159.156C93.011 159.156 94.0735 158.664 94.6438 157.492L94.6673 159H95.6595V154.211C95.6595 152.312 94.5892 151.062 92.6048 151.062C91.3157 151.062 90.3548 151.594 89.6595 152.562L90.511 153.227C90.886 152.688 91.5579 152.078 92.6751 152.078C94.0892 152.078 94.5892 153.07 94.5892 154.539H92.8001C90.5892 154.539 89.347 155.266 89.347 156.828C89.347 158.297 90.4329 159.156 91.9017 159.156ZM92.0345 158.172C91.222 158.172 90.5579 157.789 90.5579 156.859C90.5579 155.82 91.3704 155.422 92.9173 155.422H94.5892C94.5892 156.68 93.636 158.172 92.0345 158.172ZM103.622 147.961V152.258C103.107 151.508 102.318 151.031 101.185 151.031C99.1926 151.031 98.0597 152.859 98.0597 155.094C98.0597 157.32 99.1926 159.156 101.193 159.156C102.364 159.156 103.122 158.656 103.63 157.914L103.653 159H104.794V147.961H103.622ZM101.489 158.094C99.9191 158.094 99.2472 156.688 99.2472 155.094C99.2472 153.516 99.9191 152.109 101.489 152.109C103.083 152.109 103.724 153.516 103.724 155.094C103.724 156.695 103.083 158.094 101.489 158.094ZM110.827 159.094C112.077 159.094 112.96 158.75 113.819 157.891L113.023 157.25C112.413 157.891 111.741 158.062 110.812 158.062C109.304 158.062 108.53 156.875 108.546 155.492H113.983C113.983 155.492 114.023 155.289 114.023 155.195C114.023 153.07 113.249 151.094 110.694 151.094C108.452 151.094 107.319 153.047 107.319 155.141C107.319 157.266 108.468 159.094 110.827 159.094ZM108.546 154.539C108.601 153.219 109.28 152.133 110.694 152.133C112.194 152.133 112.913 153.125 112.905 154.539H108.546ZM118.696 159.156C120.071 159.156 121.392 158.344 121.392 156.703C121.392 153.75 117.134 154.984 117.134 153.18C117.134 152.547 117.657 152.07 118.501 152.07C119.321 152.07 119.845 152.523 120.181 153.117L121.102 152.586C120.649 151.789 119.767 151.078 118.548 151.078C117.212 151.078 116.063 151.922 116.063 153.359C116.063 156.117 120.267 154.836 120.267 156.875C120.267 157.766 119.485 158.117 118.743 158.117C117.767 158.117 117.048 157.508 116.782 156.719L115.806 157.227C116.149 158.234 117.227 159.156 118.696 159.156ZM131.692 159.156C133.872 159.156 135.395 157.352 135.395 155.125C135.395 152.906 133.872 151.094 131.692 151.094C129.481 151.094 127.997 152.906 127.997 155.125C127.997 157.352 129.481 159.156 131.692 159.156ZM131.692 158.125C129.966 158.125 129.301 156.688 129.301 155.125C129.301 153.562 129.966 152.133 131.692 152.133C133.434 152.133 134.091 153.562 134.091 155.125C134.091 156.688 133.434 158.125 131.692 158.125ZM138.264 159H139.428V152.148H141.678V151.195H139.428V149.789C139.428 149.18 139.967 148.812 140.561 148.812C141.061 148.812 141.381 149.023 141.381 149.023L141.663 148.094C141.295 147.914 140.842 147.797 140.397 147.797C139.225 147.797 138.272 148.477 138.272 149.758V151.211H136.842V152.148H138.264V159ZM150.682 159.156C151.159 159.156 151.557 159.07 151.729 159V158C151.487 158.117 151.213 158.195 150.948 158.195C150.377 158.195 149.94 157.797 149.94 156.938V152.18H151.94V151.195H149.94V148.344L148.776 149.438V151.195H147.549V152.18H148.776V156.93C148.776 158.266 149.299 159.156 150.682 159.156ZM156.121 159.156C157.231 159.156 158.293 158.664 158.864 157.492L158.887 159H159.879V154.211C159.879 152.312 158.809 151.062 156.824 151.062C155.535 151.062 154.574 151.594 153.879 152.562L154.731 153.227C155.106 152.688 155.778 152.078 156.895 152.078C158.309 152.078 158.809 153.07 158.809 154.539H157.02C154.809 154.539 153.567 155.266 153.567 156.828C153.567 158.297 154.653 159.156 156.121 159.156ZM156.254 158.172C155.442 158.172 154.778 157.789 154.778 156.859C154.778 155.82 155.59 155.422 157.137 155.422H158.809C158.809 156.68 157.856 158.172 156.254 158.172ZM165.6 157.992C164.522 157.844 163.514 157.609 163.514 156.805C163.514 156.539 163.647 156.352 163.85 156.195C164.279 156.406 164.779 156.523 165.318 156.523C166.943 156.523 168.209 155.516 168.209 153.836C168.209 153.367 168.108 152.938 167.912 152.562L169.17 151.578L168.514 150.75L167.334 151.812C166.834 151.359 166.131 151.094 165.318 151.094C163.678 151.094 162.404 152.164 162.404 153.82C162.404 154.539 162.647 155.141 163.053 155.602C162.615 155.977 162.49 156.43 162.49 156.883C162.49 157.68 162.904 158.172 163.475 158.492L162.35 159.625C162.334 159.734 162.326 159.828 162.326 159.922C162.326 161.414 163.662 162.578 165.693 162.578C167.342 162.578 168.818 161.812 168.818 160.195C168.818 158.445 167.193 158.203 165.6 157.992ZM165.303 152.016C166.365 152.016 167.037 152.836 167.037 153.805C167.037 154.844 166.358 155.555 165.303 155.555C164.256 155.555 163.584 154.852 163.584 153.805C163.584 152.859 164.24 152.016 165.303 152.016ZM165.795 161.539C164.272 161.539 163.42 160.734 163.404 159.945L164.326 158.82C164.631 158.914 164.951 158.969 165.264 159.023C166.553 159.242 167.779 159.281 167.779 160.281C167.779 161.141 166.818 161.539 165.795 161.539ZM173.289 159.156C174.664 159.156 175.984 158.344 175.984 156.703C175.984 153.75 171.727 154.984 171.727 153.18C171.727 152.547 172.25 152.07 173.094 152.07C173.914 152.07 174.438 152.523 174.773 153.117L175.695 152.586C175.242 151.789 174.359 151.078 173.141 151.078C171.805 151.078 170.656 151.922 170.656 153.359C170.656 156.117 174.859 154.836 174.859 156.875C174.859 157.766 174.078 158.117 173.336 158.117C172.359 158.117 171.641 157.508 171.375 156.719L170.398 157.227C170.742 158.234 171.82 159.156 173.289 159.156ZM183.152 149.461H184.496V147.961H183.152V149.461ZM183.222 159H184.41V151.195H183.222V159ZM187.537 159H188.701V154.562C188.701 153.289 189.756 152.172 191.013 152.172C192.365 152.172 192.67 153.312 192.67 154.375V159H193.841V154.258C193.841 152.523 193.099 151.062 191.154 151.062C190.154 151.062 189.201 151.602 188.701 152.422V151.195H187.537V159ZM204.376 157.992C203.298 157.844 202.29 157.609 202.29 156.805C202.29 156.539 202.423 156.352 202.626 156.195C203.056 156.406 203.556 156.523 204.095 156.523C205.72 156.523 206.986 155.516 206.986 153.836C206.986 153.367 206.884 152.938 206.689 152.562L207.947 151.578L207.29 150.75L206.111 151.812C205.611 151.359 204.908 151.094 204.095 151.094C202.454 151.094 201.181 152.164 201.181 153.82C201.181 154.539 201.423 155.141 201.829 155.602C201.392 155.977 201.267 156.43 201.267 156.883C201.267 157.68 201.681 158.172 202.251 158.492L201.126 159.625C201.111 159.734 201.103 159.828 201.103 159.922C201.103 161.414 202.439 162.578 204.47 162.578C206.119 162.578 207.595 161.812 207.595 160.195C207.595 158.445 205.97 158.203 204.376 157.992ZM204.079 152.016C205.142 152.016 205.814 152.836 205.814 153.805C205.814 154.844 205.134 155.555 204.079 155.555C203.033 155.555 202.361 154.852 202.361 153.805C202.361 152.859 203.017 152.016 204.079 152.016ZM204.572 161.539C203.048 161.539 202.197 160.734 202.181 159.945L203.103 158.82C203.408 158.914 203.728 158.969 204.04 159.023C205.329 159.242 206.556 159.281 206.556 160.281C206.556 161.141 205.595 161.539 204.572 161.539ZM209.886 159H211.058V155.68C211.058 153.711 211.784 152.078 213.214 152.078C213.542 152.078 213.917 152.172 214.206 152.43L214.613 151.438C214.277 151.195 213.691 151.078 213.292 151.078C212.394 151.078 211.331 151.68 211.074 152.711V151.195H209.886V159ZM219.622 159.156C221.802 159.156 223.325 157.352 223.325 155.125C223.325 152.906 221.802 151.094 219.622 151.094C217.411 151.094 215.927 152.906 215.927 155.125C215.927 157.352 217.411 159.156 219.622 159.156ZM219.622 158.125C217.896 158.125 217.232 156.688 217.232 155.125C217.232 153.562 217.896 152.133 219.622 152.133C221.364 152.133 222.021 153.562 222.021 155.125C222.021 156.688 221.364 158.125 219.622 158.125ZM228.327 159.18C229.546 159.18 230.46 158.352 230.78 157.68V159H231.937V151.195H230.78V155.586C230.78 157.047 229.702 158.172 228.444 158.172C227.116 158.172 226.804 156.93 226.804 155.867V151.195H225.64V155.82C225.64 157.633 226.398 159.18 228.327 159.18ZM235.079 162.422H236.251V157.938C236.751 158.672 237.54 159.156 238.673 159.156C240.712 159.156 241.813 157.32 241.813 155.094C241.813 152.867 240.712 151.031 238.673 151.031C237.532 151.031 236.743 151.531 236.251 152.258V151.195H235.079V162.422ZM238.36 158.133C236.813 158.133 236.134 156.688 236.134 155.094C236.134 153.516 236.813 152.062 238.36 152.062C239.962 152.062 240.649 153.516 240.649 155.094C240.649 156.688 239.962 158.133 238.36 158.133ZM246.573 159.156C247.948 159.156 249.268 158.344 249.268 156.703C249.268 153.75 245.011 154.984 245.011 153.18C245.011 152.547 245.534 152.07 246.378 152.07C247.198 152.07 247.722 152.523 248.057 153.117L248.979 152.586C248.526 151.789 247.643 151.078 246.425 151.078C245.089 151.078 243.94 151.922 243.94 153.359C243.94 156.117 248.143 154.836 248.143 156.875C248.143 157.766 247.362 158.117 246.62 158.117C245.643 158.117 244.925 157.508 244.659 156.719L243.682 157.227C244.026 158.234 245.104 159.156 246.573 159.156ZM252.216 159H253.762V157.484H252.216V159Z" fill="black"/>
<rect x="134" y="196" width="102" height="28" rx="4" fill="#253E68"/>
<rect x="42" y="445" width="102" height="53" rx="4" fill="#253E68"/>
<rect x="41" y="196" width="85" height="28" rx="4" fill="#D1595F"/>
<rect x="41" y="318" width="100" height="28" rx="4" fill="#D1595F"/>
<path d="M50.6797 215H56.6406V213.867H51.9219V203.961H50.6797V215ZM58.8141 205.461H60.1578V203.961H58.8141V205.461ZM58.8844 215H60.0719V207.195H58.8844V215ZM65.9016 213.992C64.8234 213.844 63.8156 213.609 63.8156 212.805C63.8156 212.539 63.9484 212.352 64.1516 212.195C64.5813 212.406 65.0813 212.523 65.6203 212.523C67.2453 212.523 68.5109 211.516 68.5109 209.836C68.5109 209.367 68.4094 208.938 68.2141 208.562L69.4719 207.578L68.8156 206.75L67.6359 207.812C67.1359 207.359 66.4328 207.094 65.6203 207.094C63.9797 207.094 62.7063 208.164 62.7063 209.82C62.7063 210.539 62.9484 211.141 63.3547 211.602C62.9172 211.977 62.7922 212.43 62.7922 212.883C62.7922 213.68 63.2063 214.172 63.7766 214.492L62.6516 215.625C62.6359 215.734 62.6281 215.828 62.6281 215.922C62.6281 217.414 63.9641 218.578 65.9953 218.578C67.6438 218.578 69.1203 217.812 69.1203 216.195C69.1203 214.445 67.4953 214.203 65.9016 213.992ZM65.6047 208.016C66.6672 208.016 67.3391 208.836 67.3391 209.805C67.3391 210.844 66.6594 211.555 65.6047 211.555C64.5578 211.555 63.8859 210.852 63.8859 209.805C63.8859 208.859 64.5422 208.016 65.6047 208.016ZM66.0969 217.539C64.5734 217.539 63.7219 216.734 63.7063 215.945L64.6281 214.82C64.9328 214.914 65.2531 214.969 65.5656 215.023C66.8547 215.242 68.0813 215.281 68.0813 216.281C68.0813 217.141 67.1203 217.539 66.0969 217.539ZM71.3563 215H72.5047V210.727C72.5047 209.352 73.5359 208.164 74.8719 208.164C76.1844 208.164 76.4891 209.312 76.4891 210.375V215H77.6688V210.188C77.6688 208.523 76.9188 207.062 75.0438 207.062C74.0359 207.062 73.0281 207.617 72.5047 208.477V203.961H71.3563V215ZM82.7094 215.156C83.1859 215.156 83.5844 215.07 83.7563 215V214C83.5141 214.117 83.2406 214.195 82.975 214.195C82.4047 214.195 81.9672 213.797 81.9672 212.938V208.18H83.9672V207.195H81.9672V204.344L80.8031 205.438V207.195H79.5766V208.18H80.8031V212.93C80.8031 214.266 81.3266 215.156 82.7094 215.156ZM91.3141 215.016H92.5563V210.062H94.3766L97.1344 215.016H98.5797L95.5875 209.898C97.0016 209.602 97.9391 208.523 97.9391 207.039C97.9391 205.133 96.4234 203.977 94.4703 203.977H91.3141V215.016ZM92.5719 208.922V205.07H94.4859C95.7906 205.07 96.7281 205.781 96.7281 207.039C96.7281 208.227 95.8609 208.859 94.6734 208.922H92.5719ZM103.847 215.094C105.097 215.094 105.98 214.75 106.839 213.891L106.042 213.25C105.433 213.891 104.761 214.062 103.831 214.062C102.323 214.062 101.55 212.875 101.566 211.492H107.003C107.003 211.492 107.042 211.289 107.042 211.195C107.042 209.07 106.269 207.094 103.714 207.094C101.472 207.094 100.339 209.047 100.339 211.141C100.339 213.266 101.487 215.094 103.847 215.094ZM101.566 210.539C101.62 209.219 102.3 208.133 103.714 208.133C105.214 208.133 105.933 209.125 105.925 210.539H101.566ZM114.481 203.961V208.258C113.966 207.508 113.177 207.031 112.044 207.031C110.052 207.031 108.919 208.859 108.919 211.094C108.919 213.32 110.052 215.156 112.052 215.156C113.223 215.156 113.981 214.656 114.489 213.914L114.513 215H115.653V203.961H114.481ZM112.348 214.094C110.778 214.094 110.106 212.688 110.106 211.094C110.106 209.516 110.778 208.109 112.348 208.109C113.942 208.109 114.583 209.516 114.583 211.094C114.583 212.695 113.942 214.094 112.348 214.094Z" fill="white"/>
<path d="M50.6797 337H56.6406V335.867H51.9219V325.961H50.6797V337ZM59.2359 337H60.4781V325.961H59.2359V337ZM68.4953 337.156C70.3703 337.156 71.6594 336.117 72.1047 334.984L72.1203 337H73.1516V331.414H69.4563V332.391H71.9797C71.9406 334.719 70.3781 336 68.4953 336C65.8469 336 64.7609 333.875 64.7609 331.398C64.7609 329.047 65.8469 326.945 68.4641 326.945C70.0188 326.945 71.1672 327.75 71.8313 329.211L72.9641 328.719C72.1203 326.812 70.5578 325.781 68.4797 325.781C65.1281 325.781 63.5422 328.406 63.5422 331.477C63.5422 334.555 65.0969 337.156 68.4953 337.156ZM76.4422 337H77.6844V331.992H83.2547V337H84.4969V325.961H83.2547V330.953H77.6844V325.961H76.4422V337ZM90.8266 337H92.0844V326.984H95.8031V325.961H87.1V326.984H90.8266V337ZM103.142 337.016H104.384V332.062H106.205L108.963 337.016H110.408L107.416 331.898C108.83 331.602 109.767 330.523 109.767 329.039C109.767 327.133 108.252 325.977 106.298 325.977H103.142V337.016ZM104.4 330.922V327.07H106.314C107.619 327.07 108.556 327.781 108.556 329.039C108.556 330.227 107.689 330.859 106.502 330.922H104.4ZM113.136 337H120.284V335.867H114.378V331.992H119.511V330.953H114.378V327.031H120.284V325.961H113.136V337ZM123.27 337H126.067C129.63 337 131.653 335.039 131.653 331.562C131.653 327.938 129.669 325.961 126.083 325.961H123.27V337ZM124.512 335.867V327.07H126.052C128.966 327.07 130.411 328.625 130.411 331.477C130.411 334.516 128.45 335.867 125.88 335.867H124.512Z" fill="white"/>
<path d="M143.68 215H146.477C150.039 215 152.062 213.039 152.062 209.562C152.062 205.938 150.078 203.961 146.492 203.961H143.68V215ZM144.922 213.867V205.07H146.461C149.375 205.07 150.82 206.625 150.82 209.477C150.82 212.516 148.859 213.867 146.289 213.867H144.922ZM156.603 215.156C157.712 215.156 158.775 214.664 159.345 213.492L159.369 215H160.361V210.211C160.361 208.312 159.291 207.062 157.306 207.062C156.017 207.062 155.056 207.594 154.361 208.562L155.212 209.227C155.587 208.688 156.259 208.078 157.377 208.078C158.791 208.078 159.291 209.07 159.291 210.539H157.502C155.291 210.539 154.048 211.266 154.048 212.828C154.048 214.297 155.134 215.156 156.603 215.156ZM156.736 214.172C155.923 214.172 155.259 213.789 155.259 212.859C155.259 211.82 156.072 211.422 157.619 211.422H159.291C159.291 212.68 158.337 214.172 156.736 214.172ZM163.237 215H164.409V211.68C164.409 209.711 165.136 208.078 166.566 208.078C166.894 208.078 167.269 208.172 167.558 208.43L167.964 207.438C167.628 207.195 167.042 207.078 166.644 207.078C165.745 207.078 164.683 207.68 164.425 208.711V207.195H163.237V215ZM169.919 215H171.091V212.711L172.77 210.859L175.161 215H176.544L173.489 210.062L176.028 207.195H174.575L171.091 211.398V203.961H169.919V215ZM183.617 215H184.859V203.961H183.617V215ZM188.275 215H189.439V210.562C189.439 209.289 190.494 208.172 191.752 208.172C193.103 208.172 193.408 209.312 193.408 210.375V215H194.58V210.258C194.58 208.523 193.838 207.062 191.892 207.062C190.892 207.062 189.939 207.602 189.439 208.422V207.195H188.275V215ZM202.487 203.961V208.258C201.972 207.508 201.183 207.031 200.05 207.031C198.058 207.031 196.925 208.859 196.925 211.094C196.925 213.32 198.058 215.156 200.058 215.156C201.23 215.156 201.987 214.656 202.495 213.914L202.519 215H203.659V203.961H202.487ZM200.355 214.094C198.784 214.094 198.112 212.688 198.112 211.094C198.112 209.516 198.784 208.109 200.355 208.109C201.948 208.109 202.589 209.516 202.589 211.094C202.589 212.695 201.948 214.094 200.355 214.094ZM206.661 205.461H208.005V203.961H206.661V205.461ZM206.731 215H207.919V207.195H206.731V215ZM213.748 213.992C212.67 213.844 211.662 213.609 211.662 212.805C211.662 212.539 211.795 212.352 211.998 212.195C212.428 212.406 212.928 212.523 213.467 212.523C215.092 212.523 216.358 211.516 216.358 209.836C216.358 209.367 216.256 208.938 216.061 208.562L217.319 207.578L216.662 206.75L215.483 207.812C214.983 207.359 214.28 207.094 213.467 207.094C211.827 207.094 210.553 208.164 210.553 209.82C210.553 210.539 210.795 211.141 211.202 211.602C210.764 211.977 210.639 212.43 210.639 212.883C210.639 213.68 211.053 214.172 211.623 214.492L210.498 215.625C210.483 215.734 210.475 215.828 210.475 215.922C210.475 217.414 211.811 218.578 213.842 218.578C215.491 218.578 216.967 217.812 216.967 216.195C216.967 214.445 215.342 214.203 213.748 213.992ZM213.452 208.016C214.514 208.016 215.186 208.836 215.186 209.805C215.186 210.844 214.506 211.555 213.452 211.555C212.405 211.555 211.733 210.852 211.733 209.805C211.733 208.859 212.389 208.016 213.452 208.016ZM213.944 217.539C212.42 217.539 211.569 216.734 211.553 215.945L212.475 214.82C212.78 214.914 213.1 214.969 213.412 215.023C214.702 215.242 215.928 215.281 215.928 216.281C215.928 217.141 214.967 217.539 213.944 217.539ZM222.25 215.156C224.43 215.156 225.953 213.352 225.953 211.125C225.953 208.906 224.43 207.094 222.25 207.094C220.039 207.094 218.555 208.906 218.555 211.125C218.555 213.352 220.039 215.156 222.25 215.156ZM222.25 214.125C220.523 214.125 219.859 212.688 219.859 211.125C219.859 209.562 220.523 208.133 222.25 208.133C223.992 208.133 224.648 209.562 224.648 211.125C224.648 212.688 223.992 214.125 222.25 214.125Z" fill="white"/>
<path d="M52.1516 468H54.9484C58.5109 468 60.5344 466.039 60.5344 462.562C60.5344 458.938 58.55 456.961 54.9641 456.961H52.1516V468ZM53.3937 466.867V458.07H54.9328C57.8469 458.07 59.2922 459.625 59.2922 462.477C59.2922 465.516 57.3312 466.867 54.7609 466.867H53.3937ZM65.075 468.156C66.1844 468.156 67.2469 467.664 67.8172 466.492L67.8406 468H68.8328V463.211C68.8328 461.312 67.7625 460.062 65.7781 460.062C64.4891 460.062 63.5281 460.594 62.8328 461.562L63.6844 462.227C64.0594 461.688 64.7312 461.078 65.8484 461.078C67.2625 461.078 67.7625 462.07 67.7625 463.539H65.9734C63.7625 463.539 62.5203 464.266 62.5203 465.828C62.5203 467.297 63.6062 468.156 65.075 468.156ZM65.2078 467.172C64.3953 467.172 63.7312 466.789 63.7312 465.859C63.7312 464.82 64.5437 464.422 66.0906 464.422H67.7625C67.7625 465.68 66.8094 467.172 65.2078 467.172ZM71.7094 468H72.8812V464.68C72.8812 462.711 73.6078 461.078 75.0375 461.078C75.3656 461.078 75.7406 461.172 76.0297 461.43L76.4359 460.438C76.1 460.195 75.5141 460.078 75.1156 460.078C74.2172 460.078 73.1547 460.68 72.8969 461.711V460.195H71.7094V468ZM78.3906 468H79.5625V465.711L81.2422 463.859L83.6328 468H85.0156L81.9609 463.062L84.5 460.195H83.0469L79.5625 464.398V456.961H78.3906V468ZM92.0891 468H93.3312V456.961H92.0891V468ZM96.7469 468H97.9109V463.562C97.9109 462.289 98.9656 461.172 100.223 461.172C101.575 461.172 101.88 462.312 101.88 463.375V468H103.052V463.258C103.052 461.523 102.309 460.062 100.364 460.062C99.3641 460.062 98.4109 460.602 97.9109 461.422V460.195H96.7469V468ZM110.959 456.961V461.258C110.444 460.508 109.655 460.031 108.522 460.031C106.53 460.031 105.397 461.859 105.397 464.094C105.397 466.32 106.53 468.156 108.53 468.156C109.702 468.156 110.459 467.656 110.967 466.914L110.991 468H112.131V456.961H110.959ZM108.827 467.094C107.256 467.094 106.584 465.688 106.584 464.094C106.584 462.516 107.256 461.109 108.827 461.109C110.42 461.109 111.061 462.516 111.061 464.094C111.061 465.695 110.42 467.094 108.827 467.094ZM115.133 458.461H116.477V456.961H115.133V458.461ZM115.203 468H116.391V460.195H115.203V468ZM122.22 466.992C121.142 466.844 120.134 466.609 120.134 465.805C120.134 465.539 120.267 465.352 120.47 465.195C120.9 465.406 121.4 465.523 121.939 465.523C123.564 465.523 124.83 464.516 124.83 462.836C124.83 462.367 124.728 461.938 124.533 461.562L125.791 460.578L125.134 459.75L123.955 460.812C123.455 460.359 122.752 460.094 121.939 460.094C120.298 460.094 119.025 461.164 119.025 462.82C119.025 463.539 119.267 464.141 119.673 464.602C119.236 464.977 119.111 465.43 119.111 465.883C119.111 466.68 119.525 467.172 120.095 467.492L118.97 468.625C118.955 468.734 118.947 468.828 118.947 468.922C118.947 470.414 120.283 471.578 122.314 471.578C123.962 471.578 125.439 470.812 125.439 469.195C125.439 467.445 123.814 467.203 122.22 466.992ZM121.923 461.016C122.986 461.016 123.658 461.836 123.658 462.805C123.658 463.844 122.978 464.555 121.923 464.555C120.877 464.555 120.205 463.852 120.205 462.805C120.205 461.859 120.861 461.016 121.923 461.016ZM122.416 470.539C120.892 470.539 120.041 469.734 120.025 468.945L120.947 467.82C121.252 467.914 121.572 467.969 121.884 468.023C123.173 468.242 124.4 468.281 124.4 469.281C124.4 470.141 123.439 470.539 122.416 470.539ZM130.722 468.156C132.902 468.156 134.425 466.352 134.425 464.125C134.425 461.906 132.902 460.094 130.722 460.094C128.511 460.094 127.027 461.906 127.027 464.125C127.027 466.352 128.511 468.156 130.722 468.156ZM130.722 467.125C128.995 467.125 128.331 465.688 128.331 464.125C128.331 462.562 128.995 461.133 130.722 461.133C132.464 461.133 133.12 462.562 133.12 464.125C133.12 465.688 132.464 467.125 130.722 467.125ZM70.6906 488.25H71.6594C70.3937 486.602 69.7766 484.562 69.7766 482.516C69.7766 480.422 70.425 478.375 71.675 476.734H70.6672C69.3937 478.266 68.8156 480.539 68.8156 482.492C68.8156 484.273 69.5031 486.945 70.6906 488.25ZM78.5984 488.156C80.6531 488.156 82.2547 487.102 83.0906 485.203L81.95 484.711C81.3328 486.375 80.1531 487.016 78.5984 487.016C75.95 487.016 74.8641 484.875 74.8641 482.398C74.8641 480.047 75.95 477.93 78.5672 477.93C80.1219 477.93 81.4812 478.555 81.9344 480.211L83.075 479.719C82.2234 477.812 80.6375 476.781 78.5828 476.781C75.1844 476.781 73.6375 479.406 73.6375 482.477C73.6375 485.555 75.2 488.156 78.5984 488.156ZM88.5922 488.156C90.7719 488.156 92.2953 486.352 92.2953 484.125C92.2953 481.906 90.7719 480.094 88.5922 480.094C86.3812 480.094 84.8969 481.906 84.8969 484.125C84.8969 486.352 86.3812 488.156 88.5922 488.156ZM88.5922 487.125C86.8656 487.125 86.2016 485.688 86.2016 484.125C86.2016 482.562 86.8656 481.133 88.5922 481.133C90.3344 481.133 90.9906 482.562 90.9906 484.125C90.9906 485.688 90.3344 487.125 88.5922 487.125ZM96.2812 487.141C95.9219 487.141 95.8906 486.719 95.8906 486.695V476.961H94.7188V486.422C94.7188 487.367 94.7969 488.156 95.9844 488.156C96.375 488.156 96.7812 488.078 97.0312 488V487.062C96.8594 487.094 96.5469 487.141 96.2812 487.141ZM102.283 488.156C104.463 488.156 105.986 486.352 105.986 484.125C105.986 481.906 104.463 480.094 102.283 480.094C100.072 480.094 98.5875 481.906 98.5875 484.125C98.5875 486.352 100.072 488.156 102.283 488.156ZM102.283 487.125C100.556 487.125 99.8922 485.688 99.8922 484.125C99.8922 482.562 100.556 481.133 102.283 481.133C104.025 481.133 104.681 482.562 104.681 484.125C104.681 485.688 104.025 487.125 102.283 487.125ZM108.417 488H109.589V484.68C109.589 482.711 110.316 481.078 111.745 481.078C112.073 481.078 112.448 481.172 112.737 481.43L113.144 480.438C112.808 480.195 112.222 480.078 111.823 480.078C110.925 480.078 109.862 480.68 109.605 481.711V480.195H108.417V488ZM114.325 488.25H115.302C116.473 486.984 117.169 484.312 117.169 482.477C117.169 480.422 116.583 478.227 115.309 476.734H114.309C115.497 478.32 116.216 480.5 116.216 482.5C116.216 484.5 115.567 486.602 114.325 488.25Z" fill="white"/>
<rect x="291" y="318" width="92" height="28" rx="4" fill="#90E19E"/>
<rect x="244" y="196" width="61" height="28" rx="4" fill="#4C9859"/>
<rect x="149" y="318" width="134" height="28" rx="4" fill="#FFD15F"/>
<rect x="152" y="445" width="92" height="53" rx="4" fill="#46494F"/>
<path d="M158.68 337H164.641V335.867H159.922V325.961H158.68V337ZM167.236 337H168.478V325.961H167.236V337ZM176.495 337.156C178.37 337.156 179.659 336.117 180.105 334.984L180.12 337H181.152V331.414H177.456V332.391H179.98C179.941 334.719 178.378 336 176.495 336C173.847 336 172.761 333.875 172.761 331.398C172.761 329.047 173.847 326.945 176.464 326.945C178.019 326.945 179.167 327.75 179.831 329.211L180.964 328.719C180.12 326.812 178.558 325.781 176.48 325.781C173.128 325.781 171.542 328.406 171.542 331.477C171.542 334.555 173.097 337.156 176.495 337.156ZM184.442 337H185.684V331.992H191.255V337H192.497V325.961H191.255V330.953H185.684V325.961H184.442V337ZM198.827 337H200.084V326.984H203.803V325.961H195.1V326.984H198.827V337ZM214.103 337H215.306V332.68L219.494 325.961H218.064L214.705 331.445L211.345 325.961H209.908L214.103 332.68V337ZM222.027 337H229.175V335.867H223.269V331.992H228.402V330.953H223.269V327.031H229.175V325.961H222.027V337ZM232.161 337H238.122V335.867H233.403V325.961H232.161V337ZM240.717 337H246.678V335.867H241.959V325.961H240.717V337ZM253.539 337.156C256.914 337.156 258.508 334.539 258.508 331.477C258.508 328.422 256.914 325.797 253.539 325.797C250.18 325.797 248.594 328.422 248.594 331.477C248.594 334.539 250.18 337.156 253.539 337.156ZM253.539 336.016C250.883 336.016 249.805 333.844 249.805 331.477C249.805 329.117 250.883 326.945 253.539 326.945C256.227 326.945 257.305 329.117 257.305 331.477C257.305 333.844 256.227 336.016 253.539 336.016ZM263.634 337H264.994L267.689 328.594L270.33 337H271.689L274.798 325.961H273.525L270.916 335.484L268.166 326.602H267.166L264.423 335.484L261.798 325.961H260.533L263.634 337Z" fill="#201803"/>
<path d="M300.883 336.141C300.523 336.141 300.492 335.719 300.492 335.695V325.961H299.32V335.422C299.32 336.367 299.398 337.156 300.586 337.156C300.977 337.156 301.383 337.078 301.633 337V336.062C301.461 336.094 301.148 336.141 300.883 336.141ZM303.752 327.461H305.095V325.961H303.752V327.461ZM303.822 337H305.009V329.195H303.822V337ZM310.839 335.992C309.761 335.844 308.753 335.609 308.753 334.805C308.753 334.539 308.886 334.352 309.089 334.195C309.519 334.406 310.019 334.523 310.558 334.523C312.183 334.523 313.448 333.516 313.448 331.836C313.448 331.367 313.347 330.938 313.152 330.562L314.409 329.578L313.753 328.75L312.573 329.812C312.073 329.359 311.37 329.094 310.558 329.094C308.917 329.094 307.644 330.164 307.644 331.82C307.644 332.539 307.886 333.141 308.292 333.602C307.855 333.977 307.73 334.43 307.73 334.883C307.73 335.68 308.144 336.172 308.714 336.492L307.589 337.625C307.573 337.734 307.566 337.828 307.566 337.922C307.566 339.414 308.902 340.578 310.933 340.578C312.581 340.578 314.058 339.812 314.058 338.195C314.058 336.445 312.433 336.203 310.839 335.992ZM310.542 330.016C311.605 330.016 312.277 330.836 312.277 331.805C312.277 332.844 311.597 333.555 310.542 333.555C309.495 333.555 308.823 332.852 308.823 331.805C308.823 330.859 309.48 330.016 310.542 330.016ZM311.034 339.539C309.511 339.539 308.659 338.734 308.644 337.945L309.566 336.82C309.87 336.914 310.191 336.969 310.503 337.023C311.792 337.242 313.019 337.281 313.019 338.281C313.019 339.141 312.058 339.539 311.034 339.539ZM316.294 337H317.442V332.727C317.442 331.352 318.473 330.164 319.809 330.164C321.122 330.164 321.427 331.312 321.427 332.375V337H322.606V332.188C322.606 330.523 321.856 329.062 319.981 329.062C318.973 329.062 317.966 329.617 317.442 330.477V325.961H316.294V337ZM327.647 337.156C328.123 337.156 328.522 337.07 328.694 337V336C328.452 336.117 328.178 336.195 327.913 336.195C327.342 336.195 326.905 335.797 326.905 334.938V330.18H328.905V329.195H326.905V326.344L325.741 327.438V329.195H324.514V330.18H325.741V334.93C325.741 336.266 326.264 337.156 327.647 337.156ZM338.673 335.992C337.595 335.844 336.588 335.609 336.588 334.805C336.588 334.539 336.72 334.352 336.923 334.195C337.353 334.406 337.853 334.523 338.392 334.523C340.017 334.523 341.283 333.516 341.283 331.836C341.283 331.367 341.181 330.938 340.986 330.562L342.244 329.578L341.588 328.75L340.408 329.812C339.908 329.359 339.205 329.094 338.392 329.094C336.752 329.094 335.478 330.164 335.478 331.82C335.478 332.539 335.72 333.141 336.127 333.602C335.689 333.977 335.564 334.43 335.564 334.883C335.564 335.68 335.978 336.172 336.548 336.492L335.423 337.625C335.408 337.734 335.4 337.828 335.4 337.922C335.4 339.414 336.736 340.578 338.767 340.578C340.416 340.578 341.892 339.812 341.892 338.195C341.892 336.445 340.267 336.203 338.673 335.992ZM338.377 330.016C339.439 330.016 340.111 330.836 340.111 331.805C340.111 332.844 339.431 333.555 338.377 333.555C337.33 333.555 336.658 332.852 336.658 331.805C336.658 330.859 337.314 330.016 338.377 330.016ZM338.869 339.539C337.345 339.539 336.494 338.734 336.478 337.945L337.4 336.82C337.705 336.914 338.025 336.969 338.338 337.023C339.627 337.242 340.853 337.281 340.853 338.281C340.853 339.141 339.892 339.539 338.869 339.539ZM344.112 337H345.284V333.68C345.284 331.711 346.011 330.078 347.441 330.078C347.769 330.078 348.144 330.172 348.433 330.43L348.839 329.438C348.503 329.195 347.917 329.078 347.519 329.078C346.62 329.078 345.558 329.68 345.3 330.711V329.195H344.112V337ZM353.606 337.094C354.856 337.094 355.739 336.75 356.598 335.891L355.802 335.25C355.192 335.891 354.52 336.062 353.591 336.062C352.083 336.062 351.309 334.875 351.325 333.492H356.763C356.763 333.492 356.802 333.289 356.802 333.195C356.802 331.07 356.028 329.094 353.473 329.094C351.231 329.094 350.098 331.047 350.098 333.141C350.098 335.266 351.247 337.094 353.606 337.094ZM351.325 332.539C351.38 331.219 352.059 330.133 353.473 330.133C354.973 330.133 355.692 331.125 355.684 332.539H351.325ZM362.116 337.094C363.366 337.094 364.248 336.75 365.108 335.891L364.311 335.25C363.702 335.891 363.03 336.062 362.1 336.062C360.592 336.062 359.819 334.875 359.834 333.492H365.272C365.272 333.492 365.311 333.289 365.311 333.195C365.311 331.07 364.537 329.094 361.983 329.094C359.741 329.094 358.608 331.047 358.608 333.141C358.608 335.266 359.756 337.094 362.116 337.094ZM359.834 332.539C359.889 331.219 360.569 330.133 361.983 330.133C363.483 330.133 364.202 331.125 364.194 332.539H359.834ZM367.734 337H368.898V332.562C368.898 331.289 369.953 330.172 371.211 330.172C372.562 330.172 372.867 331.312 372.867 332.375V337H374.039V332.258C374.039 330.523 373.297 329.062 371.352 329.062C370.352 329.062 369.398 329.602 368.898 330.422V329.195H367.734V337Z" fill="#031D07"/>
<path d="M257.93 215.156C259.805 215.156 261.094 214.117 261.539 212.984L261.555 215H262.586V209.414H258.891V210.391H261.414C261.375 212.719 259.812 214 257.93 214C255.281 214 254.195 211.875 254.195 209.398C254.195 207.047 255.281 204.945 257.898 204.945C259.453 204.945 260.602 205.75 261.266 207.211L262.398 206.719C261.555 204.812 259.992 203.781 257.914 203.781C254.562 203.781 252.977 206.406 252.977 209.477C252.977 212.555 254.531 215.156 257.93 215.156ZM265.525 215H266.697V211.68C266.697 209.711 267.423 208.078 268.853 208.078C269.181 208.078 269.556 208.172 269.845 208.43L270.252 207.438C269.916 207.195 269.33 207.078 268.931 207.078C268.033 207.078 266.97 207.68 266.712 208.711V207.195H265.525V215ZM275.019 215.094C276.269 215.094 277.152 214.75 278.011 213.891L277.214 213.25C276.605 213.891 275.933 214.062 275.003 214.062C273.495 214.062 272.722 212.875 272.737 211.492H278.175C278.175 211.492 278.214 211.289 278.214 211.195C278.214 209.07 277.441 207.094 274.886 207.094C272.644 207.094 271.511 209.047 271.511 211.141C271.511 213.266 272.659 215.094 275.019 215.094ZM272.737 210.539C272.792 209.219 273.472 208.133 274.886 208.133C276.386 208.133 277.105 209.125 277.097 210.539H272.737ZM283.528 215.094C284.778 215.094 285.661 214.75 286.52 213.891L285.723 213.25C285.114 213.891 284.442 214.062 283.513 214.062C282.005 214.062 281.231 212.875 281.247 211.492H286.684C286.684 211.492 286.723 211.289 286.723 211.195C286.723 209.07 285.95 207.094 283.395 207.094C281.153 207.094 280.02 209.047 280.02 211.141C280.02 213.266 281.169 215.094 283.528 215.094ZM281.247 210.539C281.302 209.219 281.981 208.133 283.395 208.133C284.895 208.133 285.614 209.125 285.606 210.539H281.247ZM289.147 215H290.311V210.562C290.311 209.289 291.366 208.172 292.623 208.172C293.975 208.172 294.28 209.312 294.28 210.375V215H295.452V210.258C295.452 208.523 294.709 207.062 292.764 207.062C291.764 207.062 290.811 207.602 290.311 208.422V207.195H289.147V215Z" fill="white"/>
<path d="M162.005 468H164.802C168.364 468 170.388 466.039 170.388 462.562C170.388 458.938 168.403 456.961 164.817 456.961H162.005V468ZM163.247 466.867V458.07H164.786C167.7 458.07 169.145 459.625 169.145 462.477C169.145 465.516 167.184 466.867 164.614 466.867H163.247ZM174.928 468.156C176.038 468.156 177.1 467.664 177.67 466.492L177.694 468H178.686V463.211C178.686 461.312 177.616 460.062 175.631 460.062C174.342 460.062 173.381 460.594 172.686 461.562L173.538 462.227C173.913 461.688 174.584 461.078 175.702 461.078C177.116 461.078 177.616 462.07 177.616 463.539H175.827C173.616 463.539 172.373 464.266 172.373 465.828C172.373 467.297 173.459 468.156 174.928 468.156ZM175.061 467.172C174.248 467.172 173.584 466.789 173.584 465.859C173.584 464.82 174.397 464.422 175.944 464.422H177.616C177.616 465.68 176.663 467.172 175.061 467.172ZM181.562 468H182.734V464.68C182.734 462.711 183.461 461.078 184.891 461.078C185.219 461.078 185.594 461.172 185.883 461.43L186.289 460.438C185.953 460.195 185.367 460.078 184.969 460.078C184.07 460.078 183.008 460.68 182.75 461.711V460.195H181.562V468ZM188.244 468H189.416V465.711L191.095 463.859L193.486 468H194.869L191.814 463.062L194.353 460.195H192.9L189.416 464.398V456.961H188.244V468ZM206.192 468.156C208.067 468.156 209.356 467.117 209.802 465.984L209.817 468H210.848V462.414H207.153V463.391H209.677C209.638 465.719 208.075 467 206.192 467C203.544 467 202.458 464.875 202.458 462.398C202.458 460.047 203.544 457.945 206.161 457.945C207.716 457.945 208.864 458.75 209.528 460.211L210.661 459.719C209.817 457.812 208.255 456.781 206.177 456.781C202.825 456.781 201.239 459.406 201.239 462.477C201.239 465.555 202.794 468.156 206.192 468.156ZM213.788 468H214.959V464.68C214.959 462.711 215.686 461.078 217.116 461.078C217.444 461.078 217.819 461.172 218.108 461.43L218.514 460.438C218.178 460.195 217.592 460.078 217.194 460.078C216.295 460.078 215.233 460.68 214.975 461.711V460.195H213.788V468ZM223.281 468.094C224.531 468.094 225.414 467.75 226.273 466.891L225.477 466.25C224.867 466.891 224.195 467.062 223.266 467.062C221.758 467.062 220.984 465.875 221 464.492H226.438C226.438 464.492 226.477 464.289 226.477 464.195C226.477 462.07 225.703 460.094 223.148 460.094C220.906 460.094 219.773 462.047 219.773 464.141C219.773 466.266 220.922 468.094 223.281 468.094ZM221 463.539C221.055 462.219 221.734 461.133 223.148 461.133C224.648 461.133 225.367 462.125 225.359 463.539H221ZM229.548 471.359H230.775L234.955 460.195H233.681L231.462 466.578L229.173 460.195H227.884L230.884 467.961L229.548 471.359ZM175.691 488.25H176.659C175.394 486.602 174.777 484.562 174.777 482.516C174.777 480.422 175.425 478.375 176.675 476.734H175.667C174.394 478.266 173.816 480.539 173.816 482.492C173.816 484.273 174.503 486.945 175.691 488.25ZM183.598 488.156C185.653 488.156 187.255 487.102 188.091 485.203L186.95 484.711C186.333 486.375 185.153 487.016 183.598 487.016C180.95 487.016 179.864 484.875 179.864 482.398C179.864 480.047 180.95 477.93 183.567 477.93C185.122 477.93 186.481 478.555 186.934 480.211L188.075 479.719C187.223 477.812 185.637 476.781 183.583 476.781C180.184 476.781 178.637 479.406 178.637 482.477C178.637 485.555 180.2 488.156 183.598 488.156ZM193.592 488.156C195.772 488.156 197.295 486.352 197.295 484.125C197.295 481.906 195.772 480.094 193.592 480.094C191.381 480.094 189.897 481.906 189.897 484.125C189.897 486.352 191.381 488.156 193.592 488.156ZM193.592 487.125C191.866 487.125 191.202 485.688 191.202 484.125C191.202 482.562 191.866 481.133 193.592 481.133C195.334 481.133 195.991 482.562 195.991 484.125C195.991 485.688 195.334 487.125 193.592 487.125ZM201.281 487.141C200.922 487.141 200.891 486.719 200.891 486.695V476.961H199.719V486.422C199.719 487.367 199.797 488.156 200.984 488.156C201.375 488.156 201.781 488.078 202.031 488V487.062C201.859 487.094 201.547 487.141 201.281 487.141ZM207.283 488.156C209.463 488.156 210.986 486.352 210.986 484.125C210.986 481.906 209.463 480.094 207.283 480.094C205.072 480.094 203.588 481.906 203.588 484.125C203.588 486.352 205.072 488.156 207.283 488.156ZM207.283 487.125C205.556 487.125 204.892 485.688 204.892 484.125C204.892 482.562 205.556 481.133 207.283 481.133C209.025 481.133 209.681 482.562 209.681 484.125C209.681 485.688 209.025 487.125 207.283 487.125ZM213.417 488H214.589V484.68C214.589 482.711 215.316 481.078 216.745 481.078C217.073 481.078 217.448 481.172 217.737 481.43L218.144 480.438C217.808 480.195 217.222 480.078 216.823 480.078C215.925 480.078 214.862 480.68 214.605 481.711V480.195H213.417V488ZM219.325 488.25H220.302C221.473 486.984 222.169 484.312 222.169 482.477C222.169 480.422 221.583 478.227 220.309 476.734H219.309C220.497 478.32 221.216 480.5 221.216 482.5C221.216 484.5 220.567 486.602 219.325 488.25Z" fill="white"/>
<path d="M94.9541 83.3047C95.7354 83.3047 96.4922 83.1338 97.2246 82.792C97.9668 82.4502 98.6211 81.9814 99.1875 81.3857C99.7637 80.7803 100.228 80.0674 100.579 79.2471C100.931 78.4268 101.106 77.5283 101.106 76.5518C101.106 75.5752 100.931 74.6768 100.579 73.8564C100.228 73.0361 99.7637 72.3281 99.1875 71.7324C98.6211 71.127 97.9668 70.6533 97.2246 70.3115C96.4922 69.9697 95.7354 69.7988 94.9541 69.7988H92.0977V83.3047H94.9541ZM89.2559 86V67.1035H94.9541C96.1553 67.1035 97.2979 67.3477 98.3818 67.8359C99.4756 68.3242 100.433 68.998 101.253 69.8574C102.073 70.7168 102.728 71.7178 103.216 72.8604C103.704 74.0029 103.948 75.2334 103.948 76.5518C103.948 77.8701 103.704 79.1006 103.216 80.2432C102.728 81.3857 102.073 82.3867 101.253 83.2461C100.433 84.1055 99.4756 84.7793 98.3818 85.2676C97.2979 85.7559 96.1553 86 94.9541 86H89.2559ZM123.189 76.5518C123.189 75.5361 123.014 74.5986 122.662 73.7393C122.311 72.8701 121.852 72.123 121.285 71.498C120.719 70.8633 120.064 70.375 119.322 70.0332C118.58 69.6816 117.818 69.5059 117.037 69.5059C116.256 69.5059 115.494 69.6816 114.752 70.0332C114.02 70.375 113.365 70.8633 112.789 71.498C112.223 72.123 111.764 72.8652 111.412 73.7246C111.061 74.584 110.885 75.5264 110.885 76.5518C110.885 77.5674 111.061 78.5049 111.412 79.3643C111.764 80.2236 112.223 80.9707 112.789 81.6055C113.365 82.2305 114.02 82.7188 114.752 83.0703C115.494 83.4219 116.256 83.5977 117.037 83.5977C117.818 83.5977 118.58 83.4219 119.322 83.0703C120.064 82.7188 120.719 82.2305 121.285 81.6055C121.852 80.9707 122.311 80.2236 122.662 79.3643C123.014 78.5049 123.189 77.5674 123.189 76.5518ZM126.031 76.5518C126.031 77.9092 125.787 79.1689 125.299 80.3311C124.811 81.4932 124.156 82.5088 123.336 83.3779C122.516 84.2471 121.559 84.9258 120.465 85.4141C119.381 85.9023 118.238 86.1465 117.037 86.1465C115.836 86.1465 114.688 85.9023 113.595 85.4141C112.511 84.9258 111.559 84.2471 110.738 83.3779C109.918 82.5088 109.264 81.4932 108.775 80.3311C108.287 79.1689 108.043 77.9092 108.043 76.5518C108.043 75.2139 108.287 73.959 108.775 72.7871C109.264 71.6152 109.918 70.5947 110.738 69.7256C111.559 68.8564 112.511 68.1777 113.595 67.6895C114.688 67.2012 115.836 66.957 117.037 66.957C118.238 66.957 119.381 67.2012 120.465 67.6895C121.559 68.1777 122.516 68.8564 123.336 69.7256C124.156 70.5947 124.811 71.6152 125.299 72.7871C125.787 73.959 126.031 75.2139 126.031 76.5518ZM145.741 67.1035V86H143.339L134.184 72.4941V86H131.342V67.1035H133.729L142.885 80.5947V67.1035H145.741ZM152.531 66.957C152.99 66.957 153.381 67.1279 153.703 67.4697C154.025 67.8018 154.187 68.2266 154.187 68.7441C154.187 69.5059 154.06 70.1553 153.806 70.6924C153.562 71.2197 153.288 71.6543 152.985 71.9961C152.624 72.3965 152.224 72.7139 151.784 72.9482L151.33 72.3477C151.525 72.2109 151.716 72.0303 151.901 71.8057C152.058 71.6299 152.204 71.415 152.341 71.1611C152.487 70.8975 152.6 70.5947 152.678 70.2529C152.16 70.2529 151.73 70.0918 151.389 69.7695C151.047 69.4473 150.876 69.0566 150.876 68.5977C150.876 68.1387 151.037 67.7529 151.359 67.4404C151.682 67.1182 152.072 66.957 152.531 66.957ZM157.534 67.1035H171.787V69.7988H166.074V86H163.232V69.7988H157.534V67.1035Z" fill="black"/>
<path fill-rule="evenodd" clip-rule="evenodd" d="M53 90C60.732 90 67 83.732 67 76C67 68.268 60.732 62 53 62C45.268 62 39 68.268 39 76C39 83.732 45.268 90 53 90Z" fill="#FFBCBF" stroke="#A62B31" stroke-width="2"/>
<path d="M55.8 76L59.4 72.4C60.2 71.6 60.2 70.4 59.4 69.6C58.6 68.8 57.4 68.8 56.6 69.6L53 73.2L49.4 69.6C48.6 68.8 47.4 68.8 46.6 69.6C45.8 70.4 45.8 71.6 46.6 72.4L50.2 76L46.6 79.6C45.8 80.4 45.8 81.6 46.6 82.4C47 82.8 47.5 83 48 83C48.5 83 49 82.8 49.4 82.4L53 78.8L56.6 82.4C57 82.8 57.5 83 58 83C58.5 83 59 82.8 59.4 82.4C60.2 81.6 60.2 80.4 59.4 79.6L55.8 76Z" fill="#A62B31"/>
</svg>
