<svg width="552" height="445" viewBox="0 0 552 445" fill="none" xmlns="http://www.w3.org/2000/svg">
<rect x="2" y="5" width="550" height="440" fill="#FCFCFC"/>
<rect width="550" height="18" fill="#4C9859"/>
<rect x="251" y="196" width="102" height="28" rx="4" fill="#90E19E"/>
<path d="M50.2891 159.156C53.0312 159.156 54.1562 157.172 54.1562 154.875V147.961H52.9141V154.602C52.9141 156.508 52.2969 157.984 50.2891 157.984C48.2812 157.984 47.6875 156.508 47.6875 154.602V147.961H46.4531V154.953C46.4531 157.172 47.5469 159.156 50.2891 159.156ZM59.5722 159.156C60.9472 159.156 62.2675 158.344 62.2675 156.703C62.2675 153.75 58.0097 154.984 58.0097 153.18C58.0097 152.547 58.5331 152.07 59.3768 152.07C60.1972 152.07 60.7206 152.523 61.0565 153.117L61.9784 152.586C61.5253 151.789 60.6425 151.078 59.4237 151.078C58.0878 151.078 56.9393 151.922 56.9393 153.359C56.9393 156.117 61.1425 154.836 61.1425 156.875C61.1425 157.766 60.3612 158.117 59.619 158.117C58.6425 158.117 57.9237 157.508 57.6581 156.719L56.6815 157.227C57.0253 158.234 58.1034 159.156 59.5722 159.156ZM67.5974 159.094C68.8474 159.094 69.7302 158.75 70.5896 157.891L69.7927 157.25C69.1834 157.891 68.5115 158.062 67.5818 158.062C66.074 158.062 65.3006 156.875 65.3162 155.492H70.7537C70.7537 155.492 70.7927 155.289 70.7927 155.195C70.7927 153.07 70.0193 151.094 67.4646 151.094C65.2224 151.094 64.0896 153.047 64.0896 155.141C64.0896 157.266 65.2381 159.094 67.5974 159.094ZM65.3162 154.539C65.3709 153.219 66.0506 152.133 67.4646 152.133C68.9646 152.133 69.6834 153.125 69.6756 154.539H65.3162ZM80.2417 159.156C80.7183 159.156 81.1167 159.07 81.2886 159V158C81.0464 158.117 80.773 158.195 80.5074 158.195C79.937 158.195 79.4995 157.797 79.4995 156.938V152.18H81.4995V151.195H79.4995V148.344L78.3355 149.438V151.195H77.1089V152.18H78.3355V156.93C78.3355 158.266 78.8589 159.156 80.2417 159.156ZM83.8529 159H85.0014V154.727C85.0014 153.352 86.0326 152.164 87.3686 152.164C88.6811 152.164 88.9858 153.312 88.9858 154.375V159H90.1654V154.188C90.1654 152.523 89.4154 151.062 87.5404 151.062C86.5326 151.062 85.5248 151.617 85.0014 152.477V147.961H83.8529V159ZM96.011 159.094C97.261 159.094 98.1438 158.75 99.0032 157.891L98.2063 157.25C97.597 157.891 96.9251 158.062 95.9954 158.062C94.4876 158.062 93.7142 156.875 93.7298 155.492H99.1673C99.1673 155.492 99.2063 155.289 99.2063 155.195C99.2063 153.07 98.4329 151.094 95.8782 151.094C93.636 151.094 92.5032 153.047 92.5032 155.141C92.5032 157.266 93.6517 159.094 96.011 159.094ZM93.7298 154.539C93.7845 153.219 94.4642 152.133 95.8782 152.133C97.3782 152.133 98.097 153.125 98.0892 154.539H93.7298ZM108.679 159.156C110.054 159.156 111.374 158.344 111.374 156.703C111.374 153.75 107.116 154.984 107.116 153.18C107.116 152.547 107.64 152.07 108.483 152.07C109.304 152.07 109.827 152.523 110.163 153.117L111.085 152.586C110.632 151.789 109.749 151.078 108.53 151.078C107.194 151.078 106.046 151.922 106.046 153.359C106.046 156.117 110.249 154.836 110.249 156.875C110.249 157.766 109.468 158.117 108.726 158.117C107.749 158.117 107.03 157.508 106.765 156.719L105.788 157.227C106.132 158.234 107.21 159.156 108.679 159.156ZM115.657 159.156C116.767 159.156 117.829 158.664 118.399 157.492L118.423 159H119.415V154.211C119.415 152.312 118.345 151.062 116.36 151.062C115.071 151.062 114.11 151.594 113.415 152.562L114.267 153.227C114.642 152.688 115.313 152.078 116.431 152.078C117.845 152.078 118.345 153.07 118.345 154.539H116.556C114.345 154.539 113.102 155.266 113.102 156.828C113.102 158.297 114.188 159.156 115.657 159.156ZM115.79 158.172C114.977 158.172 114.313 157.789 114.313 156.859C114.313 155.82 115.126 155.422 116.673 155.422H118.345C118.345 156.68 117.392 158.172 115.79 158.172ZM122.362 159H123.542V154.547C123.542 153.266 124.237 152.047 125.526 152.047C126.87 152.047 127.175 153.266 127.175 154.344V159H128.354V154.547C128.354 153.266 129.05 152.047 130.331 152.047C131.682 152.047 132.011 153.312 132.011 154.375V159H133.19V154.258C133.19 152.523 132.417 151.062 130.472 151.062C129.378 151.062 128.542 151.617 128.05 152.633C127.667 151.547 126.768 151.047 125.651 151.047C124.69 151.047 123.862 151.648 123.542 152.531V151.195H122.362V159ZM139.02 159.094C140.27 159.094 141.153 158.75 142.012 157.891L141.216 157.25C140.606 157.891 139.934 158.062 139.005 158.062C137.497 158.062 136.723 156.875 136.739 155.492H142.176C142.176 155.492 142.216 155.289 142.216 155.195C142.216 153.07 141.442 151.094 138.887 151.094C136.645 151.094 135.512 153.047 135.512 155.141C135.512 157.266 136.661 159.094 139.02 159.094ZM136.739 154.539C136.794 153.219 137.473 152.133 138.887 152.133C140.387 152.133 141.106 153.125 141.098 154.539H136.739ZM151.688 159.156C153.063 159.156 154.383 158.344 154.383 156.703C154.383 153.75 150.125 154.984 150.125 153.18C150.125 152.547 150.649 152.07 151.493 152.07C152.313 152.07 152.836 152.523 153.172 153.117L154.094 152.586C153.641 151.789 152.758 151.078 151.54 151.078C150.204 151.078 149.055 151.922 149.055 153.359C149.055 156.117 153.258 154.836 153.258 156.875C153.258 157.766 152.477 158.117 151.735 158.117C150.758 158.117 150.04 157.508 149.774 156.719L148.797 157.227C149.141 158.234 150.219 159.156 151.688 159.156ZM156.838 159H157.987V154.727C157.987 153.352 159.018 152.164 160.354 152.164C161.666 152.164 161.971 153.312 161.971 154.375V159H163.151V154.188C163.151 152.523 162.401 151.062 160.526 151.062C159.518 151.062 158.51 151.617 157.987 152.477V147.961H156.838V159ZM167.949 159.156C169.059 159.156 170.121 158.664 170.692 157.492L170.715 159H171.707V154.211C171.707 152.312 170.637 151.062 168.653 151.062C167.364 151.062 166.403 151.594 165.707 152.562L166.559 153.227C166.934 152.688 167.606 152.078 168.723 152.078C170.137 152.078 170.637 153.07 170.637 154.539H168.848C166.637 154.539 165.395 155.266 165.395 156.828C165.395 158.297 166.481 159.156 167.949 159.156ZM168.082 158.172C167.27 158.172 166.606 157.789 166.606 156.859C166.606 155.82 167.418 155.422 168.965 155.422H170.637C170.637 156.68 169.684 158.172 168.082 158.172ZM179.67 147.961V152.258C179.154 151.508 178.365 151.031 177.233 151.031C175.24 151.031 174.108 152.859 174.108 155.094C174.108 157.32 175.24 159.156 177.24 159.156C178.412 159.156 179.17 158.656 179.678 157.914L179.701 159H180.842V147.961H179.67ZM177.537 158.094C175.967 158.094 175.295 156.688 175.295 155.094C175.295 153.516 175.967 152.109 177.537 152.109C179.131 152.109 179.772 153.516 179.772 155.094C179.772 156.695 179.131 158.094 177.537 158.094ZM186.875 159.094C188.125 159.094 189.008 158.75 189.867 157.891L189.07 157.25C188.461 157.891 187.789 158.062 186.859 158.062C185.352 158.062 184.578 156.875 184.594 155.492H190.031C190.031 155.492 190.07 155.289 190.07 155.195C190.07 153.07 189.297 151.094 186.742 151.094C184.5 151.094 183.367 153.047 183.367 155.141C183.367 157.266 184.516 159.094 186.875 159.094ZM184.594 154.539C184.648 153.219 185.328 152.133 186.742 152.133C188.242 152.133 188.961 153.125 188.953 154.539H184.594ZM200.426 159.156C202.605 159.156 204.129 157.352 204.129 155.125C204.129 152.906 202.605 151.094 200.426 151.094C198.215 151.094 196.73 152.906 196.73 155.125C196.73 157.352 198.215 159.156 200.426 159.156ZM200.426 158.125C198.699 158.125 198.035 156.688 198.035 155.125C198.035 153.562 198.699 152.133 200.426 152.133C202.168 152.133 202.824 153.562 202.824 155.125C202.824 156.688 202.168 158.125 200.426 158.125ZM206.998 159H208.162V152.148H210.412V151.195H208.162V149.789C208.162 149.18 208.701 148.812 209.295 148.812C209.795 148.812 210.115 149.023 210.115 149.023L210.396 148.094C210.029 147.914 209.576 147.797 209.131 147.797C207.959 147.797 207.006 148.477 207.006 149.758V151.211H205.576V152.148H206.998V159ZM219.415 159.156C219.892 159.156 220.29 159.07 220.462 159V158C220.22 158.117 219.947 158.195 219.681 158.195C219.111 158.195 218.673 157.797 218.673 156.938V152.18H220.673V151.195H218.673V148.344L217.509 149.438V151.195H216.283V152.18H217.509V156.93C217.509 158.266 218.033 159.156 219.415 159.156ZM224.855 159.156C225.964 159.156 227.027 158.664 227.597 157.492L227.62 159H228.613V154.211C228.613 152.312 227.542 151.062 225.558 151.062C224.269 151.062 223.308 151.594 222.613 152.562L223.464 153.227C223.839 152.688 224.511 152.078 225.628 152.078C227.042 152.078 227.542 153.07 227.542 154.539H225.753C223.542 154.539 222.3 155.266 222.3 156.828C222.3 158.297 223.386 159.156 224.855 159.156ZM224.988 158.172C224.175 158.172 223.511 157.789 223.511 156.859C223.511 155.82 224.324 155.422 225.87 155.422H227.542C227.542 156.68 226.589 158.172 224.988 158.172ZM234.333 157.992C233.255 157.844 232.247 157.609 232.247 156.805C232.247 156.539 232.38 156.352 232.583 156.195C233.013 156.406 233.513 156.523 234.052 156.523C235.677 156.523 236.943 155.516 236.943 153.836C236.943 153.367 236.841 152.938 236.646 152.562L237.903 151.578L237.247 150.75L236.068 151.812C235.568 151.359 234.864 151.094 234.052 151.094C232.411 151.094 231.138 152.164 231.138 153.82C231.138 154.539 231.38 155.141 231.786 155.602C231.349 155.977 231.224 156.43 231.224 156.883C231.224 157.68 231.638 158.172 232.208 158.492L231.083 159.625C231.068 159.734 231.06 159.828 231.06 159.922C231.06 161.414 232.396 162.578 234.427 162.578C236.075 162.578 237.552 161.812 237.552 160.195C237.552 158.445 235.927 158.203 234.333 157.992ZM234.036 152.016C235.099 152.016 235.771 152.836 235.771 153.805C235.771 154.844 235.091 155.555 234.036 155.555C232.989 155.555 232.318 154.852 232.318 153.805C232.318 152.859 232.974 152.016 234.036 152.016ZM234.528 161.539C233.005 161.539 232.153 160.734 232.138 159.945L233.06 158.82C233.364 158.914 233.685 158.969 233.997 159.023C235.286 159.242 236.513 159.281 236.513 160.281C236.513 161.141 235.552 161.539 234.528 161.539ZM244.571 149.461H245.915V147.961H244.571V149.461ZM244.642 159H245.829V151.195H244.642V159ZM248.956 159H250.12V154.562C250.12 153.289 251.175 152.172 252.432 152.172C253.784 152.172 254.089 153.312 254.089 154.375V159H255.261V154.258C255.261 152.523 254.518 151.062 252.573 151.062C251.573 151.062 250.62 151.602 250.12 152.422V151.195H248.956V159ZM265.796 157.992C264.717 157.844 263.71 157.609 263.71 156.805C263.71 156.539 263.842 156.352 264.046 156.195C264.475 156.406 264.975 156.523 265.514 156.523C267.139 156.523 268.405 155.516 268.405 153.836C268.405 153.367 268.303 152.938 268.108 152.562L269.366 151.578L268.71 150.75L267.53 151.812C267.03 151.359 266.327 151.094 265.514 151.094C263.874 151.094 262.6 152.164 262.6 153.82C262.6 154.539 262.842 155.141 263.249 155.602C262.811 155.977 262.686 156.43 262.686 156.883C262.686 157.68 263.1 158.172 263.671 158.492L262.546 159.625C262.53 159.734 262.522 159.828 262.522 159.922C262.522 161.414 263.858 162.578 265.889 162.578C267.538 162.578 269.014 161.812 269.014 160.195C269.014 158.445 267.389 158.203 265.796 157.992ZM265.499 152.016C266.561 152.016 267.233 152.836 267.233 153.805C267.233 154.844 266.553 155.555 265.499 155.555C264.452 155.555 263.78 154.852 263.78 153.805C263.78 152.859 264.436 152.016 265.499 152.016ZM265.991 161.539C264.467 161.539 263.616 160.734 263.6 159.945L264.522 158.82C264.827 158.914 265.147 158.969 265.46 159.023C266.749 159.242 267.975 159.281 267.975 160.281C267.975 161.141 267.014 161.539 265.991 161.539ZM271.305 159H272.477V155.68C272.477 153.711 273.204 152.078 274.633 152.078C274.961 152.078 275.336 152.172 275.625 152.43L276.032 151.438C275.696 151.195 275.11 151.078 274.711 151.078C273.813 151.078 272.75 151.68 272.493 152.711V151.195H271.305V159ZM281.041 159.156C283.221 159.156 284.744 157.352 284.744 155.125C284.744 152.906 283.221 151.094 281.041 151.094C278.83 151.094 277.346 152.906 277.346 155.125C277.346 157.352 278.83 159.156 281.041 159.156ZM281.041 158.125C279.315 158.125 278.651 156.688 278.651 155.125C278.651 153.562 279.315 152.133 281.041 152.133C282.784 152.133 283.44 153.562 283.44 155.125C283.44 156.688 282.784 158.125 281.041 158.125ZM289.746 159.18C290.965 159.18 291.879 158.352 292.199 157.68V159H293.356V151.195H292.199V155.586C292.199 157.047 291.121 158.172 289.864 158.172C288.535 158.172 288.223 156.93 288.223 155.867V151.195H287.059V155.82C287.059 157.633 287.817 159.18 289.746 159.18ZM296.498 162.422H297.67V157.938C298.17 158.672 298.959 159.156 300.092 159.156C302.131 159.156 303.233 157.32 303.233 155.094C303.233 152.867 302.131 151.031 300.092 151.031C298.951 151.031 298.162 151.531 297.67 152.258V151.195H296.498V162.422ZM299.779 158.133C298.233 158.133 297.553 156.688 297.553 155.094C297.553 153.516 298.233 152.062 299.779 152.062C301.381 152.062 302.068 153.516 302.068 155.094C302.068 156.688 301.381 158.133 299.779 158.133ZM307.992 159.156C309.367 159.156 310.688 158.344 310.688 156.703C310.688 153.75 306.43 154.984 306.43 153.18C306.43 152.547 306.953 152.07 307.797 152.07C308.617 152.07 309.141 152.523 309.477 153.117L310.398 152.586C309.945 151.789 309.062 151.078 307.844 151.078C306.508 151.078 305.359 151.922 305.359 153.359C305.359 156.117 309.562 154.836 309.562 156.875C309.562 157.766 308.781 158.117 308.039 158.117C307.062 158.117 306.344 157.508 306.078 156.719L305.102 157.227C305.445 158.234 306.523 159.156 307.992 159.156ZM313.635 159H315.182V157.484H313.635V159Z" fill="black"/>
<path d="M47.6797 281H48.9219V269.961H47.6797V281ZM52.4081 281H53.5722V276.562C53.5722 275.289 54.6268 274.172 55.8847 274.172C57.2362 274.172 57.5409 275.312 57.5409 276.375V281H58.7128V276.258C58.7128 274.523 57.9706 273.062 56.0253 273.062C55.0253 273.062 54.0722 273.602 53.5722 274.422V273.195H52.4081V281ZM64.4802 281.156C65.8943 281.156 66.9568 280.383 67.4177 279.086L66.4021 278.648C66.1677 279.57 65.4099 280.164 64.4646 280.164C62.8318 280.164 62.2849 278.539 62.2849 277.109C62.2849 275.703 62.8474 274.062 64.4646 274.062C65.4021 274.062 66.1677 274.633 66.4021 275.578L67.5115 275.109C66.9568 273.852 65.8787 273.062 64.4646 273.062C62.2146 273.062 61.0896 275.016 61.0896 277.109C61.0896 279.227 62.2302 281.156 64.4802 281.156ZM71.3727 280.141C71.0133 280.141 70.9821 279.719 70.9821 279.695V269.961H69.8102V279.422C69.8102 280.367 69.8883 281.156 71.0758 281.156C71.4665 281.156 71.8727 281.078 72.1227 281V280.062C71.9508 280.094 71.6383 280.141 71.3727 280.141ZM76.8824 281.18C78.1011 281.18 79.0152 280.352 79.3355 279.68V281H80.4917V273.195H79.3355V277.586C79.3355 279.047 78.2574 280.172 76.9995 280.172C75.6714 280.172 75.3589 278.93 75.3589 277.867V273.195H74.1949V277.82C74.1949 279.633 74.9527 281.18 76.8824 281.18ZM88.6342 269.961V274.258C88.1186 273.508 87.3295 273.031 86.1967 273.031C84.2045 273.031 83.0717 274.859 83.0717 277.094C83.0717 279.32 84.2045 281.156 86.2045 281.156C87.3764 281.156 88.1342 280.656 88.642 279.914L88.6654 281H89.8061V269.961H88.6342ZM86.5014 280.094C84.9311 280.094 84.2592 278.688 84.2592 277.094C84.2592 275.516 84.9311 274.109 86.5014 274.109C88.0951 274.109 88.7358 275.516 88.7358 277.094C88.7358 278.695 88.0951 280.094 86.5014 280.094ZM95.8392 281.094C97.0892 281.094 97.972 280.75 98.8313 279.891L98.0345 279.25C97.4251 279.891 96.7532 280.062 95.8235 280.062C94.3157 280.062 93.5423 278.875 93.5579 277.492H98.9954C98.9954 277.492 99.0345 277.289 99.0345 277.195C99.0345 275.07 98.261 273.094 95.7063 273.094C93.4642 273.094 92.3313 275.047 92.3313 277.141C92.3313 279.266 93.4798 281.094 95.8392 281.094ZM93.5579 276.539C93.6126 275.219 94.2923 274.133 95.7063 274.133C97.2063 274.133 97.9251 275.125 97.9173 276.539H93.5579ZM108.171 281.156C109.28 281.156 110.343 280.664 110.913 279.492L110.937 281H111.929V276.211C111.929 274.312 110.858 273.062 108.874 273.062C107.585 273.062 106.624 273.594 105.929 274.562L106.78 275.227C107.155 274.688 107.827 274.078 108.944 274.078C110.358 274.078 110.858 275.07 110.858 276.539H109.069C106.858 276.539 105.616 277.266 105.616 278.828C105.616 280.297 106.702 281.156 108.171 281.156ZM108.304 280.172C107.491 280.172 106.827 279.789 106.827 278.859C106.827 277.82 107.64 277.422 109.187 277.422H110.858C110.858 278.68 109.905 280.172 108.304 280.172ZM119.892 269.961V274.258C119.376 273.508 118.587 273.031 117.454 273.031C115.462 273.031 114.329 274.859 114.329 277.094C114.329 279.32 115.462 281.156 117.462 281.156C118.634 281.156 119.392 280.656 119.899 279.914L119.923 281H121.063V269.961H119.892ZM117.759 280.094C116.188 280.094 115.517 278.688 115.517 277.094C115.517 275.516 116.188 274.109 117.759 274.109C119.352 274.109 119.993 275.516 119.993 277.094C119.993 278.695 119.352 280.094 117.759 280.094ZM129.222 269.961V274.258C128.706 273.508 127.917 273.031 126.784 273.031C124.792 273.031 123.659 274.859 123.659 277.094C123.659 279.32 124.792 281.156 126.792 281.156C127.964 281.156 128.722 280.656 129.229 279.914L129.253 281H130.393V269.961H129.222ZM127.089 280.094C125.518 280.094 124.847 278.688 124.847 277.094C124.847 275.516 125.518 274.109 127.089 274.109C128.682 274.109 129.323 275.516 129.323 277.094C129.323 278.695 128.682 280.094 127.089 280.094ZM133.466 271.461H134.809V269.961H133.466V271.461ZM133.536 281H134.723V273.195H133.536V281ZM140.006 281.156C140.483 281.156 140.881 281.07 141.053 281V280C140.811 280.117 140.538 280.195 140.272 280.195C139.702 280.195 139.264 279.797 139.264 278.938V274.18H141.264V273.195H139.264V270.344L138.1 271.438V273.195H136.874V274.18H138.1V278.93C138.1 280.266 138.624 281.156 140.006 281.156ZM143.532 271.461H144.875V269.961H143.532V271.461ZM143.602 281H144.79V273.195H143.602V281ZM150.979 281.156C153.159 281.156 154.682 279.352 154.682 277.125C154.682 274.906 153.159 273.094 150.979 273.094C148.768 273.094 147.284 274.906 147.284 277.125C147.284 279.352 148.768 281.156 150.979 281.156ZM150.979 280.125C149.252 280.125 148.588 278.688 148.588 277.125C148.588 275.562 149.252 274.133 150.979 274.133C152.721 274.133 153.377 275.562 153.377 277.125C153.377 278.688 152.721 280.125 150.979 280.125ZM157.184 281H158.348V276.562C158.348 275.289 159.403 274.172 160.66 274.172C162.012 274.172 162.317 275.312 162.317 276.375V281H163.489V276.258C163.489 274.523 162.746 273.062 160.801 273.062C159.801 273.062 158.848 273.602 158.348 274.422V273.195H157.184V281ZM168.295 281.156C169.404 281.156 170.467 280.664 171.037 279.492L171.061 281H172.053V276.211C172.053 274.312 170.983 273.062 168.998 273.062C167.709 273.062 166.748 273.594 166.053 274.562L166.904 275.227C167.279 274.688 167.951 274.078 169.068 274.078C170.483 274.078 170.983 275.07 170.983 276.539H169.193C166.983 276.539 165.74 277.266 165.74 278.828C165.74 280.297 166.826 281.156 168.295 281.156ZM168.428 280.172C167.615 280.172 166.951 279.789 166.951 278.859C166.951 277.82 167.764 277.422 169.311 277.422H170.983C170.983 278.68 170.029 280.172 168.428 280.172ZM176.555 280.141C176.195 280.141 176.164 279.719 176.164 279.695V269.961H174.992V279.422C174.992 280.367 175.07 281.156 176.258 281.156C176.648 281.156 177.055 281.078 177.305 281V280.062C177.133 280.094 176.82 280.141 176.555 280.141ZM189.379 269.961V274.258C188.863 273.508 188.074 273.031 186.941 273.031C184.949 273.031 183.816 274.859 183.816 277.094C183.816 279.32 184.949 281.156 186.949 281.156C188.121 281.156 188.879 280.656 189.386 279.914L189.41 281H190.551V269.961H189.379ZM187.246 280.094C185.676 280.094 185.004 278.688 185.004 277.094C185.004 275.516 185.676 274.109 187.246 274.109C188.84 274.109 189.48 275.516 189.48 277.094C189.48 278.695 188.84 280.094 187.246 280.094ZM195.537 281.156C196.646 281.156 197.709 280.664 198.279 279.492L198.302 281H199.295V276.211C199.295 274.312 198.224 273.062 196.24 273.062C194.951 273.062 193.99 273.594 193.295 274.562L194.146 275.227C194.521 274.688 195.193 274.078 196.31 274.078C197.724 274.078 198.224 275.07 198.224 276.539H196.435C194.224 276.539 192.982 277.266 192.982 278.828C192.982 280.297 194.068 281.156 195.537 281.156ZM195.67 280.172C194.857 280.172 194.193 279.789 194.193 278.859C194.193 277.82 195.006 277.422 196.552 277.422H198.224C198.224 278.68 197.271 280.172 195.67 280.172ZM204.398 281.156C204.875 281.156 205.273 281.07 205.445 281V280C205.203 280.117 204.929 280.195 204.664 280.195C204.093 280.195 203.656 279.797 203.656 278.938V274.18H205.656V273.195H203.656V270.344L202.492 271.438V273.195H201.265V274.18H202.492V278.93C202.492 280.266 203.015 281.156 204.398 281.156ZM209.837 281.156C210.947 281.156 212.009 280.664 212.579 279.492L212.603 281H213.595V276.211C213.595 274.312 212.525 273.062 210.54 273.062C209.251 273.062 208.29 273.594 207.595 274.562L208.447 275.227C208.822 274.688 209.494 274.078 210.611 274.078C212.025 274.078 212.525 275.07 212.525 276.539H210.736C208.525 276.539 207.283 277.266 207.283 278.828C207.283 280.297 208.369 281.156 209.837 281.156ZM209.97 280.172C209.158 280.172 208.494 279.789 208.494 278.859C208.494 277.82 209.306 277.422 210.853 277.422H212.525C212.525 278.68 211.572 280.172 209.97 280.172ZM221.271 271.461H222.614V269.961H221.271V271.461ZM221.341 281H222.528V273.195H221.341V281ZM225.655 281H226.819V276.562C226.819 275.289 227.874 274.172 229.132 274.172C230.483 274.172 230.788 275.312 230.788 276.375V281H231.96V276.258C231.96 274.523 231.218 273.062 229.273 273.062C228.273 273.062 227.319 273.602 226.819 274.422V273.195H225.655V281ZM239.737 284.422H240.909V279.938C241.409 280.672 242.198 281.156 243.331 281.156C245.37 281.156 246.472 279.32 246.472 277.094C246.472 274.867 245.37 273.031 243.331 273.031C242.19 273.031 241.401 273.531 240.909 274.258V273.195H239.737V284.422ZM243.018 280.133C241.472 280.133 240.792 278.688 240.792 277.094C240.792 275.516 241.472 274.062 243.018 274.062C244.62 274.062 245.307 275.516 245.307 277.094C245.307 278.688 244.62 280.133 243.018 280.133ZM250.895 281.156C252.005 281.156 253.067 280.664 253.637 279.492L253.661 281H254.653V276.211C254.653 274.312 253.583 273.062 251.598 273.062C250.309 273.062 249.348 273.594 248.653 274.562L249.505 275.227C249.88 274.688 250.551 274.078 251.669 274.078C253.083 274.078 253.583 275.07 253.583 276.539H251.794C249.583 276.539 248.341 277.266 248.341 278.828C248.341 280.297 249.426 281.156 250.895 281.156ZM251.028 280.172C250.216 280.172 249.551 279.789 249.551 278.859C249.551 277.82 250.364 277.422 251.911 277.422H253.583C253.583 278.68 252.63 280.172 251.028 280.172ZM257.6 281H258.772V277.68C258.772 275.711 259.499 274.078 260.928 274.078C261.256 274.078 261.631 274.172 261.921 274.43L262.327 273.438C261.991 273.195 261.405 273.078 261.006 273.078C260.108 273.078 259.046 273.68 258.788 274.711V273.195H257.6V281ZM267.165 281.094C268.415 281.094 269.297 280.75 270.157 279.891L269.36 279.25C268.75 279.891 268.079 280.062 267.149 280.062C265.641 280.062 264.868 278.875 264.883 277.492H270.321C270.321 277.492 270.36 277.289 270.36 277.195C270.36 275.07 269.586 273.094 267.032 273.094C264.79 273.094 263.657 275.047 263.657 277.141C263.657 279.266 264.805 281.094 267.165 281.094ZM264.883 276.539C264.938 275.219 265.618 274.133 267.032 274.133C268.532 274.133 269.25 275.125 269.243 276.539H264.883ZM272.854 281H274.018V276.562C274.018 275.289 275.073 274.172 276.33 274.172C277.682 274.172 277.987 275.312 277.987 276.375V281H279.159V276.258C279.159 274.523 278.416 273.062 276.471 273.062C275.471 273.062 274.518 273.602 274.018 274.422V273.195H272.854V281ZM284.278 281.156C284.754 281.156 285.153 281.07 285.324 281V280C285.082 280.117 284.809 280.195 284.543 280.195C283.973 280.195 283.535 279.797 283.535 278.938V274.18H285.535V273.195H283.535V270.344L282.371 271.438V273.195H281.145V274.18H282.371V278.93C282.371 280.266 282.895 281.156 284.278 281.156ZM287.889 281H289.037V276.727C289.037 275.352 290.068 274.164 291.404 274.164C292.717 274.164 293.022 275.312 293.022 276.375V281H294.201V276.188C294.201 274.523 293.451 273.062 291.576 273.062C290.568 273.062 289.561 273.617 289.037 274.477V269.961H287.889V281ZM300.047 281.094C301.297 281.094 302.18 280.75 303.039 279.891L302.242 279.25C301.633 279.891 300.961 280.062 300.031 280.062C298.523 280.062 297.75 278.875 297.766 277.492H303.203C303.203 277.492 303.242 277.289 303.242 277.195C303.242 275.07 302.469 273.094 299.914 273.094C297.672 273.094 296.539 275.047 296.539 277.141C296.539 279.266 297.688 281.094 300.047 281.094ZM297.766 276.539C297.82 275.219 298.5 274.133 299.914 274.133C301.414 274.133 302.133 275.125 302.125 276.539H297.766ZM307.916 281.156C309.291 281.156 310.611 280.344 310.611 278.703C310.611 275.75 306.353 276.984 306.353 275.18C306.353 274.547 306.877 274.07 307.721 274.07C308.541 274.07 309.064 274.523 309.4 275.117L310.322 274.586C309.869 273.789 308.986 273.078 307.767 273.078C306.432 273.078 305.283 273.922 305.283 275.359C305.283 278.117 309.486 276.836 309.486 278.875C309.486 279.766 308.705 280.117 307.963 280.117C306.986 280.117 306.267 279.508 306.002 278.719L305.025 279.227C305.369 280.234 306.447 281.156 307.916 281.156ZM315.941 281.094C317.191 281.094 318.074 280.75 318.933 279.891L318.136 279.25C317.527 279.891 316.855 280.062 315.926 280.062C314.418 280.062 313.644 278.875 313.66 277.492H319.097C319.097 277.492 319.136 277.289 319.136 277.195C319.136 275.07 318.363 273.094 315.808 273.094C313.566 273.094 312.433 275.047 312.433 277.141C312.433 279.266 313.582 281.094 315.941 281.094ZM313.66 276.539C313.715 275.219 314.394 274.133 315.808 274.133C317.308 274.133 318.027 275.125 318.019 276.539H313.66ZM323.81 281.156C325.185 281.156 326.506 280.344 326.506 278.703C326.506 275.75 322.248 276.984 322.248 275.18C322.248 274.547 322.771 274.07 323.615 274.07C324.435 274.07 324.959 274.523 325.295 275.117L326.216 274.586C325.763 273.789 324.881 273.078 323.662 273.078C322.326 273.078 321.177 273.922 321.177 275.359C321.177 278.117 325.381 276.836 325.381 278.875C325.381 279.766 324.599 280.117 323.857 280.117C322.881 280.117 322.162 279.508 321.896 278.719L320.92 279.227C321.263 280.234 322.341 281.156 323.81 281.156ZM329.453 281H331V279.484H329.453V281Z" fill="black"/>
<rect x="45" y="196" width="85" height="28" rx="4" fill="#D1595F"/>
<rect x="138" y="196" width="105" height="28" rx="4" fill="#FFD15F"/>
<path d="M147.68 215H153.641V213.867H148.922V203.961H147.68V215ZM155.814 205.461H157.158V203.961H155.814V205.461ZM155.884 215H157.072V207.195H155.884V215ZM162.902 213.992C161.823 213.844 160.816 213.609 160.816 212.805C160.816 212.539 160.948 212.352 161.152 212.195C161.581 212.406 162.081 212.523 162.62 212.523C164.245 212.523 165.511 211.516 165.511 209.836C165.511 209.367 165.409 208.938 165.214 208.562L166.472 207.578L165.816 206.75L164.636 207.812C164.136 207.359 163.433 207.094 162.62 207.094C160.98 207.094 159.706 208.164 159.706 209.82C159.706 210.539 159.948 211.141 160.355 211.602C159.917 211.977 159.792 212.43 159.792 212.883C159.792 213.68 160.206 214.172 160.777 214.492L159.652 215.625C159.636 215.734 159.628 215.828 159.628 215.922C159.628 217.414 160.964 218.578 162.995 218.578C164.644 218.578 166.12 217.812 166.12 216.195C166.12 214.445 164.495 214.203 162.902 213.992ZM162.605 208.016C163.667 208.016 164.339 208.836 164.339 209.805C164.339 210.844 163.659 211.555 162.605 211.555C161.558 211.555 160.886 210.852 160.886 209.805C160.886 208.859 161.542 208.016 162.605 208.016ZM163.097 217.539C161.573 217.539 160.722 216.734 160.706 215.945L161.628 214.82C161.933 214.914 162.253 214.969 162.566 215.023C163.855 215.242 165.081 215.281 165.081 216.281C165.081 217.141 164.12 217.539 163.097 217.539ZM168.356 215H169.505V210.727C169.505 209.352 170.536 208.164 171.872 208.164C173.184 208.164 173.489 209.312 173.489 210.375V215H174.669V210.188C174.669 208.523 173.919 207.062 172.044 207.062C171.036 207.062 170.028 207.617 169.505 208.477V203.961H168.356V215ZM179.709 215.156C180.186 215.156 180.584 215.07 180.756 215V214C180.514 214.117 180.241 214.195 179.975 214.195C179.405 214.195 178.967 213.797 178.967 212.938V208.18H180.967V207.195H178.967V204.344L177.803 205.438V207.195H176.577V208.18H177.803V212.93C177.803 214.266 178.327 215.156 179.709 215.156ZM191.275 215H192.478V210.68L196.666 203.961H195.236L191.877 209.445L188.517 203.961H187.08L191.275 210.68V215ZM200.269 215.094C201.519 215.094 202.402 214.75 203.261 213.891L202.464 213.25C201.855 213.891 201.183 214.062 200.253 214.062C198.745 214.062 197.972 212.875 197.987 211.492H203.425C203.425 211.492 203.464 211.289 203.464 211.195C203.464 209.07 202.691 207.094 200.136 207.094C197.894 207.094 196.761 209.047 196.761 211.141C196.761 213.266 197.909 215.094 200.269 215.094ZM197.987 210.539C198.042 209.219 198.722 208.133 200.136 208.133C201.636 208.133 202.355 209.125 202.347 210.539H197.987ZM207.442 214.141C207.083 214.141 207.052 213.719 207.052 213.695V203.961H205.88V213.422C205.88 214.367 205.958 215.156 207.145 215.156C207.536 215.156 207.942 215.078 208.192 215V214.062C208.02 214.094 207.708 214.141 207.442 214.141ZM211.936 214.141C211.577 214.141 211.545 213.719 211.545 213.695V203.961H210.373V213.422C210.373 214.367 210.452 215.156 211.639 215.156C212.03 215.156 212.436 215.078 212.686 215V214.062C212.514 214.094 212.202 214.141 211.936 214.141ZM217.938 215.156C220.117 215.156 221.641 213.352 221.641 211.125C221.641 208.906 220.117 207.094 217.938 207.094C215.727 207.094 214.242 208.906 214.242 211.125C214.242 213.352 215.727 215.156 217.938 215.156ZM217.938 214.125C216.211 214.125 215.547 212.688 215.547 211.125C215.547 209.562 216.211 208.133 217.938 208.133C219.68 208.133 220.336 209.562 220.336 211.125C220.336 212.688 219.68 214.125 217.938 214.125ZM225.338 215.008H226.478L228.33 208.664L230.15 215H231.283L233.47 207.195H232.228L230.642 213.445L228.853 207.195H227.783L225.994 213.461L224.392 207.195H223.158L225.338 215.008Z" fill="#201803"/>
<path d="M54.6797 215H60.6406V213.867H55.9219V203.961H54.6797V215ZM62.8141 205.461H64.1578V203.961H62.8141V205.461ZM62.8844 215H64.0719V207.195H62.8844V215ZM69.9016 213.992C68.8234 213.844 67.8156 213.609 67.8156 212.805C67.8156 212.539 67.9484 212.352 68.1516 212.195C68.5813 212.406 69.0813 212.523 69.6203 212.523C71.2453 212.523 72.5109 211.516 72.5109 209.836C72.5109 209.367 72.4094 208.938 72.2141 208.562L73.4719 207.578L72.8156 206.75L71.6359 207.812C71.1359 207.359 70.4328 207.094 69.6203 207.094C67.9797 207.094 66.7063 208.164 66.7063 209.82C66.7063 210.539 66.9484 211.141 67.3547 211.602C66.9172 211.977 66.7922 212.43 66.7922 212.883C66.7922 213.68 67.2063 214.172 67.7766 214.492L66.6516 215.625C66.6359 215.734 66.6281 215.828 66.6281 215.922C66.6281 217.414 67.9641 218.578 69.9953 218.578C71.6438 218.578 73.1203 217.812 73.1203 216.195C73.1203 214.445 71.4953 214.203 69.9016 213.992ZM69.6047 208.016C70.6672 208.016 71.3391 208.836 71.3391 209.805C71.3391 210.844 70.6594 211.555 69.6047 211.555C68.5578 211.555 67.8859 210.852 67.8859 209.805C67.8859 208.859 68.5422 208.016 69.6047 208.016ZM70.0969 217.539C68.5734 217.539 67.7219 216.734 67.7063 215.945L68.6281 214.82C68.9328 214.914 69.2531 214.969 69.5656 215.023C70.8547 215.242 72.0813 215.281 72.0813 216.281C72.0813 217.141 71.1203 217.539 70.0969 217.539ZM75.3563 215H76.5047V210.727C76.5047 209.352 77.5359 208.164 78.8719 208.164C80.1844 208.164 80.4891 209.312 80.4891 210.375V215H81.6688V210.188C81.6688 208.523 80.9188 207.062 79.0438 207.062C78.0359 207.062 77.0281 207.617 76.5047 208.477V203.961H75.3563V215ZM86.7094 215.156C87.1859 215.156 87.5844 215.07 87.7563 215V214C87.5141 214.117 87.2406 214.195 86.975 214.195C86.4047 214.195 85.9672 213.797 85.9672 212.938V208.18H87.9672V207.195H85.9672V204.344L84.8031 205.438V207.195H83.5766V208.18H84.8031V212.93C84.8031 214.266 85.3266 215.156 86.7094 215.156ZM95.3141 215.016H96.5563V210.062H98.3766L101.134 215.016H102.58L99.5875 209.898C101.002 209.602 101.939 208.523 101.939 207.039C101.939 205.133 100.423 203.977 98.4703 203.977H95.3141V215.016ZM96.5719 208.922V205.07H98.4859C99.7906 205.07 100.728 205.781 100.728 207.039C100.728 208.227 99.8609 208.859 98.6734 208.922H96.5719ZM107.847 215.094C109.097 215.094 109.98 214.75 110.839 213.891L110.042 213.25C109.433 213.891 108.761 214.062 107.831 214.062C106.323 214.062 105.55 212.875 105.566 211.492H111.003C111.003 211.492 111.042 211.289 111.042 211.195C111.042 209.07 110.269 207.094 107.714 207.094C105.472 207.094 104.339 209.047 104.339 211.141C104.339 213.266 105.487 215.094 107.847 215.094ZM105.566 210.539C105.62 209.219 106.3 208.133 107.714 208.133C109.214 208.133 109.933 209.125 109.925 210.539H105.566ZM118.481 203.961V208.258C117.966 207.508 117.177 207.031 116.044 207.031C114.052 207.031 112.919 208.859 112.919 211.094C112.919 213.32 114.052 215.156 116.052 215.156C117.223 215.156 117.981 214.656 118.489 213.914L118.513 215H119.653V203.961H118.481ZM116.348 214.094C114.778 214.094 114.106 212.688 114.106 211.094C114.106 209.516 114.778 208.109 116.348 208.109C117.942 208.109 118.583 209.516 118.583 211.094C118.583 212.695 117.942 214.094 116.348 214.094Z" fill="white"/>
<path d="M260.68 215H266.641V213.867H261.922V203.961H260.68V215ZM268.814 205.461H270.158V203.961H268.814V205.461ZM268.884 215H270.072V207.195H268.884V215ZM275.902 213.992C274.823 213.844 273.816 213.609 273.816 212.805C273.816 212.539 273.948 212.352 274.152 212.195C274.581 212.406 275.081 212.523 275.62 212.523C277.245 212.523 278.511 211.516 278.511 209.836C278.511 209.367 278.409 208.938 278.214 208.562L279.472 207.578L278.816 206.75L277.636 207.812C277.136 207.359 276.433 207.094 275.62 207.094C273.98 207.094 272.706 208.164 272.706 209.82C272.706 210.539 272.948 211.141 273.355 211.602C272.917 211.977 272.792 212.43 272.792 212.883C272.792 213.68 273.206 214.172 273.777 214.492L272.652 215.625C272.636 215.734 272.628 215.828 272.628 215.922C272.628 217.414 273.964 218.578 275.995 218.578C277.644 218.578 279.12 217.812 279.12 216.195C279.12 214.445 277.495 214.203 275.902 213.992ZM275.605 208.016C276.667 208.016 277.339 208.836 277.339 209.805C277.339 210.844 276.659 211.555 275.605 211.555C274.558 211.555 273.886 210.852 273.886 209.805C273.886 208.859 274.542 208.016 275.605 208.016ZM276.097 217.539C274.573 217.539 273.722 216.734 273.706 215.945L274.628 214.82C274.933 214.914 275.253 214.969 275.566 215.023C276.855 215.242 278.081 215.281 278.081 216.281C278.081 217.141 277.12 217.539 276.097 217.539ZM281.356 215H282.505V210.727C282.505 209.352 283.536 208.164 284.872 208.164C286.184 208.164 286.489 209.312 286.489 210.375V215H287.669V210.188C287.669 208.523 286.919 207.062 285.044 207.062C284.036 207.062 283.028 207.617 282.505 208.477V203.961H281.356V215ZM292.709 215.156C293.186 215.156 293.584 215.07 293.756 215V214C293.514 214.117 293.241 214.195 292.975 214.195C292.405 214.195 291.967 213.797 291.967 212.938V208.18H293.967V207.195H291.967V204.344L290.803 205.438V207.195H289.577V208.18H290.803V212.93C290.803 214.266 291.327 215.156 292.709 215.156ZM305.564 215.156C307.439 215.156 308.728 214.117 309.173 212.984L309.189 215H310.22V209.414H306.525V210.391H309.048C309.009 212.719 307.447 214 305.564 214C302.916 214 301.83 211.875 301.83 209.398C301.83 207.047 302.916 204.945 305.533 204.945C307.088 204.945 308.236 205.75 308.9 207.211L310.033 206.719C309.189 204.812 307.627 203.781 305.548 203.781C302.197 203.781 300.611 206.406 300.611 209.477C300.611 212.555 302.166 215.156 305.564 215.156ZM313.159 215H314.331V211.68C314.331 209.711 315.058 208.078 316.487 208.078C316.816 208.078 317.191 208.172 317.48 208.43L317.886 207.438C317.55 207.195 316.964 207.078 316.566 207.078C315.667 207.078 314.605 207.68 314.347 208.711V207.195H313.159V215ZM322.653 215.094C323.903 215.094 324.786 214.75 325.645 213.891L324.848 213.25C324.239 213.891 323.567 214.062 322.638 214.062C321.13 214.062 320.356 212.875 320.372 211.492H325.809C325.809 211.492 325.848 211.289 325.848 211.195C325.848 209.07 325.075 207.094 322.52 207.094C320.278 207.094 319.145 209.047 319.145 211.141C319.145 213.266 320.294 215.094 322.653 215.094ZM320.372 210.539C320.427 209.219 321.106 208.133 322.52 208.133C324.02 208.133 324.739 209.125 324.731 210.539H320.372ZM331.162 215.094C332.412 215.094 333.295 214.75 334.155 213.891L333.358 213.25C332.748 213.891 332.077 214.062 331.147 214.062C329.639 214.062 328.866 212.875 328.881 211.492H334.319C334.319 211.492 334.358 211.289 334.358 211.195C334.358 209.07 333.584 207.094 331.03 207.094C328.787 207.094 327.655 209.047 327.655 211.141C327.655 213.266 328.803 215.094 331.162 215.094ZM328.881 210.539C328.936 209.219 329.616 208.133 331.03 208.133C332.53 208.133 333.248 209.125 333.241 210.539H328.881ZM336.781 215H337.945V210.562C337.945 209.289 339 208.172 340.258 208.172C341.609 208.172 341.914 209.312 341.914 210.375V215H343.086V210.258C343.086 208.523 342.344 207.062 340.398 207.062C339.398 207.062 338.445 207.602 337.945 208.422V207.195H336.781V215Z" fill="#031D07"/>
<rect x="211" y="318" width="147" height="28" rx="4" fill="#46494F"/>
<rect x="46" y="318" width="157" height="28" rx="4" fill="#253E68"/>
<path d="M55.6797 337H58.4766C62.0391 337 64.0625 335.039 64.0625 331.562C64.0625 327.938 62.0781 325.961 58.4922 325.961H55.6797V337ZM56.9219 335.867V327.07H58.4609C61.375 327.07 62.8203 328.625 62.8203 331.477C62.8203 334.516 60.8594 335.867 58.2891 335.867H56.9219ZM68.6031 337.156C69.7125 337.156 70.775 336.664 71.3453 335.492L71.3687 337H72.3609V332.211C72.3609 330.312 71.2906 329.062 69.3062 329.062C68.0172 329.062 67.0562 329.594 66.3609 330.562L67.2125 331.227C67.5875 330.688 68.2594 330.078 69.3766 330.078C70.7906 330.078 71.2906 331.07 71.2906 332.539H69.5016C67.2906 332.539 66.0484 333.266 66.0484 334.828C66.0484 336.297 67.1344 337.156 68.6031 337.156ZM68.7359 336.172C67.9234 336.172 67.2594 335.789 67.2594 334.859C67.2594 333.82 68.0719 333.422 69.6187 333.422H71.2906C71.2906 334.68 70.3375 336.172 68.7359 336.172ZM75.2375 337H76.4094V333.68C76.4094 331.711 77.1359 330.078 78.5656 330.078C78.8937 330.078 79.2687 330.172 79.5578 330.43L79.9641 329.438C79.6281 329.195 79.0422 329.078 78.6437 329.078C77.7453 329.078 76.6828 329.68 76.425 330.711V329.195H75.2375V337ZM81.9188 337H83.0906V334.711L84.7703 332.859L87.1609 337H88.5438L85.4891 332.062L88.0281 329.195H86.575L83.0906 333.398V325.961H81.9188V337ZM95.6172 337H96.8594V325.961H95.6172V337ZM100.275 337H101.439V332.562C101.439 331.289 102.494 330.172 103.752 330.172C105.103 330.172 105.408 331.312 105.408 332.375V337H106.58V332.258C106.58 330.523 105.838 329.062 103.892 329.062C102.892 329.062 101.939 329.602 101.439 330.422V329.195H100.275V337ZM114.487 325.961V330.258C113.972 329.508 113.183 329.031 112.05 329.031C110.058 329.031 108.925 330.859 108.925 333.094C108.925 335.32 110.058 337.156 112.058 337.156C113.23 337.156 113.987 336.656 114.495 335.914L114.519 337H115.659V325.961H114.487ZM112.355 336.094C110.784 336.094 110.112 334.688 110.112 333.094C110.112 331.516 110.784 330.109 112.355 330.109C113.948 330.109 114.589 331.516 114.589 333.094C114.589 334.695 113.948 336.094 112.355 336.094ZM118.661 327.461H120.005V325.961H118.661V327.461ZM118.731 337H119.919V329.195H118.731V337ZM125.748 335.992C124.67 335.844 123.662 335.609 123.662 334.805C123.662 334.539 123.795 334.352 123.998 334.195C124.428 334.406 124.928 334.523 125.467 334.523C127.092 334.523 128.358 333.516 128.358 331.836C128.358 331.367 128.256 330.938 128.061 330.562L129.319 329.578L128.662 328.75L127.483 329.812C126.983 329.359 126.28 329.094 125.467 329.094C123.827 329.094 122.553 330.164 122.553 331.82C122.553 332.539 122.795 333.141 123.202 333.602C122.764 333.977 122.639 334.43 122.639 334.883C122.639 335.68 123.053 336.172 123.623 336.492L122.498 337.625C122.483 337.734 122.475 337.828 122.475 337.922C122.475 339.414 123.811 340.578 125.842 340.578C127.491 340.578 128.967 339.812 128.967 338.195C128.967 336.445 127.342 336.203 125.748 335.992ZM125.452 330.016C126.514 330.016 127.186 330.836 127.186 331.805C127.186 332.844 126.506 333.555 125.452 333.555C124.405 333.555 123.733 332.852 123.733 331.805C123.733 330.859 124.389 330.016 125.452 330.016ZM125.944 339.539C124.42 339.539 123.569 338.734 123.553 337.945L124.475 336.82C124.78 336.914 125.1 336.969 125.412 337.023C126.702 337.242 127.928 337.281 127.928 338.281C127.928 339.141 126.967 339.539 125.944 339.539ZM134.25 337.156C136.43 337.156 137.953 335.352 137.953 333.125C137.953 330.906 136.43 329.094 134.25 329.094C132.039 329.094 130.555 330.906 130.555 333.125C130.555 335.352 132.039 337.156 134.25 337.156ZM134.25 336.125C132.523 336.125 131.859 334.688 131.859 333.125C131.859 331.562 132.523 330.133 134.25 330.133C135.992 330.133 136.648 331.562 136.648 333.125C136.648 334.688 135.992 336.125 134.25 336.125ZM146.683 337.25H147.652C146.386 335.602 145.769 333.562 145.769 331.516C145.769 329.422 146.417 327.375 147.667 325.734H146.659C145.386 327.266 144.808 329.539 144.808 331.492C144.808 333.273 145.495 335.945 146.683 337.25ZM154.591 337.156C156.645 337.156 158.247 336.102 159.083 334.203L157.942 333.711C157.325 335.375 156.145 336.016 154.591 336.016C151.942 336.016 150.856 333.875 150.856 331.398C150.856 329.047 151.942 326.93 154.559 326.93C156.114 326.93 157.473 327.555 157.927 329.211L159.067 328.719C158.216 326.812 156.63 325.781 154.575 325.781C151.177 325.781 149.63 328.406 149.63 331.477C149.63 334.555 151.192 337.156 154.591 337.156ZM164.584 337.156C166.764 337.156 168.287 335.352 168.287 333.125C168.287 330.906 166.764 329.094 164.584 329.094C162.373 329.094 160.889 330.906 160.889 333.125C160.889 335.352 162.373 337.156 164.584 337.156ZM164.584 336.125C162.858 336.125 162.194 334.688 162.194 333.125C162.194 331.562 162.858 330.133 164.584 330.133C166.327 330.133 166.983 331.562 166.983 333.125C166.983 334.688 166.327 336.125 164.584 336.125ZM172.273 336.141C171.914 336.141 171.883 335.719 171.883 335.695V325.961H170.711V335.422C170.711 336.367 170.789 337.156 171.977 337.156C172.367 337.156 172.773 337.078 173.023 337V336.062C172.852 336.094 172.539 336.141 172.273 336.141ZM178.275 337.156C180.455 337.156 181.978 335.352 181.978 333.125C181.978 330.906 180.455 329.094 178.275 329.094C176.064 329.094 174.58 330.906 174.58 333.125C174.58 335.352 176.064 337.156 178.275 337.156ZM178.275 336.125C176.548 336.125 175.884 334.688 175.884 333.125C175.884 331.562 176.548 330.133 178.275 330.133C180.017 330.133 180.673 331.562 180.673 333.125C180.673 334.688 180.017 336.125 178.275 336.125ZM184.409 337H185.581V333.68C185.581 331.711 186.308 330.078 187.738 330.078C188.066 330.078 188.441 330.172 188.73 330.43L189.136 329.438C188.8 329.195 188.214 329.078 187.816 329.078C186.917 329.078 185.855 329.68 185.597 330.711V329.195H184.409V337ZM190.317 337.25H191.294C192.466 335.984 193.161 333.312 193.161 331.477C193.161 329.422 192.575 327.227 191.302 325.734H190.302C191.489 327.32 192.208 329.5 192.208 331.5C192.208 333.5 191.559 335.602 190.317 337.25Z" fill="white"/>
<path d="M220.68 337H223.477C227.039 337 229.062 335.039 229.062 331.562C229.062 327.938 227.078 325.961 223.492 325.961H220.68V337ZM221.922 335.867V327.07H223.461C226.375 327.07 227.82 328.625 227.82 331.477C227.82 334.516 225.859 335.867 223.289 335.867H221.922ZM233.603 337.156C234.712 337.156 235.775 336.664 236.345 335.492L236.369 337H237.361V332.211C237.361 330.312 236.291 329.062 234.306 329.062C233.017 329.062 232.056 329.594 231.361 330.562L232.212 331.227C232.587 330.688 233.259 330.078 234.377 330.078C235.791 330.078 236.291 331.07 236.291 332.539H234.502C232.291 332.539 231.048 333.266 231.048 334.828C231.048 336.297 232.134 337.156 233.603 337.156ZM233.736 336.172C232.923 336.172 232.259 335.789 232.259 334.859C232.259 333.82 233.072 333.422 234.619 333.422H236.291C236.291 334.68 235.337 336.172 233.736 336.172ZM240.237 337H241.409V333.68C241.409 331.711 242.136 330.078 243.566 330.078C243.894 330.078 244.269 330.172 244.558 330.43L244.964 329.438C244.628 329.195 244.042 329.078 243.644 329.078C242.745 329.078 241.683 329.68 241.425 330.711V329.195H240.237V337ZM246.919 337H248.091V334.711L249.77 332.859L252.161 337H253.544L250.489 332.062L253.028 329.195H251.575L248.091 333.398V325.961H246.919V337ZM264.867 337.156C266.742 337.156 268.031 336.117 268.477 334.984L268.492 337H269.523V331.414H265.828V332.391H268.352C268.312 334.719 266.75 336 264.867 336C262.219 336 261.133 333.875 261.133 331.398C261.133 329.047 262.219 326.945 264.836 326.945C266.391 326.945 267.539 327.75 268.203 329.211L269.336 328.719C268.492 326.812 266.93 325.781 264.852 325.781C261.5 325.781 259.914 328.406 259.914 331.477C259.914 334.555 261.469 337.156 264.867 337.156ZM272.463 337H273.634V333.68C273.634 331.711 274.361 330.078 275.791 330.078C276.119 330.078 276.494 330.172 276.783 330.43L277.189 329.438C276.853 329.195 276.267 329.078 275.869 329.078C274.97 329.078 273.908 329.68 273.65 330.711V329.195H272.463V337ZM281.956 337.094C283.206 337.094 284.089 336.75 284.948 335.891L284.152 335.25C283.542 335.891 282.87 336.062 281.941 336.062C280.433 336.062 279.659 334.875 279.675 333.492H285.112C285.112 333.492 285.152 333.289 285.152 333.195C285.152 331.07 284.378 329.094 281.823 329.094C279.581 329.094 278.448 331.047 278.448 333.141C278.448 335.266 279.597 337.094 281.956 337.094ZM279.675 332.539C279.73 331.219 280.409 330.133 281.823 330.133C283.323 330.133 284.042 331.125 284.034 332.539H279.675ZM288.223 340.359H289.45L293.63 329.195H292.356L290.137 335.578L287.848 329.195H286.559L289.559 336.961L288.223 340.359ZM301.977 337.25H302.945C301.68 335.602 301.062 333.562 301.062 331.516C301.062 329.422 301.711 327.375 302.961 325.734H301.953C300.68 327.266 300.102 329.539 300.102 331.492C300.102 333.273 300.789 335.945 301.977 337.25ZM309.884 337.156C311.939 337.156 313.541 336.102 314.377 334.203L313.236 333.711C312.619 335.375 311.439 336.016 309.884 336.016C307.236 336.016 306.15 333.875 306.15 331.398C306.15 329.047 307.236 326.93 309.853 326.93C311.408 326.93 312.767 327.555 313.22 329.211L314.361 328.719C313.509 326.812 311.923 325.781 309.869 325.781C306.47 325.781 304.923 328.406 304.923 331.477C304.923 334.555 306.486 337.156 309.884 337.156ZM319.878 337.156C322.058 337.156 323.581 335.352 323.581 333.125C323.581 330.906 322.058 329.094 319.878 329.094C317.667 329.094 316.183 330.906 316.183 333.125C316.183 335.352 317.667 337.156 319.878 337.156ZM319.878 336.125C318.152 336.125 317.488 334.688 317.488 333.125C317.488 331.562 318.152 330.133 319.878 330.133C321.62 330.133 322.277 331.562 322.277 333.125C322.277 334.688 321.62 336.125 319.878 336.125ZM327.567 336.141C327.208 336.141 327.177 335.719 327.177 335.695V325.961H326.005V335.422C326.005 336.367 326.083 337.156 327.27 337.156C327.661 337.156 328.067 337.078 328.317 337V336.062C328.145 336.094 327.833 336.141 327.567 336.141ZM333.569 337.156C335.748 337.156 337.272 335.352 337.272 333.125C337.272 330.906 335.748 329.094 333.569 329.094C331.358 329.094 329.873 330.906 329.873 333.125C329.873 335.352 331.358 337.156 333.569 337.156ZM333.569 336.125C331.842 336.125 331.178 334.688 331.178 333.125C331.178 331.562 331.842 330.133 333.569 330.133C335.311 330.133 335.967 331.562 335.967 333.125C335.967 334.688 335.311 336.125 333.569 336.125ZM339.703 337H340.875V333.68C340.875 331.711 341.602 330.078 343.031 330.078C343.359 330.078 343.734 330.172 344.023 330.43L344.43 329.438C344.094 329.195 343.508 329.078 343.109 329.078C342.211 329.078 341.148 329.68 340.891 330.711V329.195H339.703V337ZM345.611 337.25H346.588C347.759 335.984 348.455 333.312 348.455 331.477C348.455 329.422 347.869 327.227 346.595 325.734H345.595C346.783 327.32 347.502 329.5 347.502 331.5C347.502 333.5 346.853 335.602 345.611 337.25Z" fill="white"/>
<path d="M95.9541 83.3047C96.7354 83.3047 97.4922 83.1338 98.2246 82.792C98.9668 82.4502 99.6211 81.9814 100.188 81.3857C100.764 80.7803 101.228 80.0674 101.579 79.2471C101.931 78.4268 102.106 77.5283 102.106 76.5518C102.106 75.5752 101.931 74.6768 101.579 73.8564C101.228 73.0361 100.764 72.3281 100.188 71.7324C99.6211 71.127 98.9668 70.6533 98.2246 70.3115C97.4922 69.9697 96.7354 69.7988 95.9541 69.7988H93.0977V83.3047H95.9541ZM90.2559 86V67.1035H95.9541C97.1553 67.1035 98.2979 67.3477 99.3818 67.8359C100.476 68.3242 101.433 68.998 102.253 69.8574C103.073 70.7168 103.728 71.7178 104.216 72.8604C104.704 74.0029 104.948 75.2334 104.948 76.5518C104.948 77.8701 104.704 79.1006 104.216 80.2432C103.728 81.3857 103.073 82.3867 102.253 83.2461C101.433 84.1055 100.476 84.7793 99.3818 85.2676C98.2979 85.7559 97.1553 86 95.9541 86H90.2559ZM124.189 76.5518C124.189 75.5361 124.014 74.5986 123.662 73.7393C123.311 72.8701 122.852 72.123 122.285 71.498C121.719 70.8633 121.064 70.375 120.322 70.0332C119.58 69.6816 118.818 69.5059 118.037 69.5059C117.256 69.5059 116.494 69.6816 115.752 70.0332C115.02 70.375 114.365 70.8633 113.789 71.498C113.223 72.123 112.764 72.8652 112.412 73.7246C112.061 74.584 111.885 75.5264 111.885 76.5518C111.885 77.5674 112.061 78.5049 112.412 79.3643C112.764 80.2236 113.223 80.9707 113.789 81.6055C114.365 82.2305 115.02 82.7188 115.752 83.0703C116.494 83.4219 117.256 83.5977 118.037 83.5977C118.818 83.5977 119.58 83.4219 120.322 83.0703C121.064 82.7188 121.719 82.2305 122.285 81.6055C122.852 80.9707 123.311 80.2236 123.662 79.3643C124.014 78.5049 124.189 77.5674 124.189 76.5518ZM127.031 76.5518C127.031 77.9092 126.787 79.1689 126.299 80.3311C125.811 81.4932 125.156 82.5088 124.336 83.3779C123.516 84.2471 122.559 84.9258 121.465 85.4141C120.381 85.9023 119.238 86.1465 118.037 86.1465C116.836 86.1465 115.688 85.9023 114.595 85.4141C113.511 84.9258 112.559 84.2471 111.738 83.3779C110.918 82.5088 110.264 81.4932 109.775 80.3311C109.287 79.1689 109.043 77.9092 109.043 76.5518C109.043 75.2139 109.287 73.959 109.775 72.7871C110.264 71.6152 110.918 70.5947 111.738 69.7256C112.559 68.8564 113.511 68.1777 114.595 67.6895C115.688 67.2012 116.836 66.957 118.037 66.957C119.238 66.957 120.381 67.2012 121.465 67.6895C122.559 68.1777 123.516 68.8564 124.336 69.7256C125.156 70.5947 125.811 71.6152 126.299 72.7871C126.787 73.959 127.031 75.2139 127.031 76.5518Z" fill="black"/>
<path fill-rule="evenodd" clip-rule="evenodd" d="M54 90C61.732 90 68 83.732 68 76C68 68.268 61.732 62 54 62C46.268 62 40 68.268 40 76C40 83.732 46.268 90 54 90Z" fill="#90E19E" stroke="#256830" stroke-width="2"/>
<path d="M60.4616 69.2874C59.8794 68.799 59.0651 68.9484 58.6411 69.6191L52.5872 79.2132L49.2523 75.302C48.761 74.6969 47.9366 74.6677 47.4116 75.2363C46.8867 75.8013 46.8597 76.7527 47.3544 77.3542C47.3544 77.3542 51.406 82.2241 51.9882 82.7126C52.5704 83.201 53.3847 83.0516 53.8087 82.3809L60.751 71.3834C61.175 70.709 61.0438 69.7722 60.4616 69.2874Z" fill="#256830"/>
</svg>
