<?xml version="1.0" encoding="UTF-8"?>
<svg width="257px" height="121px" viewBox="0 0 257 121" version="1.1" xmlns="http://www.w3.org/2000/svg" xmlns:xlink="http://www.w3.org/1999/xlink">
    <!-- Generator: Sketch 58 (84663) - https://sketch.com -->
    <title>Tags</title>
    <desc>Created with Sketch.</desc>
    <g id="Bridge---Design-System" stroke="none" stroke-width="1" fill="none" fill-rule="evenodd">
        <g id="Tags" transform="translate(-133.000000, -1131.000000)">
            <g transform="translate(133.000000, 1132.000000)">
                <rect id="Rectangle-Copy-9" fill="#415F94" x="80" y="65" width="100" height="28" rx="4"></rect>
                <rect id="Rectangle-Copy-24" fill="#D1595F" x="134" y="29" width="85" height="28" rx="4"></rect>
                <rect id="Rectangle-Copy-4" fill="#3E87CD" x="37" y="29" width="89" height="28" rx="4"></rect>
                <text id="Light-Red-Copy" font-family="HKGrotesk-Regular, HK Grotesk" font-size="16" font-weight="normal" line-spacing="20" letter-spacing="0.4" fill="#FFFFFF">
                    <tspan x="142" y="47">Light Red</tspan>
                </text>
                <text id="Light-Blue-Copy" font-family="HKGrotesk-Regular, HK Grotesk" font-size="16" font-weight="normal" line-spacing="20" letter-spacing="0.4" fill="#FFFFFF">
                    <tspan x="45" y="47">Light Blue</tspan>
                </text>
                <text id="Light-Indigo-Copy" font-family="HKGrotesk-Regular, HK Grotesk" font-size="16" font-weight="normal" line-spacing="20" letter-spacing="0.4" fill="#FFFFFF">
                    <tspan x="87" y="83">Light Indigo</tspan>
                </text>
                <rect id="Rectangle" fill-opacity="0.347601617" fill="#D356DD" x="126" y="29" width="8" height="28"></rect>
                <rect id="Rectangle-Copy-10" fill-opacity="0.347601617" fill="#D356DD" x="172" y="65" width="8" height="28"></rect>
                <rect id="Rectangle-Copy-14" fill-opacity="0.347601617" fill="#D356DD" x="80" y="65" width="8" height="28"></rect>
                <rect id="Rectangle-Copy-5" fill-opacity="0.347601617" fill="#D356DD" transform="translate(109.500000, 61.000000) rotate(90.000000) translate(-109.500000, -61.000000) " x="105.5" y="-9.5" width="8" height="141"></rect>
                <path d="M126.5,29.5 L126.5,56.5" id="Line-15" stroke="#D356DD" stroke-linecap="square" stroke-dasharray="2"></path>
                <path d="M172.5,65.5 L172.5,92.5" id="Line-15-Copy-4" stroke="#D356DD" stroke-linecap="square" stroke-dasharray="2"></path>
                <path d="M80.5,65.5 L80.5,92.5" id="Line-15-Copy-6" stroke="#D356DD" stroke-linecap="square" stroke-dasharray="2"></path>
                <path d="M108.5,-13.375 L108.5,128.375" id="Line-15-Copy-2" stroke="#D356DD" stroke-linecap="square" stroke-dasharray="2" transform="translate(108.500000, 57.500000) rotate(90.000000) translate(-108.500000, -57.500000) "></path>
                <path d="M133.55,29.5 L133.55,56.5" id="Line-15-Copy" stroke="#D356DD" stroke-linecap="square" stroke-dasharray="2"></path>
                <path d="M179.55,65.5 L179.55,92.5" id="Line-15-Copy-5" stroke="#D356DD" stroke-linecap="square" stroke-dasharray="2"></path>
                <path d="M87.55,65.5 L87.55,92.5" id="Line-15-Copy-7" stroke="#D356DD" stroke-linecap="square" stroke-dasharray="2"></path>
                <path d="M108,-6.5 L108,135.5" id="Line-15-Copy-3" stroke="#D356DD" stroke-linecap="square" stroke-dasharray="2" transform="translate(108.000000, 64.500000) rotate(90.000000) translate(-108.000000, -64.500000) "></path>
                <g id="Group-2" transform="translate(126.000000, 16.000000)" stroke="#D356DD" stroke-linecap="square">
                    <path d="M0.5,0.5 L0.5,8.5" id="Line-16"></path>
                    <path d="M7.55,0.5 L7.55,8.5" id="Line-16-Copy"></path>
                    <path d="M0.5,4.5 L7.5,4.5" id="Line-17"></path>
                </g>
                <g id="Group-2-Copy" transform="translate(80.000000, 97.000000)" stroke="#D356DD" stroke-linecap="square">
                    <path d="M0.5,0.5 L0.5,8.5" id="Line-16"></path>
                    <path d="M7.55,0.5 L7.55,8.5" id="Line-16-Copy"></path>
                    <path d="M0.5,4.5 L7.5,4.5" id="Line-17"></path>
                </g>
                <g id="Group-2-Copy-2" transform="translate(172.000000, 97.000000)" stroke="#D356DD" stroke-linecap="square">
                    <path d="M0.5,0.5 L0.5,8.5" id="Line-16"></path>
                    <path d="M7.55,0.5 L7.55,8.5" id="Line-16-Copy"></path>
                    <path d="M0.5,4.5 L7.5,4.5" id="Line-17"></path>
                </g>
                <g id="Group" transform="translate(30.500000, 61.500000) rotate(90.000000) translate(-30.500000, -61.500000) translate(26.000000, 57.000000)" stroke="#D356DD" stroke-linecap="square">
                    <path d="M0.5,0.5 L0.5,8.5" id="Line-16-Copy-2"></path>
                    <path d="M7.55,0.5 L7.55,8.5" id="Line-16-Copy-3"></path>
                    <path d="M0.5,4.5 L7.5,4.5" id="Line-17-Copy"></path>
                </g>
                <text id="8-px" font-family="TTCommons-Light, TT Commons" font-size="12" font-weight="300" letter-spacing="0.51200016" fill="#D356DD">
                    <tspan x="126" y="8">8 px</tspan>
                </text>
                <text id="4-px" font-family="TTCommons-Light, TT Commons" font-size="12" font-weight="300" letter-spacing="0.51200016" fill="#7EC8A2">
                    <tspan x="236" y="33">4 px</tspan>
                </text>
                <text id="8-px-copy" font-family="TTCommons-Light, TT Commons" font-size="12" font-weight="300" letter-spacing="0.51200016" fill="#D356DD">
                    <tspan x="172" y="118">8 px</tspan>
                </text>
                <text id="8-px-copy-2" font-family="TTCommons-Light, TT Commons" font-size="12" font-weight="300" letter-spacing="0.51200016" fill="#D356DD">
                    <tspan x="80" y="118">8 px</tspan>
                </text>
                <text id="8-px" font-family="TTCommons-Light, TT Commons" font-size="12" font-weight="300" letter-spacing="0.51200016" fill="#D356DD">
                    <tspan x="0" y="64">8 px</tspan>
                </text>
                <rect id="Rectangle" fill-opacity="0.613772946" fill="#98E3BD" x="197" y="29" width="20" height="4"></rect>
                <path d="M197.5,28.5 L216.5,28.5" id="Line-34" stroke="#98E3BD" stroke-linecap="square" stroke-dasharray="2"></path>
                <path d="M223.3,29 L229.7,29" id="Line" stroke="#98E3BD" stroke-linecap="square"></path>
                <path d="M223.3,33 L229.7,33" id="Line-Copy" stroke="#98E3BD" stroke-linecap="square"></path>
                <path d="M226,30 L226,33" id="Line-2" stroke="#98E3BD" stroke-linecap="square"></path>
                <path d="M197.5,33 L216.5,33" id="Line-34-Copy" stroke="#98E3BD" stroke-linecap="square" stroke-dasharray="2"></path>
            </g>
        </g>
    </g>
</svg>