<svg width="787" height="333" viewBox="0 0 787 333" fill="none" xmlns="http://www.w3.org/2000/svg">
<rect width="444" height="333" fill="#FCFCFC"/>
<rect x="526" y="14" width="261" height="282" fill="#FCFCFC"/>
<g filter="url(#filter0_d)">
<rect x="56" y="54" width="333" height="232" rx="4" fill="white"/>
</g>
<g filter="url(#filter1_d)">
<rect x="571" y="42" width="156" height="224" rx="4" fill="white"/>
</g>
<path d="M593.692 97.5H628.308" stroke="#656565" stroke-linecap="square" stroke-linejoin="round"/>
<path d="M593.692 129.5H628.308" stroke="#656565" stroke-linecap="square" stroke-linejoin="round"/>
<path d="M593.692 179.5H628.308" stroke="#656565" stroke-linecap="square" stroke-linejoin="round"/>
<path d="M608.692 194.5H643.308" stroke="#656565" stroke-linecap="square" stroke-linejoin="round"/>
<path d="M608.692 208H643.308" stroke="#656565" stroke-linecap="square" stroke-linejoin="round"/>
<path d="M608.692 220.5H643.308" stroke="#656565" stroke-linecap="square" stroke-linejoin="round"/>
<path d="M608.692 232.5H643.308" stroke="#656565" stroke-linecap="square" stroke-linejoin="round"/>
<path fill-rule="evenodd" clip-rule="evenodd" d="M597.5 199C599.433 199 601 197.433 601 195.5C601 193.567 599.433 192 597.5 192C595.567 192 594 193.567 594 195.5C594 197.433 595.567 199 597.5 199Z" fill="white" stroke="#656565"/>
<path fill-rule="evenodd" clip-rule="evenodd" d="M597.5 211C599.433 211 601 209.433 601 207.5C601 205.567 599.433 204 597.5 204C595.567 204 594 205.567 594 207.5C594 209.433 595.567 211 597.5 211Z" fill="white" stroke="#656565"/>
<path fill-rule="evenodd" clip-rule="evenodd" d="M597.5 223C599.433 223 601 221.433 601 219.5C601 217.567 599.433 216 597.5 216C595.567 216 594 217.567 594 219.5C594 221.433 595.567 223 597.5 223Z" fill="white" stroke="#656565"/>
<path fill-rule="evenodd" clip-rule="evenodd" d="M597.5 236C599.433 236 601 234.433 601 232.5C601 230.567 599.433 229 597.5 229C595.567 229 594 230.567 594 232.5C594 234.433 595.567 236 597.5 236Z" fill="white" stroke="#656565"/>
<rect x="594" y="104" width="114" height="14" rx="2" fill="white" stroke="#656565"/>
<rect x="594" y="136" width="114" height="32" rx="2" fill="white" stroke="#656565"/>
<path d="M591.171 83H592.147L592.626 81.6509H595.206L595.68 83H596.643L594.252 76.7905H593.575L591.171 83ZM592.925 80.8643L593.918 78.1045L594.902 80.8643H592.925ZM602.133 83.0879C602.964 83.0879 603.601 82.6309 603.874 81.8574L603.113 81.5542C602.99 82.0244 602.608 82.3188 602.125 82.3188C601.285 82.3188 600.991 81.5498 600.991 80.8115C600.991 80.082 601.294 79.3086 602.125 79.3086C602.608 79.3086 602.99 79.5898 603.113 80.0732L603.922 79.7437C603.601 79.0054 602.955 78.5352 602.125 78.5352C600.78 78.5352 600.121 79.647 600.121 80.8115C600.121 81.9893 600.789 83.0879 602.133 83.0879ZM606.876 83.0879C608.168 83.0879 609.038 82.0684 609.038 80.8203C609.038 79.5767 608.168 78.5527 606.876 78.5527C605.58 78.5527 604.718 79.5767 604.718 80.8203C604.718 82.0684 605.58 83.0879 606.876 83.0879ZM606.876 82.3452C605.984 82.3452 605.632 81.6245 605.632 80.8203C605.632 80.0161 605.984 79.2954 606.876 79.2954C607.781 79.2954 608.124 80.0161 608.124 80.8203C608.124 81.6245 607.781 82.3452 606.876 82.3452ZM612.098 83.0879C613.39 83.0879 614.26 82.0684 614.26 80.8203C614.26 79.5767 613.39 78.5527 612.098 78.5527C610.801 78.5527 609.94 79.5767 609.94 80.8203C609.94 82.0684 610.801 83.0879 612.098 83.0879ZM612.098 82.3452C611.206 82.3452 610.854 81.6245 610.854 80.8203C610.854 80.0161 611.206 79.2954 612.098 79.2954C613.003 79.2954 613.346 80.0161 613.346 80.8203C613.346 81.6245 613.003 82.3452 612.098 82.3452ZM616.353 83.0879C616.568 83.0879 616.849 83.0439 617.03 83V82.2969C616.924 82.3188 616.77 82.332 616.678 82.332C616.436 82.332 616.384 82.1343 616.384 82.064V76.7905H615.531V82.1211C615.531 82.7671 615.751 83.0879 616.353 83.0879ZM621.149 83H622.015V79.3174H623.166V78.6099H622.015V77.9243C622.015 77.6343 622.248 77.4585 622.542 77.4585C622.784 77.4585 622.947 77.564 622.947 77.564L623.197 76.874C622.977 76.7686 622.709 76.6982 622.45 76.6982C621.743 76.6982 621.154 77.1201 621.154 77.9023V78.6187H620.345V79.3174H621.149V83ZM625.98 83.0879C627.272 83.0879 628.142 82.0684 628.142 80.8203C628.142 79.5767 627.272 78.5527 625.98 78.5527C624.684 78.5527 623.822 79.5767 623.822 80.8203C623.822 82.0684 624.684 83.0879 625.98 83.0879ZM625.98 82.3452C625.088 82.3452 624.736 81.6245 624.736 80.8203C624.736 80.0161 625.088 79.2954 625.98 79.2954C626.885 79.2954 627.228 80.0161 627.228 80.8203C627.228 81.6245 626.885 82.3452 625.98 82.3452ZM629.426 83H630.266V81.0532C630.266 80.0996 630.674 79.3218 631.386 79.3218C631.593 79.3218 631.764 79.3701 631.909 79.4976L632.256 78.7856C632.037 78.6187 631.685 78.5439 631.43 78.5439C630.986 78.5439 630.446 78.8208 630.274 79.4053V78.6099H629.426V83ZM633.242 83H634.103V80.5391C634.103 79.8799 634.472 79.291 635.127 79.291C635.786 79.291 635.949 79.8579 635.949 80.4248V83H636.81V80.5391C636.81 79.8799 637.179 79.291 637.834 79.291C638.498 79.291 638.665 79.8755 638.665 80.4424V83H639.53V80.3457C639.53 79.4009 639.069 78.5352 637.953 78.5352C637.368 78.5352 636.858 78.8032 636.551 79.3174C636.3 78.79 635.843 78.5264 635.246 78.5264C634.78 78.5264 634.332 78.7725 634.103 79.2251V78.6099H633.242V83Z" fill="#525151"/>
<path d="M593.125 59.5H708.875" stroke="#EBEEF2" stroke-width="2" stroke-linecap="square"/>
<path fill-rule="evenodd" clip-rule="evenodd" d="M669.5 62C670.881 62 672 60.8807 672 59.5C672 58.1193 670.881 57 669.5 57C668.119 57 667 58.1193 667 59.5C667 60.8807 668.119 62 669.5 62Z" fill="white" stroke="#155DA1" stroke-width="0.5"/>
<path fill-rule="evenodd" clip-rule="evenodd" d="M708.5 62C709.881 62 711 60.8807 711 59.5C711 58.1193 709.881 57 708.5 57C707.119 57 706 58.1193 706 59.5C706 60.8807 707.119 62 708.5 62Z" fill="white" stroke="#155DA1" stroke-width="0.5"/>
<path d="M593.124 59.5H630.876" stroke="#155DA1" stroke-width="2" stroke-linecap="square"/>
<path fill-rule="evenodd" clip-rule="evenodd" d="M591.5 62C592.881 62 594 60.8807 594 59.5C594 58.1193 592.881 57 591.5 57C590.119 57 589 58.1193 589 59.5C589 60.8807 590.119 62 591.5 62Z" fill="#155DA1" stroke="#155DA1"/>
<path fill-rule="evenodd" clip-rule="evenodd" d="M630.5 62C631.881 62 633 60.8807 633 59.5C633 58.1193 631.881 57 630.5 57C629.119 57 628 58.1193 628 59.5C628 60.8807 629.119 62 630.5 62Z" fill="#155DA1" stroke="#155DA1" stroke-width="0.5"/>
<rect x="689" y="245" width="19" height="8" fill="#155DA1" stroke="#155DA1"/>
<rect x="666" y="245" width="19" height="8" fill="white" stroke="#155DA1"/>
<path fill-rule="evenodd" clip-rule="evenodd" d="M591.5 61C592.328 61 593 60.3284 593 59.5C593 58.6716 592.328 58 591.5 58C590.672 58 590 58.6716 590 59.5C590 60.3284 590.672 61 591.5 61Z" fill="#155DA1" stroke="white" stroke-width="0.5"/>
<path d="M592.5 59.5L593.5 58.5" stroke="#155DA1" stroke-linecap="square"/>
<path d="M591.7 60.25L594 57.9062" stroke="white" stroke-width="0.25" stroke-linecap="square"/>
<path d="M590.7 59.25L591.7 60.25" stroke="white" stroke-width="0.25" stroke-linecap="square"/>
<path d="M78.7725 94H80.1875V82.7324H84.3711V81.5811H74.5801V82.7324H78.7725V94ZM88.3625 94.1055C89.7688 94.1055 90.7619 93.7188 91.7287 92.752L90.8322 92.0312C90.1467 92.752 89.3908 92.9453 88.3449 92.9453C86.6486 92.9453 85.7785 91.6094 85.7961 90.0537H91.9133C91.9133 90.0537 91.9572 89.8252 91.9572 89.7197C91.9572 87.3291 91.0871 85.1055 88.2131 85.1055C85.6906 85.1055 84.4162 87.3027 84.4162 89.6582C84.4162 92.0488 85.7082 94.1055 88.3625 94.1055ZM85.7961 88.9814C85.8576 87.4961 86.6223 86.2744 88.2131 86.2744C89.9006 86.2744 90.7092 87.3906 90.7004 88.9814H85.7961ZM93.4789 94H95.0785L97.1264 90.6777L99.1918 94H100.747L97.8295 89.5703L100.747 85.2197H99.1918L97.1264 88.4717L95.0785 85.2197H93.4789L96.4408 89.5703L93.4789 94ZM105.416 94.1758C105.952 94.1758 106.4 94.0791 106.593 94V92.875C106.321 93.0068 106.013 93.0947 105.714 93.0947C105.073 93.0947 104.581 92.6465 104.581 91.6797V86.3271H106.831V85.2197H104.581V82.0117L103.271 83.2422V85.2197H101.891V86.3271H103.271V91.6709C103.271 93.1738 103.86 94.1758 105.416 94.1758ZM115.007 94H116.237V86.292H119.542V94H120.737V85.2197H116.237C116.237 83.7695 116.633 82.5127 118.224 82.5127C118.856 82.5127 119.41 82.7061 120.034 83.3652L120.667 82.4336C119.964 81.6074 118.874 81.3965 118.092 81.3965C115.798 81.3965 115.024 83.2334 115.024 85.2197H113.715V86.292H115.007V94ZM127.497 94.1055C128.904 94.1055 129.897 93.7188 130.863 92.752L129.967 92.0312C129.281 92.752 128.526 92.9453 127.48 92.9453C125.783 92.9453 124.913 91.6094 124.931 90.0537H131.048C131.048 90.0537 131.092 89.8252 131.092 89.7197C131.092 87.3291 130.222 85.1055 127.348 85.1055C124.825 85.1055 123.551 87.3027 123.551 89.6582C123.551 92.0488 124.843 94.1055 127.497 94.1055ZM124.931 88.9814C124.992 87.4961 125.757 86.2744 127.348 86.2744C129.035 86.2744 129.844 87.3906 129.835 88.9814H124.931ZM135.417 93.0332C135.013 93.0332 134.978 92.5586 134.978 92.5322V81.5811H133.66V92.2246C133.66 93.2881 133.747 94.1758 135.083 94.1758C135.523 94.1758 135.98 94.0879 136.261 94V92.9453C136.068 92.9805 135.716 93.0332 135.417 93.0332ZM144.216 81.5811V86.415C143.636 85.5713 142.749 85.0352 141.474 85.0352C139.233 85.0352 137.959 87.0918 137.959 89.6055C137.959 92.1104 139.233 94.1758 141.483 94.1758C142.801 94.1758 143.654 93.6133 144.225 92.7783L144.252 94H145.535V81.5811H144.216ZM141.817 92.9805C140.05 92.9805 139.295 91.3984 139.295 89.6055C139.295 87.8301 140.05 86.248 141.817 86.248C143.61 86.248 144.331 87.8301 144.331 89.6055C144.331 91.4072 143.61 92.9805 141.817 92.9805ZM155.759 93.0332C155.354 93.0332 155.319 92.5586 155.319 92.5322V81.5811H154.001V92.2246C154.001 93.2881 154.089 94.1758 155.425 94.1758C155.864 94.1758 156.321 94.0879 156.603 94V92.9453C156.409 92.9805 156.058 93.0332 155.759 93.0332ZM160.989 94.1758C162.238 94.1758 163.433 93.6221 164.074 92.3037L164.101 94H165.217V88.6123C165.217 86.4766 164.013 85.0703 161.78 85.0703C160.33 85.0703 159.249 85.668 158.467 86.7578L159.425 87.5049C159.847 86.8984 160.603 86.2129 161.86 86.2129C163.45 86.2129 164.013 87.3291 164.013 88.9814H162C159.513 88.9814 158.115 89.7988 158.115 91.5566C158.115 93.209 159.337 94.1758 160.989 94.1758ZM161.139 93.0684C160.225 93.0684 159.478 92.6377 159.478 91.5918C159.478 90.4229 160.392 89.9746 162.132 89.9746H164.013C164.013 91.3896 162.941 93.0684 161.139 93.0684ZM172.364 94.1758C174.649 94.1758 175.888 92.1104 175.888 89.6055C175.888 87.1006 174.649 85.0176 172.355 85.0176C171.072 85.0176 170.193 85.5977 169.63 86.415V81.5811H168.321V94H169.63V92.8047C170.193 93.6309 171.08 94.1758 172.364 94.1758ZM172.021 93.0244C170.254 93.0244 169.516 91.3984 169.516 89.6055C169.516 87.8301 170.254 86.1777 172.021 86.1777C173.787 86.1777 174.579 87.8301 174.579 89.6055C174.579 91.3984 173.787 93.0244 172.021 93.0244ZM181.822 94.1055C183.228 94.1055 184.221 93.7188 185.188 92.752L184.292 92.0312C183.606 92.752 182.85 92.9453 181.804 92.9453C180.108 92.9453 179.238 91.6094 179.255 90.0537H185.373C185.373 90.0537 185.417 89.8252 185.417 89.7197C185.417 87.3291 184.546 85.1055 181.672 85.1055C179.15 85.1055 177.876 87.3027 177.876 89.6582C177.876 92.0488 179.168 94.1055 181.822 94.1055ZM179.255 88.9814C179.317 87.4961 180.082 86.2744 181.672 86.2744C183.36 86.2744 184.169 87.3906 184.16 88.9814H179.255ZM189.742 93.0332C189.338 93.0332 189.303 92.5586 189.303 92.5322V81.5811H187.984V92.2246C187.984 93.2881 188.072 94.1758 189.408 94.1758C189.847 94.1758 190.304 94.0879 190.586 94V92.9453C190.392 92.9805 190.041 93.0332 189.742 93.0332Z" fill="#272A2D"/>
<rect x="97" y="184" width="261" height="71" stroke="#D35FC9" stroke-width="2" stroke-dasharray="6"/>
<rect x="657" y="237" width="59" height="23" stroke="#D35FC9" stroke-width="2" stroke-dasharray="4"/>
<rect x="75" y="111" width="273" height="44" rx="4" fill="white" stroke="#8B9199"/>
<path d="M85.8896 138H87.2871V132.393H89.3789C91.7871 132.393 93.3516 131.197 93.3516 129.009C93.3516 126.873 91.7871 125.581 89.3789 125.581H85.8896V138ZM87.2871 131.153V126.82H89.3789C91.0312 126.82 91.9717 127.629 91.9717 129.009C91.9717 130.441 91.0312 131.153 89.3789 131.153H87.2871ZM97.7033 137.033C97.299 137.033 97.2639 136.559 97.2639 136.532V125.581H95.9455V136.225C95.9455 137.288 96.0334 138.176 97.3693 138.176C97.8088 138.176 98.2658 138.088 98.5471 138V136.945C98.3537 136.98 98.0021 137.033 97.7033 137.033ZM102.934 138.176C104.182 138.176 105.377 137.622 106.019 136.304L106.045 138H107.162V132.612C107.162 130.477 105.957 129.07 103.725 129.07C102.275 129.07 101.194 129.668 100.412 130.758L101.37 131.505C101.791 130.898 102.547 130.213 103.804 130.213C105.395 130.213 105.957 131.329 105.957 132.981H103.945C101.457 132.981 100.06 133.799 100.06 135.557C100.06 137.209 101.282 138.176 102.934 138.176ZM103.083 137.068C102.169 137.068 101.422 136.638 101.422 135.592C101.422 134.423 102.336 133.975 104.077 133.975H105.957C105.957 135.39 104.885 137.068 103.083 137.068ZM113.403 138.176C114.994 138.176 116.189 137.306 116.708 135.847L115.565 135.354C115.301 136.392 114.449 137.06 113.385 137.06C111.548 137.06 110.933 135.231 110.933 133.623C110.933 132.041 111.566 130.195 113.385 130.195C114.44 130.195 115.301 130.837 115.565 131.9L116.813 131.373C116.189 129.958 114.976 129.07 113.385 129.07C110.854 129.07 109.588 131.268 109.588 133.623C109.588 136.005 110.872 138.176 113.403 138.176ZM122.43 138.105C123.837 138.105 124.83 137.719 125.797 136.752L124.9 136.031C124.215 136.752 123.459 136.945 122.413 136.945C120.717 136.945 119.846 135.609 119.864 134.054H125.981C125.981 134.054 126.025 133.825 126.025 133.72C126.025 131.329 125.155 129.105 122.281 129.105C119.759 129.105 118.484 131.303 118.484 133.658C118.484 136.049 119.776 138.105 122.43 138.105ZM119.864 132.981C119.926 131.496 120.69 130.274 122.281 130.274C123.969 130.274 124.777 131.391 124.768 132.981H119.864ZM128.619 138H129.911V133.192C129.911 131.646 131.071 130.31 132.574 130.31C134.051 130.31 134.394 131.602 134.394 132.797V138H135.721V132.586C135.721 130.714 134.877 129.07 132.768 129.07C131.634 129.07 130.5 129.694 129.911 130.661V125.581H128.619V138ZM142.261 138.176C144.713 138.176 146.427 136.146 146.427 133.641C146.427 131.145 144.713 129.105 142.261 129.105C139.774 129.105 138.104 131.145 138.104 133.641C138.104 136.146 139.774 138.176 142.261 138.176ZM142.261 137.016C140.319 137.016 139.571 135.398 139.571 133.641C139.571 131.883 140.319 130.274 142.261 130.274C144.221 130.274 144.959 131.883 144.959 133.641C144.959 135.398 144.221 137.016 142.261 137.016ZM150.761 137.033C150.357 137.033 150.322 136.559 150.322 136.532V125.581H149.003V136.225C149.003 137.288 149.091 138.176 150.427 138.176C150.867 138.176 151.324 138.088 151.605 138V136.945C151.412 136.98 151.06 137.033 150.761 137.033ZM159.56 125.581V130.415C158.98 129.571 158.092 129.035 156.818 129.035C154.577 129.035 153.302 131.092 153.302 133.605C153.302 136.11 154.577 138.176 156.827 138.176C158.145 138.176 158.998 137.613 159.569 136.778L159.595 138H160.879V125.581H159.56ZM157.161 136.98C155.394 136.98 154.638 135.398 154.638 133.605C154.638 131.83 155.394 130.248 157.161 130.248C158.954 130.248 159.674 131.83 159.674 133.605C159.674 135.407 158.954 136.98 157.161 136.98ZM167.436 138.105C168.843 138.105 169.836 137.719 170.803 136.752L169.906 136.031C169.221 136.752 168.465 136.945 167.419 136.945C165.722 136.945 164.852 135.609 164.87 134.054H170.987C170.987 134.054 171.031 133.825 171.031 133.72C171.031 131.329 170.161 129.105 167.287 129.105C164.764 129.105 163.49 131.303 163.49 133.658C163.49 136.049 164.782 138.105 167.436 138.105ZM164.87 132.981C164.931 131.496 165.696 130.274 167.287 130.274C168.974 130.274 169.783 131.391 169.774 132.981H164.87ZM173.607 138H174.926V134.265C174.926 132.05 175.743 130.213 177.352 130.213C177.721 130.213 178.143 130.318 178.468 130.608L178.925 129.492C178.547 129.22 177.888 129.088 177.439 129.088C176.429 129.088 175.233 129.765 174.943 130.925V129.22H173.607V138ZM188.551 138.176C189.087 138.176 189.536 138.079 189.729 138V136.875C189.456 137.007 189.149 137.095 188.85 137.095C188.208 137.095 187.716 136.646 187.716 135.68V130.327H189.966V129.22H187.716V126.012L186.407 127.242V129.22H185.027V130.327H186.407V135.671C186.407 137.174 186.996 138.176 188.551 138.176ZM195.619 138.105C197.025 138.105 198.018 137.719 198.985 136.752L198.088 136.031C197.403 136.752 196.647 136.945 195.601 136.945C193.905 136.945 193.035 135.609 193.052 134.054H199.17C199.17 134.054 199.213 133.825 199.213 133.72C199.213 131.329 198.343 129.105 195.469 129.105C192.947 129.105 191.672 131.303 191.672 133.658C191.672 136.049 192.964 138.105 195.619 138.105ZM193.052 132.981C193.114 131.496 193.879 130.274 195.469 130.274C197.157 130.274 197.965 131.391 197.957 132.981H193.052ZM200.735 138H202.335L204.383 134.678L206.448 138H208.004L205.086 133.57L208.004 129.22H206.448L204.383 132.472L202.335 129.22H200.735L203.697 133.57L200.735 138ZM212.672 138.176C213.208 138.176 213.656 138.079 213.85 138V136.875C213.577 137.007 213.27 137.095 212.971 137.095C212.329 137.095 211.837 136.646 211.837 135.68V130.327H214.087V129.22H211.837V126.012L210.527 127.242V129.22H209.147V130.327H210.527V135.671C210.527 137.174 211.116 138.176 212.672 138.176Z" fill="#8B9199"/>
<rect x="108" y="195" width="112" height="48" rx="13" fill="white" stroke="#155DA1" stroke-width="2"/>
<path d="M148.058 214.396C148.515 214.396 148.935 214.503 149.318 214.718C149.701 214.923 150.004 215.208 150.228 215.572C150.461 215.927 150.578 216.319 150.578 216.748C150.578 217.401 150.424 217.905 150.116 218.26C149.808 218.615 149.416 218.857 148.94 218.988V219.058C149.453 219.161 149.892 219.399 150.256 219.772C150.62 220.145 150.802 220.701 150.802 221.438C150.802 221.905 150.681 222.334 150.438 222.726C150.205 223.118 149.883 223.431 149.472 223.664C149.071 223.888 148.627 224 148.142 224H143.298V214.396H148.058ZM147.442 218.288C147.722 218.288 147.969 218.181 148.184 217.966C148.399 217.751 148.506 217.481 148.506 217.154C148.506 216.762 148.399 216.482 148.184 216.314C147.969 216.137 147.722 216.048 147.442 216.048H145.342V218.288H147.442ZM147.596 222.264C147.904 222.264 148.165 222.157 148.38 221.942C148.595 221.727 148.702 221.466 148.702 221.158V221.032C148.702 220.724 148.595 220.463 148.38 220.248C148.165 220.033 147.904 219.926 147.596 219.926H145.342V222.264H147.596ZM159.921 222.11H156.099L155.427 224H153.341L156.827 214.396H159.403L162.889 224H160.621L159.921 222.11ZM156.687 220.472H159.347C158.993 219.417 158.563 218.162 158.059 216.706H157.989L156.687 220.472ZM167.851 220.192C167.851 220.901 168.042 221.452 168.425 221.844C168.808 222.227 169.293 222.418 169.881 222.418C170.544 222.418 171.034 222.241 171.351 221.886C171.668 221.522 171.827 220.967 171.827 220.22H173.801C173.801 221.041 173.633 221.751 173.297 222.348C172.97 222.936 172.518 223.384 171.939 223.692C171.36 223.991 170.707 224.14 169.979 224.14H169.783C168.98 224.14 168.262 223.977 167.627 223.65C166.992 223.323 166.493 222.843 166.129 222.208C165.765 221.564 165.583 220.789 165.583 219.884V218.512C165.583 217.635 165.765 216.874 166.129 216.23C166.493 215.586 166.988 215.096 167.613 214.76C168.248 214.424 168.952 214.256 169.727 214.256H169.923C170.67 214.256 171.332 214.405 171.911 214.704C172.499 214.993 172.961 215.437 173.297 216.034C173.633 216.622 173.801 217.345 173.801 218.204H171.743C171.743 217.476 171.58 216.925 171.253 216.552C170.936 216.169 170.474 215.978 169.867 215.978C169.279 215.978 168.794 216.174 168.411 216.566C168.038 216.949 167.851 217.495 167.851 218.204V220.192ZM179.59 214.396V218.792L183.048 214.396H185.47L182.236 218.442C183.029 219.767 183.486 220.533 183.608 220.738L185.568 224H183.118L180.836 220.108L179.59 221.494V224H177.476V214.396H179.59Z" fill="#155DA1"/>
<rect x="240" y="195" width="108" height="48" rx="13" fill="#155DA1"/>
<path d="M277.281 219.576C277.178 219.427 277.038 219.207 276.861 218.918C276.683 218.619 276.567 218.423 276.511 218.33L276.455 218.372V224H274.481V214.396H276.315L279.339 218.848L279.759 219.506C279.908 219.767 280.025 219.959 280.109 220.08L280.151 220.038V214.396H282.125V224H280.291L277.281 219.576ZM286.16 224V214.396H292.922L292.684 216.118H288.288V218.218H292.39V219.94H288.288V222.278H292.726L292.964 224H286.16ZM298.768 218.96L295.828 214.396H298.362L300.182 217.336H300.238C301.19 215.899 301.81 214.919 302.1 214.396H304.438C304.251 214.685 303.878 215.264 303.318 216.132C302.767 216.991 302.156 217.924 301.484 218.932C302.128 219.931 302.772 220.934 303.416 221.942C304.06 222.941 304.498 223.627 304.732 224H302.198L300.07 220.57H300.014C298.81 222.427 298.091 223.571 297.858 224H295.52L298.768 218.96ZM311.704 216.132V224H309.562V216.132H306.832V214.396H314.42V216.132H311.704Z" fill="white"/>
<path d="M508 249L656.5 249.5" stroke="#D35FC9" stroke-width="2" stroke-linecap="square" stroke-dasharray="6"/>
<path d="M508.5 248.5V211.5" stroke="#D35FC9" stroke-width="2" stroke-linecap="square" stroke-dasharray="6"/>
<path d="M359.5 211.5H508.5" stroke="#D35FC9" stroke-width="2" stroke-linecap="square" stroke-dasharray="6"/>
<defs>
<filter id="filter0_d" x="52" y="52" width="341" height="240" filterUnits="userSpaceOnUse" color-interpolation-filters="sRGB">
<feFlood flood-opacity="0" result="BackgroundImageFix"/>
<feColorMatrix in="SourceAlpha" type="matrix" values="0 0 0 0 0 0 0 0 0 0 0 0 0 0 0 0 0 0 127 0"/>
<feOffset dy="2"/>
<feGaussianBlur stdDeviation="2"/>
<feColorMatrix type="matrix" values="0 0 0 0 0 0 0 0 0 0 0 0 0 0 0 0 0 0 0.153109 0"/>
<feBlend mode="normal" in2="BackgroundImageFix" result="effect1_dropShadow"/>
<feBlend mode="normal" in="SourceGraphic" in2="effect1_dropShadow" result="shape"/>
</filter>
<filter id="filter1_d" x="567" y="40" width="164" height="232" filterUnits="userSpaceOnUse" color-interpolation-filters="sRGB">
<feFlood flood-opacity="0" result="BackgroundImageFix"/>
<feColorMatrix in="SourceAlpha" type="matrix" values="0 0 0 0 0 0 0 0 0 0 0 0 0 0 0 0 0 0 127 0"/>
<feOffset dy="2"/>
<feGaussianBlur stdDeviation="2"/>
<feColorMatrix type="matrix" values="0 0 0 0 0 0 0 0 0 0 0 0 0 0 0 0 0 0 0.153109 0"/>
<feBlend mode="normal" in2="BackgroundImageFix" result="effect1_dropShadow"/>
<feBlend mode="normal" in="SourceGraphic" in2="effect1_dropShadow" result="shape"/>
</filter>
</defs>
</svg>
