<svg width="550" height="1208" viewBox="0 0 550 1208" fill="none" xmlns="http://www.w3.org/2000/svg">
<rect width="550" height="1208" fill="#FCFCFC"/>
<rect width="550" height="18" fill="#A62B31"/>
<path d="M41.6797 756H44.4766C48.0391 756 50.0625 754.039 50.0625 750.562C50.0625 746.938 48.0781 744.961 44.4922 744.961H41.6797V756ZM42.9219 754.867V746.07H44.4609C47.375 746.07 48.8203 747.625 48.8203 750.477C48.8203 753.516 46.8594 754.867 44.2891 754.867H42.9219ZM52.7597 746.461H54.1034V744.961H52.7597V746.461ZM52.83 756H54.0175V748.195H52.83V756ZM59.324 756.156C60.699 756.156 62.0193 755.344 62.0193 753.703C62.0193 750.75 57.7615 751.984 57.7615 750.18C57.7615 749.547 58.2849 749.07 59.1287 749.07C59.949 749.07 60.4724 749.523 60.8084 750.117L61.7302 749.586C61.2771 748.789 60.3943 748.078 59.1756 748.078C57.8396 748.078 56.6912 748.922 56.6912 750.359C56.6912 753.117 60.8943 751.836 60.8943 753.875C60.8943 754.766 60.1131 755.117 59.3709 755.117C58.3943 755.117 57.6756 754.508 57.4099 753.719L56.4334 754.227C56.7771 755.234 57.8552 756.156 59.324 756.156ZM64.4586 756H65.6305V752.68C65.6305 750.711 66.3571 749.078 67.7868 749.078C68.1149 749.078 68.4899 749.172 68.779 749.43L69.1852 748.438C68.8493 748.195 68.2633 748.078 67.8649 748.078C66.9665 748.078 65.904 748.68 65.6461 749.711V748.195H64.4586V756ZM74.023 756.094C75.273 756.094 76.1558 755.75 77.0152 754.891L76.2183 754.25C75.6089 754.891 74.937 755.062 74.0074 755.062C72.4995 755.062 71.7261 753.875 71.7417 752.492H77.1792C77.1792 752.492 77.2183 752.289 77.2183 752.195C77.2183 750.07 76.4449 748.094 73.8902 748.094C71.648 748.094 70.5152 750.047 70.5152 752.141C70.5152 754.266 71.6636 756.094 74.023 756.094ZM71.7417 751.539C71.7964 750.219 72.4761 749.133 73.8902 749.133C75.3902 749.133 76.1089 750.125 76.1011 751.539H71.7417ZM82.4858 754.992C81.4076 754.844 80.3998 754.609 80.3998 753.805C80.3998 753.539 80.5326 753.352 80.7358 753.195C81.1654 753.406 81.6654 753.523 82.2045 753.523C83.8295 753.523 85.0951 752.516 85.0951 750.836C85.0951 750.367 84.9936 749.938 84.7983 749.562L86.0561 748.578L85.3998 747.75L84.2201 748.812C83.7201 748.359 83.017 748.094 82.2045 748.094C80.5639 748.094 79.2904 749.164 79.2904 750.82C79.2904 751.539 79.5326 752.141 79.9389 752.602C79.5014 752.977 79.3764 753.43 79.3764 753.883C79.3764 754.68 79.7904 755.172 80.3608 755.492L79.2358 756.625C79.2201 756.734 79.2123 756.828 79.2123 756.922C79.2123 758.414 80.5483 759.578 82.5795 759.578C84.2279 759.578 85.7045 758.812 85.7045 757.195C85.7045 755.445 84.0795 755.203 82.4858 754.992ZM82.1889 749.016C83.2514 749.016 83.9233 749.836 83.9233 750.805C83.9233 751.844 83.2436 752.555 82.1889 752.555C81.142 752.555 80.4701 751.852 80.4701 750.805C80.4701 749.859 81.1264 749.016 82.1889 749.016ZM82.6811 758.539C81.1576 758.539 80.3061 757.734 80.2904 756.945L81.2123 755.82C81.517 755.914 81.8373 755.969 82.1498 756.023C83.4389 756.242 84.6654 756.281 84.6654 757.281C84.6654 758.141 83.7045 758.539 82.6811 758.539ZM89.8392 756.156C90.9485 756.156 92.011 755.664 92.5813 754.492L92.6048 756H93.597V751.211C93.597 749.312 92.5267 748.062 90.5423 748.062C89.2532 748.062 88.2923 748.594 87.597 749.562L88.4485 750.227C88.8235 749.688 89.4954 749.078 90.6126 749.078C92.0267 749.078 92.5267 750.07 92.5267 751.539H90.7376C88.5267 751.539 87.2845 752.266 87.2845 753.828C87.2845 755.297 88.3704 756.156 89.8392 756.156ZM89.972 755.172C89.1595 755.172 88.4954 754.789 88.4954 753.859C88.4954 752.82 89.3079 752.422 90.8548 752.422H92.5267C92.5267 753.68 91.5735 755.172 89.972 755.172ZM96.5441 756H97.716V752.68C97.716 750.711 98.4426 749.078 99.8722 749.078C100.2 749.078 100.575 749.172 100.864 749.43L101.271 748.438C100.935 748.195 100.349 748.078 99.9504 748.078C99.0519 748.078 97.9894 748.68 97.7316 749.711V748.195H96.5441V756ZM108.233 744.961V749.258C107.718 748.508 106.929 748.031 105.796 748.031C103.804 748.031 102.671 749.859 102.671 752.094C102.671 754.32 103.804 756.156 105.804 756.156C106.976 756.156 107.733 755.656 108.241 754.914L108.265 756H109.405V744.961H108.233ZM106.101 755.094C104.53 755.094 103.858 753.688 103.858 752.094C103.858 750.516 104.53 749.109 106.101 749.109C107.694 749.109 108.335 750.516 108.335 752.094C108.335 753.695 107.694 755.094 106.101 755.094ZM117.886 756H118.979V749.148H121.917V756H122.979V748.195H118.979C118.979 746.906 119.331 745.789 120.745 745.789C121.307 745.789 121.8 745.961 122.354 746.547L122.917 745.719C122.292 744.984 121.323 744.797 120.628 744.797C118.589 744.797 117.901 746.43 117.901 748.195H116.737V749.148H117.886V756ZM129.192 756.094C130.442 756.094 131.325 755.75 132.184 754.891L131.387 754.25C130.778 754.891 130.106 755.062 129.176 755.062C127.669 755.062 126.895 753.875 126.911 752.492H132.348C132.348 752.492 132.387 752.289 132.387 752.195C132.387 750.07 131.614 748.094 129.059 748.094C126.817 748.094 125.684 750.047 125.684 752.141C125.684 754.266 126.833 756.094 129.192 756.094ZM126.911 751.539C126.966 750.219 127.645 749.133 129.059 749.133C130.559 749.133 131.278 750.125 131.27 751.539H126.911ZM136.436 755.141C136.077 755.141 136.045 754.719 136.045 754.695V744.961H134.874V754.422C134.874 755.367 134.952 756.156 136.139 756.156C136.53 756.156 136.936 756.078 137.186 756V755.062C137.014 755.094 136.702 755.141 136.436 755.141ZM144.461 744.961V749.258C143.946 748.508 143.157 748.031 142.024 748.031C140.032 748.031 138.899 749.859 138.899 752.094C138.899 754.32 140.032 756.156 142.032 756.156C143.204 756.156 143.961 755.656 144.469 754.914L144.493 756H145.633V744.961H144.461ZM142.329 755.094C140.758 755.094 140.086 753.688 140.086 752.094C140.086 750.516 140.758 749.109 142.329 749.109C143.922 749.109 144.563 750.516 144.563 752.094C144.563 753.695 143.922 755.094 142.329 755.094ZM155.129 755.141C154.77 755.141 154.739 754.719 154.739 754.695V744.961H153.567V754.422C153.567 755.367 153.645 756.156 154.832 756.156C155.223 756.156 155.629 756.078 155.879 756V755.062C155.707 755.094 155.395 755.141 155.129 755.141ZM161.029 756.094C162.279 756.094 163.162 755.75 164.022 754.891L163.225 754.25C162.615 754.891 161.943 755.062 161.014 755.062C159.506 755.062 158.733 753.875 158.748 752.492H164.186C164.186 752.492 164.225 752.289 164.225 752.195C164.225 750.07 163.451 748.094 160.897 748.094C158.654 748.094 157.522 750.047 157.522 752.141C157.522 754.266 158.67 756.094 161.029 756.094ZM158.748 751.539C158.803 750.219 159.483 749.133 160.897 749.133C162.397 749.133 163.115 750.125 163.108 751.539H158.748ZM166.719 756H167.883V751.562C167.883 750.289 168.938 749.172 170.195 749.172C171.547 749.172 171.852 750.312 171.852 751.375V756H173.023V751.258C173.023 749.523 172.281 748.062 170.336 748.062C169.336 748.062 168.383 748.602 167.883 749.422V748.195H166.719V756ZM178.76 754.992C177.682 754.844 176.674 754.609 176.674 753.805C176.674 753.539 176.807 753.352 177.01 753.195C177.439 753.406 177.939 753.523 178.478 753.523C180.103 753.523 181.369 752.516 181.369 750.836C181.369 750.367 181.267 749.938 181.072 749.562L182.33 748.578L181.674 747.75L180.494 748.812C179.994 748.359 179.291 748.094 178.478 748.094C176.838 748.094 175.564 749.164 175.564 750.82C175.564 751.539 175.807 752.141 176.213 752.602C175.775 752.977 175.65 753.43 175.65 753.883C175.65 754.68 176.064 755.172 176.635 755.492L175.51 756.625C175.494 756.734 175.486 756.828 175.486 756.922C175.486 758.414 176.822 759.578 178.853 759.578C180.502 759.578 181.978 758.812 181.978 757.195C181.978 755.445 180.353 755.203 178.76 754.992ZM178.463 749.016C179.525 749.016 180.197 749.836 180.197 750.805C180.197 751.844 179.517 752.555 178.463 752.555C177.416 752.555 176.744 751.852 176.744 750.805C176.744 749.859 177.4 749.016 178.463 749.016ZM178.955 758.539C177.432 758.539 176.58 757.734 176.564 756.945L177.486 755.82C177.791 755.914 178.111 755.969 178.424 756.023C179.713 756.242 180.939 756.281 180.939 757.281C180.939 758.141 179.978 758.539 178.955 758.539ZM186.426 756.156C186.902 756.156 187.301 756.07 187.472 756V755C187.23 755.117 186.957 755.195 186.691 755.195C186.121 755.195 185.683 754.797 185.683 753.938V749.18H187.683V748.195H185.683V745.344L184.519 746.438V748.195H183.293V749.18H184.519V753.93C184.519 755.266 185.043 756.156 186.426 756.156ZM190.037 756H191.185V751.727C191.185 750.352 192.216 749.164 193.552 749.164C194.865 749.164 195.17 750.312 195.17 751.375V756H196.349V751.188C196.349 749.523 195.599 748.062 193.724 748.062C192.716 748.062 191.709 748.617 191.185 749.477V744.961H190.037V756ZM199.812 756H201.359V754.484H199.812V756Z" fill="black"/>
<path d="M66.2891 969.156C69.0312 969.156 70.1562 967.172 70.1562 964.875V957.961H68.9141V964.602C68.9141 966.508 68.2969 967.984 66.2891 967.984C64.2812 967.984 63.6875 966.508 63.6875 964.602V957.961H62.4531V964.953C62.4531 967.172 63.5469 969.156 66.2891 969.156ZM75.5722 969.156C76.9472 969.156 78.2675 968.344 78.2675 966.703C78.2675 963.75 74.0097 964.984 74.0097 963.18C74.0097 962.547 74.5331 962.07 75.3768 962.07C76.1972 962.07 76.7206 962.523 77.0565 963.117L77.9784 962.586C77.5253 961.789 76.6425 961.078 75.4237 961.078C74.0878 961.078 72.9393 961.922 72.9393 963.359C72.9393 966.117 77.1425 964.836 77.1425 966.875C77.1425 967.766 76.3612 968.117 75.619 968.117C74.6425 968.117 73.9237 967.508 73.6581 966.719L72.6815 967.227C73.0253 968.234 74.1034 969.156 75.5722 969.156ZM83.5974 969.094C84.8474 969.094 85.7302 968.75 86.5896 967.891L85.7927 967.25C85.1834 967.891 84.5115 968.062 83.5818 968.062C82.074 968.062 81.3006 966.875 81.3162 965.492H86.7537C86.7537 965.492 86.7927 965.289 86.7927 965.195C86.7927 963.07 86.0193 961.094 83.4646 961.094C81.2224 961.094 80.0896 963.047 80.0896 965.141C80.0896 967.266 81.2381 969.094 83.5974 969.094ZM81.3162 964.539C81.3709 963.219 82.0506 962.133 83.4646 962.133C84.9646 962.133 85.6834 963.125 85.6756 964.539H81.3162ZM95.9292 969.156C97.0386 969.156 98.1011 968.664 98.6714 967.492L98.6949 969H99.687V964.211C99.687 962.312 98.6167 961.062 96.6324 961.062C95.3433 961.062 94.3824 961.594 93.687 962.562L94.5386 963.227C94.9136 962.688 95.5855 962.078 96.7027 962.078C98.1167 962.078 98.6167 963.07 98.6167 964.539H96.8277C94.6167 964.539 93.3745 965.266 93.3745 966.828C93.3745 968.297 94.4605 969.156 95.9292 969.156ZM96.062 968.172C95.2495 968.172 94.5855 967.789 94.5855 966.859C94.5855 965.82 95.398 965.422 96.9449 965.422H98.6167C98.6167 966.68 97.6636 968.172 96.062 968.172ZM104.189 968.141C103.83 968.141 103.798 967.719 103.798 967.695V957.961H102.626V967.422C102.626 968.367 102.705 969.156 103.892 969.156C104.283 969.156 104.689 969.078 104.939 969V968.062C104.767 968.094 104.455 968.141 104.189 968.141ZM108.753 968.141C108.394 968.141 108.363 967.719 108.363 967.695V957.961H107.191V967.422C107.191 968.367 107.269 969.156 108.456 969.156C108.847 969.156 109.253 969.078 109.503 969V968.062C109.331 968.094 109.019 968.141 108.753 968.141ZM119.366 969.156C120.78 969.156 121.843 968.383 122.304 967.086L121.288 966.648C121.054 967.57 120.296 968.164 119.351 968.164C117.718 968.164 117.171 966.539 117.171 965.109C117.171 963.703 117.733 962.062 119.351 962.062C120.288 962.062 121.054 962.633 121.288 963.578L122.398 963.109C121.843 961.852 120.765 961.062 119.351 961.062C117.101 961.062 115.976 963.016 115.976 965.109C115.976 967.227 117.116 969.156 119.366 969.156ZM126.548 969.156C127.657 969.156 128.72 968.664 129.29 967.492L129.313 969H130.306V964.211C130.306 962.312 129.235 961.062 127.251 961.062C125.962 961.062 125.001 961.594 124.306 962.562L125.157 963.227C125.532 962.688 126.204 962.078 127.321 962.078C128.735 962.078 129.235 963.07 129.235 964.539H127.446C125.235 964.539 123.993 965.266 123.993 966.828C123.993 968.297 125.079 969.156 126.548 969.156ZM126.681 968.172C125.868 968.172 125.204 967.789 125.204 966.859C125.204 965.82 126.017 965.422 127.563 965.422H129.235C129.235 966.68 128.282 968.172 126.681 968.172ZM133.268 972.422H134.44V967.938C134.94 968.672 135.729 969.156 136.862 969.156C138.901 969.156 140.003 967.32 140.003 965.094C140.003 962.867 138.901 961.031 136.862 961.031C135.722 961.031 134.932 961.531 134.44 962.258V961.195H133.268V972.422ZM136.55 968.133C135.003 968.133 134.323 966.688 134.323 965.094C134.323 963.516 135.003 962.062 136.55 962.062C138.151 962.062 138.839 963.516 138.839 965.094C138.839 966.688 138.151 968.133 136.55 968.133ZM142.512 959.461H143.856V957.961H142.512V959.461ZM142.583 969H143.77V961.195H142.583V969ZM149.053 969.156C149.53 969.156 149.928 969.07 150.1 969V968C149.858 968.117 149.585 968.195 149.319 968.195C148.749 968.195 148.311 967.797 148.311 966.938V962.18H150.311V961.195H148.311V958.344L147.147 959.438V961.195H145.92V962.18H147.147V966.93C147.147 968.266 147.67 969.156 149.053 969.156ZM154.493 969.156C155.602 969.156 156.665 968.664 157.235 967.492L157.258 969H158.25V964.211C158.25 962.312 157.18 961.062 155.196 961.062C153.907 961.062 152.946 961.594 152.25 962.562L153.102 963.227C153.477 962.688 154.149 962.078 155.266 962.078C156.68 962.078 157.18 963.07 157.18 964.539H155.391C153.18 964.539 151.938 965.266 151.938 966.828C151.938 968.297 153.024 969.156 154.493 969.156ZM154.625 968.172C153.813 968.172 153.149 967.789 153.149 966.859C153.149 965.82 153.961 965.422 155.508 965.422H157.18C157.18 966.68 156.227 968.172 154.625 968.172ZM162.752 968.141C162.393 968.141 162.362 967.719 162.362 967.695V957.961H161.19V967.422C161.19 968.367 161.268 969.156 162.455 969.156C162.846 969.156 163.252 969.078 163.502 969V968.062C163.33 968.094 163.018 968.141 162.752 968.141ZM173.623 969.156C175.803 969.156 177.326 967.352 177.326 965.125C177.326 962.906 175.803 961.094 173.623 961.094C171.412 961.094 169.928 962.906 169.928 965.125C169.928 967.352 171.412 969.156 173.623 969.156ZM173.623 968.125C171.897 968.125 171.233 966.688 171.233 965.125C171.233 963.562 171.897 962.133 173.623 962.133C175.365 962.133 176.022 963.562 176.022 965.125C176.022 966.688 175.365 968.125 173.623 968.125ZM179.828 969H181V965.68C181 963.711 181.727 962.078 183.156 962.078C183.484 962.078 183.859 962.172 184.148 962.43L184.555 961.438C184.219 961.195 183.633 961.078 183.234 961.078C182.336 961.078 181.273 961.68 181.016 962.711V961.195H179.828V969ZM193.207 969.156C194.316 969.156 195.379 968.664 195.949 967.492L195.972 969H196.965V964.211C196.965 962.312 195.894 961.062 193.91 961.062C192.621 961.062 191.66 961.594 190.965 962.562L191.816 963.227C192.191 962.688 192.863 962.078 193.98 962.078C195.394 962.078 195.894 963.07 195.894 964.539H194.105C191.894 964.539 190.652 965.266 190.652 966.828C190.652 968.297 191.738 969.156 193.207 969.156ZM193.34 968.172C192.527 968.172 191.863 967.789 191.863 966.859C191.863 965.82 192.676 965.422 194.222 965.422H195.894C195.894 966.68 194.941 968.172 193.34 968.172ZM201.466 968.141C201.107 968.141 201.076 967.719 201.076 967.695V957.961H199.904V967.422C199.904 968.367 199.982 969.156 201.17 969.156C201.56 969.156 201.966 969.078 202.216 969V968.062C202.045 968.094 201.732 968.141 201.466 968.141ZM206.031 968.141C205.671 968.141 205.64 967.719 205.64 967.695V957.961H204.468V967.422C204.468 968.367 204.546 969.156 205.734 969.156C206.125 969.156 206.531 969.078 206.781 969V968.062C206.609 968.094 206.296 968.141 206.031 968.141ZM215.394 968.141C215.034 968.141 215.003 967.719 215.003 967.695V957.961H213.831V967.422C213.831 968.367 213.909 969.156 215.097 969.156C215.488 969.156 215.894 969.078 216.144 969V968.062C215.972 968.094 215.659 968.141 215.394 968.141ZM221.466 969.156C223.646 969.156 225.169 967.352 225.169 965.125C225.169 962.906 223.646 961.094 221.466 961.094C219.255 961.094 217.771 962.906 217.771 965.125C217.771 967.352 219.255 969.156 221.466 969.156ZM221.466 968.125C219.739 968.125 219.075 966.688 219.075 965.125C219.075 963.562 219.739 962.133 221.466 962.133C223.208 962.133 223.864 963.562 223.864 965.125C223.864 966.688 223.208 968.125 221.466 968.125ZM228.937 969.008H230.077L231.929 962.664L233.749 969H234.882L237.069 961.195H235.827L234.241 967.445L232.452 961.195H231.382L229.593 967.461L227.991 961.195H226.757L228.937 969.008ZM242.188 969.094C243.438 969.094 244.321 968.75 245.181 967.891L244.384 967.25C243.774 967.891 243.102 968.062 242.173 968.062C240.665 968.062 239.892 966.875 239.907 965.492H245.345C245.345 965.492 245.384 965.289 245.384 965.195C245.384 963.07 244.61 961.094 242.056 961.094C239.813 961.094 238.681 963.047 238.681 965.141C238.681 967.266 239.829 969.094 242.188 969.094ZM239.907 964.539C239.962 963.219 240.642 962.133 242.056 962.133C243.556 962.133 244.274 963.125 244.267 964.539H239.907ZM247.878 969H249.05V965.68C249.05 963.711 249.776 962.078 251.206 962.078C251.534 962.078 251.909 962.172 252.198 962.43L252.604 961.438C252.268 961.195 251.682 961.078 251.284 961.078C250.386 961.078 249.323 961.68 249.065 962.711V961.195H247.878V969ZM257.356 969.156C258.77 969.156 259.833 968.383 260.294 967.086L259.278 966.648C259.044 967.57 258.286 968.164 257.341 968.164C255.708 968.164 255.161 966.539 255.161 965.109C255.161 963.703 255.723 962.062 257.341 962.062C258.278 962.062 259.044 962.633 259.278 963.578L260.387 963.109C259.833 961.852 258.755 961.062 257.341 961.062C255.091 961.062 253.966 963.016 253.966 965.109C253.966 967.227 255.106 969.156 257.356 969.156ZM264.538 969.156C265.647 969.156 266.71 968.664 267.28 967.492L267.303 969H268.296V964.211C268.296 962.312 267.225 961.062 265.241 961.062C263.952 961.062 262.991 961.594 262.296 962.562L263.147 963.227C263.522 962.688 264.194 962.078 265.311 962.078C266.725 962.078 267.225 963.07 267.225 964.539H265.436C263.225 964.539 261.983 965.266 261.983 966.828C261.983 968.297 263.069 969.156 264.538 969.156ZM264.671 968.172C263.858 968.172 263.194 967.789 263.194 966.859C263.194 965.82 264.006 965.422 265.553 965.422H267.225C267.225 966.68 266.272 968.172 264.671 968.172ZM273.422 969.156C274.797 969.156 276.118 968.344 276.118 966.703C276.118 963.75 271.86 964.984 271.86 963.18C271.86 962.547 272.383 962.07 273.227 962.07C274.047 962.07 274.571 962.523 274.907 963.117L275.829 962.586C275.375 961.789 274.493 961.078 273.274 961.078C271.938 961.078 270.79 961.922 270.79 963.359C270.79 966.117 274.993 964.836 274.993 966.875C274.993 967.766 274.211 968.117 273.469 968.117C272.493 968.117 271.774 967.508 271.508 966.719L270.532 967.227C270.875 968.234 271.954 969.156 273.422 969.156ZM281.448 969.094C282.698 969.094 283.58 968.75 284.44 967.891L283.643 967.25C283.034 967.891 282.362 968.062 281.432 968.062C279.924 968.062 279.151 966.875 279.166 965.492H284.604C284.604 965.492 284.643 965.289 284.643 965.195C284.643 963.07 283.869 961.094 281.315 961.094C279.073 961.094 277.94 963.047 277.94 965.141C277.94 967.266 279.088 969.094 281.448 969.094ZM279.166 964.539C279.221 963.219 279.901 962.133 281.315 962.133C282.815 962.133 283.534 963.125 283.526 964.539H279.166ZM293.49 968.141C293.131 968.141 293.1 967.719 293.1 967.695V957.961H291.928V967.422C291.928 968.367 292.006 969.156 293.193 969.156C293.584 969.156 293.99 969.078 294.24 969V968.062C294.068 968.094 293.756 968.141 293.49 968.141ZM299.391 969.094C300.641 969.094 301.523 968.75 302.383 967.891L301.586 967.25C300.977 967.891 300.305 968.062 299.375 968.062C297.867 968.062 297.094 966.875 297.109 965.492H302.547C302.547 965.492 302.586 965.289 302.586 965.195C302.586 963.07 301.812 961.094 299.258 961.094C297.016 961.094 295.883 963.047 295.883 965.141C295.883 967.266 297.031 969.094 299.391 969.094ZM297.109 964.539C297.164 963.219 297.844 962.133 299.258 962.133C300.758 962.133 301.477 963.125 301.469 964.539H297.109ZM307.236 969.156C307.713 969.156 308.111 969.07 308.283 969V968C308.041 968.117 307.767 968.195 307.502 968.195C306.932 968.195 306.494 967.797 306.494 966.938V962.18H308.494V961.195H306.494V958.344L305.33 959.438V961.195H304.103V962.18H305.33V966.93C305.33 968.266 305.853 969.156 307.236 969.156ZM312.988 969.156C313.465 969.156 313.863 969.07 314.035 969V968C313.793 968.117 313.519 968.195 313.254 968.195C312.683 968.195 312.246 967.797 312.246 966.938V962.18H314.246V961.195H312.246V958.344L311.082 959.438V961.195H309.855V962.18H311.082V966.93C311.082 968.266 311.605 969.156 312.988 969.156ZM319.474 969.094C320.724 969.094 321.607 968.75 322.466 967.891L321.67 967.25C321.06 967.891 320.388 968.062 319.459 968.062C317.951 968.062 317.177 966.875 317.193 965.492H322.631C322.631 965.492 322.67 965.289 322.67 965.195C322.67 963.07 321.896 961.094 319.341 961.094C317.099 961.094 315.966 963.047 315.966 965.141C315.966 967.266 317.115 969.094 319.474 969.094ZM317.193 964.539C317.248 963.219 317.927 962.133 319.341 962.133C320.841 962.133 321.56 963.125 321.552 964.539H317.193ZM325.164 969H326.335V965.68C326.335 963.711 327.062 962.078 328.492 962.078C328.82 962.078 329.195 962.172 329.484 962.43L329.89 961.438C329.554 961.195 328.968 961.078 328.57 961.078C327.671 961.078 326.609 961.68 326.351 962.711V961.195H325.164V969ZM334.017 969.156C335.392 969.156 336.712 968.344 336.712 966.703C336.712 963.75 332.454 964.984 332.454 963.18C332.454 962.547 332.978 962.07 333.822 962.07C334.642 962.07 335.165 962.523 335.501 963.117L336.423 962.586C335.97 961.789 335.087 961.078 333.869 961.078C332.533 961.078 331.384 961.922 331.384 963.359C331.384 966.117 335.587 964.836 335.587 966.875C335.587 967.766 334.806 968.117 334.064 968.117C333.087 968.117 332.369 967.508 332.103 966.719L331.126 967.227C331.47 968.234 332.548 969.156 334.017 969.156ZM339.659 969H341.206V967.484H339.659V969Z" fill="black"/>
<path d="M46.9688 456.156C49.0234 456.156 50.625 455.102 51.4609 453.203L50.3203 452.711C49.7031 454.375 48.5234 455.016 46.9688 455.016C44.3203 455.016 43.2344 452.875 43.2344 450.398C43.2344 448.047 44.3203 445.93 46.9375 445.93C48.4922 445.93 49.8516 446.555 50.3047 448.211L51.4453 447.719C50.5938 445.812 49.0078 444.781 46.9531 444.781C43.5547 444.781 42.0078 447.406 42.0078 450.477C42.0078 453.555 43.5703 456.156 46.9688 456.156ZM56.8612 456.094C58.1112 456.094 58.994 455.75 59.8534 454.891L59.0565 454.25C58.4472 454.891 57.7753 455.062 56.8456 455.062C55.3378 455.062 54.5643 453.875 54.58 452.492H60.0175C60.0175 452.492 60.0565 452.289 60.0565 452.195C60.0565 450.07 59.2831 448.094 56.7284 448.094C54.4862 448.094 53.3534 450.047 53.3534 452.141C53.3534 454.266 54.5018 456.094 56.8612 456.094ZM54.58 451.539C54.6347 450.219 55.3143 449.133 56.7284 449.133C58.2284 449.133 58.9472 450.125 58.9393 451.539H54.58ZM62.5506 456H63.7146V451.562C63.7146 450.289 64.7693 449.172 66.0271 449.172C67.3787 449.172 67.6834 450.312 67.6834 451.375V456H68.8552V451.258C68.8552 449.523 68.1131 448.062 66.1677 448.062C65.1677 448.062 64.2146 448.602 63.7146 449.422V448.195H62.5506V456ZM73.9743 456.156C74.4508 456.156 74.8493 456.07 75.0211 456V455C74.779 455.117 74.5055 455.195 74.2399 455.195C73.6696 455.195 73.2321 454.797 73.2321 453.938V449.18H75.2321V448.195H73.2321V445.344L72.068 446.438V448.195H70.8415V449.18H72.068V453.93C72.068 455.266 72.5915 456.156 73.9743 456.156ZM80.4605 456.094C81.7105 456.094 82.5933 455.75 83.4527 454.891L82.6558 454.25C82.0464 454.891 81.3745 455.062 80.4449 455.062C78.937 455.062 78.1636 453.875 78.1792 452.492H83.6167C83.6167 452.492 83.6558 452.289 83.6558 452.195C83.6558 450.07 82.8824 448.094 80.3277 448.094C78.0855 448.094 76.9527 450.047 76.9527 452.141C76.9527 454.266 78.1011 456.094 80.4605 456.094ZM78.1792 451.539C78.2339 450.219 78.9136 449.133 80.3277 449.133C81.8277 449.133 82.5464 450.125 82.5386 451.539H78.1792ZM86.1498 456H87.3217V452.68C87.3217 450.711 88.0483 449.078 89.4779 449.078C89.8061 449.078 90.1811 449.172 90.4701 449.43L90.8764 448.438C90.5404 448.195 89.9545 448.078 89.5561 448.078C88.6576 448.078 87.5951 448.68 87.3373 449.711V448.195H86.1498V456ZM100.747 456.156C102.927 456.156 104.45 454.352 104.45 452.125C104.45 449.906 102.927 448.094 100.747 448.094C98.5363 448.094 97.0519 449.906 97.0519 452.125C97.0519 454.352 98.5363 456.156 100.747 456.156ZM100.747 455.125C99.0207 455.125 98.3566 453.688 98.3566 452.125C98.3566 450.562 99.0207 449.133 100.747 449.133C102.489 449.133 103.146 450.562 103.146 452.125C103.146 453.688 102.489 455.125 100.747 455.125ZM106.952 456H108.124V452.68C108.124 450.711 108.851 449.078 110.28 449.078C110.608 449.078 110.983 449.172 111.273 449.43L111.679 448.438C111.343 448.195 110.757 448.078 110.358 448.078C109.46 448.078 108.398 448.68 108.14 449.711V448.195H106.952V456ZM118.487 456H119.659V452.68C119.659 450.711 120.386 449.078 121.815 449.078C122.143 449.078 122.518 449.172 122.807 449.43L123.214 448.438C122.878 448.195 122.292 448.078 121.893 448.078C120.995 448.078 119.932 448.68 119.675 449.711V448.195H118.487V456ZM125.091 446.461H126.434V444.961H125.091V446.461ZM125.161 456H126.348V448.195H125.161V456ZM132.249 454.992C131.17 454.844 130.163 454.609 130.163 453.805C130.163 453.539 130.295 453.352 130.499 453.195C130.928 453.406 131.428 453.523 131.967 453.523C133.592 453.523 134.858 452.516 134.858 450.836C134.858 450.367 134.756 449.938 134.561 449.562L135.819 448.578L135.163 447.75L133.983 448.812C133.483 448.359 132.78 448.094 131.967 448.094C130.327 448.094 129.053 449.164 129.053 450.82C129.053 451.539 129.295 452.141 129.702 452.602C129.264 452.977 129.139 453.43 129.139 453.883C129.139 454.68 129.553 455.172 130.124 455.492L128.999 456.625C128.983 456.734 128.975 456.828 128.975 456.922C128.975 458.414 130.311 459.578 132.342 459.578C133.991 459.578 135.467 458.812 135.467 457.195C135.467 455.445 133.842 455.203 132.249 454.992ZM131.952 449.016C133.014 449.016 133.686 449.836 133.686 450.805C133.686 451.844 133.006 452.555 131.952 452.555C130.905 452.555 130.233 451.852 130.233 450.805C130.233 449.859 130.889 449.016 131.952 449.016ZM132.444 458.539C130.92 458.539 130.069 457.734 130.053 456.945L130.975 455.82C131.28 455.914 131.6 455.969 131.913 456.023C133.202 456.242 134.428 456.281 134.428 457.281C134.428 458.141 133.467 458.539 132.444 458.539ZM137.774 456H138.922V451.727C138.922 450.352 139.954 449.164 141.29 449.164C142.602 449.164 142.907 450.312 142.907 451.375V456H144.086V451.188C144.086 449.523 143.336 448.062 141.461 448.062C140.454 448.062 139.446 448.617 138.922 449.477V444.961H137.774V456ZM149.198 456.156C149.674 456.156 150.073 456.07 150.244 456V455C150.002 455.117 149.729 455.195 149.463 455.195C148.893 455.195 148.455 454.797 148.455 453.938V449.18H150.455V448.195H148.455V445.344L147.291 446.438V448.195H146.065V449.18H147.291V453.93C147.291 455.266 147.815 456.156 149.198 456.156ZM159.436 456.156C160.545 456.156 161.608 455.664 162.178 454.492L162.201 456H163.193V451.211C163.193 449.312 162.123 448.062 160.139 448.062C158.85 448.062 157.889 448.594 157.193 449.562L158.045 450.227C158.42 449.688 159.092 449.078 160.209 449.078C161.623 449.078 162.123 450.07 162.123 451.539H160.334C158.123 451.539 156.881 452.266 156.881 453.828C156.881 455.297 157.967 456.156 159.436 456.156ZM159.568 455.172C158.756 455.172 158.092 454.789 158.092 453.859C158.092 452.82 158.904 452.422 160.451 452.422H162.123C162.123 453.68 161.17 455.172 159.568 455.172ZM167.695 455.141C167.336 455.141 167.305 454.719 167.305 454.695V444.961H166.133V454.422C166.133 455.367 166.211 456.156 167.398 456.156C167.789 456.156 168.195 456.078 168.445 456V455.062C168.273 455.094 167.961 455.141 167.695 455.141ZM170.635 446.461H171.978V444.961H170.635V446.461ZM170.705 456H171.892V448.195H170.705V456ZM177.793 454.992C176.715 454.844 175.707 454.609 175.707 453.805C175.707 453.539 175.84 453.352 176.043 453.195C176.472 453.406 176.972 453.523 177.511 453.523C179.136 453.523 180.402 452.516 180.402 450.836C180.402 450.367 180.301 449.938 180.105 449.562L181.363 448.578L180.707 447.75L179.527 448.812C179.027 448.359 178.324 448.094 177.511 448.094C175.871 448.094 174.597 449.164 174.597 450.82C174.597 451.539 174.84 452.141 175.246 452.602C174.808 452.977 174.683 453.43 174.683 453.883C174.683 454.68 175.097 455.172 175.668 455.492L174.543 456.625C174.527 456.734 174.519 456.828 174.519 456.922C174.519 458.414 175.855 459.578 177.886 459.578C179.535 459.578 181.011 458.812 181.011 457.195C181.011 455.445 179.386 455.203 177.793 454.992ZM177.496 449.016C178.558 449.016 179.23 449.836 179.23 450.805C179.23 451.844 178.551 452.555 177.496 452.555C176.449 452.555 175.777 451.852 175.777 450.805C175.777 449.859 176.433 449.016 177.496 449.016ZM177.988 458.539C176.465 458.539 175.613 457.734 175.597 456.945L176.519 455.82C176.824 455.914 177.144 455.969 177.457 456.023C178.746 456.242 179.972 456.281 179.972 457.281C179.972 458.141 179.011 458.539 177.988 458.539ZM183.302 456H184.466V451.562C184.466 450.289 185.521 449.172 186.779 449.172C188.131 449.172 188.435 450.312 188.435 451.375V456H189.607V451.258C189.607 449.523 188.865 448.062 186.92 448.062C185.92 448.062 184.966 448.602 184.466 449.422V448.195H183.302V456ZM197.736 456H198.9V449.148H201.15V448.195H198.9V446.789C198.9 446.18 199.439 445.812 200.033 445.812C200.533 445.812 200.853 446.023 200.853 446.023L201.134 445.094C200.767 444.914 200.314 444.797 199.869 444.797C198.697 444.797 197.744 445.477 197.744 446.758V448.211H196.314V449.148H197.736V456ZM206.261 456.156C208.441 456.156 209.964 454.352 209.964 452.125C209.964 449.906 208.441 448.094 206.261 448.094C204.05 448.094 202.566 449.906 202.566 452.125C202.566 454.352 204.05 456.156 206.261 456.156ZM206.261 455.125C204.534 455.125 203.87 453.688 203.87 452.125C203.87 450.562 204.534 449.133 206.261 449.133C208.003 449.133 208.659 450.562 208.659 452.125C208.659 453.688 208.003 455.125 206.261 455.125ZM212.466 456H213.638V452.68C213.638 450.711 214.364 449.078 215.794 449.078C216.122 449.078 216.497 449.172 216.786 449.43L217.193 448.438C216.857 448.195 216.271 448.078 215.872 448.078C214.974 448.078 213.911 448.68 213.653 449.711V448.195H212.466V456ZM219.202 456H220.382V451.547C220.382 450.266 221.077 449.047 222.366 449.047C223.71 449.047 224.015 450.266 224.015 451.344V456H225.194V451.547C225.194 450.266 225.89 449.047 227.171 449.047C228.523 449.047 228.851 450.312 228.851 451.375V456H230.03V451.258C230.03 449.523 229.257 448.062 227.312 448.062C226.218 448.062 225.382 448.617 224.89 449.633C224.507 448.547 223.608 448.047 222.491 448.047C221.53 448.047 220.702 448.648 220.382 449.531V448.195H219.202V456ZM240.573 456.156C241.987 456.156 243.05 455.383 243.511 454.086L242.495 453.648C242.261 454.57 241.503 455.164 240.557 455.164C238.925 455.164 238.378 453.539 238.378 452.109C238.378 450.703 238.94 449.062 240.557 449.062C241.495 449.062 242.261 449.633 242.495 450.578L243.604 450.109C243.05 448.852 241.972 448.062 240.557 448.062C238.307 448.062 237.182 450.016 237.182 452.109C237.182 454.227 238.323 456.156 240.573 456.156ZM248.973 456.156C251.153 456.156 252.676 454.352 252.676 452.125C252.676 449.906 251.153 448.094 248.973 448.094C246.762 448.094 245.278 449.906 245.278 452.125C245.278 454.352 246.762 456.156 248.973 456.156ZM248.973 455.125C247.247 455.125 246.583 453.688 246.583 452.125C246.583 450.562 247.247 449.133 248.973 449.133C250.716 449.133 251.372 450.562 251.372 452.125C251.372 453.688 250.716 455.125 248.973 455.125ZM255.178 456H256.342V451.562C256.342 450.289 257.397 449.172 258.655 449.172C260.006 449.172 260.311 450.312 260.311 451.375V456H261.483V451.258C261.483 449.523 260.741 448.062 258.796 448.062C257.796 448.062 256.842 448.602 256.342 449.422V448.195H255.178V456ZM266.602 456.156C267.079 456.156 267.477 456.07 267.649 456V455C267.407 455.117 267.133 455.195 266.868 455.195C266.297 455.195 265.86 454.797 265.86 453.938V449.18H267.86V448.195H265.86V445.344L264.696 446.438V448.195H263.469V449.18H264.696V453.93C264.696 455.266 265.219 456.156 266.602 456.156ZM273.088 456.094C274.338 456.094 275.221 455.75 276.08 454.891L275.284 454.25C274.674 454.891 274.002 455.062 273.073 455.062C271.565 455.062 270.791 453.875 270.807 452.492H276.244C276.244 452.492 276.284 452.289 276.284 452.195C276.284 450.07 275.51 448.094 272.955 448.094C270.713 448.094 269.58 450.047 269.58 452.141C269.58 454.266 270.729 456.094 273.088 456.094ZM270.807 451.539C270.862 450.219 271.541 449.133 272.955 449.133C274.455 449.133 275.174 450.125 275.166 451.539H270.807ZM278.778 456H279.942V451.562C279.942 450.289 280.996 449.172 282.254 449.172C283.606 449.172 283.91 450.312 283.91 451.375V456H285.082V451.258C285.082 449.523 284.34 448.062 282.395 448.062C281.395 448.062 280.442 448.602 279.942 449.422V448.195H278.778V456ZM290.201 456.156C290.678 456.156 291.076 456.07 291.248 456V455C291.006 455.117 290.733 455.195 290.467 455.195C289.897 455.195 289.459 454.797 289.459 453.938V449.18H291.459V448.195H289.459V445.344L288.295 446.438V448.195H287.068V449.18H288.295V453.93C288.295 455.266 288.818 456.156 290.201 456.156ZM294.305 456H295.852V454.484H294.305V456Z" fill="black"/>
<path d="M46.4844 156.125C48.4453 156.125 49.9297 154.891 49.9297 152.945C49.9297 149.375 44.6172 150.203 44.6172 147.484C44.6172 146.477 45.4688 145.867 46.3906 145.867C47.2656 145.867 48.0859 146.273 48.5312 147.141L49.4688 146.516C48.7812 145.344 47.6953 144.797 46.3984 144.797C44.7578 144.797 43.4062 145.898 43.4062 147.594C43.4062 150.945 48.7188 150.156 48.7188 153.031C48.7188 154.375 47.8125 155.008 46.4922 155.008C45.1875 155.008 43.9922 154.305 43.8359 152.828L42.6719 153.172C42.9844 155.148 44.6875 156.125 46.4844 156.125ZM54.6893 156.156C55.1659 156.156 55.5643 156.07 55.7362 156V155C55.494 155.117 55.2206 155.195 54.955 155.195C54.3847 155.195 53.9472 154.797 53.9472 153.938V149.18H55.9472V148.195H53.9472V145.344L52.7831 146.438V148.195H51.5565V149.18H52.7831V153.93C52.7831 155.266 53.3065 156.156 54.6893 156.156ZM58.2849 156H59.4568V152.68C59.4568 150.711 60.1834 149.078 61.6131 149.078C61.9412 149.078 62.3162 149.172 62.6052 149.43L63.0115 148.438C62.6756 148.195 62.0896 148.078 61.6912 148.078C60.7927 148.078 59.7302 148.68 59.4724 149.711V148.195H58.2849V156ZM67.4586 156.18C68.6774 156.18 69.5915 155.352 69.9118 154.68V156H71.068V148.195H69.9118V152.586C69.9118 154.047 68.8336 155.172 67.5758 155.172C66.2477 155.172 65.9352 153.93 65.9352 152.867V148.195H64.7711V152.82C64.7711 154.633 65.529 156.18 67.4586 156.18ZM76.9995 156.156C78.4136 156.156 79.4761 155.383 79.937 154.086L78.9214 153.648C78.687 154.57 77.9292 155.164 76.9839 155.164C75.3511 155.164 74.8042 153.539 74.8042 152.109C74.8042 150.703 75.3667 149.062 76.9839 149.062C77.9214 149.062 78.687 149.633 78.9214 150.578L80.0308 150.109C79.4761 148.852 78.398 148.062 76.9839 148.062C74.7339 148.062 73.6089 150.016 73.6089 152.109C73.6089 154.227 74.7495 156.156 76.9995 156.156ZM84.4936 156.156C84.9701 156.156 85.3686 156.07 85.5404 156V155C85.2983 155.117 85.0248 155.195 84.7592 155.195C84.1889 155.195 83.7514 154.797 83.7514 153.938V149.18H85.7514V148.195H83.7514V145.344L82.5873 146.438V148.195H81.3608V149.18H82.5873V153.93C82.5873 155.266 83.1108 156.156 84.4936 156.156ZM90.5892 156.18C91.8079 156.18 92.722 155.352 93.0423 154.68V156H94.1985V148.195H93.0423V152.586C93.0423 154.047 91.9642 155.172 90.7063 155.172C89.3782 155.172 89.0657 153.93 89.0657 152.867V148.195H87.9017V152.82C87.9017 154.633 88.6595 156.18 90.5892 156.18ZM97.3254 156H98.4972V152.68C98.4972 150.711 99.2238 149.078 100.653 149.078C100.982 149.078 101.357 149.172 101.646 149.43L102.052 148.438C101.716 148.195 101.13 148.078 100.732 148.078C99.8332 148.078 98.7707 148.68 98.5129 149.711V148.195H97.3254V156ZM106.89 156.094C108.14 156.094 109.023 155.75 109.882 154.891L109.085 154.25C108.476 154.891 107.804 155.062 106.874 155.062C105.366 155.062 104.593 153.875 104.608 152.492H110.046C110.046 152.492 110.085 152.289 110.085 152.195C110.085 150.07 109.312 148.094 106.757 148.094C104.515 148.094 103.382 150.047 103.382 152.141C103.382 154.266 104.53 156.094 106.89 156.094ZM104.608 151.539C104.663 150.219 105.343 149.133 106.757 149.133C108.257 149.133 108.976 150.125 108.968 151.539H104.608ZM117.745 156H118.909V149.148H121.159V148.195H118.909V146.789C118.909 146.18 119.448 145.812 120.042 145.812C120.542 145.812 120.862 146.023 120.862 146.023L121.143 145.094C120.776 144.914 120.323 144.797 119.878 144.797C118.706 144.797 117.753 145.477 117.753 146.758V148.211H116.323V149.148H117.745V156ZM126.27 156.156C128.45 156.156 129.973 154.352 129.973 152.125C129.973 149.906 128.45 148.094 126.27 148.094C124.059 148.094 122.575 149.906 122.575 152.125C122.575 154.352 124.059 156.156 126.27 156.156ZM126.27 155.125C124.544 155.125 123.88 153.688 123.88 152.125C123.88 150.562 124.544 149.133 126.27 149.133C128.012 149.133 128.669 150.562 128.669 152.125C128.669 153.688 128.012 155.125 126.27 155.125ZM132.475 156H133.647V152.68C133.647 150.711 134.374 149.078 135.803 149.078C136.131 149.078 136.506 149.172 136.795 149.43L137.202 148.438C136.866 148.195 136.28 148.078 135.881 148.078C134.983 148.078 133.92 148.68 133.663 149.711V148.195H132.475V156ZM139.211 156H140.391V151.547C140.391 150.266 141.086 149.047 142.375 149.047C143.719 149.047 144.024 150.266 144.024 151.344V156H145.204V151.547C145.204 150.266 145.899 149.047 147.18 149.047C148.532 149.047 148.86 150.312 148.86 151.375V156H150.04V151.258C150.04 149.523 149.266 148.062 147.321 148.062C146.227 148.062 145.391 148.617 144.899 149.633C144.516 148.547 143.618 148.047 142.5 148.047C141.54 148.047 140.711 148.648 140.391 149.531V148.195H139.211V156ZM155.159 156.156C156.534 156.156 157.854 155.344 157.854 153.703C157.854 150.75 153.596 151.984 153.596 150.18C153.596 149.547 154.119 149.07 154.963 149.07C155.784 149.07 156.307 149.523 156.643 150.117L157.565 149.586C157.112 148.789 156.229 148.078 155.01 148.078C153.674 148.078 152.526 148.922 152.526 150.359C152.526 153.117 156.729 151.836 156.729 153.875C156.729 154.766 155.948 155.117 155.205 155.117C154.229 155.117 153.51 154.508 153.244 153.719L152.268 154.227C152.612 155.234 153.69 156.156 155.159 156.156ZM165.022 146.461H166.365V144.961H165.022V146.461ZM165.092 156H166.279V148.195H165.092V156ZM169.406 156H170.57V151.562C170.57 150.289 171.625 149.172 172.883 149.172C174.234 149.172 174.539 150.312 174.539 151.375V156H175.711V151.258C175.711 149.523 174.969 148.062 173.023 148.062C172.023 148.062 171.07 148.602 170.57 149.422V148.195H169.406V156ZM183.472 156H184.652V151.547C184.652 150.266 185.347 149.047 186.636 149.047C187.98 149.047 188.285 150.266 188.285 151.344V156H189.465V151.547C189.465 150.266 190.16 149.047 191.441 149.047C192.793 149.047 193.121 150.312 193.121 151.375V156H194.301V151.258C194.301 149.523 193.527 148.062 191.582 148.062C190.488 148.062 189.652 148.617 189.16 149.633C188.777 148.547 187.879 148.047 186.761 148.047C185.801 148.047 184.972 148.648 184.652 149.531V148.195H183.472V156ZM199.74 156.18C200.959 156.18 201.873 155.352 202.193 154.68V156H203.349V148.195H202.193V152.586C202.193 154.047 201.115 155.172 199.857 155.172C198.529 155.172 198.216 153.93 198.216 152.867V148.195H197.052V152.82C197.052 154.633 197.81 156.18 199.74 156.18ZM208.031 155.141C207.671 155.141 207.64 154.719 207.64 154.695V144.961H206.468V154.422C206.468 155.367 206.546 156.156 207.734 156.156C208.125 156.156 208.531 156.078 208.781 156V155.062C208.609 155.094 208.296 155.141 208.031 155.141ZM213.197 156.156C213.673 156.156 214.072 156.07 214.244 156V155C214.001 155.117 213.728 155.195 213.462 155.195C212.892 155.195 212.454 154.797 212.454 153.938V149.18H214.454V148.195H212.454V145.344L211.29 146.438V148.195H210.064V149.18H211.29V153.93C211.29 155.266 211.814 156.156 213.197 156.156ZM216.722 146.461H218.066V144.961H216.722V146.461ZM216.792 156H217.98V148.195H216.792V156ZM221.122 159.422H222.294V154.938C222.794 155.672 223.583 156.156 224.716 156.156C226.755 156.156 227.857 154.32 227.857 152.094C227.857 149.867 226.755 148.031 224.716 148.031C223.575 148.031 222.786 148.531 222.294 149.258V148.195H221.122V159.422ZM224.403 155.133C222.857 155.133 222.177 153.688 222.177 152.094C222.177 150.516 222.857 149.062 224.403 149.062C226.005 149.062 226.693 150.516 226.693 152.094C226.693 153.688 226.005 155.133 224.403 155.133ZM231.991 155.141C231.632 155.141 231.601 154.719 231.601 154.695V144.961H230.429V154.422C230.429 155.367 230.507 156.156 231.694 156.156C232.085 156.156 232.491 156.078 232.741 156V155.062C232.569 155.094 232.257 155.141 231.991 155.141ZM237.892 156.094C239.142 156.094 240.024 155.75 240.884 154.891L240.087 154.25C239.477 154.891 238.806 155.062 237.876 155.062C236.368 155.062 235.595 153.875 235.61 152.492H241.048C241.048 152.492 241.087 152.289 241.087 152.195C241.087 150.07 240.313 148.094 237.759 148.094C235.517 148.094 234.384 150.047 234.384 152.141C234.384 154.266 235.532 156.094 237.892 156.094ZM235.61 151.539C235.665 150.219 236.345 149.133 237.759 149.133C239.259 149.133 239.977 150.125 239.97 151.539H235.61ZM251.184 156.156C252.598 156.156 253.661 155.383 254.122 154.086L253.106 153.648C252.872 154.57 252.114 155.164 251.169 155.164C249.536 155.164 248.989 153.539 248.989 152.109C248.989 150.703 249.551 149.062 251.169 149.062C252.106 149.062 252.872 149.633 253.106 150.578L254.216 150.109C253.661 148.852 252.583 148.062 251.169 148.062C248.919 148.062 247.794 150.016 247.794 152.109C247.794 154.227 248.934 156.156 251.184 156.156ZM259.585 156.156C261.764 156.156 263.288 154.352 263.288 152.125C263.288 149.906 261.764 148.094 259.585 148.094C257.374 148.094 255.889 149.906 255.889 152.125C255.889 154.352 257.374 156.156 259.585 156.156ZM259.585 155.125C257.858 155.125 257.194 153.688 257.194 152.125C257.194 150.562 257.858 149.133 259.585 149.133C261.327 149.133 261.983 150.562 261.983 152.125C261.983 153.688 261.327 155.125 259.585 155.125ZM267.344 155.141C266.985 155.141 266.954 154.719 266.954 154.695V144.961H265.782V154.422C265.782 155.367 265.86 156.156 267.047 156.156C267.438 156.156 267.844 156.078 268.094 156V155.062C267.922 155.094 267.61 155.141 267.344 155.141ZM272.854 156.18C274.073 156.18 274.987 155.352 275.307 154.68V156H276.463V148.195H275.307V152.586C275.307 154.047 274.229 155.172 272.971 155.172C271.643 155.172 271.33 153.93 271.33 152.867V148.195H270.166V152.82C270.166 154.633 270.924 156.18 272.854 156.18ZM279.59 156H280.77V151.547C280.77 150.266 281.465 149.047 282.754 149.047C284.098 149.047 284.403 150.266 284.403 151.344V156H285.582V151.547C285.582 150.266 286.278 149.047 287.559 149.047C288.91 149.047 289.239 150.312 289.239 151.375V156H290.418V151.258C290.418 149.523 289.645 148.062 287.699 148.062C286.606 148.062 285.77 148.617 285.278 149.633C284.895 148.547 283.996 148.047 282.879 148.047C281.918 148.047 281.09 148.648 280.77 149.531V148.195H279.59V156ZM293.358 156H294.522V151.562C294.522 150.289 295.576 149.172 296.834 149.172C298.186 149.172 298.49 150.312 298.49 151.375V156H299.662V151.258C299.662 149.523 298.92 148.062 296.975 148.062C295.975 148.062 295.022 148.602 294.522 149.422V148.195H293.358V156ZM304.805 156.156C306.18 156.156 307.5 155.344 307.5 153.703C307.5 150.75 303.242 151.984 303.242 150.18C303.242 149.547 303.766 149.07 304.609 149.07C305.43 149.07 305.953 149.523 306.289 150.117L307.211 149.586C306.758 148.789 305.875 148.078 304.656 148.078C303.32 148.078 302.172 148.922 302.172 150.359C302.172 153.117 306.375 151.836 306.375 153.875C306.375 154.766 305.594 155.117 304.852 155.117C303.875 155.117 303.156 154.508 302.891 153.719L301.914 154.227C302.258 155.234 303.336 156.156 304.805 156.156ZM310.447 156H311.994V154.484H310.447V156Z" fill="black"/>
<path d="M94.9541 82.3047C95.7354 82.3047 96.4922 82.1338 97.2246 81.792C97.9668 81.4502 98.6211 80.9814 99.1875 80.3857C99.7637 79.7803 100.228 79.0674 100.579 78.2471C100.931 77.4268 101.106 76.5283 101.106 75.5518C101.106 74.5752 100.931 73.6768 100.579 72.8564C100.228 72.0361 99.7637 71.3281 99.1875 70.7324C98.6211 70.127 97.9668 69.6533 97.2246 69.3115C96.4922 68.9697 95.7354 68.7988 94.9541 68.7988H92.0977V82.3047H94.9541ZM89.2559 85V66.1035H94.9541C96.1553 66.1035 97.2979 66.3477 98.3818 66.8359C99.4756 67.3242 100.433 67.998 101.253 68.8574C102.073 69.7168 102.728 70.7178 103.216 71.8604C103.704 73.0029 103.948 74.2334 103.948 75.5518C103.948 76.8701 103.704 78.1006 103.216 79.2432C102.728 80.3857 102.073 81.3867 101.253 82.2461C100.433 83.1055 99.4756 83.7793 98.3818 84.2676C97.2979 84.7559 96.1553 85 94.9541 85H89.2559ZM123.189 75.5518C123.189 74.5361 123.014 73.5986 122.662 72.7393C122.311 71.8701 121.852 71.123 121.285 70.498C120.719 69.8633 120.064 69.375 119.322 69.0332C118.58 68.6816 117.818 68.5059 117.037 68.5059C116.256 68.5059 115.494 68.6816 114.752 69.0332C114.02 69.375 113.365 69.8633 112.789 70.498C112.223 71.123 111.764 71.8652 111.412 72.7246C111.061 73.584 110.885 74.5264 110.885 75.5518C110.885 76.5674 111.061 77.5049 111.412 78.3643C111.764 79.2236 112.223 79.9707 112.789 80.6055C113.365 81.2305 114.02 81.7188 114.752 82.0703C115.494 82.4219 116.256 82.5977 117.037 82.5977C117.818 82.5977 118.58 82.4219 119.322 82.0703C120.064 81.7188 120.719 81.2305 121.285 80.6055C121.852 79.9707 122.311 79.2236 122.662 78.3643C123.014 77.5049 123.189 76.5674 123.189 75.5518ZM126.031 75.5518C126.031 76.9092 125.787 78.1689 125.299 79.3311C124.811 80.4932 124.156 81.5088 123.336 82.3779C122.516 83.2471 121.559 83.9258 120.465 84.4141C119.381 84.9023 118.238 85.1465 117.037 85.1465C115.836 85.1465 114.688 84.9023 113.595 84.4141C112.511 83.9258 111.559 83.2471 110.738 82.3779C109.918 81.5088 109.264 80.4932 108.775 79.3311C108.287 78.1689 108.043 76.9092 108.043 75.5518C108.043 74.2139 108.287 72.959 108.775 71.7871C109.264 70.6152 109.918 69.5947 110.738 68.7256C111.559 67.8564 112.511 67.1777 113.595 66.6895C114.688 66.2012 115.836 65.957 117.037 65.957C118.238 65.957 119.381 66.2012 120.465 66.6895C121.559 67.1777 122.516 67.8564 123.336 68.7256C124.156 69.5947 124.811 70.6152 125.299 71.7871C125.787 72.959 126.031 74.2139 126.031 75.5518ZM145.741 66.1035V85H143.339L134.184 71.4941V85H131.342V66.1035H133.729L142.885 79.5947V66.1035H145.741ZM152.531 65.957C152.99 65.957 153.381 66.1279 153.703 66.4697C154.025 66.8018 154.187 67.2266 154.187 67.7441C154.187 68.5059 154.06 69.1553 153.806 69.6924C153.562 70.2197 153.288 70.6543 152.985 70.9961C152.624 71.3965 152.224 71.7139 151.784 71.9482L151.33 71.3477C151.525 71.2109 151.716 71.0303 151.901 70.8057C152.058 70.6299 152.204 70.415 152.341 70.1611C152.487 69.8975 152.6 69.5947 152.678 69.2529C152.16 69.2529 151.73 69.0918 151.389 68.7695C151.047 68.4473 150.876 68.0566 150.876 67.5977C150.876 67.1387 151.037 66.7529 151.359 66.4404C151.682 66.1182 152.072 65.957 152.531 65.957ZM157.534 66.1035H171.787V68.7988H166.074V85H163.232V68.7988H157.534V66.1035Z" fill="black"/>
<path fill-rule="evenodd" clip-rule="evenodd" d="M53 89C60.732 89 67 82.732 67 75C67 67.268 60.732 61 53 61C45.268 61 39 67.268 39 75C39 82.732 45.268 89 53 89Z" fill="#FFBCBF" stroke="#A62B31" stroke-width="2"/>
<path d="M55.8 75L59.4 71.4C60.2 70.6 60.2 69.4 59.4 68.6C58.6 67.8 57.4 67.8 56.6 68.6L53 72.2L49.4 68.6C48.6 67.8 47.4 67.8 46.6 68.6C45.8 69.4 45.8 70.6 46.6 71.4L50.2 75L46.6 78.6C45.8 79.4 45.8 80.6 46.6 81.4C47 81.8 47.5 82 48 82C48.5 82 49 81.8 49.4 81.4L53 77.8L56.6 81.4C57 81.8 57.5 82 58 82C58.5 82 59 81.8 59.4 81.4C60.2 80.6 60.2 79.4 59.4 78.6L55.8 75Z" fill="#A62B31"/>
<g filter="url(#filter0_d)">
<rect x="39" y="491" width="156" height="209" rx="4" fill="white"/>
</g>
<g filter="url(#filter1_d)">
<rect x="227" y="491" width="156" height="209" rx="4" fill="white"/>
</g>
<g filter="url(#filter2_d)">
<rect x="42" y="191" width="233" height="209" rx="4" fill="white"/>
</g>
<g filter="url(#filter3_d)">
<rect x="42" y="791" width="436" height="134" rx="4" fill="white"/>
</g>
<g filter="url(#filter4_d)">
<rect x="63" y="1004" width="286" height="134" rx="4" fill="white"/>
</g>
<rect x="180" y="282" width="50" height="41" fill="white" stroke="#155DA1" stroke-opacity="0.574191" stroke-linejoin="round" stroke-dasharray="2"/>
<path d="M95.6923 537.5H130.308" stroke="#656565" stroke-linecap="square" stroke-linejoin="round"/>
<path d="M320.692 537.5H355.308" stroke="#656565" stroke-linecap="square" stroke-linejoin="round"/>
<path d="M63.6923 231.5H98.3077" stroke="#656565" stroke-linecap="square" stroke-linejoin="round"/>
<path d="M85.8086 835H95.3711V833.734H87.54L95.3711 823.724V822.581H86.2041V823.785H93.6748L85.8086 833.91V835ZM98.4748 835H99.8723V822.581H98.4748V835ZM103.96 835H105.358V829.393H107.45C109.858 829.393 111.422 828.197 111.422 826.009C111.422 823.873 109.858 822.581 107.45 822.581H103.96V835ZM105.358 828.153V823.82H107.45C109.102 823.82 110.042 824.629 110.042 826.009C110.042 827.441 109.102 828.153 107.45 828.153H105.358ZM124.415 835.176C126.726 835.176 128.528 833.989 129.469 831.854L128.185 831.3C127.491 833.172 126.164 833.893 124.415 833.893C121.435 833.893 120.214 831.484 120.214 828.698C120.214 826.053 121.435 823.671 124.38 823.671C126.129 823.671 127.658 824.374 128.168 826.237L129.451 825.684C128.493 823.539 126.709 822.379 124.397 822.379C120.574 822.379 118.834 825.332 118.834 828.786C118.834 832.249 120.592 835.176 124.415 835.176ZM135.508 835.176C137.96 835.176 139.674 833.146 139.674 830.641C139.674 828.145 137.96 826.105 135.508 826.105C133.021 826.105 131.351 828.145 131.351 830.641C131.351 833.146 133.021 835.176 135.508 835.176ZM135.508 834.016C133.565 834.016 132.818 832.398 132.818 830.641C132.818 828.883 133.565 827.274 135.508 827.274C137.468 827.274 138.206 828.883 138.206 830.641C138.206 832.398 137.468 834.016 135.508 834.016ZM147.902 822.581V827.415C147.321 826.571 146.434 826.035 145.159 826.035C142.918 826.035 141.644 828.092 141.644 830.605C141.644 833.11 142.918 835.176 145.168 835.176C146.487 835.176 147.339 834.613 147.91 833.778L147.937 835H149.22V822.581H147.902ZM145.502 833.98C143.736 833.98 142.98 832.398 142.98 830.605C142.98 828.83 143.736 827.248 145.502 827.248C147.295 827.248 148.016 828.83 148.016 830.605C148.016 832.407 147.295 833.98 145.502 833.98ZM155.778 835.105C157.184 835.105 158.177 834.719 159.144 833.752L158.247 833.031C157.562 833.752 156.806 833.945 155.76 833.945C154.064 833.945 153.194 832.609 153.211 831.054H159.329C159.329 831.054 159.372 830.825 159.372 830.72C159.372 828.329 158.502 826.105 155.628 826.105C153.106 826.105 151.831 828.303 151.831 830.658C151.831 833.049 153.123 835.105 155.778 835.105ZM153.211 829.981C153.273 828.496 154.037 827.274 155.628 827.274C157.316 827.274 158.124 828.391 158.116 829.981H153.211Z" fill="#272A2D"/>
<path d="M107.89 1048.02H109.287V1042.45H111.335L114.438 1048.02H116.063L112.697 1042.26C114.288 1041.93 115.343 1040.71 115.343 1039.04C115.343 1036.9 113.638 1035.6 111.44 1035.6H107.89V1048.02ZM109.305 1041.16V1036.83H111.458C112.926 1036.83 113.98 1037.63 113.98 1039.04C113.98 1040.38 113.005 1041.09 111.669 1041.16H109.305ZM118.983 1048H127.025V1046.73H120.38V1042.37H126.154V1041.2H120.38V1036.79H127.025V1035.58H118.983V1048ZM130.234 1048H136.94V1046.73H131.631V1035.58H130.234V1048ZM138.374 1048H139.894L140.843 1045.3H146.301L147.251 1048H148.745L144.113 1035.58H143.041L138.374 1048ZM141.309 1044.03L143.586 1037.63L145.827 1044.03H141.309ZM152.929 1048H154.345V1036.73H158.528V1035.58H148.737V1036.73H152.929V1048ZM161.315 1048H162.713V1035.58H161.315V1048ZM171.6 1048.18C175.397 1048.18 177.19 1045.23 177.19 1041.79C177.19 1038.35 175.397 1035.4 171.6 1035.4C167.821 1035.4 166.036 1038.35 166.036 1041.79C166.036 1045.23 167.821 1048.18 171.6 1048.18ZM171.6 1046.89C168.612 1046.89 167.399 1044.45 167.399 1041.79C167.399 1039.13 168.612 1036.69 171.6 1036.69C174.623 1036.69 175.836 1039.13 175.836 1041.79C175.836 1044.45 174.623 1046.89 171.6 1046.89ZM180.513 1048H181.911V1037.19L187.263 1048H189.258V1035.58H187.878V1046.37L182.464 1035.58H180.513V1048ZM196.502 1048.14C198.708 1048.14 200.378 1046.75 200.378 1044.56C200.378 1040.55 194.401 1041.48 194.401 1038.42C194.401 1037.29 195.359 1036.6 196.396 1036.6C197.38 1036.6 198.303 1037.06 198.804 1038.03L199.859 1037.33C199.086 1036.01 197.864 1035.4 196.405 1035.4C194.559 1035.4 193.039 1036.64 193.039 1038.54C193.039 1042.31 199.015 1041.43 199.015 1044.66C199.015 1046.17 197.996 1046.88 196.51 1046.88C195.043 1046.88 193.698 1046.09 193.522 1044.43L192.213 1044.82C192.564 1047.04 194.48 1048.14 196.502 1048.14ZM203.472 1048H204.87V1042.37H211.137V1048H212.534V1035.58H211.137V1041.2H204.87V1035.58H203.472V1048ZM216.622 1048H218.02V1035.58H216.622V1048ZM222.108 1048H223.505V1042.39H225.597C228.005 1042.39 229.57 1041.2 229.57 1039.01C229.57 1036.87 228.005 1035.58 225.597 1035.58H222.108V1048ZM223.505 1041.15V1036.82H225.597C227.249 1036.82 228.19 1037.63 228.19 1039.01C228.19 1040.44 227.249 1041.15 225.597 1041.15H223.505Z" fill="#272A2D"/>
<rect x="86" y="852" width="342" height="44" rx="4" fill="white" stroke="#8B9199"/>
<rect x="107" y="1065" width="203" height="44" rx="4" fill="white" stroke="#8B9199"/>
<path d="M95.6923 569.5H130.308" stroke="#656565" stroke-linecap="square" stroke-linejoin="round"/>
<path d="M100.159 879.176C102.559 879.176 104.264 877.225 104.264 875.027C104.264 872.742 102.444 871.081 100.168 871.081C99.7812 871.081 99.4121 871.125 99.0605 871.195L101.803 866.581H100.282L96.6523 872.9C96.2832 873.516 96.0635 874.245 96.0635 875.054C96.0635 877.33 97.874 879.176 100.159 879.176ZM100.168 877.928C98.6211 877.928 97.3906 876.618 97.3906 875.045C97.3906 873.454 98.6211 872.162 100.168 872.162C101.706 872.162 102.937 873.454 102.937 875.045C102.937 876.618 101.706 877.928 100.168 877.928ZM110.742 879H112.131V866.581H110.865V866.818C110.865 867.697 110.321 868.356 109.327 868.356H107.816V869.499H110.742V879ZM121.343 879.176C123.593 879.176 125.518 878.007 125.518 875.572C125.518 874.069 124.736 872.883 123.365 872.303C124.34 871.731 124.894 870.747 124.894 869.596C124.894 867.565 123.268 866.396 121.361 866.396C119.445 866.396 117.81 867.565 117.81 869.596C117.81 870.738 118.372 871.74 119.366 872.303C117.968 872.909 117.177 874.061 117.177 875.572C117.177 877.98 119.102 879.176 121.343 879.176ZM121.396 871.872C120.069 871.872 119.172 870.984 119.172 869.64C119.172 868.33 120.28 867.601 121.378 867.601C122.582 867.601 123.602 868.374 123.602 869.763C123.602 871.072 122.6 871.872 121.396 871.872ZM121.343 878.016C119.902 878.016 118.522 877.163 118.522 875.458C118.522 873.814 119.814 872.918 121.343 872.918C122.846 872.918 124.147 873.814 124.147 875.458C124.147 877.163 122.793 878.016 121.343 878.016ZM127.629 879H136.207V877.822H129.545C130.256 877.356 131.074 876.873 132.656 875.282C134.493 873.445 135.6 871.854 135.6 869.956C135.6 867.838 134.203 866.414 131.944 866.414C129.632 866.414 128.121 867.926 128.121 870.519L129.492 870.65C129.588 868.84 130.459 867.653 131.997 867.653C133.262 867.653 134.141 868.462 134.141 870C134.141 871.591 133.192 872.909 131.786 874.412C130.828 875.405 129.588 876.504 127.629 877.752V879ZM142.624 879.176C145.595 879.176 147.097 876.029 147.097 872.821C147.097 869.578 145.568 866.379 142.501 866.379C139.135 866.379 138.001 869.982 138.001 872.786C138.001 875.563 139.161 879.176 142.624 879.176ZM142.571 877.91C140.119 877.91 139.363 874.957 139.363 872.786C139.363 870.606 140.119 867.688 142.501 867.688C144.874 867.688 145.63 870.589 145.63 872.769C145.63 874.878 144.891 877.91 142.571 877.91Z" fill="#8B9199"/>
<path d="M120.746 1092.11C122.152 1092.11 123.146 1091.72 124.112 1090.75L123.216 1090.03C122.53 1090.75 121.774 1090.95 120.729 1090.95C119.032 1090.95 118.162 1089.61 118.18 1088.05H124.297C124.297 1088.05 124.341 1087.83 124.341 1087.72C124.341 1085.33 123.471 1083.11 120.597 1083.11C118.074 1083.11 116.8 1085.3 116.8 1087.66C116.8 1090.05 118.092 1092.11 120.746 1092.11ZM118.18 1086.98C118.241 1085.5 119.006 1084.27 120.597 1084.27C122.284 1084.27 123.093 1085.39 123.084 1086.98H118.18ZM126.917 1092H128.227V1087.01C128.227 1085.58 129.413 1084.32 130.828 1084.32C132.349 1084.32 132.692 1085.6 132.692 1086.8V1092H134.01V1086.67C134.01 1084.71 133.175 1083.07 130.987 1083.07C129.862 1083.07 128.789 1083.68 128.227 1084.6V1083.22H126.917V1092ZM139.539 1092.18C140.076 1092.18 140.524 1092.08 140.717 1092V1090.88C140.445 1091.01 140.137 1091.09 139.838 1091.09C139.197 1091.09 138.704 1090.65 138.704 1089.68V1084.33H140.954V1083.22H138.704V1080.01L137.395 1081.24V1083.22H136.015V1084.33H137.395V1089.67C137.395 1091.17 137.984 1092.18 139.539 1092.18ZM146.607 1092.11C148.013 1092.11 149.006 1091.72 149.973 1090.75L149.077 1090.03C148.391 1090.75 147.635 1090.95 146.589 1090.95C144.893 1090.95 144.023 1089.61 144.041 1088.05H150.158C150.158 1088.05 150.202 1087.83 150.202 1087.72C150.202 1085.33 149.332 1083.11 146.458 1083.11C143.935 1083.11 142.661 1085.3 142.661 1087.66C142.661 1090.05 143.953 1092.11 146.607 1092.11ZM144.041 1086.98C144.102 1085.5 144.867 1084.27 146.458 1084.27C148.145 1084.27 148.954 1085.39 148.945 1086.98H144.041ZM152.778 1092H154.096V1088.26C154.096 1086.05 154.914 1084.21 156.522 1084.21C156.891 1084.21 157.313 1084.32 157.638 1084.61L158.096 1083.49C157.718 1083.22 157.058 1083.09 156.61 1083.09C155.599 1083.09 154.404 1083.76 154.114 1084.92V1083.22H152.778V1092ZM167.37 1092.18C168.618 1092.18 169.814 1091.62 170.455 1090.3L170.482 1092H171.598V1086.61C171.598 1084.48 170.394 1083.07 168.161 1083.07C166.711 1083.07 165.63 1083.67 164.848 1084.76L165.806 1085.5C166.228 1084.9 166.984 1084.21 168.24 1084.21C169.831 1084.21 170.394 1085.33 170.394 1086.98H168.381C165.894 1086.98 164.496 1087.8 164.496 1089.56C164.496 1091.21 165.718 1092.18 167.37 1092.18ZM167.52 1091.07C166.606 1091.07 165.859 1090.64 165.859 1089.59C165.859 1088.42 166.773 1087.97 168.513 1087.97H170.394C170.394 1089.39 169.321 1091.07 167.52 1091.07ZM179.853 1092H181.171V1088.26C181.171 1086.05 181.989 1084.21 183.597 1084.21C183.966 1084.21 184.388 1084.32 184.713 1084.61L185.171 1083.49C184.793 1083.22 184.133 1083.09 183.685 1083.09C182.674 1083.09 181.479 1083.76 181.189 1084.92V1083.22H179.853V1092ZM190.384 1092.11C191.79 1092.11 192.783 1091.72 193.75 1090.75L192.853 1090.03C192.168 1090.75 191.412 1090.95 190.366 1090.95C188.67 1090.95 187.8 1089.61 187.817 1088.05H193.934C193.934 1088.05 193.978 1087.83 193.978 1087.72C193.978 1085.33 193.108 1083.11 190.234 1083.11C187.712 1083.11 186.437 1085.3 186.437 1087.66C186.437 1090.05 187.729 1092.11 190.384 1092.11ZM187.817 1086.98C187.879 1085.5 188.643 1084.27 190.234 1084.27C191.922 1084.27 192.73 1085.39 192.721 1086.98H187.817ZM198.304 1091.03C197.899 1091.03 197.864 1090.56 197.864 1090.53V1079.58H196.546V1090.22C196.546 1091.29 196.634 1092.18 197.97 1092.18C198.409 1092.18 198.866 1092.09 199.147 1092V1090.95C198.954 1090.98 198.603 1091.03 198.304 1091.03ZM203.534 1092.18C204.782 1092.18 205.978 1091.62 206.619 1090.3L206.646 1092H207.762V1086.61C207.762 1084.48 206.558 1083.07 204.325 1083.07C202.875 1083.07 201.794 1083.67 201.012 1084.76L201.97 1085.5C202.392 1084.9 203.148 1084.21 204.404 1084.21C205.995 1084.21 206.558 1085.33 206.558 1086.98H204.545C202.058 1086.98 200.66 1087.8 200.66 1089.56C200.66 1091.21 201.882 1092.18 203.534 1092.18ZM203.684 1091.07C202.77 1091.07 202.023 1090.64 202.023 1089.59C202.023 1088.42 202.937 1087.97 204.677 1087.97H206.558C206.558 1089.39 205.486 1091.07 203.684 1091.07ZM213.274 1092.18C213.81 1092.18 214.258 1092.08 214.452 1092V1090.88C214.179 1091.01 213.871 1091.09 213.573 1091.09C212.931 1091.09 212.439 1090.65 212.439 1089.68V1084.33H214.689V1083.22H212.439V1080.01L211.129 1081.24V1083.22H209.749V1084.33H211.129V1089.67C211.129 1091.17 211.718 1092.18 213.274 1092.18ZM217.01 1081.27H218.522V1079.58H217.01V1081.27ZM217.089 1092H218.425V1083.22H217.089V1092ZM225.159 1092.18C227.611 1092.18 229.325 1090.15 229.325 1087.64C229.325 1085.14 227.611 1083.11 225.159 1083.11C222.672 1083.11 221.002 1085.14 221.002 1087.64C221.002 1090.15 222.672 1092.18 225.159 1092.18ZM225.159 1091.02C223.217 1091.02 222.47 1089.4 222.47 1087.64C222.47 1085.88 223.217 1084.27 225.159 1084.27C227.119 1084.27 227.857 1085.88 227.857 1087.64C227.857 1089.4 227.119 1091.02 225.159 1091.02ZM231.91 1092H233.22V1087.01C233.22 1085.58 234.406 1084.32 235.821 1084.32C237.342 1084.32 237.685 1085.6 237.685 1086.8V1092H239.003V1086.67C239.003 1084.71 238.168 1083.07 235.979 1083.07C234.854 1083.07 233.782 1083.68 233.22 1084.6V1083.22H231.91V1092ZM244.559 1092.18C246.106 1092.18 247.591 1091.26 247.591 1089.42C247.591 1086.09 242.801 1087.48 242.801 1085.45C242.801 1084.74 243.39 1084.2 244.339 1084.2C245.262 1084.2 245.851 1084.71 246.229 1085.38L247.266 1084.78C246.756 1083.89 245.763 1083.09 244.392 1083.09C242.889 1083.09 241.597 1084.04 241.597 1085.65C241.597 1088.76 246.325 1087.32 246.325 1089.61C246.325 1090.61 245.446 1091.01 244.612 1091.01C243.513 1091.01 242.704 1090.32 242.405 1089.43L241.307 1090C241.694 1091.14 242.906 1092.18 244.559 1092.18ZM250.123 1092H251.415V1087.19C251.415 1085.65 252.576 1084.31 254.079 1084.31C255.555 1084.31 255.898 1085.6 255.898 1086.8V1092H257.225V1086.59C257.225 1084.71 256.381 1083.07 254.272 1083.07C253.138 1083.07 252.004 1083.69 251.415 1084.66V1079.58H250.123V1092ZM260.241 1081.27H261.753V1079.58H260.241V1081.27ZM260.32 1092H261.656V1083.22H260.32V1092ZM264.962 1095.85H266.28V1090.8C266.843 1091.63 267.73 1092.18 269.005 1092.18C271.299 1092.18 272.538 1090.11 272.538 1087.61C272.538 1085.1 271.299 1083.04 269.005 1083.04C267.721 1083.04 266.834 1083.6 266.28 1084.42V1083.22H264.962V1095.85ZM268.653 1091.02C266.913 1091.02 266.148 1089.4 266.148 1087.61C266.148 1085.83 266.913 1084.2 268.653 1084.2C270.455 1084.2 271.228 1085.83 271.228 1087.61C271.228 1089.4 270.455 1091.02 268.653 1091.02Z" fill="#8B9199"/>
<path d="M320.692 569.5H355.308" stroke="#656565" stroke-linecap="square" stroke-linejoin="round"/>
<path d="M63.6923 263.5H98.3077" stroke="#656565" stroke-linecap="square" stroke-linejoin="round"/>
<path d="M179.692 333.5H214.308" stroke="#656565" stroke-linecap="square" stroke-linejoin="round"/>
<path d="M179.692 275.5H214.308" stroke="#656565" stroke-linecap="square" stroke-linejoin="round"/>
<path d="M186.692 295.5H221.308" stroke="#656565" stroke-linecap="square" stroke-linejoin="round"/>
<path d="M95.6923 620.5H130.308" stroke="#656565" stroke-linecap="square" stroke-linejoin="round"/>
<path d="M320.692 619.5H355.308" stroke="#656565" stroke-linecap="square" stroke-linejoin="round"/>
<path d="M63.6923 313.5H98.3077" stroke="#656565" stroke-linecap="square" stroke-linejoin="round"/>
<path d="M179.692 231.5H214.308" stroke="#656565" stroke-linecap="square" stroke-linejoin="round"/>
<path d="M102.692 632.5H137.308" stroke="#656565" stroke-linecap="square" stroke-linejoin="round"/>
<path d="M102.692 646H137.308" stroke="#656565" stroke-linecap="square" stroke-linejoin="round"/>
<path d="M102.692 658.5H137.308" stroke="#656565" stroke-linecap="square" stroke-linejoin="round"/>
<path fill-rule="evenodd" clip-rule="evenodd" d="M91.5 637C93.433 637 95 635.433 95 633.5C95 631.567 93.433 630 91.5 630C89.567 630 88 631.567 88 633.5C88 635.433 89.567 637 91.5 637Z" fill="white" stroke="#656565"/>
<path fill-rule="evenodd" clip-rule="evenodd" d="M91.5 649C93.433 649 95 647.433 95 645.5C95 643.567 93.433 642 91.5 642C89.567 642 88 643.567 88 645.5C88 647.433 89.567 649 91.5 649Z" fill="white" stroke="#656565"/>
<path fill-rule="evenodd" clip-rule="evenodd" d="M91.5 661C93.433 661 95 659.433 95 657.5C95 655.567 93.433 654 91.5 654C89.567 654 88 655.567 88 657.5C88 659.433 89.567 661 91.5 661Z" fill="white" stroke="#656565"/>
<path d="M320.692 632.5H355.308" stroke="#656565" stroke-linecap="square" stroke-linejoin="round"/>
<path d="M320.692 646H355.308" stroke="#656565" stroke-linecap="square" stroke-linejoin="round"/>
<path d="M320.692 658.5H355.308" stroke="#656565" stroke-linecap="square" stroke-linejoin="round"/>
<path fill-rule="evenodd" clip-rule="evenodd" d="M309.5 637C311.433 637 313 635.433 313 633.5C313 631.567 311.433 630 309.5 630C307.567 630 306 631.567 306 633.5C306 635.433 307.567 637 309.5 637Z" fill="white" stroke="#656565"/>
<path fill-rule="evenodd" clip-rule="evenodd" d="M309.5 649C311.433 649 313 647.433 313 645.5C313 643.567 311.433 642 309.5 642C307.567 642 306 643.567 306 645.5C306 647.433 307.567 649 309.5 649Z" fill="white" stroke="#656565"/>
<path fill-rule="evenodd" clip-rule="evenodd" d="M309.5 661C311.433 661 313 659.433 313 657.5C313 655.567 311.433 654 309.5 654C307.567 654 306 655.567 306 657.5C306 659.433 307.567 661 309.5 661Z" fill="white" stroke="#656565"/>
<path d="M78.6923 328.5H113.308" stroke="#656565" stroke-linecap="square" stroke-linejoin="round"/>
<path d="M194.692 246.5H229.308" stroke="#656565" stroke-linecap="square" stroke-linejoin="round"/>
<path d="M78.6923 342H113.308" stroke="#656565" stroke-linecap="square" stroke-linejoin="round"/>
<path d="M194.692 260H229.308" stroke="#656565" stroke-linecap="square" stroke-linejoin="round"/>
<path d="M78.6923 354.5H113.308" stroke="#656565" stroke-linecap="square" stroke-linejoin="round"/>
<path d="M78.6923 366.5H113.308" stroke="#656565" stroke-linecap="square" stroke-linejoin="round"/>
<path fill-rule="evenodd" clip-rule="evenodd" d="M67.5 333C69.433 333 71 331.433 71 329.5C71 327.567 69.433 326 67.5 326C65.567 326 64 327.567 64 329.5C64 331.433 65.567 333 67.5 333Z" fill="white" stroke="#656565"/>
<path fill-rule="evenodd" clip-rule="evenodd" d="M183.5 251C185.433 251 187 249.433 187 247.5C187 245.567 185.433 244 183.5 244C181.567 244 180 245.567 180 247.5C180 249.433 181.567 251 183.5 251Z" fill="white" stroke="#656565"/>
<path fill-rule="evenodd" clip-rule="evenodd" d="M67.5 345C69.433 345 71 343.433 71 341.5C71 339.567 69.433 338 67.5 338C65.567 338 64 339.567 64 341.5C64 343.433 65.567 345 67.5 345Z" fill="white" stroke="#656565"/>
<path fill-rule="evenodd" clip-rule="evenodd" d="M183.5 263C185.433 263 187 261.433 187 259.5C187 257.567 185.433 256 183.5 256C181.567 256 180 257.567 180 259.5C180 261.433 181.567 263 183.5 263Z" fill="white" stroke="#656565"/>
<path fill-rule="evenodd" clip-rule="evenodd" d="M67.5 357C69.433 357 71 355.433 71 353.5C71 351.567 69.433 350 67.5 350C65.567 350 64 351.567 64 353.5C64 355.433 65.567 357 67.5 357Z" fill="white" stroke="#656565"/>
<path fill-rule="evenodd" clip-rule="evenodd" d="M67.5 370C69.433 370 71 368.433 71 366.5C71 364.567 69.433 363 67.5 363C65.567 363 64 364.567 64 366.5C64 368.433 65.567 370 67.5 370Z" fill="white" stroke="#656565"/>
<rect x="75" y="544" width="84" height="14" rx="2" fill="white" stroke="#656565"/>
<rect x="246" y="544" width="110" height="14" rx="2" fill="white" stroke="#656565"/>
<rect x="64" y="238" width="54" height="14" rx="2" fill="white" stroke="#656565"/>
<rect x="73" y="576" width="88" height="32" rx="2" fill="white" stroke="#656565"/>
<rect x="246" y="576" width="110" height="32" rx="2" fill="white" stroke="#656565"/>
<rect x="64" y="270" width="76" height="32" rx="2" fill="white" stroke="#656565"/>
<rect x="180" y="340" width="76" height="32" rx="2" fill="white" stroke="#656565"/>
<path d="M88.114 523H89.0896L89.5686 521.651H92.1481L92.6228 523H93.5852L91.1945 516.791H90.5178L88.114 523ZM89.8674 520.864L90.8606 518.104L91.8449 520.864H89.8674ZM99.076 523.088C99.9066 523.088 100.544 522.631 100.816 521.857L100.056 521.554C99.9329 522.024 99.5506 522.319 99.0672 522.319C98.2279 522.319 97.9334 521.55 97.9334 520.812C97.9334 520.082 98.2366 519.309 99.0672 519.309C99.5506 519.309 99.9329 519.59 100.056 520.073L100.865 519.744C100.544 519.005 99.8978 518.535 99.0672 518.535C97.7225 518.535 97.0633 519.647 97.0633 520.812C97.0633 521.989 97.7313 523.088 99.076 523.088ZM103.819 523.088C105.111 523.088 105.981 522.068 105.981 520.82C105.981 519.577 105.111 518.553 103.819 518.553C102.522 518.553 101.661 519.577 101.661 520.82C101.661 522.068 102.522 523.088 103.819 523.088ZM103.819 522.345C102.927 522.345 102.575 521.625 102.575 520.82C102.575 520.016 102.927 519.295 103.819 519.295C104.724 519.295 105.067 520.016 105.067 520.82C105.067 521.625 104.724 522.345 103.819 522.345ZM109.04 523.088C110.332 523.088 111.203 522.068 111.203 520.82C111.203 519.577 110.332 518.553 109.04 518.553C107.744 518.553 106.883 519.577 106.883 520.82C106.883 522.068 107.744 523.088 109.04 523.088ZM109.04 522.345C108.148 522.345 107.797 521.625 107.797 520.82C107.797 520.016 108.148 519.295 109.04 519.295C109.946 519.295 110.289 520.016 110.289 520.82C110.289 521.625 109.946 522.345 109.04 522.345ZM113.295 523.088C113.511 523.088 113.792 523.044 113.972 523V522.297C113.867 522.319 113.713 522.332 113.621 522.332C113.379 522.332 113.326 522.134 113.326 522.064V516.791H112.474V522.121C112.474 522.767 112.693 523.088 113.295 523.088ZM118.092 523H118.958V519.317H120.109V518.61H118.958V517.924C118.958 517.634 119.191 517.458 119.485 517.458C119.727 517.458 119.889 517.564 119.889 517.564L120.14 516.874C119.92 516.769 119.652 516.698 119.393 516.698C118.685 516.698 118.096 517.12 118.096 517.902V518.619H117.288V519.317H118.092V523ZM122.923 523.088C124.215 523.088 125.085 522.068 125.085 520.82C125.085 519.577 124.215 518.553 122.923 518.553C121.626 518.553 120.765 519.577 120.765 520.82C120.765 522.068 121.626 523.088 122.923 523.088ZM122.923 522.345C122.03 522.345 121.679 521.625 121.679 520.82C121.679 520.016 122.03 519.295 122.923 519.295C123.828 519.295 124.171 520.016 124.171 520.82C124.171 521.625 123.828 522.345 122.923 522.345ZM126.369 523H127.208V521.053C127.208 520.1 127.617 519.322 128.329 519.322C128.535 519.322 128.707 519.37 128.852 519.498L129.199 518.786C128.979 518.619 128.628 518.544 128.373 518.544C127.929 518.544 127.388 518.821 127.217 519.405V518.61H126.369V523ZM130.184 523H131.046V520.539C131.046 519.88 131.415 519.291 132.07 519.291C132.729 519.291 132.891 519.858 132.891 520.425V523H133.753V520.539C133.753 519.88 134.122 519.291 134.777 519.291C135.44 519.291 135.607 519.875 135.607 520.442V523H136.473V520.346C136.473 519.401 136.012 518.535 134.895 518.535C134.311 518.535 133.801 518.803 133.493 519.317C133.243 518.79 132.786 518.526 132.188 518.526C131.722 518.526 131.274 518.772 131.046 519.225V518.61H130.184V523Z" fill="#525151"/>
<path d="M297.171 523H298.147L298.626 521.651H301.206L301.68 523H302.643L300.252 516.791H299.575L297.171 523ZM298.925 520.864L299.918 518.104L300.902 520.864H298.925ZM308.133 523.088C308.964 523.088 309.601 522.631 309.874 521.857L309.113 521.554C308.99 522.024 308.608 522.319 308.125 522.319C307.285 522.319 306.991 521.55 306.991 520.812C306.991 520.082 307.294 519.309 308.125 519.309C308.608 519.309 308.99 519.59 309.113 520.073L309.922 519.744C309.601 519.005 308.955 518.535 308.125 518.535C306.78 518.535 306.121 519.647 306.121 520.812C306.121 521.989 306.789 523.088 308.133 523.088ZM312.876 523.088C314.168 523.088 315.038 522.068 315.038 520.82C315.038 519.577 314.168 518.553 312.876 518.553C311.58 518.553 310.718 519.577 310.718 520.82C310.718 522.068 311.58 523.088 312.876 523.088ZM312.876 522.345C311.984 522.345 311.632 521.625 311.632 520.82C311.632 520.016 311.984 519.295 312.876 519.295C313.781 519.295 314.124 520.016 314.124 520.82C314.124 521.625 313.781 522.345 312.876 522.345ZM318.098 523.088C319.39 523.088 320.26 522.068 320.26 520.82C320.26 519.577 319.39 518.553 318.098 518.553C316.801 518.553 315.94 519.577 315.94 520.82C315.94 522.068 316.801 523.088 318.098 523.088ZM318.098 522.345C317.206 522.345 316.854 521.625 316.854 520.82C316.854 520.016 317.206 519.295 318.098 519.295C319.003 519.295 319.346 520.016 319.346 520.82C319.346 521.625 319.003 522.345 318.098 522.345ZM322.353 523.088C322.568 523.088 322.849 523.044 323.03 523V522.297C322.924 522.319 322.77 522.332 322.678 522.332C322.436 522.332 322.384 522.134 322.384 522.064V516.791H321.531V522.121C321.531 522.767 321.751 523.088 322.353 523.088ZM327.149 523H328.015V519.317H329.166V518.61H328.015V517.924C328.015 517.634 328.248 517.458 328.542 517.458C328.784 517.458 328.947 517.564 328.947 517.564L329.197 516.874C328.977 516.769 328.709 516.698 328.45 516.698C327.743 516.698 327.154 517.12 327.154 517.902V518.619H326.345V519.317H327.149V523ZM331.98 523.088C333.272 523.088 334.142 522.068 334.142 520.82C334.142 519.577 333.272 518.553 331.98 518.553C330.684 518.553 329.822 519.577 329.822 520.82C329.822 522.068 330.684 523.088 331.98 523.088ZM331.98 522.345C331.088 522.345 330.736 521.625 330.736 520.82C330.736 520.016 331.088 519.295 331.98 519.295C332.885 519.295 333.228 520.016 333.228 520.82C333.228 521.625 332.885 522.345 331.98 522.345ZM335.426 523H336.266V521.053C336.266 520.1 336.674 519.322 337.386 519.322C337.593 519.322 337.764 519.37 337.909 519.498L338.256 518.786C338.037 518.619 337.685 518.544 337.43 518.544C336.986 518.544 336.446 518.821 336.274 519.405V518.61H335.426V523ZM339.242 523H340.103V520.539C340.103 519.88 340.472 519.291 341.127 519.291C341.786 519.291 341.949 519.858 341.949 520.425V523H342.81V520.539C342.81 519.88 343.179 519.291 343.834 519.291C344.498 519.291 344.665 519.875 344.665 520.442V523H345.53V520.346C345.53 519.401 345.069 518.535 343.953 518.535C343.368 518.535 342.858 518.803 342.551 519.317C342.3 518.79 341.843 518.526 341.246 518.526C340.78 518.526 340.332 518.772 340.103 519.225V518.61H339.242V523Z" fill="#525151"/>
<path d="M61.8789 217H62.771V214.289H65.6714V213.498H62.771V211.59H66.0581V210.791H61.8789V217ZM69.087 217.088C70.379 217.088 71.2491 216.068 71.2491 214.82C71.2491 213.577 70.379 212.553 69.087 212.553C67.7906 212.553 66.9293 213.577 66.9293 214.82C66.9293 216.068 67.7906 217.088 69.087 217.088ZM69.087 216.345C68.1949 216.345 67.8433 215.625 67.8433 214.82C67.8433 214.016 68.1949 213.295 69.087 213.295C69.9922 213.295 70.335 214.016 70.335 214.82C70.335 215.625 69.9922 216.345 69.087 216.345ZM72.5333 217H73.3727V215.053C73.3727 214.1 73.7814 213.322 74.4933 213.322C74.6998 213.322 74.8712 213.37 75.0162 213.498L75.3634 212.786C75.1437 212.619 74.7921 212.544 74.5372 212.544C74.0934 212.544 73.5528 212.821 73.3815 213.405V212.61H72.5333V217ZM76.3488 217H77.2101V214.539C77.2101 213.88 77.5793 213.291 78.2341 213.291C78.8932 213.291 79.0558 213.858 79.0558 214.425V217H79.9172V214.539C79.9172 213.88 80.2863 213.291 80.9411 213.291C81.6047 213.291 81.7717 213.875 81.7717 214.442V217H82.6374V214.346C82.6374 213.401 82.176 212.535 81.0597 212.535C80.4753 212.535 79.9655 212.803 79.6579 213.317C79.4074 212.79 78.9504 212.526 78.3527 212.526C77.8869 212.526 77.4386 212.772 77.2101 213.225V212.61H76.3488V217ZM87.6141 217.009H88.4051L89.3675 213.757L90.3123 217H91.1033L92.3953 212.61H91.49L90.6595 215.761L89.7366 212.61H88.9852L88.0623 215.77L87.2361 212.61H86.3309L87.6141 217.009ZM93.4686 211.705H94.3959V210.791H93.4686V211.705ZM93.4994 217H94.3519V212.61H93.4994V217ZM97.394 217.088C97.6796 217.088 97.9521 217.031 98.0795 216.978V216.222C97.9389 216.292 97.7411 216.358 97.5609 216.358C97.2577 216.358 97.0072 216.178 97.0072 215.726V213.357H98.141V212.61H97.0072V210.887L96.1899 211.573V212.61H95.4779V213.357H96.1767V215.813C96.1767 216.587 96.5766 217.088 97.394 217.088ZM99.4297 217H100.287V214.596C100.287 213.928 100.827 213.331 101.508 213.331C102.159 213.331 102.321 213.875 102.321 214.442V217H103.183V214.324C103.183 213.401 102.739 212.535 101.64 212.535C101.135 212.535 100.607 212.772 100.287 213.234V210.791H99.4297V217ZM109.614 217.088C110.792 217.088 111.433 216.038 111.433 214.803C111.433 213.563 110.792 212.513 109.605 212.513C109.043 212.513 108.599 212.742 108.304 213.133V210.795H107.439V217H108.304V216.473C108.599 216.873 109.06 217.088 109.614 217.088ZM109.399 216.319C108.586 216.319 108.225 215.625 108.225 214.803C108.225 213.985 108.586 213.278 109.399 213.278C110.212 213.278 110.581 213.99 110.581 214.803C110.581 215.62 110.212 216.319 109.399 216.319ZM113.878 217.088C114.453 217.088 114.989 216.864 115.337 216.257L115.376 217H116.088V214.319C116.088 213.251 115.438 212.535 114.277 212.535C113.491 212.535 112.946 212.865 112.537 213.427L113.179 213.902C113.377 213.59 113.741 213.278 114.308 213.278C114.998 213.278 115.288 213.739 115.288 214.438H114.216C113.095 214.438 112.34 214.803 112.34 215.717C112.34 216.587 113.016 217.088 113.878 217.088ZM113.987 216.367C113.552 216.367 113.218 216.156 113.218 215.743C113.218 215.304 113.592 215.066 114.282 215.066H115.288C115.275 215.699 114.752 216.367 113.987 216.367ZM120.422 210.791V213.133C120.123 212.733 119.662 212.518 119.108 212.518C117.944 212.518 117.293 213.568 117.293 214.803C117.293 216.042 117.944 217.088 119.117 217.088C119.693 217.088 120.145 216.864 120.444 216.451L120.475 217H121.283V210.791H120.422ZM119.328 216.306C118.515 216.306 118.159 215.625 118.159 214.803C118.159 213.99 118.515 213.295 119.328 213.295C120.15 213.295 120.492 213.985 120.492 214.803C120.492 215.633 120.15 216.306 119.328 216.306ZM125.882 217H126.748V213.317H127.899V212.61H126.748V211.924C126.748 211.634 126.981 211.458 127.275 211.458C127.517 211.458 127.68 211.564 127.68 211.564L127.93 210.874C127.71 210.769 127.442 210.698 127.183 210.698C126.475 210.698 125.887 211.12 125.887 211.902V212.619H125.078V213.317H125.882V217ZM130.713 217.088C132.005 217.088 132.875 216.068 132.875 214.82C132.875 213.577 132.005 212.553 130.713 212.553C129.416 212.553 128.555 213.577 128.555 214.82C128.555 216.068 129.416 217.088 130.713 217.088ZM130.713 216.345C129.821 216.345 129.469 215.625 129.469 214.82C129.469 214.016 129.821 213.295 130.713 213.295C131.618 213.295 131.961 214.016 131.961 214.82C131.961 215.625 131.618 216.345 130.713 216.345ZM134.159 217H134.998V215.053C134.998 214.1 135.407 213.322 136.119 213.322C136.326 213.322 136.497 213.37 136.642 213.498L136.989 212.786C136.769 212.619 136.418 212.544 136.163 212.544C135.719 212.544 135.179 212.821 135.007 213.405V212.61H134.159V217ZM137.975 217H138.836V214.539C138.836 213.88 139.205 213.291 139.86 213.291C140.519 213.291 140.682 213.858 140.682 214.425V217H141.543V214.539C141.543 213.88 141.912 213.291 142.567 213.291C143.23 213.291 143.397 213.875 143.397 214.442V217H144.263V214.346C144.263 213.401 143.802 212.535 142.686 212.535C142.101 212.535 141.591 212.803 141.284 213.317C141.033 212.79 140.576 212.526 139.979 212.526C139.513 212.526 139.064 212.772 138.836 213.225V212.61H137.975V217Z" fill="#525151"/>
<rect x="193" y="308" width="24" height="7" fill="#155DA1"/>
<defs>
<filter id="filter0_d" x="35" y="489" width="164" height="217" filterUnits="userSpaceOnUse" color-interpolation-filters="sRGB">
<feFlood flood-opacity="0" result="BackgroundImageFix"/>
<feColorMatrix in="SourceAlpha" type="matrix" values="0 0 0 0 0 0 0 0 0 0 0 0 0 0 0 0 0 0 127 0"/>
<feOffset dy="2"/>
<feGaussianBlur stdDeviation="2"/>
<feColorMatrix type="matrix" values="0 0 0 0 0 0 0 0 0 0 0 0 0 0 0 0 0 0 0.153109 0"/>
<feBlend mode="normal" in2="BackgroundImageFix" result="effect1_dropShadow"/>
<feBlend mode="normal" in="SourceGraphic" in2="effect1_dropShadow" result="shape"/>
</filter>
<filter id="filter1_d" x="223" y="489" width="164" height="217" filterUnits="userSpaceOnUse" color-interpolation-filters="sRGB">
<feFlood flood-opacity="0" result="BackgroundImageFix"/>
<feColorMatrix in="SourceAlpha" type="matrix" values="0 0 0 0 0 0 0 0 0 0 0 0 0 0 0 0 0 0 127 0"/>
<feOffset dy="2"/>
<feGaussianBlur stdDeviation="2"/>
<feColorMatrix type="matrix" values="0 0 0 0 0 0 0 0 0 0 0 0 0 0 0 0 0 0 0.153109 0"/>
<feBlend mode="normal" in2="BackgroundImageFix" result="effect1_dropShadow"/>
<feBlend mode="normal" in="SourceGraphic" in2="effect1_dropShadow" result="shape"/>
</filter>
<filter id="filter2_d" x="38" y="189" width="241" height="217" filterUnits="userSpaceOnUse" color-interpolation-filters="sRGB">
<feFlood flood-opacity="0" result="BackgroundImageFix"/>
<feColorMatrix in="SourceAlpha" type="matrix" values="0 0 0 0 0 0 0 0 0 0 0 0 0 0 0 0 0 0 127 0"/>
<feOffset dy="2"/>
<feGaussianBlur stdDeviation="2"/>
<feColorMatrix type="matrix" values="0 0 0 0 0 0 0 0 0 0 0 0 0 0 0 0 0 0 0.153109 0"/>
<feBlend mode="normal" in2="BackgroundImageFix" result="effect1_dropShadow"/>
<feBlend mode="normal" in="SourceGraphic" in2="effect1_dropShadow" result="shape"/>
</filter>
<filter id="filter3_d" x="38" y="789" width="444" height="142" filterUnits="userSpaceOnUse" color-interpolation-filters="sRGB">
<feFlood flood-opacity="0" result="BackgroundImageFix"/>
<feColorMatrix in="SourceAlpha" type="matrix" values="0 0 0 0 0 0 0 0 0 0 0 0 0 0 0 0 0 0 127 0"/>
<feOffset dy="2"/>
<feGaussianBlur stdDeviation="2"/>
<feColorMatrix type="matrix" values="0 0 0 0 0 0 0 0 0 0 0 0 0 0 0 0 0 0 0.153109 0"/>
<feBlend mode="normal" in2="BackgroundImageFix" result="effect1_dropShadow"/>
<feBlend mode="normal" in="SourceGraphic" in2="effect1_dropShadow" result="shape"/>
</filter>
<filter id="filter4_d" x="59" y="1002" width="294" height="142" filterUnits="userSpaceOnUse" color-interpolation-filters="sRGB">
<feFlood flood-opacity="0" result="BackgroundImageFix"/>
<feColorMatrix in="SourceAlpha" type="matrix" values="0 0 0 0 0 0 0 0 0 0 0 0 0 0 0 0 0 0 127 0"/>
<feOffset dy="2"/>
<feGaussianBlur stdDeviation="2"/>
<feColorMatrix type="matrix" values="0 0 0 0 0 0 0 0 0 0 0 0 0 0 0 0 0 0 0.153109 0"/>
<feBlend mode="normal" in2="BackgroundImageFix" result="effect1_dropShadow"/>
<feBlend mode="normal" in="SourceGraphic" in2="effect1_dropShadow" result="shape"/>
</filter>
</defs>
</svg>
