<svg width="552" height="1208" viewBox="0 0 552 1208" fill="none" xmlns="http://www.w3.org/2000/svg">
<rect x="2" y="18" width="550" height="1190" fill="#FCFCFC"/>
<rect width="550" height="18" fill="#4C9859"/>
<path d="M50.4844 156.125C52.4453 156.125 53.9297 154.891 53.9297 152.945C53.9297 149.375 48.6172 150.203 48.6172 147.484C48.6172 146.477 49.4688 145.867 50.3906 145.867C51.2656 145.867 52.0859 146.273 52.5312 147.141L53.4688 146.516C52.7812 145.344 51.6953 144.797 50.3984 144.797C48.7578 144.797 47.4062 145.898 47.4062 147.594C47.4062 150.945 52.7188 150.156 52.7188 153.031C52.7188 154.375 51.8125 155.008 50.4922 155.008C49.1875 155.008 47.9922 154.305 47.8359 152.828L46.6719 153.172C46.9844 155.148 48.6875 156.125 50.4844 156.125ZM58.6893 156.156C59.1659 156.156 59.5643 156.07 59.7362 156V155C59.494 155.117 59.2206 155.195 58.955 155.195C58.3847 155.195 57.9472 154.797 57.9472 153.938V149.18H59.9472V148.195H57.9472V145.344L56.7831 146.438V148.195H55.5565V149.18H56.7831V153.93C56.7831 155.266 57.3065 156.156 58.6893 156.156ZM62.2849 156H63.4568V152.68C63.4568 150.711 64.1834 149.078 65.6131 149.078C65.9412 149.078 66.3162 149.172 66.6052 149.43L67.0115 148.438C66.6756 148.195 66.0896 148.078 65.6912 148.078C64.7927 148.078 63.7302 148.68 63.4724 149.711V148.195H62.2849V156ZM71.4586 156.18C72.6774 156.18 73.5915 155.352 73.9118 154.68V156H75.068V148.195H73.9118V152.586C73.9118 154.047 72.8336 155.172 71.5758 155.172C70.2477 155.172 69.9352 153.93 69.9352 152.867V148.195H68.7711V152.82C68.7711 154.633 69.529 156.18 71.4586 156.18ZM80.9995 156.156C82.4136 156.156 83.4761 155.383 83.937 154.086L82.9214 153.648C82.687 154.57 81.9292 155.164 80.9839 155.164C79.3511 155.164 78.8042 153.539 78.8042 152.109C78.8042 150.703 79.3667 149.062 80.9839 149.062C81.9214 149.062 82.687 149.633 82.9214 150.578L84.0308 150.109C83.4761 148.852 82.398 148.062 80.9839 148.062C78.7339 148.062 77.6089 150.016 77.6089 152.109C77.6089 154.227 78.7495 156.156 80.9995 156.156ZM88.4936 156.156C88.9701 156.156 89.3686 156.07 89.5404 156V155C89.2983 155.117 89.0248 155.195 88.7592 155.195C88.1889 155.195 87.7514 154.797 87.7514 153.938V149.18H89.7514V148.195H87.7514V145.344L86.5873 146.438V148.195H85.3608V149.18H86.5873V153.93C86.5873 155.266 87.1108 156.156 88.4936 156.156ZM94.5892 156.18C95.8079 156.18 96.722 155.352 97.0423 154.68V156H98.1985V148.195H97.0423V152.586C97.0423 154.047 95.9642 155.172 94.7063 155.172C93.3782 155.172 93.0657 153.93 93.0657 152.867V148.195H91.9017V152.82C91.9017 154.633 92.6595 156.18 94.5892 156.18ZM101.325 156H102.497V152.68C102.497 150.711 103.224 149.078 104.653 149.078C104.982 149.078 105.357 149.172 105.646 149.43L106.052 148.438C105.716 148.195 105.13 148.078 104.732 148.078C103.833 148.078 102.771 148.68 102.513 149.711V148.195H101.325V156ZM110.89 156.094C112.14 156.094 113.023 155.75 113.882 154.891L113.085 154.25C112.476 154.891 111.804 155.062 110.874 155.062C109.366 155.062 108.593 153.875 108.608 152.492H114.046C114.046 152.492 114.085 152.289 114.085 152.195C114.085 150.07 113.312 148.094 110.757 148.094C108.515 148.094 107.382 150.047 107.382 152.141C107.382 154.266 108.53 156.094 110.89 156.094ZM108.608 151.539C108.663 150.219 109.343 149.133 110.757 149.133C112.257 149.133 112.976 150.125 112.968 151.539H108.608ZM121.745 156H122.909V149.148H125.159V148.195H122.909V146.789C122.909 146.18 123.448 145.812 124.042 145.812C124.542 145.812 124.862 146.023 124.862 146.023L125.143 145.094C124.776 144.914 124.323 144.797 123.878 144.797C122.706 144.797 121.753 145.477 121.753 146.758V148.211H120.323V149.148H121.745V156ZM130.27 156.156C132.45 156.156 133.973 154.352 133.973 152.125C133.973 149.906 132.45 148.094 130.27 148.094C128.059 148.094 126.575 149.906 126.575 152.125C126.575 154.352 128.059 156.156 130.27 156.156ZM130.27 155.125C128.544 155.125 127.88 153.688 127.88 152.125C127.88 150.562 128.544 149.133 130.27 149.133C132.012 149.133 132.669 150.562 132.669 152.125C132.669 153.688 132.012 155.125 130.27 155.125ZM136.475 156H137.647V152.68C137.647 150.711 138.374 149.078 139.803 149.078C140.131 149.078 140.506 149.172 140.795 149.43L141.202 148.438C140.866 148.195 140.28 148.078 139.881 148.078C138.983 148.078 137.92 148.68 137.663 149.711V148.195H136.475V156ZM143.211 156H144.391V151.547C144.391 150.266 145.086 149.047 146.375 149.047C147.719 149.047 148.024 150.266 148.024 151.344V156H149.204V151.547C149.204 150.266 149.899 149.047 151.18 149.047C152.532 149.047 152.86 150.312 152.86 151.375V156H154.04V151.258C154.04 149.523 153.266 148.062 151.321 148.062C150.227 148.062 149.391 148.617 148.899 149.633C148.516 148.547 147.618 148.047 146.5 148.047C145.54 148.047 144.711 148.648 144.391 149.531V148.195H143.211V156ZM159.159 156.156C160.534 156.156 161.854 155.344 161.854 153.703C161.854 150.75 157.596 151.984 157.596 150.18C157.596 149.547 158.119 149.07 158.963 149.07C159.784 149.07 160.307 149.523 160.643 150.117L161.565 149.586C161.112 148.789 160.229 148.078 159.01 148.078C157.674 148.078 156.526 148.922 156.526 150.359C156.526 153.117 160.729 151.836 160.729 153.875C160.729 154.766 159.948 155.117 159.205 155.117C158.229 155.117 157.51 154.508 157.244 153.719L156.268 154.227C156.612 155.234 157.69 156.156 159.159 156.156ZM169.022 146.461H170.365V144.961H169.022V146.461ZM169.092 156H170.279V148.195H169.092V156ZM173.406 156H174.57V151.562C174.57 150.289 175.625 149.172 176.883 149.172C178.234 149.172 178.539 150.312 178.539 151.375V156H179.711V151.258C179.711 149.523 178.969 148.062 177.023 148.062C176.023 148.062 175.07 148.602 174.57 149.422V148.195H173.406V156ZM189.652 156.156C191.027 156.156 192.347 155.344 192.347 153.703C192.347 150.75 188.09 151.984 188.09 150.18C188.09 149.547 188.613 149.07 189.457 149.07C190.277 149.07 190.801 149.523 191.136 150.117L192.058 149.586C191.605 148.789 190.722 148.078 189.504 148.078C188.168 148.078 187.019 148.922 187.019 150.359C187.019 153.117 191.222 151.836 191.222 153.875C191.222 154.766 190.441 155.117 189.699 155.117C188.722 155.117 188.004 154.508 187.738 153.719L186.761 154.227C187.105 155.234 188.183 156.156 189.652 156.156ZM194.716 146.461H196.06V144.961H194.716V146.461ZM194.787 156H195.974V148.195H194.787V156ZM199.101 156H200.265V151.562C200.265 150.289 201.32 149.172 202.578 149.172C203.929 149.172 204.234 150.312 204.234 151.375V156H205.406V151.258C205.406 149.523 204.664 148.062 202.718 148.062C201.718 148.062 200.765 148.602 200.265 149.422V148.195H199.101V156ZM211.142 154.992C210.064 154.844 209.056 154.609 209.056 153.805C209.056 153.539 209.189 153.352 209.392 153.195C209.822 153.406 210.322 153.523 210.861 153.523C212.486 153.523 213.751 152.516 213.751 150.836C213.751 150.367 213.65 149.938 213.454 149.562L214.712 148.578L214.056 147.75L212.876 148.812C212.376 148.359 211.673 148.094 210.861 148.094C209.22 148.094 207.947 149.164 207.947 150.82C207.947 151.539 208.189 152.141 208.595 152.602C208.158 152.977 208.033 153.43 208.033 153.883C208.033 154.68 208.447 155.172 209.017 155.492L207.892 156.625C207.876 156.734 207.869 156.828 207.869 156.922C207.869 158.414 209.204 159.578 211.236 159.578C212.884 159.578 214.361 158.812 214.361 157.195C214.361 155.445 212.736 155.203 211.142 154.992ZM210.845 149.016C211.908 149.016 212.579 149.836 212.579 150.805C212.579 151.844 211.9 152.555 210.845 152.555C209.798 152.555 209.126 151.852 209.126 150.805C209.126 149.859 209.783 149.016 210.845 149.016ZM211.337 158.539C209.814 158.539 208.962 157.734 208.947 156.945L209.869 155.82C210.173 155.914 210.494 155.969 210.806 156.023C212.095 156.242 213.322 156.281 213.322 157.281C213.322 158.141 212.361 158.539 211.337 158.539ZM218.206 155.141C217.847 155.141 217.816 154.719 217.816 154.695V144.961H216.644V154.422C216.644 155.367 216.722 156.156 217.909 156.156C218.3 156.156 218.706 156.078 218.956 156V155.062C218.784 155.094 218.472 155.141 218.206 155.141ZM224.107 156.094C225.357 156.094 226.239 155.75 227.099 154.891L226.302 154.25C225.693 154.891 225.021 155.062 224.091 155.062C222.583 155.062 221.81 153.875 221.825 152.492H227.263C227.263 152.492 227.302 152.289 227.302 152.195C227.302 150.07 226.528 148.094 223.974 148.094C221.732 148.094 220.599 150.047 220.599 152.141C220.599 154.266 221.747 156.094 224.107 156.094ZM221.825 151.539C221.88 150.219 222.56 149.133 223.974 149.133C225.474 149.133 226.193 150.125 226.185 151.539H221.825ZM237.399 156.156C238.813 156.156 239.876 155.383 240.337 154.086L239.321 153.648C239.087 154.57 238.329 155.164 237.384 155.164C235.751 155.164 235.204 153.539 235.204 152.109C235.204 150.703 235.767 149.062 237.384 149.062C238.321 149.062 239.087 149.633 239.321 150.578L240.431 150.109C239.876 148.852 238.798 148.062 237.384 148.062C235.134 148.062 234.009 150.016 234.009 152.109C234.009 154.227 235.149 156.156 237.399 156.156ZM245.8 156.156C247.979 156.156 249.503 154.352 249.503 152.125C249.503 149.906 247.979 148.094 245.8 148.094C243.589 148.094 242.104 149.906 242.104 152.125C242.104 154.352 243.589 156.156 245.8 156.156ZM245.8 155.125C244.073 155.125 243.409 153.688 243.409 152.125C243.409 150.562 244.073 149.133 245.8 149.133C247.542 149.133 248.198 150.562 248.198 152.125C248.198 153.688 247.542 155.125 245.8 155.125ZM253.559 155.141C253.2 155.141 253.169 154.719 253.169 154.695V144.961H251.997V154.422C251.997 155.367 252.075 156.156 253.262 156.156C253.653 156.156 254.059 156.078 254.309 156V155.062C254.137 155.094 253.825 155.141 253.559 155.141ZM259.069 156.18C260.288 156.18 261.202 155.352 261.522 154.68V156H262.678V148.195H261.522V152.586C261.522 154.047 260.444 155.172 259.186 155.172C257.858 155.172 257.546 153.93 257.546 152.867V148.195H256.381V152.82C256.381 154.633 257.139 156.18 259.069 156.18ZM265.805 156H266.985V151.547C266.985 150.266 267.68 149.047 268.969 149.047C270.313 149.047 270.618 150.266 270.618 151.344V156H271.797V151.547C271.797 150.266 272.493 149.047 273.774 149.047C275.125 149.047 275.454 150.312 275.454 151.375V156H276.633V151.258C276.633 149.523 275.86 148.062 273.915 148.062C272.821 148.062 271.985 148.617 271.493 149.633C271.11 148.547 270.211 148.047 269.094 148.047C268.133 148.047 267.305 148.648 266.985 149.531V148.195H265.805V156ZM279.573 156H280.737V151.562C280.737 150.289 281.791 149.172 283.049 149.172C284.401 149.172 284.705 150.312 284.705 151.375V156H285.877V151.258C285.877 149.523 285.135 148.062 283.19 148.062C282.19 148.062 281.237 148.602 280.737 149.422V148.195H279.573V156ZM291.02 156.156C292.395 156.156 293.715 155.344 293.715 153.703C293.715 150.75 289.457 151.984 289.457 150.18C289.457 149.547 289.981 149.07 290.824 149.07C291.645 149.07 292.168 149.523 292.504 150.117L293.426 149.586C292.973 148.789 292.09 148.078 290.871 148.078C289.535 148.078 288.387 148.922 288.387 150.359C288.387 153.117 292.59 151.836 292.59 153.875C292.59 154.766 291.809 155.117 291.067 155.117C290.09 155.117 289.371 154.508 289.106 153.719L288.129 154.227C288.473 155.234 289.551 156.156 291.02 156.156ZM296.662 156H298.209V154.484H296.662V156Z" fill="black"/>
<path d="M47.6797 456H53.6406V454.867H48.9219V444.961H47.6797V456ZM58.8456 456.094C60.0956 456.094 60.9784 455.75 61.8378 454.891L61.0409 454.25C60.4315 454.891 59.7597 455.062 58.83 455.062C57.3222 455.062 56.5487 453.875 56.5643 452.492H62.0018C62.0018 452.492 62.0409 452.289 62.0409 452.195C62.0409 450.07 61.2675 448.094 58.7128 448.094C56.4706 448.094 55.3378 450.047 55.3378 452.141C55.3378 454.266 56.4862 456.094 58.8456 456.094ZM56.5643 451.539C56.619 450.219 57.2987 449.133 58.7128 449.133C60.2128 449.133 60.9315 450.125 60.9237 451.539H56.5643ZM64.9021 456H66.0662V449.148H68.3162V448.195H66.0662V446.789C66.0662 446.18 66.6052 445.812 67.199 445.812C67.699 445.812 68.0193 446.023 68.0193 446.023L68.3006 445.094C67.9334 444.914 67.4802 444.797 67.0349 444.797C65.8631 444.797 64.9099 445.477 64.9099 446.758V448.211H63.4802V449.148H64.9021V456ZM72.5211 456.156C72.9977 456.156 73.3961 456.07 73.568 456V455C73.3258 455.117 73.0524 455.195 72.7868 455.195C72.2165 455.195 71.779 454.797 71.779 453.938V449.18H73.779V448.195H71.779V445.344L70.6149 446.438V448.195H69.3883V449.18H70.6149V453.93C70.6149 455.266 71.1383 456.156 72.5211 456.156ZM82.7592 456.156C83.8686 456.156 84.9311 455.664 85.5014 454.492L85.5248 456H86.517V451.211C86.517 449.312 85.4467 448.062 83.4623 448.062C82.1733 448.062 81.2123 448.594 80.517 449.562L81.3686 450.227C81.7436 449.688 82.4154 449.078 83.5326 449.078C84.9467 449.078 85.4467 450.07 85.4467 451.539H83.6576C81.4467 451.539 80.2045 452.266 80.2045 453.828C80.2045 455.297 81.2904 456.156 82.7592 456.156ZM82.892 455.172C82.0795 455.172 81.4154 454.789 81.4154 453.859C81.4154 452.82 82.2279 452.422 83.7748 452.422H85.4467C85.4467 453.68 84.4936 455.172 82.892 455.172ZM91.0188 455.141C90.6595 455.141 90.6282 454.719 90.6282 454.695V444.961H89.4563V454.422C89.4563 455.367 89.5345 456.156 90.722 456.156C91.1126 456.156 91.5188 456.078 91.7688 456V455.062C91.597 455.094 91.2845 455.141 91.0188 455.141ZM93.9582 446.461H95.3019V444.961H93.9582V446.461ZM94.0285 456H95.216V448.195H94.0285V456ZM101.116 454.992C100.038 454.844 99.0303 454.609 99.0303 453.805C99.0303 453.539 99.1631 453.352 99.3663 453.195C99.796 453.406 100.296 453.523 100.835 453.523C102.46 453.523 103.726 452.516 103.726 450.836C103.726 450.367 103.624 449.938 103.429 449.562L104.687 448.578L104.03 447.75L102.851 448.812C102.351 448.359 101.648 448.094 100.835 448.094C99.1944 448.094 97.921 449.164 97.921 450.82C97.921 451.539 98.1631 452.141 98.5694 452.602C98.1319 452.977 98.0069 453.43 98.0069 453.883C98.0069 454.68 98.421 455.172 98.9913 455.492L97.8663 456.625C97.8506 456.734 97.8428 456.828 97.8428 456.922C97.8428 458.414 99.1788 459.578 101.21 459.578C102.858 459.578 104.335 458.812 104.335 457.195C104.335 455.445 102.71 455.203 101.116 454.992ZM100.819 449.016C101.882 449.016 102.554 449.836 102.554 450.805C102.554 451.844 101.874 452.555 100.819 452.555C99.7725 452.555 99.1006 451.852 99.1006 450.805C99.1006 449.859 99.7569 449.016 100.819 449.016ZM101.312 458.539C99.7881 458.539 98.9366 457.734 98.921 456.945L99.8428 455.82C100.148 455.914 100.468 455.969 100.78 456.023C102.069 456.242 103.296 456.281 103.296 457.281C103.296 458.141 102.335 458.539 101.312 458.539ZM106.626 456H107.79V451.562C107.79 450.289 108.845 449.172 110.102 449.172C111.454 449.172 111.759 450.312 111.759 451.375V456H112.931V451.258C112.931 449.523 112.188 448.062 110.243 448.062C109.243 448.062 108.29 448.602 107.79 449.422V448.195H106.626V456ZM121.059 456H122.223V449.148H124.473V448.195H122.223V446.789C122.223 446.18 122.762 445.812 123.356 445.812C123.856 445.812 124.176 446.023 124.176 446.023L124.458 445.094C124.091 444.914 123.637 444.797 123.192 444.797C122.02 444.797 121.067 445.477 121.067 446.758V448.211H119.637V449.148H121.059V456ZM129.585 456.156C131.764 456.156 133.288 454.352 133.288 452.125C133.288 449.906 131.764 448.094 129.585 448.094C127.374 448.094 125.889 449.906 125.889 452.125C125.889 454.352 127.374 456.156 129.585 456.156ZM129.585 455.125C127.858 455.125 127.194 453.688 127.194 452.125C127.194 450.562 127.858 449.133 129.585 449.133C131.327 449.133 131.983 450.562 131.983 452.125C131.983 453.688 131.327 455.125 129.585 455.125ZM135.79 456H136.961V452.68C136.961 450.711 137.688 449.078 139.118 449.078C139.446 449.078 139.821 449.172 140.11 449.43L140.516 448.438C140.18 448.195 139.594 448.078 139.196 448.078C138.297 448.078 137.235 448.68 136.977 449.711V448.195H135.79V456ZM142.526 456H143.705V451.547C143.705 450.266 144.401 449.047 145.69 449.047C147.034 449.047 147.338 450.266 147.338 451.344V456H148.518V451.547C148.518 450.266 149.213 449.047 150.494 449.047C151.846 449.047 152.174 450.312 152.174 451.375V456H153.354V451.258C153.354 449.523 152.58 448.062 150.635 448.062C149.541 448.062 148.705 448.617 148.213 449.633C147.83 448.547 146.932 448.047 145.815 448.047C144.854 448.047 144.026 448.648 143.705 449.531V448.195H142.526V456ZM163.897 456.156C165.311 456.156 166.373 455.383 166.834 454.086L165.818 453.648C165.584 454.57 164.826 455.164 163.881 455.164C162.248 455.164 161.701 453.539 161.701 452.109C161.701 450.703 162.264 449.062 163.881 449.062C164.818 449.062 165.584 449.633 165.818 450.578L166.928 450.109C166.373 448.852 165.295 448.062 163.881 448.062C161.631 448.062 160.506 450.016 160.506 452.109C160.506 454.227 161.647 456.156 163.897 456.156ZM172.297 456.156C174.477 456.156 176 454.352 176 452.125C176 449.906 174.477 448.094 172.297 448.094C170.086 448.094 168.602 449.906 168.602 452.125C168.602 454.352 170.086 456.156 172.297 456.156ZM172.297 455.125C170.57 455.125 169.906 453.688 169.906 452.125C169.906 450.562 170.57 449.133 172.297 449.133C174.039 449.133 174.695 450.562 174.695 452.125C174.695 453.688 174.039 455.125 172.297 455.125ZM178.502 456H179.666V451.562C179.666 450.289 180.721 449.172 181.978 449.172C183.33 449.172 183.635 450.312 183.635 451.375V456H184.807V451.258C184.807 449.523 184.064 448.062 182.119 448.062C181.119 448.062 180.166 448.602 179.666 449.422V448.195H178.502V456ZM189.926 456.156C190.402 456.156 190.801 456.07 190.972 456V455C190.73 455.117 190.457 455.195 190.191 455.195C189.621 455.195 189.183 454.797 189.183 453.938V449.18H191.183V448.195H189.183V445.344L188.019 446.438V448.195H186.793V449.18H188.019V453.93C188.019 455.266 188.543 456.156 189.926 456.156ZM196.412 456.094C197.662 456.094 198.545 455.75 199.404 454.891L198.607 454.25C197.998 454.891 197.326 455.062 196.396 455.062C194.888 455.062 194.115 453.875 194.131 452.492H199.568C199.568 452.492 199.607 452.289 199.607 452.195C199.607 450.07 198.834 448.094 196.279 448.094C194.037 448.094 192.904 450.047 192.904 452.141C192.904 454.266 194.052 456.094 196.412 456.094ZM194.131 451.539C194.185 450.219 194.865 449.133 196.279 449.133C197.779 449.133 198.498 450.125 198.49 451.539H194.131ZM202.101 456H203.265V451.562C203.265 450.289 204.32 449.172 205.578 449.172C206.929 449.172 207.234 450.312 207.234 451.375V456H208.406V451.258C208.406 449.523 207.664 448.062 205.718 448.062C204.718 448.062 203.765 448.602 203.265 449.422V448.195H202.101V456ZM213.525 456.156C214.001 456.156 214.4 456.07 214.572 456V455C214.329 455.117 214.056 455.195 213.79 455.195C213.22 455.195 212.783 454.797 212.783 453.938V449.18H214.783V448.195H212.783V445.344L211.619 446.438V448.195H210.392V449.18H211.619V453.93C211.619 455.266 212.142 456.156 213.525 456.156ZM217.628 456H219.175V454.484H217.628V456Z" fill="black"/>
<path d="M51.2891 756.156C54.0312 756.156 55.1562 754.172 55.1562 751.875V744.961H53.9141V751.602C53.9141 753.508 53.2969 754.984 51.2891 754.984C49.2812 754.984 48.6875 753.508 48.6875 751.602V744.961H47.4531V751.953C47.4531 754.172 48.5469 756.156 51.2891 756.156ZM60.5722 756.156C61.9472 756.156 63.2675 755.344 63.2675 753.703C63.2675 750.75 59.0097 751.984 59.0097 750.18C59.0097 749.547 59.5331 749.07 60.3768 749.07C61.1972 749.07 61.7206 749.523 62.0565 750.117L62.9784 749.586C62.5253 748.789 61.6425 748.078 60.4237 748.078C59.0878 748.078 57.9393 748.922 57.9393 750.359C57.9393 753.117 62.1425 751.836 62.1425 753.875C62.1425 754.766 61.3612 755.117 60.619 755.117C59.6425 755.117 58.9237 754.508 58.6581 753.719L57.6815 754.227C58.0253 755.234 59.1034 756.156 60.5722 756.156ZM68.5974 756.094C69.8474 756.094 70.7302 755.75 71.5896 754.891L70.7927 754.25C70.1834 754.891 69.5115 755.062 68.5818 755.062C67.074 755.062 66.3006 753.875 66.3162 752.492H71.7537C71.7537 752.492 71.7927 752.289 71.7927 752.195C71.7927 750.07 71.0193 748.094 68.4646 748.094C66.2224 748.094 65.0896 750.047 65.0896 752.141C65.0896 754.266 66.2381 756.094 68.5974 756.094ZM66.3162 751.539C66.3709 750.219 67.0506 749.133 68.4646 749.133C69.9646 749.133 70.6834 750.125 70.6756 751.539H66.3162ZM79.6245 756H80.7183V749.148H83.6558V756H84.7183V748.195H80.7183C80.7183 746.906 81.0699 745.789 82.4839 745.789C83.0464 745.789 83.5386 745.961 84.0933 746.547L84.6558 745.719C84.0308 744.984 83.062 744.797 82.3667 744.797C80.3277 744.797 79.6402 746.43 79.6402 748.195H78.4761V749.148H79.6245V756ZM90.9311 756.094C92.1811 756.094 93.0639 755.75 93.9233 754.891L93.1264 754.25C92.517 754.891 91.8451 755.062 90.9154 755.062C89.4076 755.062 88.6342 753.875 88.6498 752.492H94.0873C94.0873 752.492 94.1264 752.289 94.1264 752.195C94.1264 750.07 93.3529 748.094 90.7983 748.094C88.5561 748.094 87.4233 750.047 87.4233 752.141C87.4233 754.266 88.5717 756.094 90.9311 756.094ZM88.6498 751.539C88.7045 750.219 89.3842 749.133 90.7983 749.133C92.2983 749.133 93.017 750.125 93.0092 751.539H88.6498ZM98.1751 755.141C97.8157 755.141 97.7845 754.719 97.7845 754.695V744.961H96.6126V754.422C96.6126 755.367 96.6907 756.156 97.8782 756.156C98.2688 756.156 98.6751 756.078 98.9251 756V755.062C98.7532 755.094 98.4407 755.141 98.1751 755.141ZM106.2 744.961V749.258C105.685 748.508 104.896 748.031 103.763 748.031C101.771 748.031 100.638 749.859 100.638 752.094C100.638 754.32 101.771 756.156 103.771 756.156C104.943 756.156 105.7 755.656 106.208 754.914L106.232 756H107.372V744.961H106.2ZM104.068 755.094C102.497 755.094 101.825 753.688 101.825 752.094C101.825 750.516 102.497 749.109 104.068 749.109C105.661 749.109 106.302 750.516 106.302 752.094C106.302 753.695 105.661 755.094 104.068 755.094ZM116.868 755.141C116.509 755.141 116.477 754.719 116.477 754.695V744.961H115.306V754.422C115.306 755.367 115.384 756.156 116.571 756.156C116.962 756.156 117.368 756.078 117.618 756V755.062C117.446 755.094 117.134 755.141 116.868 755.141ZM122.768 756.094C124.018 756.094 124.901 755.75 125.761 754.891L124.964 754.25C124.354 754.891 123.682 755.062 122.753 755.062C121.245 755.062 120.472 753.875 120.487 752.492H125.925C125.925 752.492 125.964 752.289 125.964 752.195C125.964 750.07 125.19 748.094 122.636 748.094C120.393 748.094 119.261 750.047 119.261 752.141C119.261 754.266 120.409 756.094 122.768 756.094ZM120.487 751.539C120.542 750.219 121.222 749.133 122.636 749.133C124.136 749.133 124.854 750.125 124.847 751.539H120.487ZM128.458 756H129.622V751.562C129.622 750.289 130.676 749.172 131.934 749.172C133.286 749.172 133.591 750.312 133.591 751.375V756H134.762V751.258C134.762 749.523 134.02 748.062 132.075 748.062C131.075 748.062 130.122 748.602 129.622 749.422V748.195H128.458V756ZM140.499 754.992C139.42 754.844 138.413 754.609 138.413 753.805C138.413 753.539 138.545 753.352 138.749 753.195C139.178 753.406 139.678 753.523 140.217 753.523C141.842 753.523 143.108 752.516 143.108 750.836C143.108 750.367 143.006 749.938 142.811 749.562L144.069 748.578L143.413 747.75L142.233 748.812C141.733 748.359 141.03 748.094 140.217 748.094C138.577 748.094 137.303 749.164 137.303 750.82C137.303 751.539 137.545 752.141 137.952 752.602C137.514 752.977 137.389 753.43 137.389 753.883C137.389 754.68 137.803 755.172 138.374 755.492L137.249 756.625C137.233 756.734 137.225 756.828 137.225 756.922C137.225 758.414 138.561 759.578 140.592 759.578C142.241 759.578 143.717 758.812 143.717 757.195C143.717 755.445 142.092 755.203 140.499 754.992ZM140.202 749.016C141.264 749.016 141.936 749.836 141.936 750.805C141.936 751.844 141.256 752.555 140.202 752.555C139.155 752.555 138.483 751.852 138.483 750.805C138.483 749.859 139.139 749.016 140.202 749.016ZM140.694 758.539C139.17 758.539 138.319 757.734 138.303 756.945L139.225 755.82C139.53 755.914 139.85 755.969 140.163 756.023C141.452 756.242 142.678 756.281 142.678 757.281C142.678 758.141 141.717 758.539 140.694 758.539ZM148.165 756.156C148.641 756.156 149.04 756.07 149.211 756V755C148.969 755.117 148.696 755.195 148.43 755.195C147.86 755.195 147.422 754.797 147.422 753.938V749.18H149.422V748.195H147.422V745.344L146.258 746.438V748.195H145.032V749.18H146.258V753.93C146.258 755.266 146.782 756.156 148.165 756.156ZM151.776 756H152.924V751.727C152.924 750.352 153.955 749.164 155.291 749.164C156.604 749.164 156.909 750.312 156.909 751.375V756H158.088V751.188C158.088 749.523 157.338 748.062 155.463 748.062C154.455 748.062 153.448 748.617 152.924 749.477V744.961H151.776V756ZM167.686 756.156C168.795 756.156 169.858 755.664 170.428 754.492L170.451 756H171.443V751.211C171.443 749.312 170.373 748.062 168.389 748.062C167.1 748.062 166.139 748.594 165.443 749.562L166.295 750.227C166.67 749.688 167.342 749.078 168.459 749.078C169.873 749.078 170.373 750.07 170.373 751.539H168.584C166.373 751.539 165.131 752.266 165.131 753.828C165.131 755.297 166.217 756.156 167.686 756.156ZM167.818 755.172C167.006 755.172 166.342 754.789 166.342 753.859C166.342 752.82 167.154 752.422 168.701 752.422H170.373C170.373 753.68 169.42 755.172 167.818 755.172ZM176.57 756.156C177.945 756.156 179.266 755.344 179.266 753.703C179.266 750.75 175.008 751.984 175.008 750.18C175.008 749.547 175.531 749.07 176.375 749.07C177.195 749.07 177.719 749.523 178.055 750.117L178.977 749.586C178.523 748.789 177.641 748.078 176.422 748.078C175.086 748.078 173.938 748.922 173.938 750.359C173.938 753.117 178.141 751.836 178.141 753.875C178.141 754.766 177.359 755.117 176.617 755.117C175.641 755.117 174.922 754.508 174.656 753.719L173.68 754.227C174.023 755.234 175.102 756.156 176.57 756.156ZM188.347 756.156C189.457 756.156 190.519 755.664 191.09 754.492L191.113 756H192.105V751.211C192.105 749.312 191.035 748.062 189.051 748.062C187.761 748.062 186.801 748.594 186.105 749.562L186.957 750.227C187.332 749.688 188.004 749.078 189.121 749.078C190.535 749.078 191.035 750.07 191.035 751.539H189.246C187.035 751.539 185.793 752.266 185.793 753.828C185.793 755.297 186.879 756.156 188.347 756.156ZM188.48 755.172C187.668 755.172 187.004 754.789 187.004 753.859C187.004 752.82 187.816 752.422 189.363 752.422H191.035C191.035 753.68 190.082 755.172 188.48 755.172ZM195.052 756H196.216V751.562C196.216 750.289 197.271 749.172 198.529 749.172C199.881 749.172 200.185 750.312 200.185 751.375V756H201.357V751.258C201.357 749.523 200.615 748.062 198.67 748.062C197.67 748.062 196.716 748.602 196.216 749.422V748.195H195.052V756ZM210.962 756.156C212.072 756.156 213.134 755.664 213.704 754.492L213.728 756H214.72V751.211C214.72 749.312 213.65 748.062 211.665 748.062C210.376 748.062 209.415 748.594 208.72 749.562L209.572 750.227C209.947 749.688 210.619 749.078 211.736 749.078C213.15 749.078 213.65 750.07 213.65 751.539H211.861C209.65 751.539 208.408 752.266 208.408 753.828C208.408 755.297 209.494 756.156 210.962 756.156ZM211.095 755.172C210.283 755.172 209.619 754.789 209.619 753.859C209.619 752.82 210.431 752.422 211.978 752.422H213.65C213.65 753.68 212.697 755.172 211.095 755.172ZM218.034 756H219.199V749.148H221.449V748.195H219.199V746.789C219.199 746.18 219.738 745.812 220.331 745.812C220.831 745.812 221.152 746.023 221.152 746.023L221.433 745.094C221.066 744.914 220.613 744.797 220.167 744.797C218.995 744.797 218.042 745.477 218.042 746.758V748.211H216.613V749.148H218.034V756ZM223.864 756H225.028V749.148H227.278V748.195H225.028V746.789C225.028 746.18 225.568 745.812 226.161 745.812C226.661 745.812 226.982 746.023 226.982 746.023L227.263 745.094C226.896 744.914 226.443 744.797 225.997 744.797C224.825 744.797 223.872 745.477 223.872 746.758V748.211H222.443V749.148H223.864V756ZM232.39 756.156C234.569 756.156 236.093 754.352 236.093 752.125C236.093 749.906 234.569 748.094 232.39 748.094C230.179 748.094 228.694 749.906 228.694 752.125C228.694 754.352 230.179 756.156 232.39 756.156ZM232.39 755.125C230.663 755.125 229.999 753.688 229.999 752.125C229.999 750.562 230.663 749.133 232.39 749.133C234.132 749.133 234.788 750.562 234.788 752.125C234.788 753.688 234.132 755.125 232.39 755.125ZM238.595 756H239.767V752.68C239.767 750.711 240.493 749.078 241.923 749.078C242.251 749.078 242.626 749.172 242.915 749.43L243.321 748.438C242.985 748.195 242.399 748.078 242.001 748.078C241.102 748.078 240.04 748.68 239.782 749.711V748.195H238.595V756ZM250.284 744.961V749.258C249.768 748.508 248.979 748.031 247.847 748.031C245.854 748.031 244.722 749.859 244.722 752.094C244.722 754.32 245.854 756.156 247.854 756.156C249.026 756.156 249.784 755.656 250.292 754.914L250.315 756H251.456V744.961H250.284ZM248.151 755.094C246.581 755.094 245.909 753.688 245.909 752.094C245.909 750.516 246.581 749.109 248.151 749.109C249.745 749.109 250.386 750.516 250.386 752.094C250.386 753.695 249.745 755.094 248.151 755.094ZM256.442 756.156C257.551 756.156 258.614 755.664 259.184 754.492L259.208 756H260.2V751.211C260.2 749.312 259.13 748.062 257.145 748.062C255.856 748.062 254.895 748.594 254.2 749.562L255.051 750.227C255.426 749.688 256.098 749.078 257.216 749.078C258.63 749.078 259.13 750.07 259.13 751.539H257.341C255.13 751.539 253.887 752.266 253.887 753.828C253.887 755.297 254.973 756.156 256.442 756.156ZM256.575 755.172C255.762 755.172 255.098 754.789 255.098 753.859C255.098 752.82 255.911 752.422 257.458 752.422H259.13C259.13 753.68 258.176 755.172 256.575 755.172ZM263.147 756H264.311V751.562C264.311 750.289 265.366 749.172 266.624 749.172C267.975 749.172 268.28 750.312 268.28 751.375V756H269.452V751.258C269.452 749.523 268.71 748.062 266.764 748.062C265.764 748.062 264.811 748.602 264.311 749.422V748.195H263.147V756ZM275.219 756.156C276.633 756.156 277.696 755.383 278.157 754.086L277.141 753.648C276.907 754.57 276.149 755.164 275.204 755.164C273.571 755.164 273.024 753.539 273.024 752.109C273.024 750.703 273.586 749.062 275.204 749.062C276.141 749.062 276.907 749.633 277.141 750.578L278.25 750.109C277.696 748.852 276.618 748.062 275.204 748.062C272.954 748.062 271.829 750.016 271.829 752.109C271.829 754.227 272.969 756.156 275.219 756.156ZM283.448 756.094C284.698 756.094 285.58 755.75 286.44 754.891L285.643 754.25C285.034 754.891 284.362 755.062 283.432 755.062C281.924 755.062 281.151 753.875 281.166 752.492H286.604C286.604 752.492 286.643 752.289 286.643 752.195C286.643 750.07 285.869 748.094 283.315 748.094C281.073 748.094 279.94 750.047 279.94 752.141C279.94 754.266 281.088 756.094 283.448 756.094ZM281.166 751.539C281.221 750.219 281.901 749.133 283.315 749.133C284.815 749.133 285.534 750.125 285.526 751.539H281.166ZM289.645 756H291.192V754.484H289.645V756Z" fill="black"/>
<path d="M51.2891 969.156C54.0312 969.156 55.1562 967.172 55.1562 964.875V957.961H53.9141V964.602C53.9141 966.508 53.2969 967.984 51.2891 967.984C49.2812 967.984 48.6875 966.508 48.6875 964.602V957.961H47.4531V964.953C47.4531 967.172 48.5469 969.156 51.2891 969.156ZM60.5722 969.156C61.9472 969.156 63.2675 968.344 63.2675 966.703C63.2675 963.75 59.0097 964.984 59.0097 963.18C59.0097 962.547 59.5331 962.07 60.3768 962.07C61.1972 962.07 61.7206 962.523 62.0565 963.117L62.9784 962.586C62.5253 961.789 61.6425 961.078 60.4237 961.078C59.0878 961.078 57.9393 961.922 57.9393 963.359C57.9393 966.117 62.1425 964.836 62.1425 966.875C62.1425 967.766 61.3612 968.117 60.619 968.117C59.6425 968.117 58.9237 967.508 58.6581 966.719L57.6815 967.227C58.0253 968.234 59.1034 969.156 60.5722 969.156ZM68.5974 969.094C69.8474 969.094 70.7302 968.75 71.5896 967.891L70.7927 967.25C70.1834 967.891 69.5115 968.062 68.5818 968.062C67.074 968.062 66.3006 966.875 66.3162 965.492H71.7537C71.7537 965.492 71.7927 965.289 71.7927 965.195C71.7927 963.07 71.0193 961.094 68.4646 961.094C66.2224 961.094 65.0896 963.047 65.0896 965.141C65.0896 967.266 66.2381 969.094 68.5974 969.094ZM66.3162 964.539C66.3709 963.219 67.0506 962.133 68.4646 962.133C69.9646 962.133 70.6834 963.125 70.6756 964.539H66.3162ZM81.2652 969.156C82.6402 969.156 83.9605 968.344 83.9605 966.703C83.9605 963.75 79.7027 964.984 79.7027 963.18C79.7027 962.547 80.2261 962.07 81.0699 962.07C81.8902 962.07 82.4136 962.523 82.7495 963.117L83.6714 962.586C83.2183 961.789 82.3355 961.078 81.1167 961.078C79.7808 961.078 78.6324 961.922 78.6324 963.359C78.6324 966.117 82.8355 964.836 82.8355 966.875C82.8355 967.766 82.0542 968.117 81.312 968.117C80.3355 968.117 79.6167 967.508 79.3511 966.719L78.3745 967.227C78.7183 968.234 79.7964 969.156 81.2652 969.156ZM89.2904 969.094C90.5404 969.094 91.4233 968.75 92.2826 967.891L91.4858 967.25C90.8764 967.891 90.2045 968.062 89.2748 968.062C87.767 968.062 86.9936 966.875 87.0092 965.492H92.4467C92.4467 965.492 92.4858 965.289 92.4858 965.195C92.4858 963.07 91.7123 961.094 89.1576 961.094C86.9154 961.094 85.7826 963.047 85.7826 965.141C85.7826 967.266 86.9311 969.094 89.2904 969.094ZM87.0092 964.539C87.0639 963.219 87.7436 962.133 89.1576 962.133C90.6576 962.133 91.3764 963.125 91.3686 964.539H87.0092ZM94.9798 969H96.1438V964.562C96.1438 963.289 97.1985 962.172 98.4563 962.172C99.8079 962.172 100.113 963.312 100.113 964.375V969H101.284V964.258C101.284 962.523 100.542 961.062 98.597 961.062C97.597 961.062 96.6438 961.602 96.1438 962.422V961.195H94.9798V969ZM106.403 969.156C106.88 969.156 107.278 969.07 107.45 969V968C107.208 968.117 106.935 968.195 106.669 968.195C106.099 968.195 105.661 967.797 105.661 966.938V962.18H107.661V961.195H105.661V958.344L104.497 959.438V961.195H103.271V962.18H104.497V966.93C104.497 968.266 105.021 969.156 106.403 969.156ZM112.89 969.094C114.14 969.094 115.023 968.75 115.882 967.891L115.085 967.25C114.476 967.891 113.804 968.062 112.874 968.062C111.366 968.062 110.593 966.875 110.608 965.492H116.046C116.046 965.492 116.085 965.289 116.085 965.195C116.085 963.07 115.312 961.094 112.757 961.094C110.515 961.094 109.382 963.047 109.382 965.141C109.382 967.266 110.53 969.094 112.89 969.094ZM110.608 964.539C110.663 963.219 111.343 962.133 112.757 962.133C114.257 962.133 114.976 963.125 114.968 964.539H110.608ZM118.579 969H119.743V964.562C119.743 963.289 120.798 962.172 122.056 962.172C123.407 962.172 123.712 963.312 123.712 964.375V969H124.884V964.258C124.884 962.523 124.142 961.062 122.196 961.062C121.196 961.062 120.243 961.602 119.743 962.422V961.195H118.579V969ZM130.651 969.156C132.065 969.156 133.128 968.383 133.589 967.086L132.573 966.648C132.339 967.57 131.581 968.164 130.636 968.164C129.003 968.164 128.456 966.539 128.456 965.109C128.456 963.703 129.018 962.062 130.636 962.062C131.573 962.062 132.339 962.633 132.573 963.578L133.682 963.109C133.128 961.852 132.05 961.062 130.636 961.062C128.386 961.062 127.261 963.016 127.261 965.109C127.261 967.227 128.401 969.156 130.651 969.156ZM138.88 969.094C140.13 969.094 141.012 968.75 141.872 967.891L141.075 967.25C140.466 967.891 139.794 968.062 138.864 968.062C137.356 968.062 136.583 966.875 136.598 965.492H142.036C142.036 965.492 142.075 965.289 142.075 965.195C142.075 963.07 141.301 961.094 138.747 961.094C136.505 961.094 135.372 963.047 135.372 965.141C135.372 967.266 136.52 969.094 138.88 969.094ZM136.598 964.539C136.653 963.219 137.333 962.133 138.747 962.133C140.247 962.133 140.966 963.125 140.958 964.539H136.598ZM152.172 969.156C153.586 969.156 154.649 968.383 155.11 967.086L154.094 966.648C153.86 967.57 153.102 968.164 152.157 968.164C150.524 968.164 149.977 966.539 149.977 965.109C149.977 963.703 150.54 962.062 152.157 962.062C153.094 962.062 153.86 962.633 154.094 963.578L155.204 963.109C154.649 961.852 153.571 961.062 152.157 961.062C149.907 961.062 148.782 963.016 148.782 965.109C148.782 967.227 149.922 969.156 152.172 969.156ZM159.354 969.156C160.463 969.156 161.526 968.664 162.096 967.492L162.119 969H163.112V964.211C163.112 962.312 162.041 961.062 160.057 961.062C158.768 961.062 157.807 961.594 157.112 962.562L157.963 963.227C158.338 962.688 159.01 962.078 160.127 962.078C161.541 962.078 162.041 963.07 162.041 964.539H160.252C158.041 964.539 156.799 965.266 156.799 966.828C156.799 968.297 157.885 969.156 159.354 969.156ZM159.487 968.172C158.674 968.172 158.01 967.789 158.01 966.859C158.01 965.82 158.823 965.422 160.369 965.422H162.041C162.041 966.68 161.088 968.172 159.487 968.172ZM168.239 969.156C169.614 969.156 170.934 968.344 170.934 966.703C170.934 963.75 166.676 964.984 166.676 963.18C166.676 962.547 167.199 962.07 168.043 962.07C168.864 962.07 169.387 962.523 169.723 963.117L170.645 962.586C170.192 961.789 169.309 961.078 168.09 961.078C166.754 961.078 165.606 961.922 165.606 963.359C165.606 966.117 169.809 964.836 169.809 966.875C169.809 967.766 169.028 968.117 168.285 968.117C167.309 968.117 166.59 967.508 166.324 966.719L165.348 967.227C165.692 968.234 166.77 969.156 168.239 969.156ZM176.264 969.094C177.514 969.094 178.397 968.75 179.256 967.891L178.459 967.25C177.85 967.891 177.178 968.062 176.248 968.062C174.74 968.062 173.967 966.875 173.983 965.492H179.42C179.42 965.492 179.459 965.289 179.459 965.195C179.459 963.07 178.686 961.094 176.131 961.094C173.889 961.094 172.756 963.047 172.756 965.141C172.756 967.266 173.904 969.094 176.264 969.094ZM173.983 964.539C174.037 963.219 174.717 962.133 176.131 962.133C177.631 962.133 178.35 963.125 178.342 964.539H173.983ZM182.461 969H184.008V967.484H182.461V969Z" fill="black"/>
<path d="M101.954 82.3047C102.735 82.3047 103.492 82.1338 104.225 81.792C104.967 81.4502 105.621 80.9814 106.188 80.3857C106.764 79.7803 107.228 79.0674 107.579 78.2471C107.931 77.4268 108.106 76.5283 108.106 75.5518C108.106 74.5752 107.931 73.6768 107.579 72.8564C107.228 72.0361 106.764 71.3281 106.188 70.7324C105.621 70.127 104.967 69.6533 104.225 69.3115C103.492 68.9697 102.735 68.7988 101.954 68.7988H99.0977V82.3047H101.954ZM96.2559 85V66.1035H101.954C103.155 66.1035 104.298 66.3477 105.382 66.8359C106.476 67.3242 107.433 67.998 108.253 68.8574C109.073 69.7168 109.728 70.7178 110.216 71.8604C110.704 73.0029 110.948 74.2334 110.948 75.5518C110.948 76.8701 110.704 78.1006 110.216 79.2432C109.728 80.3857 109.073 81.3867 108.253 82.2461C107.433 83.1055 106.476 83.7793 105.382 84.2676C104.298 84.7559 103.155 85 101.954 85H96.2559ZM130.189 75.5518C130.189 74.5361 130.014 73.5986 129.662 72.7393C129.311 71.8701 128.852 71.123 128.285 70.498C127.719 69.8633 127.064 69.375 126.322 69.0332C125.58 68.6816 124.818 68.5059 124.037 68.5059C123.256 68.5059 122.494 68.6816 121.752 69.0332C121.02 69.375 120.365 69.8633 119.789 70.498C119.223 71.123 118.764 71.8652 118.412 72.7246C118.061 73.584 117.885 74.5264 117.885 75.5518C117.885 76.5674 118.061 77.5049 118.412 78.3643C118.764 79.2236 119.223 79.9707 119.789 80.6055C120.365 81.2305 121.02 81.7188 121.752 82.0703C122.494 82.4219 123.256 82.5977 124.037 82.5977C124.818 82.5977 125.58 82.4219 126.322 82.0703C127.064 81.7188 127.719 81.2305 128.285 80.6055C128.852 79.9707 129.311 79.2236 129.662 78.3643C130.014 77.5049 130.189 76.5674 130.189 75.5518ZM133.031 75.5518C133.031 76.9092 132.787 78.1689 132.299 79.3311C131.811 80.4932 131.156 81.5088 130.336 82.3779C129.516 83.2471 128.559 83.9258 127.465 84.4141C126.381 84.9023 125.238 85.1465 124.037 85.1465C122.836 85.1465 121.688 84.9023 120.595 84.4141C119.511 83.9258 118.559 83.2471 117.738 82.3779C116.918 81.5088 116.264 80.4932 115.775 79.3311C115.287 78.1689 115.043 76.9092 115.043 75.5518C115.043 74.2139 115.287 72.959 115.775 71.7871C116.264 70.6152 116.918 69.5947 117.738 68.7256C118.559 67.8564 119.511 67.1777 120.595 66.6895C121.688 66.2012 122.836 65.957 124.037 65.957C125.238 65.957 126.381 66.2012 127.465 66.6895C128.559 67.1777 129.516 67.8564 130.336 68.7256C131.156 69.5947 131.811 70.6152 132.299 71.7871C132.787 72.959 133.031 74.2139 133.031 75.5518Z" fill="black"/>
<path fill-rule="evenodd" clip-rule="evenodd" d="M60 89C67.732 89 74 82.732 74 75C74 67.268 67.732 61 60 61C52.268 61 46 67.268 46 75C46 82.732 52.268 89 60 89Z" fill="#90E19E" stroke="#256830" stroke-width="2"/>
<path d="M66.4616 68.2874C65.8794 67.799 65.0651 67.9484 64.6411 68.6191L58.5872 78.2132L55.2523 74.302C54.761 73.6969 53.9366 73.6677 53.4116 74.2363C52.8867 74.8013 52.8597 75.7527 53.3544 76.3542C53.3544 76.3542 57.406 81.2241 57.9882 81.7126C58.5704 82.201 59.3847 82.0516 59.8087 81.3809L66.751 70.3834C67.175 69.709 67.0438 68.7722 66.4616 68.2874Z" fill="#256830"/>
<g filter="url(#filter0_d)">
<rect x="46" y="185" width="156" height="209" rx="4" fill="white"/>
</g>
<g filter="url(#filter1_d)">
<rect x="234" y="185" width="156" height="209" rx="4" fill="white"/>
</g>
<g filter="url(#filter2_d)">
<rect x="46" y="491" width="156" height="209" rx="4" fill="white"/>
</g>
<path d="M67.6923 537.5H102.308" stroke="#656565" stroke-linecap="square" stroke-linejoin="round"/>
<path d="M67.6923 569.5H102.308" stroke="#656565" stroke-linecap="square" stroke-linejoin="round"/>
<path d="M67.6923 619.5H102.308" stroke="#656565" stroke-linecap="square" stroke-linejoin="round"/>
<path d="M82.6923 634.5H117.308" stroke="#656565" stroke-linecap="square" stroke-linejoin="round"/>
<path d="M82.6923 648H117.308" stroke="#656565" stroke-linecap="square" stroke-linejoin="round"/>
<path d="M82.6923 660.5H117.308" stroke="#656565" stroke-linecap="square" stroke-linejoin="round"/>
<path fill-rule="evenodd" clip-rule="evenodd" d="M71.5 639C73.433 639 75 637.433 75 635.5C75 633.567 73.433 632 71.5 632C69.567 632 68 633.567 68 635.5C68 637.433 69.567 639 71.5 639Z" fill="white" stroke="#656565"/>
<path fill-rule="evenodd" clip-rule="evenodd" d="M71.5 651C73.433 651 75 649.433 75 647.5C75 645.567 73.433 644 71.5 644C69.567 644 68 645.567 68 647.5C68 649.433 69.567 651 71.5 651Z" fill="white" stroke="#656565"/>
<path fill-rule="evenodd" clip-rule="evenodd" d="M71.5 663C73.433 663 75 661.433 75 659.5C75 657.567 73.433 656 71.5 656C69.567 656 68 657.567 68 659.5C68 661.433 69.567 663 71.5 663Z" fill="white" stroke="#656565"/>
<rect x="68" y="544" width="114" height="14" rx="2" fill="white" stroke="#656565"/>
<rect x="68" y="576" width="114" height="32" rx="2" fill="white" stroke="#656565"/>
<path d="M65.1714 523H66.147L66.626 521.651H69.2056L69.6802 523H70.6426L68.252 516.791H67.5752L65.1714 523ZM66.9248 520.864L67.918 518.104L68.9023 520.864H66.9248ZM76.1334 523.088C76.964 523.088 77.6012 522.631 77.8736 521.857L77.1134 521.554C76.9903 522.024 76.608 522.319 76.1246 522.319C75.2853 522.319 74.9908 521.55 74.9908 520.812C74.9908 520.082 75.2941 519.309 76.1246 519.309C76.608 519.309 76.9903 519.59 77.1134 520.073L77.922 519.744C77.6012 519.005 76.9552 518.535 76.1246 518.535C74.7799 518.535 74.1207 519.647 74.1207 520.812C74.1207 521.989 74.7887 523.088 76.1334 523.088ZM80.8761 523.088C82.1681 523.088 83.0383 522.068 83.0383 520.82C83.0383 519.577 82.1681 518.553 80.8761 518.553C79.5798 518.553 78.7184 519.577 78.7184 520.82C78.7184 522.068 79.5798 523.088 80.8761 523.088ZM80.8761 522.345C79.9841 522.345 79.6325 521.625 79.6325 520.82C79.6325 520.016 79.9841 519.295 80.8761 519.295C81.7814 519.295 82.1242 520.016 82.1242 520.82C82.1242 521.625 81.7814 522.345 80.8761 522.345ZM86.0979 523.088C87.3899 523.088 88.26 522.068 88.26 520.82C88.26 519.577 87.3899 518.553 86.0979 518.553C84.8015 518.553 83.9402 519.577 83.9402 520.82C83.9402 522.068 84.8015 523.088 86.0979 523.088ZM86.0979 522.345C85.2058 522.345 84.8542 521.625 84.8542 520.82C84.8542 520.016 85.2058 519.295 86.0979 519.295C87.0032 519.295 87.3459 520.016 87.3459 520.82C87.3459 521.625 87.0032 522.345 86.0979 522.345ZM90.3528 523.088C90.5682 523.088 90.8494 523.044 91.0296 523V522.297C90.9241 522.319 90.7703 522.332 90.678 522.332C90.4363 522.332 90.3836 522.134 90.3836 522.064V516.791H89.531V522.121C89.531 522.767 89.7508 523.088 90.3528 523.088ZM95.1493 523H96.0151V519.317H97.1664V518.61H96.0151V517.924C96.0151 517.634 96.248 517.458 96.5424 517.458C96.7841 517.458 96.9467 517.564 96.9467 517.564L97.1972 516.874C96.9775 516.769 96.7094 516.698 96.4501 516.698C95.7426 516.698 95.1537 517.12 95.1537 517.902V518.619H94.3451V519.317H95.1493V523ZM99.9799 523.088C101.272 523.088 102.142 522.068 102.142 520.82C102.142 519.577 101.272 518.553 99.9799 518.553C98.6836 518.553 97.8222 519.577 97.8222 520.82C97.8222 522.068 98.6836 523.088 99.9799 523.088ZM99.9799 522.345C99.0879 522.345 98.7363 521.625 98.7363 520.82C98.7363 520.016 99.0879 519.295 99.9799 519.295C100.885 519.295 101.228 520.016 101.228 520.82C101.228 521.625 100.885 522.345 99.9799 522.345ZM103.426 523H104.266V521.053C104.266 520.1 104.674 519.322 105.386 519.322C105.593 519.322 105.764 519.37 105.909 519.498L106.256 518.786C106.037 518.619 105.685 518.544 105.43 518.544C104.986 518.544 104.446 518.821 104.274 519.405V518.61H103.426V523ZM107.242 523H108.103V520.539C108.103 519.88 108.472 519.291 109.127 519.291C109.786 519.291 109.949 519.858 109.949 520.425V523H110.81V520.539C110.81 519.88 111.179 519.291 111.834 519.291C112.498 519.291 112.665 519.875 112.665 520.442V523H113.53V520.346C113.53 519.401 113.069 518.535 111.953 518.535C111.368 518.535 110.858 518.803 110.551 519.317C110.3 518.79 109.843 518.526 109.246 518.526C108.78 518.526 108.332 518.772 108.103 519.225V518.61H107.242V523Z" fill="#525151"/>
<g filter="url(#filter3_d)">
<rect x="46" y="791" width="203" height="134" rx="4" fill="white"/>
</g>
<path d="M86.8086 835H96.3711V833.734H88.54L96.3711 823.724V822.581H87.2041V823.785H94.6748L86.8086 833.91V835ZM99.4748 835H100.872V822.581H99.4748V835ZM104.96 835H106.358V829.393H108.45C110.858 829.393 112.422 828.197 112.422 826.009C112.422 823.873 110.858 822.581 108.45 822.581H104.96V835ZM106.358 828.153V823.82H108.45C110.102 823.82 111.042 824.629 111.042 826.009C111.042 827.441 110.102 828.153 108.45 828.153H106.358ZM125.415 835.176C127.726 835.176 129.528 833.989 130.469 831.854L129.185 831.3C128.491 833.172 127.164 833.893 125.415 833.893C122.435 833.893 121.214 831.484 121.214 828.698C121.214 826.053 122.435 823.671 125.38 823.671C127.129 823.671 128.658 824.374 129.168 826.237L130.451 825.684C129.493 823.539 127.709 822.379 125.397 822.379C121.574 822.379 119.834 825.332 119.834 828.786C119.834 832.249 121.592 835.176 125.415 835.176ZM136.508 835.176C138.96 835.176 140.674 833.146 140.674 830.641C140.674 828.145 138.96 826.105 136.508 826.105C134.021 826.105 132.351 828.145 132.351 830.641C132.351 833.146 134.021 835.176 136.508 835.176ZM136.508 834.016C134.565 834.016 133.818 832.398 133.818 830.641C133.818 828.883 134.565 827.274 136.508 827.274C138.468 827.274 139.206 828.883 139.206 830.641C139.206 832.398 138.468 834.016 136.508 834.016ZM148.902 822.581V827.415C148.321 826.571 147.434 826.035 146.159 826.035C143.918 826.035 142.644 828.092 142.644 830.605C142.644 833.11 143.918 835.176 146.168 835.176C147.487 835.176 148.339 834.613 148.91 833.778L148.937 835H150.22V822.581H148.902ZM146.502 833.98C144.736 833.98 143.98 832.398 143.98 830.605C143.98 828.83 144.736 827.248 146.502 827.248C148.295 827.248 149.016 828.83 149.016 830.605C149.016 832.407 148.295 833.98 146.502 833.98ZM156.778 835.105C158.184 835.105 159.177 834.719 160.144 833.752L159.247 833.031C158.562 833.752 157.806 833.945 156.76 833.945C155.064 833.945 154.194 832.609 154.211 831.054H160.329C160.329 831.054 160.372 830.825 160.372 830.72C160.372 828.329 159.502 826.105 156.628 826.105C154.106 826.105 152.831 828.303 152.831 830.658C152.831 833.049 154.123 835.105 156.778 835.105ZM154.211 829.981C154.273 828.496 155.037 827.274 156.628 827.274C158.316 827.274 159.124 828.391 159.116 829.981H154.211Z" fill="#272A2D"/>
<rect x="87" y="852" width="76" height="44" rx="4" fill="white" stroke="#8B9199"/>
<path d="M101.159 879.176C103.559 879.176 105.264 877.225 105.264 875.027C105.264 872.742 103.444 871.081 101.168 871.081C100.781 871.081 100.412 871.125 100.061 871.195L102.803 866.581H101.282L97.6523 872.9C97.2832 873.516 97.0635 874.245 97.0635 875.054C97.0635 877.33 98.874 879.176 101.159 879.176ZM101.168 877.928C99.6211 877.928 98.3906 876.618 98.3906 875.045C98.3906 873.454 99.6211 872.162 101.168 872.162C102.706 872.162 103.937 873.454 103.937 875.045C103.937 876.618 102.706 877.928 101.168 877.928ZM111.742 879H113.131V866.581H111.865V866.818C111.865 867.697 111.321 868.356 110.327 868.356H108.816V869.499H111.742V879ZM122.343 879.176C124.593 879.176 126.518 878.007 126.518 875.572C126.518 874.069 125.736 872.883 124.365 872.303C125.34 871.731 125.894 870.747 125.894 869.596C125.894 867.565 124.268 866.396 122.361 866.396C120.445 866.396 118.81 867.565 118.81 869.596C118.81 870.738 119.372 871.74 120.366 872.303C118.968 872.909 118.177 874.061 118.177 875.572C118.177 877.98 120.102 879.176 122.343 879.176ZM122.396 871.872C121.069 871.872 120.172 870.984 120.172 869.64C120.172 868.33 121.28 867.601 122.378 867.601C123.582 867.601 124.602 868.374 124.602 869.763C124.602 871.072 123.6 871.872 122.396 871.872ZM122.343 878.016C120.902 878.016 119.522 877.163 119.522 875.458C119.522 873.814 120.814 872.918 122.343 872.918C123.846 872.918 125.147 873.814 125.147 875.458C125.147 877.163 123.793 878.016 122.343 878.016ZM128.629 879H137.207V877.822H130.545C131.256 877.356 132.074 876.873 133.656 875.282C135.493 873.445 136.6 871.854 136.6 869.956C136.6 867.838 135.203 866.414 132.944 866.414C130.632 866.414 129.121 867.926 129.121 870.519L130.492 870.65C130.588 868.84 131.459 867.653 132.997 867.653C134.262 867.653 135.141 868.462 135.141 870C135.141 871.591 134.192 872.909 132.786 874.412C131.828 875.405 130.588 876.504 128.629 877.752V879ZM143.624 879.176C146.595 879.176 148.097 876.029 148.097 872.821C148.097 869.578 146.568 866.379 143.501 866.379C140.135 866.379 139.001 869.982 139.001 872.786C139.001 875.563 140.161 879.176 143.624 879.176ZM143.571 877.91C141.119 877.91 140.363 874.957 140.363 872.786C140.363 870.606 141.119 867.688 143.501 867.688C145.874 867.688 146.63 870.589 146.63 872.769C146.63 874.878 145.891 877.91 143.571 877.91Z" fill="#8B9199"/>
<g filter="url(#filter4_d)">
<rect x="48" y="1004" width="306" height="134" rx="4" fill="white"/>
</g>
<rect x="256" y="264" width="50" height="41" fill="white" stroke="#155DA1" stroke-opacity="0.574191" stroke-linejoin="round" stroke-dasharray="2"/>
<path d="M67.6923 231.5H102.308" stroke="#656565" stroke-linecap="square" stroke-linejoin="round"/>
<path d="M92.8896 1048.02H94.2871V1042.45H96.335L99.4375 1048.02H101.063L97.6973 1042.26C99.2881 1041.93 100.343 1040.71 100.343 1039.04C100.343 1036.9 98.6377 1035.6 96.4404 1035.6H92.8896V1048.02ZM94.3047 1041.16V1036.83H96.458C97.9258 1036.83 98.9805 1037.63 98.9805 1039.04C98.9805 1040.38 98.0049 1041.09 96.6689 1041.16H94.3047ZM106.839 1048.11C108.245 1048.11 109.238 1047.72 110.205 1046.75L109.309 1046.03C108.623 1046.75 107.867 1046.95 106.821 1046.95C105.125 1046.95 104.255 1045.61 104.273 1044.05H110.39C110.39 1044.05 110.434 1043.83 110.434 1043.72C110.434 1041.33 109.564 1039.11 106.69 1039.11C104.167 1039.11 102.893 1041.3 102.893 1043.66C102.893 1046.05 104.185 1048.11 106.839 1048.11ZM104.273 1042.98C104.334 1041.5 105.099 1040.27 106.69 1040.27C108.377 1040.27 109.186 1041.39 109.177 1042.98H104.273ZM114.759 1047.03C114.355 1047.03 114.32 1046.56 114.32 1046.53V1035.58H113.001V1046.22C113.001 1047.29 113.089 1048.18 114.425 1048.18C114.865 1048.18 115.322 1048.09 115.603 1048V1046.95C115.41 1046.98 115.058 1047.03 114.759 1047.03ZM119.99 1048.18C121.238 1048.18 122.433 1047.62 123.075 1046.3L123.101 1048H124.217V1042.61C124.217 1040.48 123.013 1039.07 120.781 1039.07C119.331 1039.07 118.25 1039.67 117.467 1040.76L118.425 1041.5C118.847 1040.9 119.603 1040.21 120.86 1040.21C122.451 1040.21 123.013 1041.33 123.013 1042.98H121.001C118.513 1042.98 117.116 1043.8 117.116 1045.56C117.116 1047.21 118.337 1048.18 119.99 1048.18ZM120.139 1047.07C119.225 1047.07 118.478 1046.64 118.478 1045.59C118.478 1044.42 119.392 1043.97 121.132 1043.97H123.013C123.013 1045.39 121.941 1047.07 120.139 1047.07ZM129.729 1048.18C130.265 1048.18 130.714 1048.08 130.907 1048V1046.88C130.635 1047.01 130.327 1047.09 130.028 1047.09C129.387 1047.09 128.894 1046.65 128.894 1045.68V1040.33H131.144V1039.22H128.894V1036.01L127.585 1037.24V1039.22H126.205V1040.33H127.585V1045.67C127.585 1047.17 128.174 1048.18 129.729 1048.18ZM133.466 1037.27H134.978V1035.58H133.466V1037.27ZM133.545 1048H134.881V1039.22H133.545V1048ZM141.614 1048.18C144.067 1048.18 145.78 1046.15 145.78 1043.64C145.78 1041.14 144.067 1039.11 141.614 1039.11C139.127 1039.11 137.457 1041.14 137.457 1043.64C137.457 1046.15 139.127 1048.18 141.614 1048.18ZM141.614 1047.02C139.672 1047.02 138.925 1045.4 138.925 1043.64C138.925 1041.88 139.672 1040.27 141.614 1040.27C143.574 1040.27 144.313 1041.88 144.313 1043.64C144.313 1045.4 143.574 1047.02 141.614 1047.02ZM148.366 1048H149.675V1043.01C149.675 1041.58 150.862 1040.32 152.277 1040.32C153.797 1040.32 154.14 1041.6 154.14 1042.8V1048H155.458V1042.67C155.458 1040.71 154.623 1039.07 152.435 1039.07C151.31 1039.07 150.238 1039.68 149.675 1040.6V1039.22H148.366V1048ZM161.014 1048.18C162.561 1048.18 164.046 1047.26 164.046 1045.42C164.046 1042.09 159.256 1043.48 159.256 1041.45C159.256 1040.74 159.845 1040.2 160.795 1040.2C161.717 1040.2 162.306 1040.71 162.684 1041.38L163.721 1040.78C163.212 1039.89 162.218 1039.09 160.847 1039.09C159.344 1039.09 158.052 1040.04 158.052 1041.65C158.052 1044.76 162.781 1043.32 162.781 1045.61C162.781 1046.61 161.902 1047.01 161.067 1047.01C159.968 1047.01 159.16 1046.32 158.861 1045.43L157.762 1046C158.149 1047.14 159.362 1048.18 161.014 1048.18ZM166.579 1048H167.871V1043.19C167.871 1041.65 169.031 1040.31 170.534 1040.31C172.011 1040.31 172.353 1041.6 172.353 1042.8V1048H173.68V1042.59C173.68 1040.71 172.837 1039.07 170.727 1039.07C169.594 1039.07 168.46 1039.69 167.871 1040.66V1035.58H166.579V1048ZM176.696 1037.27H178.208V1035.58H176.696V1037.27ZM176.775 1048H178.111V1039.22H176.775V1048ZM181.417 1051.85H182.736V1046.8C183.298 1047.63 184.186 1048.18 185.46 1048.18C187.754 1048.18 188.993 1046.11 188.993 1043.61C188.993 1041.1 187.754 1039.04 185.46 1039.04C184.177 1039.04 183.289 1039.6 182.736 1040.42V1039.22H181.417V1051.85ZM185.109 1047.02C183.368 1047.02 182.604 1045.4 182.604 1043.61C182.604 1041.83 183.368 1040.2 185.109 1040.2C186.91 1040.2 187.684 1041.83 187.684 1043.61C187.684 1045.4 186.91 1047.02 185.109 1047.02Z" fill="#272A2D"/>
<path d="M67.6923 263.5H102.308" stroke="#656565" stroke-linecap="square" stroke-linejoin="round"/>
<rect x="92" y="1065" width="212" height="44" rx="4" fill="white" stroke="#8B9199"/>
<path d="M102.89 1092H110.932V1090.73H104.287V1086.37H110.062V1085.2H104.287V1080.79H110.932V1079.58H102.89V1092ZM113.745 1092H115.055V1087.01C115.055 1085.58 116.241 1084.32 117.656 1084.32C119.177 1084.32 119.52 1085.6 119.52 1086.8V1092H120.838V1086.67C120.838 1084.71 120.003 1083.07 117.815 1083.07C116.69 1083.07 115.617 1083.68 115.055 1084.6V1083.22H113.745V1092ZM126.368 1092.18C126.904 1092.18 127.352 1092.08 127.545 1092V1090.88C127.273 1091.01 126.965 1091.09 126.666 1091.09C126.025 1091.09 125.533 1090.65 125.533 1089.68V1084.33H127.783V1083.22H125.533V1080.01L124.223 1081.24V1083.22H122.843V1084.33H124.223V1089.67C124.223 1091.17 124.812 1092.18 126.368 1092.18ZM133.435 1092.11C134.841 1092.11 135.835 1091.72 136.801 1090.75L135.905 1090.03C135.219 1090.75 134.463 1090.95 133.418 1090.95C131.721 1090.95 130.851 1089.61 130.869 1088.05H136.986C136.986 1088.05 137.03 1087.83 137.03 1087.72C137.03 1085.33 136.16 1083.11 133.286 1083.11C130.763 1083.11 129.489 1085.3 129.489 1087.66C129.489 1090.05 130.781 1092.11 133.435 1092.11ZM130.869 1086.98C130.93 1085.5 131.695 1084.27 133.286 1084.27C134.973 1084.27 135.782 1085.39 135.773 1086.98H130.869ZM139.606 1092H140.925V1088.26C140.925 1086.05 141.742 1084.21 143.35 1084.21C143.72 1084.21 144.141 1084.32 144.467 1084.61L144.924 1083.49C144.546 1083.22 143.887 1083.09 143.438 1083.09C142.428 1083.09 141.232 1083.76 140.942 1084.92V1083.22H139.606V1092ZM154.198 1092.18C155.446 1092.18 156.642 1091.62 157.283 1090.3L157.31 1092H158.426V1086.61C158.426 1084.48 157.222 1083.07 154.989 1083.07C153.539 1083.07 152.458 1083.67 151.676 1084.76L152.634 1085.5C153.056 1084.9 153.812 1084.21 155.069 1084.21C156.659 1084.21 157.222 1085.33 157.222 1086.98H155.209C152.722 1086.98 151.324 1087.8 151.324 1089.56C151.324 1091.21 152.546 1092.18 154.198 1092.18ZM154.348 1091.07C153.434 1091.07 152.687 1090.64 152.687 1089.59C152.687 1088.42 153.601 1087.97 155.341 1087.97H157.222C157.222 1089.39 156.15 1091.07 154.348 1091.07ZM166.681 1092H168V1088.26C168 1086.05 168.817 1084.21 170.425 1084.21C170.795 1084.21 171.216 1084.32 171.542 1084.61L171.999 1083.49C171.621 1083.22 170.962 1083.09 170.513 1083.09C169.503 1083.09 168.307 1083.76 168.017 1084.92V1083.22H166.681V1092ZM177.212 1092.11C178.618 1092.11 179.611 1091.72 180.578 1090.75L179.681 1090.03C178.996 1090.75 178.24 1090.95 177.194 1090.95C175.498 1090.95 174.628 1089.61 174.645 1088.05H180.762C180.762 1088.05 180.806 1087.83 180.806 1087.72C180.806 1085.33 179.936 1083.11 177.062 1083.11C174.54 1083.11 173.265 1085.3 173.265 1087.66C173.265 1090.05 174.557 1092.11 177.212 1092.11ZM174.645 1086.98C174.707 1085.5 175.471 1084.27 177.062 1084.27C178.75 1084.27 179.558 1085.39 179.55 1086.98H174.645ZM185.132 1091.03C184.728 1091.03 184.692 1090.56 184.692 1090.53V1079.58H183.374V1090.22C183.374 1091.29 183.462 1092.18 184.798 1092.18C185.237 1092.18 185.694 1092.09 185.976 1092V1090.95C185.782 1090.98 185.431 1091.03 185.132 1091.03ZM190.363 1092.18C191.611 1092.18 192.806 1091.62 193.447 1090.3L193.474 1092H194.59V1086.61C194.59 1084.48 193.386 1083.07 191.154 1083.07C189.703 1083.07 188.622 1083.67 187.84 1084.76L188.798 1085.5C189.22 1084.9 189.976 1084.21 191.233 1084.21C192.823 1084.21 193.386 1085.33 193.386 1086.98H191.373C188.886 1086.98 187.488 1087.8 187.488 1089.56C187.488 1091.21 188.71 1092.18 190.363 1092.18ZM190.512 1091.07C189.598 1091.07 188.851 1090.64 188.851 1089.59C188.851 1088.42 189.765 1087.97 191.505 1087.97H193.386C193.386 1089.39 192.314 1091.07 190.512 1091.07ZM200.102 1092.18C200.638 1092.18 201.086 1092.08 201.28 1092V1090.88C201.007 1091.01 200.7 1091.09 200.401 1091.09C199.759 1091.09 199.267 1090.65 199.267 1089.68V1084.33H201.517V1083.22H199.267V1080.01L197.957 1081.24V1083.22H196.578V1084.33H197.957V1089.67C197.957 1091.17 198.546 1092.18 200.102 1092.18ZM203.838 1081.27H205.35V1079.58H203.838V1081.27ZM203.918 1092H205.254V1083.22H203.918V1092ZM211.987 1092.18C214.439 1092.18 216.153 1090.15 216.153 1087.64C216.153 1085.14 214.439 1083.11 211.987 1083.11C209.5 1083.11 207.83 1085.14 207.83 1087.64C207.83 1090.15 209.5 1092.18 211.987 1092.18ZM211.987 1091.02C210.045 1091.02 209.298 1089.4 209.298 1087.64C209.298 1085.88 210.045 1084.27 211.987 1084.27C213.947 1084.27 214.685 1085.88 214.685 1087.64C214.685 1089.4 213.947 1091.02 211.987 1091.02ZM218.738 1092H220.048V1087.01C220.048 1085.58 221.234 1084.32 222.649 1084.32C224.17 1084.32 224.513 1085.6 224.513 1086.8V1092H225.831V1086.67C225.831 1084.71 224.996 1083.07 222.808 1083.07C221.683 1083.07 220.61 1083.68 220.048 1084.6V1083.22H218.738V1092ZM231.387 1092.18C232.934 1092.18 234.419 1091.26 234.419 1089.42C234.419 1086.09 229.629 1087.48 229.629 1085.45C229.629 1084.74 230.218 1084.2 231.167 1084.2C232.09 1084.2 232.679 1084.71 233.057 1085.38L234.094 1084.78C233.584 1083.89 232.591 1083.09 231.22 1083.09C229.717 1083.09 228.425 1084.04 228.425 1085.65C228.425 1088.76 233.154 1087.32 233.154 1089.61C233.154 1090.61 232.275 1091.01 231.44 1091.01C230.341 1091.01 229.532 1090.32 229.234 1089.43L228.135 1090C228.522 1091.14 229.735 1092.18 231.387 1092.18ZM236.952 1092H238.244V1087.19C238.244 1085.65 239.404 1084.31 240.907 1084.31C242.383 1084.31 242.726 1085.6 242.726 1086.8V1092H244.053V1086.59C244.053 1084.71 243.209 1083.07 241.1 1083.07C239.966 1083.07 238.832 1083.69 238.244 1084.66V1079.58H236.952V1092ZM247.069 1081.27H248.581V1079.58H247.069V1081.27ZM247.148 1092H248.484V1083.22H247.148V1092ZM251.79 1095.85H253.108V1090.8C253.671 1091.63 254.558 1092.18 255.833 1092.18C258.127 1092.18 259.366 1090.11 259.366 1087.61C259.366 1085.1 258.127 1083.04 255.833 1083.04C254.55 1083.04 253.662 1083.6 253.108 1084.42V1083.22H251.79V1095.85ZM255.481 1091.02C253.741 1091.02 252.976 1089.4 252.976 1087.61C252.976 1085.83 253.741 1084.2 255.481 1084.2C257.283 1084.2 258.056 1085.83 258.056 1087.61C258.056 1089.4 257.283 1091.02 255.481 1091.02Z" fill="#8B9199"/>
<path d="M255.692 315.5H290.308" stroke="#656565" stroke-linecap="square" stroke-linejoin="round"/>
<path d="M255.692 257.5H290.308" stroke="#656565" stroke-linecap="square" stroke-linejoin="round"/>
<path d="M262.692 277.5H297.308" stroke="#656565" stroke-linecap="square" stroke-linejoin="round"/>
<path d="M67.6923 313.5H102.308" stroke="#656565" stroke-linecap="square" stroke-linejoin="round"/>
<path d="M255.692 213.5H290.308" stroke="#656565" stroke-linecap="square" stroke-linejoin="round"/>
<path d="M82.6923 328.5H117.308" stroke="#656565" stroke-linecap="square" stroke-linejoin="round"/>
<path d="M270.692 228.5H305.308" stroke="#656565" stroke-linecap="square" stroke-linejoin="round"/>
<path d="M82.6923 342H117.308" stroke="#656565" stroke-linecap="square" stroke-linejoin="round"/>
<path d="M270.692 242H305.308" stroke="#656565" stroke-linecap="square" stroke-linejoin="round"/>
<path d="M82.6923 354.5H117.308" stroke="#656565" stroke-linecap="square" stroke-linejoin="round"/>
<path d="M82.6923 366.5H117.308" stroke="#656565" stroke-linecap="square" stroke-linejoin="round"/>
<path fill-rule="evenodd" clip-rule="evenodd" d="M71.5 333C73.433 333 75 331.433 75 329.5C75 327.567 73.433 326 71.5 326C69.567 326 68 327.567 68 329.5C68 331.433 69.567 333 71.5 333Z" fill="white" stroke="#656565"/>
<path fill-rule="evenodd" clip-rule="evenodd" d="M259.5 233C261.433 233 263 231.433 263 229.5C263 227.567 261.433 226 259.5 226C257.567 226 256 227.567 256 229.5C256 231.433 257.567 233 259.5 233Z" fill="white" stroke="#656565"/>
<path fill-rule="evenodd" clip-rule="evenodd" d="M71.5 345C73.433 345 75 343.433 75 341.5C75 339.567 73.433 338 71.5 338C69.567 338 68 339.567 68 341.5C68 343.433 69.567 345 71.5 345Z" fill="white" stroke="#656565"/>
<path fill-rule="evenodd" clip-rule="evenodd" d="M259.5 245C261.433 245 263 243.433 263 241.5C263 239.567 261.433 238 259.5 238C257.567 238 256 239.567 256 241.5C256 243.433 257.567 245 259.5 245Z" fill="white" stroke="#656565"/>
<path fill-rule="evenodd" clip-rule="evenodd" d="M71.5 357C73.433 357 75 355.433 75 353.5C75 351.567 73.433 350 71.5 350C69.567 350 68 351.567 68 353.5C68 355.433 69.567 357 71.5 357Z" fill="white" stroke="#656565"/>
<path fill-rule="evenodd" clip-rule="evenodd" d="M71.5 370C73.433 370 75 368.433 75 366.5C75 364.567 73.433 363 71.5 363C69.567 363 68 364.567 68 366.5C68 368.433 69.567 370 71.5 370Z" fill="white" stroke="#656565"/>
<rect x="68" y="238" width="114" height="14" rx="2" fill="white" stroke="#656565"/>
<rect x="68" y="270" width="114" height="32" rx="2" fill="white" stroke="#656565"/>
<rect x="256" y="322" width="90" height="32" rx="2" fill="white" stroke="#656565"/>
<path d="M65.1714 217H66.147L66.626 215.651H69.2056L69.6802 217H70.6426L68.252 210.791H67.5752L65.1714 217ZM66.9248 214.864L67.918 212.104L68.9023 214.864H66.9248ZM76.1334 217.088C76.964 217.088 77.6012 216.631 77.8736 215.857L77.1134 215.554C76.9903 216.024 76.608 216.319 76.1246 216.319C75.2853 216.319 74.9908 215.55 74.9908 214.812C74.9908 214.082 75.2941 213.309 76.1246 213.309C76.608 213.309 76.9903 213.59 77.1134 214.073L77.922 213.744C77.6012 213.005 76.9552 212.535 76.1246 212.535C74.7799 212.535 74.1207 213.647 74.1207 214.812C74.1207 215.989 74.7887 217.088 76.1334 217.088ZM80.8761 217.088C82.1681 217.088 83.0383 216.068 83.0383 214.82C83.0383 213.577 82.1681 212.553 80.8761 212.553C79.5798 212.553 78.7184 213.577 78.7184 214.82C78.7184 216.068 79.5798 217.088 80.8761 217.088ZM80.8761 216.345C79.9841 216.345 79.6325 215.625 79.6325 214.82C79.6325 214.016 79.9841 213.295 80.8761 213.295C81.7814 213.295 82.1242 214.016 82.1242 214.82C82.1242 215.625 81.7814 216.345 80.8761 216.345ZM86.0979 217.088C87.3899 217.088 88.26 216.068 88.26 214.82C88.26 213.577 87.3899 212.553 86.0979 212.553C84.8015 212.553 83.9402 213.577 83.9402 214.82C83.9402 216.068 84.8015 217.088 86.0979 217.088ZM86.0979 216.345C85.2058 216.345 84.8542 215.625 84.8542 214.82C84.8542 214.016 85.2058 213.295 86.0979 213.295C87.0032 213.295 87.3459 214.016 87.3459 214.82C87.3459 215.625 87.0032 216.345 86.0979 216.345ZM90.3528 217.088C90.5682 217.088 90.8494 217.044 91.0296 217V216.297C90.9241 216.319 90.7703 216.332 90.678 216.332C90.4363 216.332 90.3836 216.134 90.3836 216.064V210.791H89.531V216.121C89.531 216.767 89.7508 217.088 90.3528 217.088ZM95.1493 217H96.0151V213.317H97.1664V212.61H96.0151V211.924C96.0151 211.634 96.248 211.458 96.5424 211.458C96.7841 211.458 96.9467 211.564 96.9467 211.564L97.1972 210.874C96.9775 210.769 96.7094 210.698 96.4501 210.698C95.7426 210.698 95.1537 211.12 95.1537 211.902V212.619H94.3451V213.317H95.1493V217ZM99.9799 217.088C101.272 217.088 102.142 216.068 102.142 214.82C102.142 213.577 101.272 212.553 99.9799 212.553C98.6836 212.553 97.8222 213.577 97.8222 214.82C97.8222 216.068 98.6836 217.088 99.9799 217.088ZM99.9799 216.345C99.0879 216.345 98.7363 215.625 98.7363 214.82C98.7363 214.016 99.0879 213.295 99.9799 213.295C100.885 213.295 101.228 214.016 101.228 214.82C101.228 215.625 100.885 216.345 99.9799 216.345ZM103.426 217H104.266V215.053C104.266 214.1 104.674 213.322 105.386 213.322C105.593 213.322 105.764 213.37 105.909 213.498L106.256 212.786C106.037 212.619 105.685 212.544 105.43 212.544C104.986 212.544 104.446 212.821 104.274 213.405V212.61H103.426V217ZM107.242 217H108.103V214.539C108.103 213.88 108.472 213.291 109.127 213.291C109.786 213.291 109.949 213.858 109.949 214.425V217H110.81V214.539C110.81 213.88 111.179 213.291 111.834 213.291C112.498 213.291 112.665 213.875 112.665 214.442V217H113.53V214.346C113.53 213.401 113.069 212.535 111.953 212.535C111.368 212.535 110.858 212.803 110.551 213.317C110.3 212.79 109.843 212.526 109.246 212.526C108.78 212.526 108.332 212.772 108.103 213.225V212.61H107.242V217Z" fill="#525151"/>
<rect x="269" y="290" width="24" height="7" fill="#155DA1"/>
<rect x="158" y="376" width="24" height="7" rx="1" fill="#155DA1" stroke="#155DA1"/>
<rect x="346" y="374" width="24" height="7" rx="1" fill="#155DA1" stroke="#155DA1"/>
<rect x="130" y="376" width="24" height="7" rx="1" fill="white" stroke="#155DA1"/>
<rect x="318" y="374" width="24" height="7" rx="1" fill="white" stroke="#155DA1"/>
<defs>
<filter id="filter0_d" x="42" y="183" width="164" height="217" filterUnits="userSpaceOnUse" color-interpolation-filters="sRGB">
<feFlood flood-opacity="0" result="BackgroundImageFix"/>
<feColorMatrix in="SourceAlpha" type="matrix" values="0 0 0 0 0 0 0 0 0 0 0 0 0 0 0 0 0 0 127 0"/>
<feOffset dy="2"/>
<feGaussianBlur stdDeviation="2"/>
<feColorMatrix type="matrix" values="0 0 0 0 0 0 0 0 0 0 0 0 0 0 0 0 0 0 0.153109 0"/>
<feBlend mode="normal" in2="BackgroundImageFix" result="effect1_dropShadow"/>
<feBlend mode="normal" in="SourceGraphic" in2="effect1_dropShadow" result="shape"/>
</filter>
<filter id="filter1_d" x="230" y="183" width="164" height="217" filterUnits="userSpaceOnUse" color-interpolation-filters="sRGB">
<feFlood flood-opacity="0" result="BackgroundImageFix"/>
<feColorMatrix in="SourceAlpha" type="matrix" values="0 0 0 0 0 0 0 0 0 0 0 0 0 0 0 0 0 0 127 0"/>
<feOffset dy="2"/>
<feGaussianBlur stdDeviation="2"/>
<feColorMatrix type="matrix" values="0 0 0 0 0 0 0 0 0 0 0 0 0 0 0 0 0 0 0.153109 0"/>
<feBlend mode="normal" in2="BackgroundImageFix" result="effect1_dropShadow"/>
<feBlend mode="normal" in="SourceGraphic" in2="effect1_dropShadow" result="shape"/>
</filter>
<filter id="filter2_d" x="42" y="489" width="164" height="217" filterUnits="userSpaceOnUse" color-interpolation-filters="sRGB">
<feFlood flood-opacity="0" result="BackgroundImageFix"/>
<feColorMatrix in="SourceAlpha" type="matrix" values="0 0 0 0 0 0 0 0 0 0 0 0 0 0 0 0 0 0 127 0"/>
<feOffset dy="2"/>
<feGaussianBlur stdDeviation="2"/>
<feColorMatrix type="matrix" values="0 0 0 0 0 0 0 0 0 0 0 0 0 0 0 0 0 0 0.153109 0"/>
<feBlend mode="normal" in2="BackgroundImageFix" result="effect1_dropShadow"/>
<feBlend mode="normal" in="SourceGraphic" in2="effect1_dropShadow" result="shape"/>
</filter>
<filter id="filter3_d" x="42" y="789" width="211" height="142" filterUnits="userSpaceOnUse" color-interpolation-filters="sRGB">
<feFlood flood-opacity="0" result="BackgroundImageFix"/>
<feColorMatrix in="SourceAlpha" type="matrix" values="0 0 0 0 0 0 0 0 0 0 0 0 0 0 0 0 0 0 127 0"/>
<feOffset dy="2"/>
<feGaussianBlur stdDeviation="2"/>
<feColorMatrix type="matrix" values="0 0 0 0 0 0 0 0 0 0 0 0 0 0 0 0 0 0 0.153109 0"/>
<feBlend mode="normal" in2="BackgroundImageFix" result="effect1_dropShadow"/>
<feBlend mode="normal" in="SourceGraphic" in2="effect1_dropShadow" result="shape"/>
</filter>
<filter id="filter4_d" x="44" y="1002" width="314" height="142" filterUnits="userSpaceOnUse" color-interpolation-filters="sRGB">
<feFlood flood-opacity="0" result="BackgroundImageFix"/>
<feColorMatrix in="SourceAlpha" type="matrix" values="0 0 0 0 0 0 0 0 0 0 0 0 0 0 0 0 0 0 127 0"/>
<feOffset dy="2"/>
<feGaussianBlur stdDeviation="2"/>
<feColorMatrix type="matrix" values="0 0 0 0 0 0 0 0 0 0 0 0 0 0 0 0 0 0 0.153109 0"/>
<feBlend mode="normal" in2="BackgroundImageFix" result="effect1_dropShadow"/>
<feBlend mode="normal" in="SourceGraphic" in2="effect1_dropShadow" result="shape"/>
</filter>
</defs>
</svg>
