<svg width="796" height="333" viewBox="0 0 796 333" fill="none" xmlns="http://www.w3.org/2000/svg">
<rect width="796" height="333" fill="#FCFCFC"/>
<g filter="url(#filter0_d)">
<rect x="56" y="68" width="685" height="201" rx="4" fill="white"/>
</g>
<path d="M143.045 215.141C145.251 215.141 146.921 213.752 146.921 211.563C146.921 207.547 140.944 208.479 140.944 205.42C140.944 204.286 141.902 203.601 142.939 203.601C143.924 203.601 144.847 204.058 145.348 205.033L146.402 204.33C145.629 203.012 144.407 202.396 142.948 202.396C141.103 202.396 139.582 203.636 139.582 205.543C139.582 209.313 145.559 208.426 145.559 211.66C145.559 213.172 144.539 213.884 143.054 213.884C141.586 213.884 140.241 213.093 140.065 211.432L138.756 211.818C139.107 214.042 141.023 215.141 143.045 215.141ZM152.046 215.176C152.582 215.176 153.03 215.079 153.224 215V213.875C152.951 214.007 152.644 214.095 152.345 214.095C151.703 214.095 151.211 213.646 151.211 212.68V207.327H153.461V206.22H151.211V203.012L149.902 204.242V206.22H148.522V207.327H149.902V212.671C149.902 214.174 150.49 215.176 152.046 215.176ZM159.114 215.105C160.52 215.105 161.513 214.719 162.48 213.752L161.583 213.031C160.898 213.752 160.142 213.945 159.096 213.945C157.4 213.945 156.53 212.609 156.547 211.054H162.664C162.664 211.054 162.708 210.825 162.708 210.72C162.708 208.329 161.838 206.105 158.964 206.105C156.442 206.105 155.167 208.303 155.167 210.658C155.167 213.049 156.459 215.105 159.114 215.105ZM156.547 209.981C156.609 208.496 157.373 207.274 158.964 207.274C160.652 207.274 161.46 208.391 161.452 209.981H156.547ZM165.302 218.85H166.621V213.805C167.183 214.631 168.071 215.176 169.345 215.176C171.639 215.176 172.879 213.11 172.879 210.605C172.879 208.101 171.639 206.035 169.345 206.035C168.062 206.035 167.174 206.598 166.621 207.415V206.22H165.302V218.85ZM168.994 214.024C167.254 214.024 166.489 212.398 166.489 210.605C166.489 208.83 167.254 207.195 168.994 207.195C170.796 207.195 171.569 208.83 171.569 210.605C171.569 212.398 170.796 214.024 168.994 214.024ZM184.368 215H185.757V202.581H184.491V202.818C184.491 203.697 183.946 204.356 182.953 204.356H181.441V205.499H184.368V215Z" fill="#272A2D"/>
<path d="M299.098 215.141C301.383 215.141 303.176 213.752 303.176 211.467C303.176 207.38 297.199 208.241 297.199 205.552C297.199 204.585 298.034 203.97 298.983 203.97C299.889 203.97 300.724 204.436 301.198 205.35L302.622 204.444C301.813 203.038 300.513 202.396 299.019 202.396C297.059 202.396 295.415 203.636 295.415 205.675C295.415 209.551 301.392 208.593 301.392 211.572C301.392 212.812 300.513 213.506 299.115 213.506C297.718 213.506 296.487 212.768 296.32 211.203L294.589 211.669C294.958 213.989 296.988 215.141 299.098 215.141ZM308.345 215.176C308.916 215.176 309.461 215.062 309.716 214.956V213.444C309.435 213.585 309.039 213.717 308.679 213.717C308.072 213.717 307.571 213.356 307.571 212.451V207.714H309.839V206.22H307.571V202.774L305.937 204.146V206.22H304.513V207.714H305.91V212.627C305.91 214.174 306.71 215.176 308.345 215.176ZM315.597 215.105C317.03 215.105 318.102 214.71 319.104 213.682L317.926 212.688C317.267 213.374 316.581 213.55 315.579 213.55C314.077 213.55 313.294 212.504 313.242 211.168H319.315C319.315 211.168 319.368 210.922 319.368 210.685C319.368 208.355 318.471 206.105 315.448 206.105C312.758 206.105 311.44 208.329 311.44 210.658C311.44 213.022 312.811 215.105 315.597 215.105ZM313.242 209.876C313.356 208.593 314.041 207.573 315.448 207.573C316.933 207.573 317.654 208.479 317.715 209.876H313.242ZM321.751 218.85H323.464V213.945C324.053 214.745 324.976 215.176 326.092 215.176C328.439 215.176 329.731 213.075 329.731 210.605C329.731 208.127 328.439 206.035 326.066 206.035C324.95 206.035 324.045 206.483 323.464 207.266V206.22H321.751V218.85ZM325.635 213.638C324.027 213.638 323.306 212.249 323.306 210.605C323.306 208.971 324.027 207.556 325.635 207.556C327.288 207.556 328.008 208.971 328.008 210.605C328.008 212.249 327.288 213.638 325.635 213.638ZM336.589 215H345.562V213.427H339.331C339.981 213.014 340.816 212.46 342.047 211.238C343.69 209.621 344.947 207.934 344.947 206.018C344.947 203.899 343.409 202.414 341.133 202.414C338.619 202.414 337.072 204.269 337.072 206.721L338.821 206.861C338.9 205.297 339.595 204.014 341.168 204.014C342.416 204.014 343.128 204.822 343.128 206.105C343.128 207.547 342.223 208.795 340.948 210.104C339.533 211.52 337.661 212.82 336.589 213.515V215Z" fill="#155DA1"/>
<path d="M455.045 215.141C457.251 215.141 458.921 213.752 458.921 211.563C458.921 207.547 452.944 208.479 452.944 205.42C452.944 204.286 453.902 203.601 454.939 203.601C455.924 203.601 456.847 204.058 457.348 205.033L458.402 204.33C457.629 203.012 456.407 202.396 454.948 202.396C453.103 202.396 451.582 203.636 451.582 205.543C451.582 209.313 457.559 208.426 457.559 211.66C457.559 213.172 456.539 213.884 455.054 213.884C453.586 213.884 452.241 213.093 452.065 211.432L450.756 211.818C451.107 214.042 453.023 215.141 455.045 215.141ZM464.046 215.176C464.582 215.176 465.03 215.079 465.224 215V213.875C464.951 214.007 464.644 214.095 464.345 214.095C463.703 214.095 463.211 213.646 463.211 212.68V207.327H465.461V206.22H463.211V203.012L461.902 204.242V206.22H460.522V207.327H461.902V212.671C461.902 214.174 462.49 215.176 464.046 215.176ZM471.114 215.105C472.52 215.105 473.513 214.719 474.48 213.752L473.583 213.031C472.898 213.752 472.142 213.945 471.096 213.945C469.4 213.945 468.53 212.609 468.547 211.054H474.664C474.664 211.054 474.708 210.825 474.708 210.72C474.708 208.329 473.838 206.105 470.964 206.105C468.442 206.105 467.167 208.303 467.167 210.658C467.167 213.049 468.459 215.105 471.114 215.105ZM468.547 209.981C468.609 208.496 469.373 207.274 470.964 207.274C472.652 207.274 473.46 208.391 473.452 209.981H468.547ZM477.302 218.85H478.621V213.805C479.183 214.631 480.071 215.176 481.345 215.176C483.639 215.176 484.879 213.11 484.879 210.605C484.879 208.101 483.639 206.035 481.345 206.035C480.062 206.035 479.174 206.598 478.621 207.415V206.22H477.302V218.85ZM480.994 214.024C479.254 214.024 478.489 212.398 478.489 210.605C478.489 208.83 479.254 207.195 480.994 207.195C482.796 207.195 483.569 208.83 483.569 210.605C483.569 212.398 482.796 214.024 480.994 214.024ZM496.263 215.176C498.574 215.176 500.446 213.928 500.446 211.467C500.402 210.034 499.761 208.812 498.319 208.312C499.277 207.731 499.778 206.729 499.778 205.613C499.778 203.583 498.152 202.396 496.228 202.396C494.25 202.396 492.668 203.592 492.668 205.657L493.925 205.798C493.942 204.471 494.962 203.636 496.228 203.636C497.432 203.636 498.486 204.409 498.486 205.763C498.486 207.072 497.643 207.793 496.43 207.793H495.586V209.023H496.43C497.889 209.023 499.172 209.797 499.172 211.44C499.172 213.11 497.73 213.963 496.263 213.963C494.733 213.963 493.354 213.04 493.354 211.37L492.079 211.493C492.079 213.963 493.96 215.176 496.263 215.176Z" fill="#272A2D"/>
<path d="M611.045 215.141C613.251 215.141 614.921 213.752 614.921 211.563C614.921 207.547 608.944 208.479 608.944 205.42C608.944 204.286 609.902 203.601 610.939 203.601C611.924 203.601 612.847 204.058 613.348 205.033L614.402 204.33C613.629 203.012 612.407 202.396 610.948 202.396C609.103 202.396 607.582 203.636 607.582 205.543C607.582 209.313 613.559 208.426 613.559 211.66C613.559 213.172 612.539 213.884 611.054 213.884C609.586 213.884 608.241 213.093 608.065 211.432L606.756 211.818C607.107 214.042 609.023 215.141 611.045 215.141ZM620.046 215.176C620.582 215.176 621.03 215.079 621.224 215V213.875C620.951 214.007 620.644 214.095 620.345 214.095C619.703 214.095 619.211 213.646 619.211 212.68V207.327H621.461V206.22H619.211V203.012L617.902 204.242V206.22H616.522V207.327H617.902V212.671C617.902 214.174 618.49 215.176 620.046 215.176ZM627.114 215.105C628.52 215.105 629.513 214.719 630.48 213.752L629.583 213.031C628.898 213.752 628.142 213.945 627.096 213.945C625.4 213.945 624.53 212.609 624.547 211.054H630.664C630.664 211.054 630.708 210.825 630.708 210.72C630.708 208.329 629.838 206.105 626.964 206.105C624.442 206.105 623.167 208.303 623.167 210.658C623.167 213.049 624.459 215.105 627.114 215.105ZM624.547 209.981C624.609 208.496 625.373 207.274 626.964 207.274C628.652 207.274 629.46 208.391 629.452 209.981H624.547ZM633.302 218.85H634.621V213.805C635.183 214.631 636.071 215.176 637.345 215.176C639.639 215.176 640.879 213.11 640.879 210.605C640.879 208.101 639.639 206.035 637.345 206.035C636.062 206.035 635.174 206.598 634.621 207.415V206.22H633.302V218.85ZM636.994 214.024C635.254 214.024 634.489 212.398 634.489 210.605C634.489 208.83 635.254 207.195 636.994 207.195C638.796 207.195 639.569 208.83 639.569 210.605C639.569 212.398 638.796 214.024 636.994 214.024ZM653.563 215H654.926V211.651H656.903V210.465H654.926V202.581H653.687L647.833 210.86V211.651H653.563V215ZM649.477 210.465L653.563 204.69V210.465H649.477Z" fill="#272A2D"/>
<path d="M169.5 167.5H632.5" stroke="#EBEEF2" stroke-width="5" stroke-linecap="square"/>
<path fill-rule="evenodd" clip-rule="evenodd" d="M476 187C487.046 187 496 178.046 496 167C496 155.954 487.046 147 476 147C464.954 147 456 155.954 456 167C456 178.046 464.954 187 476 187Z" fill="white" stroke="#155DA1" stroke-width="3"/>
<path fill-rule="evenodd" clip-rule="evenodd" d="M632 187C643.046 187 652 178.046 652 167C652 155.954 643.046 147 632 147C620.954 147 612 155.954 612 167C612 178.046 620.954 187 632 187Z" fill="white" stroke="#155DA1" stroke-width="3"/>
<path d="M168.5 167.5H320.5" stroke="#155DA1" stroke-width="5" stroke-linecap="square"/>
<path fill-rule="evenodd" clip-rule="evenodd" d="M164 187C175.046 187 184 178.046 184 167C184 155.954 175.046 147 164 147C152.954 147 144 155.954 144 167C144 178.046 152.954 187 164 187Z" fill="#155DA1"/>
<path d="M178 166.112V167.4C177.997 173.6 173.915 179.06 167.97 180.818C162.024 182.576 155.63 180.214 152.255 175.012C148.881 169.811 149.329 163.009 153.358 158.296C157.386 153.583 164.035 152.081 169.698 154.604" stroke="white" stroke-width="2" stroke-linecap="round" stroke-linejoin="round"/>
<path d="M178 156.2L164 170.214L159.8 166.014" stroke="white" stroke-width="2" stroke-linecap="round" stroke-linejoin="round"/>
<path fill-rule="evenodd" clip-rule="evenodd" d="M320 187C331.046 187 340 178.046 340 167C340 155.954 331.046 147 320 147C308.954 147 300 155.954 300 167C300 178.046 308.954 187 320 187Z" fill="#155DA1" stroke="#155DA1" stroke-width="3"/>
<defs>
<filter id="filter0_d" x="52" y="66" width="693" height="209" filterUnits="userSpaceOnUse" color-interpolation-filters="sRGB">
<feFlood flood-opacity="0" result="BackgroundImageFix"/>
<feColorMatrix in="SourceAlpha" type="matrix" values="0 0 0 0 0 0 0 0 0 0 0 0 0 0 0 0 0 0 127 0"/>
<feOffset dy="2"/>
<feGaussianBlur stdDeviation="2"/>
<feColorMatrix type="matrix" values="0 0 0 0 0 0 0 0 0 0 0 0 0 0 0 0 0 0 0.153109 0"/>
<feBlend mode="normal" in2="BackgroundImageFix" result="effect1_dropShadow"/>
<feBlend mode="normal" in="SourceGraphic" in2="effect1_dropShadow" result="shape"/>
</filter>
</defs>
</svg>
