<svg width="812" height="537" viewBox="0 0 812 537" fill="none" xmlns="http://www.w3.org/2000/svg">
<rect width="812" height="537" fill="#FCFCFC"/>
<g filter="url(#filter0_d)">
<rect x="43" y="77" width="685" height="398" rx="4" fill="white"/>
</g>
<path d="M83.9502 116.176C87.0352 116.176 88.3008 113.943 88.3008 111.359V103.581H86.9033V111.052C86.9033 113.196 86.209 114.857 83.9502 114.857C81.6914 114.857 81.0234 113.196 81.0234 111.052V103.581H79.6348V111.447C79.6348 113.943 80.8652 116.176 83.9502 116.176ZM91.7297 119.85H93.048V114.805C93.6105 115.631 94.4982 116.176 95.7727 116.176C98.0666 116.176 99.3059 114.11 99.3059 111.605C99.3059 109.101 98.0666 107.035 95.7727 107.035C94.4895 107.035 93.6018 107.598 93.048 108.415V107.22H91.7297V119.85ZM95.4211 115.024C93.6809 115.024 92.9162 113.398 92.9162 111.605C92.9162 109.83 93.6809 108.195 95.4211 108.195C97.2229 108.195 97.9963 109.83 97.9963 111.605C97.9963 113.398 97.2229 115.024 95.4211 115.024ZM103.728 115.033C103.324 115.033 103.288 114.559 103.288 114.532V103.581H101.97V114.225C101.97 115.288 102.058 116.176 103.394 116.176C103.833 116.176 104.29 116.088 104.572 116V114.945C104.378 114.98 104.027 115.033 103.728 115.033ZM110.33 116.176C112.782 116.176 114.496 114.146 114.496 111.641C114.496 109.145 112.782 107.105 110.33 107.105C107.842 107.105 106.172 109.145 106.172 111.641C106.172 114.146 107.842 116.176 110.33 116.176ZM110.33 115.016C108.387 115.016 107.64 113.398 107.64 111.641C107.64 109.883 108.387 108.274 110.33 108.274C112.29 108.274 113.028 109.883 113.028 111.641C113.028 113.398 112.29 115.016 110.33 115.016ZM119.155 116.176C120.403 116.176 121.598 115.622 122.24 114.304L122.266 116H123.383V110.612C123.383 108.477 122.179 107.07 119.946 107.07C118.496 107.07 117.415 107.668 116.633 108.758L117.591 109.505C118.013 108.898 118.768 108.213 120.025 108.213C121.616 108.213 122.179 109.329 122.179 110.981H120.166C117.679 110.981 116.281 111.799 116.281 113.557C116.281 115.209 117.503 116.176 119.155 116.176ZM119.304 115.068C118.39 115.068 117.643 114.638 117.643 113.592C117.643 112.423 118.557 111.975 120.298 111.975H122.179C122.179 113.39 121.106 115.068 119.304 115.068ZM132.111 103.581V108.415C131.531 107.571 130.644 107.035 129.369 107.035C127.128 107.035 125.854 109.092 125.854 111.605C125.854 114.11 127.128 116.176 129.378 116.176C130.696 116.176 131.549 115.613 132.12 114.778L132.146 116H133.43V103.581H132.111ZM129.712 114.98C127.945 114.98 127.189 113.398 127.189 111.605C127.189 109.83 127.945 108.248 129.712 108.248C131.505 108.248 132.226 109.83 132.226 111.605C132.226 113.407 131.505 114.98 129.712 114.98ZM143.979 116.176C145.227 116.176 146.422 115.622 147.064 114.304L147.09 116H148.206V110.612C148.206 108.477 147.002 107.07 144.77 107.07C143.32 107.07 142.239 107.668 141.456 108.758L142.414 109.505C142.836 108.898 143.592 108.213 144.849 108.213C146.44 108.213 147.002 109.329 147.002 110.981H144.99C142.502 110.981 141.105 111.799 141.105 113.557C141.105 115.209 142.327 116.176 143.979 116.176ZM144.128 115.068C143.214 115.068 142.467 114.638 142.467 113.592C142.467 112.423 143.381 111.975 145.121 111.975H147.002C147.002 113.39 145.93 115.068 144.128 115.068ZM157.068 116H158.299V108.292H161.603V116H162.799V107.22H158.299C158.299 105.77 158.694 104.513 160.285 104.513C160.918 104.513 161.471 104.706 162.096 105.365L162.728 104.434C162.025 103.607 160.935 103.396 160.153 103.396C157.859 103.396 157.086 105.233 157.086 107.22H155.776V108.292H157.068V116ZM168.056 115.033C167.651 115.033 167.616 114.559 167.616 114.532V103.581H166.298V114.225C166.298 115.288 166.386 116.176 167.722 116.176C168.161 116.176 168.618 116.088 168.899 116V114.945C168.706 114.98 168.354 115.033 168.056 115.033ZM174.464 116.105C175.87 116.105 176.863 115.719 177.83 114.752L176.934 114.031C176.248 114.752 175.492 114.945 174.446 114.945C172.75 114.945 171.88 113.609 171.898 112.054H178.015C178.015 112.054 178.059 111.825 178.059 111.72C178.059 109.329 177.189 107.105 174.315 107.105C171.792 107.105 170.518 109.303 170.518 111.658C170.518 114.049 171.81 116.105 174.464 116.105ZM171.898 110.981C171.959 109.496 172.724 108.274 174.315 108.274C176.002 108.274 176.811 109.391 176.802 110.981H171.898Z" fill="#272A2D"/>
<rect x="78" y="141" width="268" height="284" rx="4" fill="white" stroke="#155DA1" stroke-dasharray="12 2"/>
<path d="M135.454 267H138.6C142.608 267 144.885 264.794 144.885 260.883C144.885 256.805 142.652 254.581 138.618 254.581H135.454V267ZM136.851 265.726V255.829H138.583C141.861 255.829 143.487 257.578 143.487 260.786C143.487 264.205 141.281 265.726 138.389 265.726H136.851ZM147.769 267H149.087V263.265C149.087 261.05 149.904 259.213 151.513 259.213C151.882 259.213 152.304 259.318 152.629 259.608L153.086 258.492C152.708 258.22 152.049 258.088 151.601 258.088C150.59 258.088 149.395 258.765 149.104 259.925V258.22H147.769V267ZM157.121 267.176C158.369 267.176 159.565 266.622 160.206 265.304L160.233 267H161.349V261.612C161.349 259.477 160.145 258.07 157.912 258.07C156.462 258.07 155.381 258.668 154.599 259.758L155.557 260.505C155.979 259.898 156.735 259.213 157.991 259.213C159.582 259.213 160.145 260.329 160.145 261.981H158.132C155.645 261.981 154.247 262.799 154.247 264.557C154.247 266.209 155.469 267.176 157.121 267.176ZM157.271 266.068C156.357 266.068 155.61 265.638 155.61 264.592C155.61 263.423 156.524 262.975 158.264 262.975H160.145C160.145 264.39 159.072 266.068 157.271 266.068ZM167.555 265.866C166.342 265.699 165.208 265.436 165.208 264.53C165.208 264.231 165.358 264.021 165.586 263.845C166.07 264.082 166.632 264.214 167.239 264.214C169.067 264.214 170.491 263.08 170.491 261.19C170.491 260.663 170.376 260.18 170.157 259.758L171.572 258.65L170.833 257.719L169.506 258.914C168.944 258.404 168.153 258.105 167.239 258.105C165.393 258.105 163.96 259.31 163.96 261.173C163.96 261.981 164.233 262.658 164.69 263.177C164.198 263.599 164.057 264.108 164.057 264.618C164.057 265.515 164.523 266.068 165.164 266.429L163.899 267.703C163.881 267.826 163.872 267.932 163.872 268.037C163.872 269.716 165.375 271.025 167.661 271.025C169.515 271.025 171.176 270.164 171.176 268.345C171.176 266.376 169.348 266.104 167.555 265.866ZM167.221 259.143C168.416 259.143 169.172 260.065 169.172 261.155C169.172 262.324 168.408 263.124 167.221 263.124C166.043 263.124 165.287 262.333 165.287 261.155C165.287 260.092 166.026 259.143 167.221 259.143ZM167.775 269.856C166.061 269.856 165.103 268.951 165.085 268.063L166.122 266.798C166.465 266.903 166.826 266.965 167.177 267.026C168.627 267.272 170.007 267.316 170.007 268.441C170.007 269.408 168.926 269.856 167.775 269.856ZM180.767 267.176C182.015 267.176 183.211 266.622 183.852 265.304L183.879 267H184.995V261.612C184.995 259.477 183.791 258.07 181.558 258.07C180.108 258.07 179.027 258.668 178.245 259.758L179.203 260.505C179.625 259.898 180.381 259.213 181.637 259.213C183.228 259.213 183.791 260.329 183.791 261.981H181.778C179.291 261.981 177.893 262.799 177.893 264.557C177.893 266.209 179.115 267.176 180.767 267.176ZM180.917 266.068C180.003 266.068 179.256 265.638 179.256 264.592C179.256 263.423 180.17 262.975 181.91 262.975H183.791C183.791 264.39 182.719 266.068 180.917 266.068ZM188.081 267H189.391V262.008C189.391 260.575 190.577 259.318 191.992 259.318C193.513 259.318 193.855 260.602 193.855 261.797V267H195.174V261.665C195.174 259.714 194.339 258.07 192.15 258.07C191.025 258.07 189.953 258.677 189.391 259.6V258.22H188.081V267ZM203.92 254.581V259.415C203.34 258.571 202.452 258.035 201.178 258.035C198.937 258.035 197.662 260.092 197.662 262.605C197.662 265.11 198.937 267.176 201.187 267.176C202.505 267.176 203.358 266.613 203.929 265.778L203.955 267H205.238V254.581H203.92ZM201.521 265.98C199.754 265.98 198.998 264.398 198.998 262.605C198.998 260.83 199.754 259.248 201.521 259.248C203.314 259.248 204.034 260.83 204.034 262.605C204.034 264.407 203.314 265.98 201.521 265.98ZM219.356 254.581V259.415C218.776 258.571 217.888 258.035 216.614 258.035C214.373 258.035 213.098 260.092 213.098 262.605C213.098 265.11 214.373 267.176 216.623 267.176C217.941 267.176 218.794 266.613 219.365 265.778L219.391 267H220.674V254.581H219.356ZM216.957 265.98C215.19 265.98 214.434 264.398 214.434 262.605C214.434 260.83 215.19 259.248 216.957 259.248C218.75 259.248 219.47 260.83 219.47 262.605C219.47 264.407 218.75 265.98 216.957 265.98ZM223.98 267H225.299V263.265C225.299 261.05 226.116 259.213 227.724 259.213C228.094 259.213 228.515 259.318 228.841 259.608L229.298 258.492C228.92 258.22 228.261 258.088 227.812 258.088C226.802 258.088 225.606 258.765 225.316 259.925V258.22H223.98V267ZM234.704 267.176C237.156 267.176 238.87 265.146 238.87 262.641C238.87 260.145 237.156 258.105 234.704 258.105C232.217 258.105 230.547 260.145 230.547 262.641C230.547 265.146 232.217 267.176 234.704 267.176ZM234.704 266.016C232.762 266.016 232.015 264.398 232.015 262.641C232.015 260.883 232.762 259.274 234.704 259.274C236.664 259.274 237.402 260.883 237.402 262.641C237.402 264.398 236.664 266.016 234.704 266.016ZM241.473 270.85H242.791V265.805C243.354 266.631 244.241 267.176 245.516 267.176C247.81 267.176 249.049 265.11 249.049 262.605C249.049 260.101 247.81 258.035 245.516 258.035C244.233 258.035 243.345 258.598 242.791 259.415V258.22H241.473V270.85ZM245.164 266.024C243.424 266.024 242.659 264.398 242.659 262.605C242.659 260.83 243.424 259.195 245.164 259.195C246.966 259.195 247.739 260.83 247.739 262.605C247.739 264.398 246.966 266.024 245.164 266.024ZM256.909 267H258.201V262.192C258.201 260.646 259.361 259.31 260.864 259.31C262.34 259.31 262.683 260.602 262.683 261.797V267H264.01V261.586C264.01 259.714 263.167 258.07 261.057 258.07C259.923 258.07 258.79 258.694 258.201 259.661V254.581H256.909V267ZM270.357 267.105C271.763 267.105 272.757 266.719 273.723 265.752L272.827 265.031C272.141 265.752 271.386 265.945 270.34 265.945C268.643 265.945 267.773 264.609 267.791 263.054H273.908C273.908 263.054 273.952 262.825 273.952 262.72C273.952 260.329 273.082 258.105 270.208 258.105C267.685 258.105 266.411 260.303 266.411 262.658C266.411 265.049 267.703 267.105 270.357 267.105ZM267.791 261.981C267.852 260.496 268.617 259.274 270.208 259.274C271.895 259.274 272.704 260.391 272.695 261.981H267.791ZM276.528 267H277.847V263.265C277.847 261.05 278.664 259.213 280.272 259.213C280.642 259.213 281.063 259.318 281.389 259.608L281.846 258.492C281.468 258.22 280.809 258.088 280.36 258.088C279.35 258.088 278.154 258.765 277.864 259.925V258.22H276.528V267ZM287.059 267.105C288.465 267.105 289.458 266.719 290.425 265.752L289.529 265.031C288.843 265.752 288.087 265.945 287.041 265.945C285.345 265.945 284.475 264.609 284.492 263.054H290.61C290.61 263.054 290.654 262.825 290.654 262.72C290.654 260.329 289.783 258.105 286.909 258.105C284.387 258.105 283.113 260.303 283.113 262.658C283.113 265.049 284.404 267.105 287.059 267.105ZM284.492 261.981C284.554 260.496 285.319 259.274 286.909 259.274C288.597 259.274 289.405 260.391 289.397 261.981H284.492Z" fill="#8B9199"/>
<path d="M208.817 302.176C211.269 302.176 212.983 300.146 212.983 297.641C212.983 295.145 211.269 293.105 208.817 293.105C206.329 293.105 204.66 295.145 204.66 297.641C204.66 300.146 206.329 302.176 208.817 302.176ZM208.817 301.016C206.874 301.016 206.127 299.398 206.127 297.641C206.127 295.883 206.874 294.274 208.817 294.274C210.777 294.274 211.515 295.883 211.515 297.641C211.515 299.398 210.777 301.016 208.817 301.016ZM215.568 302H216.886V298.265C216.886 296.05 217.704 294.213 219.312 294.213C219.681 294.213 220.103 294.318 220.428 294.608L220.885 293.492C220.507 293.22 219.848 293.088 219.4 293.088C218.389 293.088 217.194 293.765 216.904 294.925V293.22H215.568V302Z" fill="#8B9199"/>
<rect x="132" y="326" width="160" height="48" fill="#155DA1"/>
<path d="M156.648 345.396C157.105 345.396 157.525 345.503 157.908 345.718C158.291 345.923 158.594 346.208 158.818 346.572C159.051 346.927 159.168 347.319 159.168 347.748C159.168 348.401 159.014 348.905 158.706 349.26C158.398 349.615 158.006 349.857 157.53 349.988V350.058C158.043 350.161 158.482 350.399 158.846 350.772C159.21 351.145 159.392 351.701 159.392 352.438C159.392 352.905 159.271 353.334 159.028 353.726C158.795 354.118 158.473 354.431 158.062 354.664C157.661 354.888 157.217 355 156.732 355H151.888V345.396H156.648ZM156.032 349.288C156.312 349.288 156.559 349.181 156.774 348.966C156.989 348.751 157.096 348.481 157.096 348.154C157.096 347.762 156.989 347.482 156.774 347.314C156.559 347.137 156.312 347.048 156.032 347.048H153.932V349.288H156.032ZM156.186 353.264C156.494 353.264 156.755 353.157 156.97 352.942C157.185 352.727 157.292 352.466 157.292 352.158V352.032C157.292 351.724 157.185 351.463 156.97 351.248C156.755 351.033 156.494 350.926 156.186 350.926H153.932V353.264H156.186ZM170.975 354.916C170.667 355.037 170.266 355.098 169.771 355.098C169.295 355.098 168.908 354.981 168.609 354.748C168.311 354.515 168.161 354.123 168.161 353.572C168.161 352.769 168.054 352.144 167.839 351.696C167.634 351.248 167.242 351.024 166.663 351.024H165.039V355H162.911V345.396H167.209C168.124 345.396 168.889 345.583 169.505 345.956C170.131 346.329 170.443 346.936 170.443 347.776C170.443 348.112 170.369 348.443 170.219 348.77C170.07 349.097 169.86 349.377 169.589 349.61C169.328 349.843 169.039 349.988 168.721 350.044V350.114C169.132 350.245 169.491 350.525 169.799 350.954C170.107 351.383 170.261 351.957 170.261 352.676C170.261 353.703 170.499 354.291 170.975 354.44V354.916ZM167.139 349.33C167.447 349.33 167.709 349.227 167.923 349.022C168.147 348.817 168.259 348.569 168.259 348.28V348.182C168.259 347.874 168.152 347.622 167.937 347.426C167.732 347.221 167.466 347.118 167.139 347.118H165.039V349.33H167.139ZM182.454 350.884C182.454 351.761 182.263 352.522 181.88 353.166C181.497 353.81 180.979 354.3 180.326 354.636C179.682 354.972 178.963 355.14 178.17 355.14C177.377 355.14 176.653 354.972 176 354.636C175.356 354.3 174.843 353.81 174.46 353.166C174.077 352.522 173.886 351.761 173.886 350.884V349.512C173.886 348.635 174.077 347.874 174.46 347.23C174.843 346.586 175.356 346.096 176 345.76C176.653 345.424 177.377 345.256 178.17 345.256C178.963 345.256 179.682 345.424 180.326 345.76C180.979 346.096 181.497 346.586 181.88 347.23C182.263 347.874 182.454 348.635 182.454 349.512V350.884ZM180.186 349.204C180.186 348.495 179.999 347.949 179.626 347.566C179.253 347.174 178.767 346.978 178.17 346.978C177.573 346.978 177.087 347.174 176.714 347.566C176.341 347.949 176.154 348.495 176.154 349.204V351.192C176.154 351.901 176.341 352.452 176.714 352.844C177.087 353.227 177.573 353.418 178.17 353.418C178.767 353.418 179.253 353.227 179.626 352.844C179.999 352.452 180.186 351.901 180.186 351.192V349.204ZM190.306 355H187.912L185.224 345.396H187.478L189.172 351.682H189.242L190.95 345.396H193.12L194.814 351.682H194.884L196.578 345.396H198.622L195.92 355H193.554L191.986 349.232H191.902L190.306 355ZM206.819 348.112C206.819 347.757 206.679 347.482 206.399 347.286C206.119 347.081 205.732 346.978 205.237 346.978C204.724 346.978 204.323 347.062 204.033 347.23C203.753 347.389 203.613 347.603 203.613 347.874C203.613 348.107 203.702 348.303 203.879 348.462C204.057 348.611 204.281 348.733 204.551 348.826C204.831 348.919 205.209 349.022 205.685 349.134C206.385 349.302 206.959 349.475 207.407 349.652C207.865 349.829 208.252 350.105 208.569 350.478C208.896 350.851 209.059 351.351 209.059 351.976C209.059 353.068 208.705 353.871 207.995 354.384C207.295 354.888 206.329 355.14 205.097 355.14C203.977 355.14 203.049 354.897 202.311 354.412C201.583 353.917 201.219 353.171 201.219 352.172L201.233 351.864H203.277L203.263 352.088C203.263 352.499 203.417 352.825 203.725 353.068C204.033 353.301 204.467 353.418 205.027 353.418C205.681 353.418 206.147 353.315 206.427 353.11C206.717 352.905 206.861 352.643 206.861 352.326C206.861 352.083 206.773 351.887 206.595 351.738C206.427 351.579 206.208 351.458 205.937 351.374C205.676 351.281 205.307 351.178 204.831 351.066C204.122 350.889 203.543 350.711 203.095 350.534C202.647 350.357 202.26 350.072 201.933 349.68C201.607 349.288 201.443 348.761 201.443 348.098C201.443 347.482 201.611 346.959 201.947 346.53C202.283 346.101 202.731 345.783 203.291 345.578C203.861 345.363 204.495 345.256 205.195 345.256C206.269 345.256 207.146 345.494 207.827 345.97C208.509 346.437 208.849 347.137 208.849 348.07V348.238H206.819V348.112ZM212.624 355V345.396H219.386L219.148 347.118H214.752V349.218H218.854V350.94H214.752V353.278H219.19L219.428 355H212.624ZM234.34 347.118H230.196V349.414H233.92V351.136H230.196V355H228.068V345.396H234.564L234.34 347.118ZM237.956 345.396H242.38V347.118H241.26V353.278H242.38V355H237.956V353.278H239.09V347.118H237.956V345.396ZM246.409 355V345.396H248.579V353.208H252.527L252.765 355H246.409ZM255.874 355V345.396H262.636L262.398 347.118H258.002V349.218H262.104V350.94H258.002V353.278H262.44L262.678 355H255.874ZM271.323 348.112C271.323 347.757 271.183 347.482 270.903 347.286C270.623 347.081 270.236 346.978 269.741 346.978C269.228 346.978 268.827 347.062 268.537 347.23C268.257 347.389 268.117 347.603 268.117 347.874C268.117 348.107 268.206 348.303 268.383 348.462C268.561 348.611 268.785 348.733 269.055 348.826C269.335 348.919 269.713 349.022 270.189 349.134C270.889 349.302 271.463 349.475 271.911 349.652C272.369 349.829 272.756 350.105 273.073 350.478C273.4 350.851 273.563 351.351 273.563 351.976C273.563 353.068 273.209 353.871 272.499 354.384C271.799 354.888 270.833 355.14 269.601 355.14C268.481 355.14 267.553 354.897 266.815 354.412C266.087 353.917 265.723 353.171 265.723 352.172L265.737 351.864H267.781L267.767 352.088C267.767 352.499 267.921 352.825 268.229 353.068C268.537 353.301 268.971 353.418 269.531 353.418C270.185 353.418 270.651 353.315 270.931 353.11C271.221 352.905 271.365 352.643 271.365 352.326C271.365 352.083 271.277 351.887 271.099 351.738C270.931 351.579 270.712 351.458 270.441 351.374C270.18 351.281 269.811 351.178 269.335 351.066C268.626 350.889 268.047 350.711 267.599 350.534C267.151 350.357 266.764 350.072 266.437 349.68C266.111 349.288 265.947 348.761 265.947 348.098C265.947 347.482 266.115 346.959 266.451 346.53C266.787 346.101 267.235 345.783 267.795 345.578C268.365 345.363 268.999 345.256 269.699 345.256C270.773 345.256 271.65 345.494 272.331 345.97C273.013 346.437 273.353 347.137 273.353 348.07V348.238H271.323V348.112Z" fill="white"/>
<path fill-rule="evenodd" clip-rule="evenodd" d="M216.5 185H198.5C196.015 185 194 187.015 194 189.5V225.5C194 227.985 196.015 230 198.5 230H225.5C227.985 230 230 227.985 230 225.5V198.5L216.5 185Z" stroke="#155DA1" stroke-width="2" stroke-linecap="round" stroke-linejoin="round"/>
<path d="M217 185V198H230" stroke="#155DA1" stroke-width="2" stroke-linecap="round" stroke-linejoin="round"/>
<path d="M213 221V208" stroke="#155DA1" stroke-width="2" stroke-linecap="round" stroke-linejoin="round"/>
<path d="M206 215H219" stroke="#155DA1" stroke-width="2" stroke-linecap="round" stroke-linejoin="round"/>
<g opacity="0.5">
<path fill-rule="evenodd" clip-rule="evenodd" d="M419.5 141H409.5C408.119 141 407 142.084 407 143.421V162.789C407 164.127 408.119 165.211 409.5 165.211H424.5C425.881 165.211 427 164.127 427 162.789V148.263L419.5 141Z" stroke="#155DA1" stroke-width="2" stroke-linecap="round" stroke-linejoin="round"/>
<path d="M419.632 141V148.368H427" stroke="#155DA1" stroke-width="2" stroke-linecap="round" stroke-linejoin="round"/>
<path d="M422.789 154.158H412.263" stroke="#155DA1" stroke-width="2" stroke-linecap="round" stroke-linejoin="round"/>
<path d="M422.789 159.421H412.263" stroke="#155DA1" stroke-width="2" stroke-linecap="round" stroke-linejoin="round"/>
<path d="M414.369 149.947H412.79H411.211" stroke="#155DA1" stroke-width="2" stroke-linecap="round" stroke-linejoin="round"/>
</g>
<path fill-rule="evenodd" clip-rule="evenodd" d="M419.5 205H409.5C408.119 205 407 206.084 407 207.421V226.789C407 228.127 408.119 229.211 409.5 229.211H424.5C425.881 229.211 427 228.127 427 226.789V212.263L419.5 205Z" stroke="#155DA1" stroke-width="2" stroke-linecap="round" stroke-linejoin="round"/>
<path d="M419.632 205V212.368H427" stroke="#155DA1" stroke-width="2" stroke-linecap="round" stroke-linejoin="round"/>
<path d="M422.789 218.158H412.263" stroke="#155DA1" stroke-width="2" stroke-linecap="round" stroke-linejoin="round"/>
<path d="M422.789 223.421H412.263" stroke="#155DA1" stroke-width="2" stroke-linecap="round" stroke-linejoin="round"/>
<path d="M414.369 213.947H412.79H411.211" stroke="#155DA1" stroke-width="2" stroke-linecap="round" stroke-linejoin="round"/>
<path d="M440.328 161H441.508V156.547C441.508 155.266 442.203 154.047 443.492 154.047C444.836 154.047 445.141 155.266 445.141 156.344V161H446.32V156.547C446.32 155.266 447.016 154.047 448.297 154.047C449.648 154.047 449.977 155.312 449.977 156.375V161H451.156V156.258C451.156 154.523 450.383 153.062 448.438 153.062C447.344 153.062 446.508 153.617 446.016 154.633C445.633 153.547 444.734 153.047 443.617 153.047C442.656 153.047 441.828 153.648 441.508 154.531V153.195H440.328V161ZM454.573 164.359H455.8L459.98 153.195H458.706L456.488 159.578L454.198 153.195H452.909L455.909 160.961L454.573 164.359ZM462.405 161.891H468.498V161H462.405V161.891ZM472.47 161H473.564V154.148H476.502V161H477.564V153.195H473.564C473.564 151.906 473.916 150.789 475.33 150.789C475.892 150.789 476.384 150.961 476.939 151.547L477.502 150.719C476.877 149.984 475.908 149.797 475.212 149.797C473.173 149.797 472.486 151.43 472.486 153.195H471.322V154.148H472.47V161ZM482.27 160.141C481.911 160.141 481.88 159.719 481.88 159.695V149.961H480.708V159.422C480.708 160.367 480.786 161.156 481.973 161.156C482.364 161.156 482.77 161.078 483.02 161V160.062C482.848 160.094 482.536 160.141 482.27 160.141ZM488 161.094C489.25 161.094 490.133 160.75 490.992 159.891L490.195 159.25C489.586 159.891 488.914 160.062 487.984 160.062C486.477 160.062 485.703 158.875 485.719 157.492H491.156C491.156 157.492 491.195 157.289 491.195 157.195C491.195 155.07 490.422 153.094 487.867 153.094C485.625 153.094 484.492 155.047 484.492 157.141C484.492 159.266 485.641 161.094 488 161.094ZM485.719 156.539C485.773 155.219 486.453 154.133 487.867 154.133C489.367 154.133 490.086 155.125 490.078 156.539H485.719ZM494.027 161H495.573V159.484H494.027V161ZM499.053 164.422H500.225V159.938C500.725 160.672 501.514 161.156 502.647 161.156C504.686 161.156 505.787 159.32 505.787 157.094C505.787 154.867 504.686 153.031 502.647 153.031C501.506 153.031 500.717 153.531 500.225 154.258V153.195H499.053V164.422ZM502.334 160.133C500.787 160.133 500.108 158.688 500.108 157.094C500.108 155.516 500.787 154.062 502.334 154.062C503.936 154.062 504.623 155.516 504.623 157.094C504.623 158.688 503.936 160.133 502.334 160.133ZM513.213 149.961V154.258C512.697 153.508 511.908 153.031 510.775 153.031C508.783 153.031 507.65 154.859 507.65 157.094C507.65 159.32 508.783 161.156 510.783 161.156C511.955 161.156 512.713 160.656 513.22 159.914L513.244 161H514.384V149.961H513.213ZM511.08 160.094C509.509 160.094 508.838 158.688 508.838 157.094C508.838 155.516 509.509 154.109 511.08 154.109C512.673 154.109 513.314 155.516 513.314 157.094C513.314 158.695 512.673 160.094 511.08 160.094ZM517.723 161H518.887V154.148H521.137V153.195H518.887V151.789C518.887 151.18 519.427 150.812 520.02 150.812C520.52 150.812 520.841 151.023 520.841 151.023L521.122 150.094C520.755 149.914 520.302 149.797 519.856 149.797C518.684 149.797 517.731 150.477 517.731 151.758V153.211H516.302V154.148H517.723V161Z" fill="#272A2D"/>
<path d="M442.828 225.18C444.047 225.18 444.961 224.352 445.281 223.68V225H446.438V217.195H445.281V221.586C445.281 223.047 444.203 224.172 442.945 224.172C441.617 224.172 441.305 222.93 441.305 221.867V217.195H440.141V221.82C440.141 223.633 440.898 225.18 442.828 225.18ZM449.409 228.422H450.581V223.938C451.081 224.672 451.87 225.156 453.003 225.156C455.042 225.156 456.144 223.32 456.144 221.094C456.144 218.867 455.042 217.031 453.003 217.031C451.863 217.031 451.073 217.531 450.581 218.258V217.195H449.409V228.422ZM452.691 224.133C451.144 224.133 450.464 222.688 450.464 221.094C450.464 219.516 451.144 218.062 452.691 218.062C454.292 218.062 454.98 219.516 454.98 221.094C454.98 222.688 454.292 224.133 452.691 224.133ZM460.108 224.141C459.748 224.141 459.717 223.719 459.717 223.695V213.961H458.545V223.422C458.545 224.367 458.623 225.156 459.811 225.156C460.202 225.156 460.608 225.078 460.858 225V224.062C460.686 224.094 460.373 224.141 460.108 224.141ZM466.009 225.156C468.189 225.156 469.712 223.352 469.712 221.125C469.712 218.906 468.189 217.094 466.009 217.094C463.798 217.094 462.314 218.906 462.314 221.125C462.314 223.352 463.798 225.156 466.009 225.156ZM466.009 224.125C464.283 224.125 463.619 222.688 463.619 221.125C463.619 219.562 464.283 218.133 466.009 218.133C467.752 218.133 468.408 219.562 468.408 221.125C468.408 222.688 467.752 224.125 466.009 224.125ZM473.888 225.156C474.997 225.156 476.059 224.664 476.63 223.492L476.653 225H477.645V220.211C477.645 218.312 476.575 217.062 474.591 217.062C473.302 217.062 472.341 217.594 471.645 218.562L472.497 219.227C472.872 218.688 473.544 218.078 474.661 218.078C476.075 218.078 476.575 219.07 476.575 220.539H474.786C472.575 220.539 471.333 221.266 471.333 222.828C471.333 224.297 472.419 225.156 473.888 225.156ZM474.02 224.172C473.208 224.172 472.544 223.789 472.544 222.859C472.544 221.82 473.356 221.422 474.903 221.422H476.575C476.575 222.68 475.622 224.172 474.02 224.172ZM485.438 213.961V218.258C484.922 217.508 484.133 217.031 483 217.031C481.008 217.031 479.875 218.859 479.875 221.094C479.875 223.32 481.008 225.156 483.008 225.156C484.18 225.156 484.938 224.656 485.445 223.914L485.469 225H486.609V213.961H485.438ZM483.305 224.094C481.734 224.094 481.062 222.688 481.062 221.094C481.062 219.516 481.734 218.109 483.305 218.109C484.898 218.109 485.539 219.516 485.539 221.094C485.539 222.695 484.898 224.094 483.305 224.094ZM492.472 225.094C493.722 225.094 494.605 224.75 495.464 223.891L494.667 223.25C494.058 223.891 493.386 224.062 492.456 224.062C490.948 224.062 490.175 222.875 490.191 221.492H495.628C495.628 221.492 495.667 221.289 495.667 221.195C495.667 219.07 494.894 217.094 492.339 217.094C490.097 217.094 488.964 219.047 488.964 221.141C488.964 223.266 490.112 225.094 492.472 225.094ZM490.191 220.539C490.245 219.219 490.925 218.133 492.339 218.133C493.839 218.133 494.558 219.125 494.55 220.539H490.191ZM503.006 213.961V218.258C502.491 217.508 501.702 217.031 500.569 217.031C498.577 217.031 497.444 218.859 497.444 221.094C497.444 223.32 498.577 225.156 500.577 225.156C501.748 225.156 502.506 224.656 503.014 223.914L503.037 225H504.178V213.961H503.006ZM500.873 224.094C499.303 224.094 498.631 222.688 498.631 221.094C498.631 219.516 499.303 218.109 500.873 218.109C502.467 218.109 503.108 219.516 503.108 221.094C503.108 222.695 502.467 224.094 500.873 224.094ZM507.627 225.891H513.72V225H507.627V225.891ZM517.692 225H518.786V218.148H521.723V225H522.786V217.195H518.786C518.786 215.906 519.137 214.789 520.552 214.789C521.114 214.789 521.606 214.961 522.161 215.547L522.723 214.719C522.098 213.984 521.13 213.797 520.434 213.797C518.395 213.797 517.708 215.43 517.708 217.195H516.544V218.148H517.692V225ZM527.492 224.141C527.133 224.141 527.102 223.719 527.102 223.695V213.961H525.93V223.422C525.93 224.367 526.008 225.156 527.195 225.156C527.586 225.156 527.992 225.078 528.242 225V224.062C528.07 224.094 527.758 224.141 527.492 224.141ZM533.222 225.094C534.472 225.094 535.355 224.75 536.214 223.891L535.417 223.25C534.808 223.891 534.136 224.062 533.206 224.062C531.698 224.062 530.925 222.875 530.941 221.492H536.378C536.378 221.492 536.417 221.289 536.417 221.195C536.417 219.07 535.644 217.094 533.089 217.094C530.847 217.094 529.714 219.047 529.714 221.141C529.714 223.266 530.863 225.094 533.222 225.094ZM530.941 220.539C530.995 219.219 531.675 218.133 533.089 218.133C534.589 218.133 535.308 219.125 535.3 220.539H530.941ZM539.248 225H540.795V223.484H539.248V225ZM544.275 228.422H545.447V223.938C545.947 224.672 546.736 225.156 547.869 225.156C549.908 225.156 551.009 223.32 551.009 221.094C551.009 218.867 549.908 217.031 547.869 217.031C546.728 217.031 545.939 217.531 545.447 218.258V217.195H544.275V228.422ZM547.556 224.133C546.009 224.133 545.33 222.688 545.33 221.094C545.33 219.516 546.009 218.062 547.556 218.062C549.158 218.062 549.845 219.516 549.845 221.094C549.845 222.688 549.158 224.133 547.556 224.133ZM553.419 225H554.583V220.562C554.583 219.289 555.637 218.172 556.895 218.172C558.247 218.172 558.552 219.312 558.552 220.375V225H559.723V220.258C559.723 218.523 558.981 217.062 557.036 217.062C556.036 217.062 555.083 217.602 554.583 218.422V217.195H553.419V225ZM565.289 223.992C564.211 223.844 563.203 223.609 563.203 222.805C563.203 222.539 563.336 222.352 563.539 222.195C563.969 222.406 564.469 222.523 565.008 222.523C566.633 222.523 567.898 221.516 567.898 219.836C567.898 219.367 567.797 218.938 567.602 218.562L568.859 217.578L568.203 216.75L567.023 217.812C566.523 217.359 565.82 217.094 565.008 217.094C563.367 217.094 562.094 218.164 562.094 219.82C562.094 220.539 562.336 221.141 562.742 221.602C562.305 221.977 562.18 222.43 562.18 222.883C562.18 223.68 562.594 224.172 563.164 224.492L562.039 225.625C562.023 225.734 562.016 225.828 562.016 225.922C562.016 227.414 563.352 228.578 565.383 228.578C567.031 228.578 568.508 227.812 568.508 226.195C568.508 224.445 566.883 224.203 565.289 223.992ZM564.992 218.016C566.055 218.016 566.727 218.836 566.727 219.805C566.727 220.844 566.047 221.555 564.992 221.555C563.945 221.555 563.273 220.852 563.273 219.805C563.273 218.859 563.93 218.016 564.992 218.016ZM565.484 227.539C563.961 227.539 563.109 226.734 563.094 225.945L564.016 224.82C564.32 224.914 564.641 224.969 564.953 225.023C566.242 225.242 567.469 225.281 567.469 226.281C567.469 227.141 566.508 227.539 565.484 227.539Z" fill="#272A2D"/>
<rect x="406" y="181" width="254" height="4" fill="#EBEEF2"/>
<rect x="406" y="245" width="254" height="4" fill="#155DA1"/>
<rect x="406" y="181" width="151" height="4" fill="#155DA1"/>
<path d="M656 154L648 162" stroke="#272A2D" stroke-width="2" stroke-linecap="round" stroke-linejoin="round"/>
<path d="M648 154L656 162" stroke="#272A2D" stroke-width="2" stroke-linecap="round" stroke-linejoin="round"/>
<path d="M656 216L648 224" stroke="#272A2D" stroke-width="2" stroke-linecap="round" stroke-linejoin="round"/>
<path d="M648 216L656 224" stroke="#272A2D" stroke-width="2" stroke-linecap="round" stroke-linejoin="round"/>
<defs>
<filter id="filter0_d" x="39" y="75" width="693" height="406" filterUnits="userSpaceOnUse" color-interpolation-filters="sRGB">
<feFlood flood-opacity="0" result="BackgroundImageFix"/>
<feColorMatrix in="SourceAlpha" type="matrix" values="0 0 0 0 0 0 0 0 0 0 0 0 0 0 0 0 0 0 127 0"/>
<feOffset dy="2"/>
<feGaussianBlur stdDeviation="2"/>
<feColorMatrix type="matrix" values="0 0 0 0 0 0 0 0 0 0 0 0 0 0 0 0 0 0 0.153109 0"/>
<feBlend mode="normal" in2="BackgroundImageFix" result="effect1_dropShadow"/>
<feBlend mode="normal" in="SourceGraphic" in2="effect1_dropShadow" result="shape"/>
</filter>
</defs>
</svg>
