<svg width="820" height="545" viewBox="0 0 820 545" fill="none" xmlns="http://www.w3.org/2000/svg">
<g filter="url(#filter0_d)">
<rect x="4" width="812" height="537" fill="#FCFCFC"/>
<g filter="url(#filter1_d)">
<rect x="51" y="68" width="685" height="398" rx="4" fill="white"/>
</g>
<path fill-rule="evenodd" clip-rule="evenodd" d="M423.5 228H413.5C412.119 228 411 229.084 411 230.421V249.789C411 251.127 412.119 252.211 413.5 252.211H428.5C429.881 252.211 431 251.127 431 249.789V235.263L423.5 228Z" stroke="#155DA1" stroke-width="2" stroke-linecap="round" stroke-linejoin="round"/>
<path d="M423.632 228V235.368H431" stroke="#155DA1" stroke-width="2" stroke-linecap="round" stroke-linejoin="round"/>
<path d="M426.789 241.158H416.263" stroke="#155DA1" stroke-width="2" stroke-linecap="round" stroke-linejoin="round"/>
<path d="M426.789 246.421H416.263" stroke="#155DA1" stroke-width="2" stroke-linecap="round" stroke-linejoin="round"/>
<path d="M418.369 236.947H416.79H415.211" stroke="#155DA1" stroke-width="2" stroke-linecap="round" stroke-linejoin="round"/>
<path d="M446.828 248.18C448.047 248.18 448.961 247.352 449.281 246.68V248H450.438V240.195H449.281V244.586C449.281 246.047 448.203 247.172 446.945 247.172C445.617 247.172 445.305 245.93 445.305 244.867V240.195H444.141V244.82C444.141 246.633 444.898 248.18 446.828 248.18ZM453.409 251.422H454.581V246.938C455.081 247.672 455.87 248.156 457.003 248.156C459.042 248.156 460.144 246.32 460.144 244.094C460.144 241.867 459.042 240.031 457.003 240.031C455.863 240.031 455.073 240.531 454.581 241.258V240.195H453.409V251.422ZM456.691 247.133C455.144 247.133 454.464 245.688 454.464 244.094C454.464 242.516 455.144 241.062 456.691 241.062C458.292 241.062 458.98 242.516 458.98 244.094C458.98 245.688 458.292 247.133 456.691 247.133ZM464.108 247.141C463.748 247.141 463.717 246.719 463.717 246.695V236.961H462.545V246.422C462.545 247.367 462.623 248.156 463.811 248.156C464.202 248.156 464.608 248.078 464.858 248V247.062C464.686 247.094 464.373 247.141 464.108 247.141ZM470.009 248.156C472.189 248.156 473.712 246.352 473.712 244.125C473.712 241.906 472.189 240.094 470.009 240.094C467.798 240.094 466.314 241.906 466.314 244.125C466.314 246.352 467.798 248.156 470.009 248.156ZM470.009 247.125C468.283 247.125 467.619 245.688 467.619 244.125C467.619 242.562 468.283 241.133 470.009 241.133C471.752 241.133 472.408 242.562 472.408 244.125C472.408 245.688 471.752 247.125 470.009 247.125ZM477.888 248.156C478.997 248.156 480.059 247.664 480.63 246.492L480.653 248H481.645V243.211C481.645 241.312 480.575 240.062 478.591 240.062C477.302 240.062 476.341 240.594 475.645 241.562L476.497 242.227C476.872 241.688 477.544 241.078 478.661 241.078C480.075 241.078 480.575 242.07 480.575 243.539H478.786C476.575 243.539 475.333 244.266 475.333 245.828C475.333 247.297 476.419 248.156 477.888 248.156ZM478.02 247.172C477.208 247.172 476.544 246.789 476.544 245.859C476.544 244.82 477.356 244.422 478.903 244.422H480.575C480.575 245.68 479.622 247.172 478.02 247.172ZM489.438 236.961V241.258C488.922 240.508 488.133 240.031 487 240.031C485.008 240.031 483.875 241.859 483.875 244.094C483.875 246.32 485.008 248.156 487.008 248.156C488.18 248.156 488.938 247.656 489.445 246.914L489.469 248H490.609V236.961H489.438ZM487.305 247.094C485.734 247.094 485.062 245.688 485.062 244.094C485.062 242.516 485.734 241.109 487.305 241.109C488.898 241.109 489.539 242.516 489.539 244.094C489.539 245.695 488.898 247.094 487.305 247.094ZM496.472 248.094C497.722 248.094 498.605 247.75 499.464 246.891L498.667 246.25C498.058 246.891 497.386 247.062 496.456 247.062C494.948 247.062 494.175 245.875 494.191 244.492H499.628C499.628 244.492 499.667 244.289 499.667 244.195C499.667 242.07 498.894 240.094 496.339 240.094C494.097 240.094 492.964 242.047 492.964 244.141C492.964 246.266 494.112 248.094 496.472 248.094ZM494.191 243.539C494.245 242.219 494.925 241.133 496.339 241.133C497.839 241.133 498.558 242.125 498.55 243.539H494.191ZM507.006 236.961V241.258C506.491 240.508 505.702 240.031 504.569 240.031C502.577 240.031 501.444 241.859 501.444 244.094C501.444 246.32 502.577 248.156 504.577 248.156C505.748 248.156 506.506 247.656 507.014 246.914L507.037 248H508.178V236.961H507.006ZM504.873 247.094C503.303 247.094 502.631 245.688 502.631 244.094C502.631 242.516 503.303 241.109 504.873 241.109C506.467 241.109 507.108 242.516 507.108 244.094C507.108 245.695 506.467 247.094 504.873 247.094ZM511.627 248.891H517.72V248H511.627V248.891ZM521.692 248H522.786V241.148H525.723V248H526.786V240.195H522.786C522.786 238.906 523.137 237.789 524.552 237.789C525.114 237.789 525.606 237.961 526.161 238.547L526.723 237.719C526.098 236.984 525.13 236.797 524.434 236.797C522.395 236.797 521.708 238.43 521.708 240.195H520.544V241.148H521.692V248ZM531.492 247.141C531.133 247.141 531.102 246.719 531.102 246.695V236.961H529.93V246.422C529.93 247.367 530.008 248.156 531.195 248.156C531.586 248.156 531.992 248.078 532.242 248V247.062C532.07 247.094 531.758 247.141 531.492 247.141ZM537.222 248.094C538.472 248.094 539.355 247.75 540.214 246.891L539.417 246.25C538.808 246.891 538.136 247.062 537.206 247.062C535.698 247.062 534.925 245.875 534.941 244.492H540.378C540.378 244.492 540.417 244.289 540.417 244.195C540.417 242.07 539.644 240.094 537.089 240.094C534.847 240.094 533.714 242.047 533.714 244.141C533.714 246.266 534.863 248.094 537.222 248.094ZM534.941 243.539C534.995 242.219 535.675 241.133 537.089 241.133C538.589 241.133 539.308 242.125 539.3 243.539H534.941ZM543.248 248H544.795V246.484H543.248V248ZM548.275 251.422H549.447V246.938C549.947 247.672 550.736 248.156 551.869 248.156C553.908 248.156 555.009 246.32 555.009 244.094C555.009 241.867 553.908 240.031 551.869 240.031C550.728 240.031 549.939 240.531 549.447 241.258V240.195H548.275V251.422ZM551.556 247.133C550.009 247.133 549.33 245.688 549.33 244.094C549.33 242.516 550.009 241.062 551.556 241.062C553.158 241.062 553.845 242.516 553.845 244.094C553.845 245.688 553.158 247.133 551.556 247.133ZM557.419 248H558.583V243.562C558.583 242.289 559.637 241.172 560.895 241.172C562.247 241.172 562.552 242.312 562.552 243.375V248H563.723V243.258C563.723 241.523 562.981 240.062 561.036 240.062C560.036 240.062 559.083 240.602 558.583 241.422V240.195H557.419V248ZM569.289 246.992C568.211 246.844 567.203 246.609 567.203 245.805C567.203 245.539 567.336 245.352 567.539 245.195C567.969 245.406 568.469 245.523 569.008 245.523C570.633 245.523 571.898 244.516 571.898 242.836C571.898 242.367 571.797 241.938 571.602 241.562L572.859 240.578L572.203 239.75L571.023 240.812C570.523 240.359 569.82 240.094 569.008 240.094C567.367 240.094 566.094 241.164 566.094 242.82C566.094 243.539 566.336 244.141 566.742 244.602C566.305 244.977 566.18 245.43 566.18 245.883C566.18 246.68 566.594 247.172 567.164 247.492L566.039 248.625C566.023 248.734 566.016 248.828 566.016 248.922C566.016 250.414 567.352 251.578 569.383 251.578C571.031 251.578 572.508 250.812 572.508 249.195C572.508 247.445 570.883 247.203 569.289 246.992ZM568.992 241.016C570.055 241.016 570.727 241.836 570.727 242.805C570.727 243.844 570.047 244.555 568.992 244.555C567.945 244.555 567.273 243.852 567.273 242.805C567.273 241.859 567.93 241.016 568.992 241.016ZM569.484 250.539C567.961 250.539 567.109 249.734 567.094 248.945L568.016 247.82C568.32 247.914 568.641 247.969 568.953 248.023C570.242 248.242 571.469 248.281 571.469 249.281C571.469 250.141 570.508 250.539 569.484 250.539Z" fill="#272A2D"/>
<rect x="410" y="268" width="254" height="4" fill="#155DA1"/>
<path d="M660 239L652 247" stroke="#272A2D" stroke-width="2" stroke-linecap="round" stroke-linejoin="round"/>
<path d="M652 239L660 247" stroke="#272A2D" stroke-width="2" stroke-linecap="round" stroke-linejoin="round"/>
<path d="M88.282 117.18C91.216 117.18 92.8 115.524 92.8 112.374V104.454H91.522V112.284C91.522 114.75 90.478 115.92 88.282 115.92C86.104 115.92 85.06 114.768 85.06 112.338V104.454H83.782V112.464C83.782 115.542 85.366 117.18 88.282 117.18ZM100.612 107.964C99.352 107.964 98.344 108.45 97.678 109.314V108.126H96.436V120.672H97.678V115.812C98.326 116.64 99.316 117.144 100.612 117.144C103.204 117.144 104.554 115.2 104.554 112.554C104.554 109.782 103.078 107.964 100.612 107.964ZM100.432 116.046C98.56 116.046 97.57 114.57 97.57 112.554C97.57 110.448 98.65 109.062 100.432 109.062C102.232 109.062 103.312 110.448 103.312 112.554C103.312 114.57 102.322 116.046 100.432 116.046ZM109.044 117.144C109.44 117.144 109.89 117.036 110.268 116.91L110.25 115.848C109.98 115.938 109.674 116.01 109.404 116.01C108.81 116.01 108.594 115.614 108.594 115.002V104.454H107.352V115.074C107.352 116.46 108.018 117.144 109.044 117.144ZM116.049 117.144C118.587 117.144 120.315 115.164 120.315 112.554C120.315 109.926 118.569 107.982 116.049 107.982C113.511 107.982 111.801 109.926 111.801 112.554C111.801 115.182 113.511 117.144 116.049 117.144ZM116.049 116.046C114.159 116.046 113.043 114.57 113.043 112.554C113.043 110.556 114.141 109.08 116.049 109.08C117.939 109.08 119.073 110.538 119.073 112.554C119.073 114.534 117.957 116.046 116.049 116.046ZM126.201 107.982C124.689 107.982 123.537 108.558 122.583 109.8L123.483 110.556C124.203 109.566 125.067 109.08 126.183 109.08C127.677 109.08 128.487 109.926 128.487 111.474V111.888H126.669C124.923 111.888 123.969 112.05 123.285 112.446C122.637 112.842 122.277 113.526 122.277 114.426C122.277 116.136 123.411 117.144 125.337 117.144C126.741 117.144 127.821 116.622 128.523 115.632L128.595 117H129.729V111.474C129.729 109.26 128.433 107.982 126.201 107.982ZM125.697 116.118C124.365 116.118 123.519 115.488 123.519 114.498C123.519 113.994 123.681 113.598 124.005 113.346C124.437 113.004 125.139 112.896 126.777 112.896H128.487V113.022C128.487 114.912 127.407 116.118 125.697 116.118ZM139.23 104.454V109.314C138.564 108.45 137.556 107.964 136.296 107.964C133.83 107.964 132.354 109.782 132.354 112.554C132.354 115.2 133.704 117.144 136.296 117.144C137.592 117.144 138.582 116.64 139.23 115.812V117H140.472V104.454H139.23ZM136.476 116.046C134.586 116.046 133.596 114.57 133.596 112.554C133.596 110.448 134.676 109.062 136.476 109.062C138.258 109.062 139.338 110.448 139.338 112.554C139.338 114.57 138.348 116.046 136.476 116.046ZM152.343 107.982C150.831 107.982 149.679 108.558 148.725 109.8L149.625 110.556C150.345 109.566 151.209 109.08 152.325 109.08C153.819 109.08 154.629 109.926 154.629 111.474V111.888H152.811C151.065 111.888 150.111 112.05 149.427 112.446C148.779 112.842 148.419 113.526 148.419 114.426C148.419 116.136 149.553 117.144 151.479 117.144C152.883 117.144 153.963 116.622 154.665 115.632L154.737 117H155.871V111.474C155.871 109.26 154.575 107.982 152.343 107.982ZM151.839 116.118C150.507 116.118 149.661 115.488 149.661 114.498C149.661 113.994 149.823 113.598 150.147 113.346C150.579 113.004 151.281 112.896 152.919 112.896H154.629V113.022C154.629 114.912 153.549 116.118 151.839 116.118ZM170.54 108.126H165.86V107.424C165.86 105.966 166.562 105.336 167.84 105.336C168.704 105.336 169.352 105.588 169.946 106.02L170.54 105.156C169.73 104.598 168.866 104.31 167.786 104.31C166.04 104.31 164.618 105.3 164.618 107.406V108.126H163.088V109.17H164.618V117H165.86V109.17H169.298V117H170.54V108.126ZM175.639 117.144C176.035 117.144 176.485 117.036 176.863 116.91L176.845 115.848C176.575 115.938 176.269 116.01 175.999 116.01C175.405 116.01 175.189 115.614 175.189 115.002V104.454H173.947V115.074C173.947 116.46 174.613 117.144 175.639 117.144ZM186.244 112.122C186.244 110.106 185.11 107.982 182.392 107.982C179.818 107.982 178.45 110.106 178.45 112.608C178.45 115.128 179.836 117.144 182.536 117.144C183.904 117.144 184.93 116.748 185.974 115.65L185.11 114.894C184.3 115.758 183.526 116.01 182.554 116.01C180.808 116.01 179.728 114.84 179.692 112.896H186.19C186.226 112.68 186.244 112.374 186.244 112.122ZM182.392 109.026C184.03 109.026 184.948 110.124 185.038 111.564C185.038 111.726 185.056 111.816 185.056 111.852H179.692C179.8 110.286 180.79 109.026 182.392 109.026Z" fill="#0A162A"/>
<rect x="82" y="134" width="268" height="284" rx="4" fill="white" stroke="#155DA1" stroke-dasharray="12 2"/>
<path d="M139.454 260H142.6C146.608 260 148.885 257.794 148.885 253.883C148.885 249.805 146.652 247.581 142.618 247.581H139.454V260ZM140.851 258.726V248.829H142.583C145.861 248.829 147.487 250.578 147.487 253.786C147.487 257.205 145.281 258.726 142.389 258.726H140.851ZM151.769 260H153.087V256.265C153.087 254.05 153.904 252.213 155.513 252.213C155.882 252.213 156.304 252.318 156.629 252.608L157.086 251.492C156.708 251.22 156.049 251.088 155.601 251.088C154.59 251.088 153.395 251.765 153.104 252.925V251.22H151.769V260ZM161.121 260.176C162.369 260.176 163.565 259.622 164.206 258.304L164.233 260H165.349V254.612C165.349 252.477 164.145 251.07 161.912 251.07C160.462 251.07 159.381 251.668 158.599 252.758L159.557 253.505C159.979 252.898 160.735 252.213 161.991 252.213C163.582 252.213 164.145 253.329 164.145 254.981H162.132C159.645 254.981 158.247 255.799 158.247 257.557C158.247 259.209 159.469 260.176 161.121 260.176ZM161.271 259.068C160.357 259.068 159.61 258.638 159.61 257.592C159.61 256.423 160.524 255.975 162.264 255.975H164.145C164.145 257.39 163.072 259.068 161.271 259.068ZM171.555 258.866C170.342 258.699 169.208 258.436 169.208 257.53C169.208 257.231 169.358 257.021 169.586 256.845C170.07 257.082 170.632 257.214 171.239 257.214C173.067 257.214 174.491 256.08 174.491 254.19C174.491 253.663 174.376 253.18 174.157 252.758L175.572 251.65L174.833 250.719L173.506 251.914C172.944 251.404 172.153 251.105 171.239 251.105C169.393 251.105 167.96 252.31 167.96 254.173C167.96 254.981 168.233 255.658 168.69 256.177C168.198 256.599 168.057 257.108 168.057 257.618C168.057 258.515 168.523 259.068 169.164 259.429L167.899 260.703C167.881 260.826 167.872 260.932 167.872 261.037C167.872 262.716 169.375 264.025 171.661 264.025C173.515 264.025 175.176 263.164 175.176 261.345C175.176 259.376 173.348 259.104 171.555 258.866ZM171.221 252.143C172.416 252.143 173.172 253.065 173.172 254.155C173.172 255.324 172.408 256.124 171.221 256.124C170.043 256.124 169.287 255.333 169.287 254.155C169.287 253.092 170.026 252.143 171.221 252.143ZM171.775 262.856C170.061 262.856 169.103 261.951 169.085 261.063L170.122 259.798C170.465 259.903 170.826 259.965 171.177 260.026C172.627 260.272 174.007 260.316 174.007 261.441C174.007 262.408 172.926 262.856 171.775 262.856ZM184.767 260.176C186.015 260.176 187.211 259.622 187.852 258.304L187.879 260H188.995V254.612C188.995 252.477 187.791 251.07 185.558 251.07C184.108 251.07 183.027 251.668 182.245 252.758L183.203 253.505C183.625 252.898 184.381 252.213 185.637 252.213C187.228 252.213 187.791 253.329 187.791 254.981H185.778C183.291 254.981 181.893 255.799 181.893 257.557C181.893 259.209 183.115 260.176 184.767 260.176ZM184.917 259.068C184.003 259.068 183.256 258.638 183.256 257.592C183.256 256.423 184.17 255.975 185.91 255.975H187.791C187.791 257.39 186.719 259.068 184.917 259.068ZM192.081 260H193.391V255.008C193.391 253.575 194.577 252.318 195.992 252.318C197.513 252.318 197.855 253.602 197.855 254.797V260H199.174V254.665C199.174 252.714 198.339 251.07 196.15 251.07C195.025 251.07 193.953 251.677 193.391 252.6V251.22H192.081V260ZM207.92 247.581V252.415C207.34 251.571 206.452 251.035 205.178 251.035C202.937 251.035 201.662 253.092 201.662 255.605C201.662 258.11 202.937 260.176 205.187 260.176C206.505 260.176 207.358 259.613 207.929 258.778L207.955 260H209.238V247.581H207.92ZM205.521 258.98C203.754 258.98 202.998 257.398 202.998 255.605C202.998 253.83 203.754 252.248 205.521 252.248C207.314 252.248 208.034 253.83 208.034 255.605C208.034 257.407 207.314 258.98 205.521 258.98ZM223.356 247.581V252.415C222.776 251.571 221.888 251.035 220.614 251.035C218.373 251.035 217.098 253.092 217.098 255.605C217.098 258.11 218.373 260.176 220.623 260.176C221.941 260.176 222.794 259.613 223.365 258.778L223.391 260H224.674V247.581H223.356ZM220.957 258.98C219.19 258.98 218.434 257.398 218.434 255.605C218.434 253.83 219.19 252.248 220.957 252.248C222.75 252.248 223.47 253.83 223.47 255.605C223.47 257.407 222.75 258.98 220.957 258.98ZM227.98 260H229.299V256.265C229.299 254.05 230.116 252.213 231.724 252.213C232.094 252.213 232.515 252.318 232.841 252.608L233.298 251.492C232.92 251.22 232.261 251.088 231.812 251.088C230.802 251.088 229.606 251.765 229.316 252.925V251.22H227.98V260ZM238.704 260.176C241.156 260.176 242.87 258.146 242.87 255.641C242.87 253.145 241.156 251.105 238.704 251.105C236.217 251.105 234.547 253.145 234.547 255.641C234.547 258.146 236.217 260.176 238.704 260.176ZM238.704 259.016C236.762 259.016 236.015 257.398 236.015 255.641C236.015 253.883 236.762 252.274 238.704 252.274C240.664 252.274 241.402 253.883 241.402 255.641C241.402 257.398 240.664 259.016 238.704 259.016ZM245.473 263.85H246.791V258.805C247.354 259.631 248.241 260.176 249.516 260.176C251.81 260.176 253.049 258.11 253.049 255.605C253.049 253.101 251.81 251.035 249.516 251.035C248.233 251.035 247.345 251.598 246.791 252.415V251.22H245.473V263.85ZM249.164 259.024C247.424 259.024 246.659 257.398 246.659 255.605C246.659 253.83 247.424 252.195 249.164 252.195C250.966 252.195 251.739 253.83 251.739 255.605C251.739 257.398 250.966 259.024 249.164 259.024ZM260.909 260H262.201V255.192C262.201 253.646 263.361 252.31 264.864 252.31C266.34 252.31 266.683 253.602 266.683 254.797V260H268.01V254.586C268.01 252.714 267.167 251.07 265.057 251.07C263.923 251.07 262.79 251.694 262.201 252.661V247.581H260.909V260ZM274.357 260.105C275.763 260.105 276.757 259.719 277.723 258.752L276.827 258.031C276.141 258.752 275.386 258.945 274.34 258.945C272.643 258.945 271.773 257.609 271.791 256.054H277.908C277.908 256.054 277.952 255.825 277.952 255.72C277.952 253.329 277.082 251.105 274.208 251.105C271.685 251.105 270.411 253.303 270.411 255.658C270.411 258.049 271.703 260.105 274.357 260.105ZM271.791 254.981C271.852 253.496 272.617 252.274 274.208 252.274C275.895 252.274 276.704 253.391 276.695 254.981H271.791ZM280.528 260H281.847V256.265C281.847 254.05 282.664 252.213 284.272 252.213C284.642 252.213 285.063 252.318 285.389 252.608L285.846 251.492C285.468 251.22 284.809 251.088 284.36 251.088C283.35 251.088 282.154 251.765 281.864 252.925V251.22H280.528V260ZM291.059 260.105C292.465 260.105 293.458 259.719 294.425 258.752L293.529 258.031C292.843 258.752 292.087 258.945 291.041 258.945C289.345 258.945 288.475 257.609 288.492 256.054H294.61C294.61 256.054 294.654 255.825 294.654 255.72C294.654 253.329 293.783 251.105 290.909 251.105C288.387 251.105 287.113 253.303 287.113 255.658C287.113 258.049 288.404 260.105 291.059 260.105ZM288.492 254.981C288.554 253.496 289.319 252.274 290.909 252.274C292.597 252.274 293.405 253.391 293.397 254.981H288.492Z" fill="#8B9199"/>
<path d="M212.817 295.176C215.269 295.176 216.983 293.146 216.983 290.641C216.983 288.145 215.269 286.105 212.817 286.105C210.329 286.105 208.66 288.145 208.66 290.641C208.66 293.146 210.329 295.176 212.817 295.176ZM212.817 294.016C210.874 294.016 210.127 292.398 210.127 290.641C210.127 288.883 210.874 287.274 212.817 287.274C214.777 287.274 215.515 288.883 215.515 290.641C215.515 292.398 214.777 294.016 212.817 294.016ZM219.568 295H220.886V291.265C220.886 289.05 221.704 287.213 223.312 287.213C223.681 287.213 224.103 287.318 224.428 287.608L224.885 286.492C224.507 286.22 223.848 286.088 223.4 286.088C222.389 286.088 221.194 286.765 220.904 287.925V286.22H219.568V295Z" fill="#8B9199"/>
<rect x="136" y="319" width="160" height="48" fill="#155DA1"/>
<path d="M160.648 338.396C161.105 338.396 161.525 338.503 161.908 338.718C162.291 338.923 162.594 339.208 162.818 339.572C163.051 339.927 163.168 340.319 163.168 340.748C163.168 341.401 163.014 341.905 162.706 342.26C162.398 342.615 162.006 342.857 161.53 342.988V343.058C162.043 343.161 162.482 343.399 162.846 343.772C163.21 344.145 163.392 344.701 163.392 345.438C163.392 345.905 163.271 346.334 163.028 346.726C162.795 347.118 162.473 347.431 162.062 347.664C161.661 347.888 161.217 348 160.732 348H155.888V338.396H160.648ZM160.032 342.288C160.312 342.288 160.559 342.181 160.774 341.966C160.989 341.751 161.096 341.481 161.096 341.154C161.096 340.762 160.989 340.482 160.774 340.314C160.559 340.137 160.312 340.048 160.032 340.048H157.932V342.288H160.032ZM160.186 346.264C160.494 346.264 160.755 346.157 160.97 345.942C161.185 345.727 161.292 345.466 161.292 345.158V345.032C161.292 344.724 161.185 344.463 160.97 344.248C160.755 344.033 160.494 343.926 160.186 343.926H157.932V346.264H160.186ZM174.975 347.916C174.667 348.037 174.266 348.098 173.771 348.098C173.295 348.098 172.908 347.981 172.609 347.748C172.311 347.515 172.161 347.123 172.161 346.572C172.161 345.769 172.054 345.144 171.839 344.696C171.634 344.248 171.242 344.024 170.663 344.024H169.039V348H166.911V338.396H171.209C172.124 338.396 172.889 338.583 173.505 338.956C174.131 339.329 174.443 339.936 174.443 340.776C174.443 341.112 174.369 341.443 174.219 341.77C174.07 342.097 173.86 342.377 173.589 342.61C173.328 342.843 173.039 342.988 172.721 343.044V343.114C173.132 343.245 173.491 343.525 173.799 343.954C174.107 344.383 174.261 344.957 174.261 345.676C174.261 346.703 174.499 347.291 174.975 347.44V347.916ZM171.139 342.33C171.447 342.33 171.709 342.227 171.923 342.022C172.147 341.817 172.259 341.569 172.259 341.28V341.182C172.259 340.874 172.152 340.622 171.937 340.426C171.732 340.221 171.466 340.118 171.139 340.118H169.039V342.33H171.139ZM186.454 343.884C186.454 344.761 186.263 345.522 185.88 346.166C185.497 346.81 184.979 347.3 184.326 347.636C183.682 347.972 182.963 348.14 182.17 348.14C181.377 348.14 180.653 347.972 180 347.636C179.356 347.3 178.843 346.81 178.46 346.166C178.077 345.522 177.886 344.761 177.886 343.884V342.512C177.886 341.635 178.077 340.874 178.46 340.23C178.843 339.586 179.356 339.096 180 338.76C180.653 338.424 181.377 338.256 182.17 338.256C182.963 338.256 183.682 338.424 184.326 338.76C184.979 339.096 185.497 339.586 185.88 340.23C186.263 340.874 186.454 341.635 186.454 342.512V343.884ZM184.186 342.204C184.186 341.495 183.999 340.949 183.626 340.566C183.253 340.174 182.767 339.978 182.17 339.978C181.573 339.978 181.087 340.174 180.714 340.566C180.341 340.949 180.154 341.495 180.154 342.204V344.192C180.154 344.901 180.341 345.452 180.714 345.844C181.087 346.227 181.573 346.418 182.17 346.418C182.767 346.418 183.253 346.227 183.626 345.844C183.999 345.452 184.186 344.901 184.186 344.192V342.204ZM194.306 348H191.912L189.224 338.396H191.478L193.172 344.682H193.242L194.95 338.396H197.12L198.814 344.682H198.884L200.578 338.396H202.622L199.92 348H197.554L195.986 342.232H195.902L194.306 348ZM210.819 341.112C210.819 340.757 210.679 340.482 210.399 340.286C210.119 340.081 209.732 339.978 209.237 339.978C208.724 339.978 208.323 340.062 208.033 340.23C207.753 340.389 207.613 340.603 207.613 340.874C207.613 341.107 207.702 341.303 207.879 341.462C208.057 341.611 208.281 341.733 208.551 341.826C208.831 341.919 209.209 342.022 209.685 342.134C210.385 342.302 210.959 342.475 211.407 342.652C211.865 342.829 212.252 343.105 212.569 343.478C212.896 343.851 213.059 344.351 213.059 344.976C213.059 346.068 212.705 346.871 211.995 347.384C211.295 347.888 210.329 348.14 209.097 348.14C207.977 348.14 207.049 347.897 206.311 347.412C205.583 346.917 205.219 346.171 205.219 345.172L205.233 344.864H207.277L207.263 345.088C207.263 345.499 207.417 345.825 207.725 346.068C208.033 346.301 208.467 346.418 209.027 346.418C209.681 346.418 210.147 346.315 210.427 346.11C210.717 345.905 210.861 345.643 210.861 345.326C210.861 345.083 210.773 344.887 210.595 344.738C210.427 344.579 210.208 344.458 209.937 344.374C209.676 344.281 209.307 344.178 208.831 344.066C208.122 343.889 207.543 343.711 207.095 343.534C206.647 343.357 206.26 343.072 205.933 342.68C205.607 342.288 205.443 341.761 205.443 341.098C205.443 340.482 205.611 339.959 205.947 339.53C206.283 339.101 206.731 338.783 207.291 338.578C207.861 338.363 208.495 338.256 209.195 338.256C210.269 338.256 211.146 338.494 211.827 338.97C212.509 339.437 212.849 340.137 212.849 341.07V341.238H210.819V341.112ZM216.624 348V338.396H223.386L223.148 340.118H218.752V342.218H222.854V343.94H218.752V346.278H223.19L223.428 348H216.624ZM238.34 340.118H234.196V342.414H237.92V344.136H234.196V348H232.068V338.396H238.564L238.34 340.118ZM241.956 338.396H246.38V340.118H245.26V346.278H246.38V348H241.956V346.278H243.09V340.118H241.956V338.396ZM250.409 348V338.396H252.579V346.208H256.527L256.765 348H250.409ZM259.874 348V338.396H266.636L266.398 340.118H262.002V342.218H266.104V343.94H262.002V346.278H266.44L266.678 348H259.874ZM275.323 341.112C275.323 340.757 275.183 340.482 274.903 340.286C274.623 340.081 274.236 339.978 273.741 339.978C273.228 339.978 272.827 340.062 272.537 340.23C272.257 340.389 272.117 340.603 272.117 340.874C272.117 341.107 272.206 341.303 272.383 341.462C272.561 341.611 272.785 341.733 273.055 341.826C273.335 341.919 273.713 342.022 274.189 342.134C274.889 342.302 275.463 342.475 275.911 342.652C276.369 342.829 276.756 343.105 277.073 343.478C277.4 343.851 277.563 344.351 277.563 344.976C277.563 346.068 277.209 346.871 276.499 347.384C275.799 347.888 274.833 348.14 273.601 348.14C272.481 348.14 271.553 347.897 270.815 347.412C270.087 346.917 269.723 346.171 269.723 345.172L269.737 344.864H271.781L271.767 345.088C271.767 345.499 271.921 345.825 272.229 346.068C272.537 346.301 272.971 346.418 273.531 346.418C274.185 346.418 274.651 346.315 274.931 346.11C275.221 345.905 275.365 345.643 275.365 345.326C275.365 345.083 275.277 344.887 275.099 344.738C274.931 344.579 274.712 344.458 274.441 344.374C274.18 344.281 273.811 344.178 273.335 344.066C272.626 343.889 272.047 343.711 271.599 343.534C271.151 343.357 270.764 343.072 270.437 342.68C270.111 342.288 269.947 341.761 269.947 341.098C269.947 340.482 270.115 339.959 270.451 339.53C270.787 339.101 271.235 338.783 271.795 338.578C272.365 338.363 272.999 338.256 273.699 338.256C274.773 338.256 275.65 338.494 276.331 338.97C277.013 339.437 277.353 340.137 277.353 341.07V341.238H275.323V341.112Z" fill="white"/>
<path d="M438.242 203H439.5V192.984H443.219V191.961H434.516V192.984H438.242V203ZM445.36 203H446.509V198.727C446.509 197.352 447.54 196.164 448.876 196.164C450.189 196.164 450.493 197.312 450.493 198.375V203H451.673V198.188C451.673 196.523 450.923 195.062 449.048 195.062C448.04 195.062 447.032 195.617 446.509 196.477V191.961H445.36V203ZM454.354 193.461H455.697V191.961H454.354V193.461ZM454.424 203H455.611V195.195H454.424V203ZM460.714 203.156C462.089 203.156 463.409 202.344 463.409 200.703C463.409 197.75 459.152 198.984 459.152 197.18C459.152 196.547 459.675 196.07 460.519 196.07C461.339 196.07 461.862 196.523 462.198 197.117L463.12 196.586C462.667 195.789 461.784 195.078 460.566 195.078C459.23 195.078 458.081 195.922 458.081 197.359C458.081 200.117 462.284 198.836 462.284 200.875C462.284 201.766 461.503 202.117 460.761 202.117C459.784 202.117 459.066 201.508 458.8 200.719L457.823 201.227C458.167 202.234 459.245 203.156 460.714 203.156ZM470.169 193.461H471.513V191.961H470.169V193.461ZM470.24 203H471.427V195.195H470.24V203ZM476.53 203.156C477.905 203.156 479.225 202.344 479.225 200.703C479.225 197.75 474.967 198.984 474.967 197.18C474.967 196.547 475.491 196.07 476.334 196.07C477.155 196.07 477.678 196.523 478.014 197.117L478.936 196.586C478.483 195.789 477.6 195.078 476.381 195.078C475.045 195.078 473.897 195.922 473.897 197.359C473.897 200.117 478.1 198.836 478.1 200.875C478.1 201.766 477.319 202.117 476.577 202.117C475.6 202.117 474.881 201.508 474.616 200.719L473.639 201.227C473.983 202.234 475.061 203.156 476.53 203.156ZM487.899 203.156C489.008 203.156 490.071 202.664 490.641 201.492L490.665 203H491.657V198.211C491.657 196.312 490.586 195.062 488.602 195.062C487.313 195.062 486.352 195.594 485.657 196.562L486.508 197.227C486.883 196.688 487.555 196.078 488.672 196.078C490.086 196.078 490.586 197.07 490.586 198.539H488.797C486.586 198.539 485.344 199.266 485.344 200.828C485.344 202.297 486.43 203.156 487.899 203.156ZM488.032 202.172C487.219 202.172 486.555 201.789 486.555 200.859C486.555 199.82 487.368 199.422 488.915 199.422H490.586C490.586 200.68 489.633 202.172 488.032 202.172ZM494.4 203H495.564V198.562C495.564 197.289 496.619 196.172 497.877 196.172C499.228 196.172 499.533 197.312 499.533 198.375V203H500.705V198.258C500.705 196.523 499.963 195.062 498.017 195.062C497.017 195.062 496.064 195.602 495.564 196.422V195.195H494.4V203ZM510.949 203.094C512.199 203.094 513.082 202.75 513.941 201.891L513.144 201.25C512.535 201.891 511.863 202.062 510.933 202.062C509.426 202.062 508.652 200.875 508.668 199.492H514.105C514.105 199.492 514.144 199.289 514.144 199.195C514.144 197.07 513.371 195.094 510.816 195.094C508.574 195.094 507.441 197.047 507.441 199.141C507.441 201.266 508.59 203.094 510.949 203.094ZM508.668 198.539C508.722 197.219 509.402 196.133 510.816 196.133C512.316 196.133 513.035 197.125 513.027 198.539H508.668ZM516.434 203H517.606V199.68C517.606 197.711 518.333 196.078 519.762 196.078C520.091 196.078 520.466 196.172 520.755 196.43L521.161 195.438C520.825 195.195 520.239 195.078 519.841 195.078C518.942 195.078 517.88 195.68 517.622 196.711V195.195H516.434V203ZM522.967 203H524.139V199.68C524.139 197.711 524.865 196.078 526.295 196.078C526.623 196.078 526.998 196.172 527.287 196.43L527.693 195.438C527.357 195.195 526.771 195.078 526.373 195.078C525.474 195.078 524.412 195.68 524.154 196.711V195.195H522.967V203ZM532.499 203.156C534.679 203.156 536.202 201.352 536.202 199.125C536.202 196.906 534.679 195.094 532.499 195.094C530.288 195.094 528.804 196.906 528.804 199.125C528.804 201.352 530.288 203.156 532.499 203.156ZM532.499 202.125C530.772 202.125 530.108 200.688 530.108 199.125C530.108 197.562 530.772 196.133 532.499 196.133C534.241 196.133 534.897 197.562 534.897 199.125C534.897 200.688 534.241 202.125 532.499 202.125ZM538.5 203H539.672V199.68C539.672 197.711 540.398 196.078 541.828 196.078C542.156 196.078 542.531 196.172 542.82 196.43L543.227 195.438C542.891 195.195 542.305 195.078 541.906 195.078C541.008 195.078 539.945 195.68 539.688 196.711V195.195H538.5V203ZM545.54 203H547.087V201.484H545.54V203Z" fill="#A62B31"/>
<path fill-rule="evenodd" clip-rule="evenodd" d="M418 206C422.418 206 426 202.418 426 198C426 193.582 422.418 190 418 190C413.582 190 410 193.582 410 198C410 202.418 413.582 206 418 206Z" stroke="#A62B31" stroke-width="1.25" stroke-linecap="round" stroke-linejoin="round"/>
<path d="M418 194.8V198" stroke="#A62B31" stroke-width="1.25" stroke-linecap="round" stroke-linejoin="round"/>
<path d="M418 201.2H418.008" stroke="#A62B31" stroke-width="1.25" stroke-linecap="round" stroke-linejoin="round"/>
<path fill-rule="evenodd" clip-rule="evenodd" d="M220.5 178H202.5C200.015 178 198 180.015 198 182.5V218.5C198 220.985 200.015 223 202.5 223H229.5C231.985 223 234 220.985 234 218.5V191.5L220.5 178Z" stroke="#155DA1" stroke-width="2" stroke-linecap="round" stroke-linejoin="round"/>
<path d="M221 178V191H234" stroke="#155DA1" stroke-width="2" stroke-linecap="round" stroke-linejoin="round"/>
<path d="M217 214V201" stroke="#155DA1" stroke-width="2" stroke-linecap="round" stroke-linejoin="round"/>
<path d="M210 208H223" stroke="#155DA1" stroke-width="2" stroke-linecap="round" stroke-linejoin="round"/>
<g opacity="0.5">
<path fill-rule="evenodd" clip-rule="evenodd" d="M423.5 134H413.5C412.119 134 411 135.084 411 136.421V155.789C411 157.127 412.119 158.211 413.5 158.211H428.5C429.881 158.211 431 157.127 431 155.789V141.263L423.5 134Z" stroke="#155DA1" stroke-width="2" stroke-linecap="round" stroke-linejoin="round"/>
<path d="M423.632 134V141.368H431" stroke="#155DA1" stroke-width="2" stroke-linecap="round" stroke-linejoin="round"/>
<path d="M426.789 147.158H416.263" stroke="#155DA1" stroke-width="2" stroke-linecap="round" stroke-linejoin="round"/>
<path d="M426.789 152.421H416.263" stroke="#155DA1" stroke-width="2" stroke-linecap="round" stroke-linejoin="round"/>
<path d="M418.369 142.947H416.79H415.211" stroke="#155DA1" stroke-width="2" stroke-linecap="round" stroke-linejoin="round"/>
</g>
<path d="M444.328 154H445.508V149.547C445.508 148.266 446.203 147.047 447.492 147.047C448.836 147.047 449.141 148.266 449.141 149.344V154H450.32V149.547C450.32 148.266 451.016 147.047 452.297 147.047C453.648 147.047 453.977 148.312 453.977 149.375V154H455.156V149.258C455.156 147.523 454.383 146.062 452.438 146.062C451.344 146.062 450.508 146.617 450.016 147.633C449.633 146.547 448.734 146.047 447.617 146.047C446.656 146.047 445.828 146.648 445.508 147.531V146.195H444.328V154ZM458.573 157.359H459.8L463.98 146.195H462.706L460.488 152.578L458.198 146.195H456.909L459.909 153.961L458.573 157.359ZM466.405 154.891H472.498V154H466.405V154.891ZM476.47 154H477.564V147.148H480.502V154H481.564V146.195H477.564C477.564 144.906 477.916 143.789 479.33 143.789C479.892 143.789 480.384 143.961 480.939 144.547L481.502 143.719C480.877 142.984 479.908 142.797 479.212 142.797C477.173 142.797 476.486 144.43 476.486 146.195H475.322V147.148H476.47V154ZM486.27 153.141C485.911 153.141 485.88 152.719 485.88 152.695V142.961H484.708V152.422C484.708 153.367 484.786 154.156 485.973 154.156C486.364 154.156 486.77 154.078 487.02 154V153.062C486.848 153.094 486.536 153.141 486.27 153.141ZM492 154.094C493.25 154.094 494.133 153.75 494.992 152.891L494.195 152.25C493.586 152.891 492.914 153.062 491.984 153.062C490.477 153.062 489.703 151.875 489.719 150.492H495.156C495.156 150.492 495.195 150.289 495.195 150.195C495.195 148.07 494.422 146.094 491.867 146.094C489.625 146.094 488.492 148.047 488.492 150.141C488.492 152.266 489.641 154.094 492 154.094ZM489.719 149.539C489.773 148.219 490.453 147.133 491.867 147.133C493.367 147.133 494.086 148.125 494.078 149.539H489.719ZM498.027 154H499.573V152.484H498.027V154ZM503.053 157.422H504.225V152.938C504.725 153.672 505.514 154.156 506.647 154.156C508.686 154.156 509.787 152.32 509.787 150.094C509.787 147.867 508.686 146.031 506.647 146.031C505.506 146.031 504.717 146.531 504.225 147.258V146.195H503.053V157.422ZM506.334 153.133C504.787 153.133 504.108 151.688 504.108 150.094C504.108 148.516 504.787 147.062 506.334 147.062C507.936 147.062 508.623 148.516 508.623 150.094C508.623 151.688 507.936 153.133 506.334 153.133ZM517.213 142.961V147.258C516.697 146.508 515.908 146.031 514.775 146.031C512.783 146.031 511.65 147.859 511.65 150.094C511.65 152.32 512.783 154.156 514.783 154.156C515.955 154.156 516.713 153.656 517.22 152.914L517.244 154H518.384V142.961H517.213ZM515.08 153.094C513.509 153.094 512.838 151.688 512.838 150.094C512.838 148.516 513.509 147.109 515.08 147.109C516.673 147.109 517.314 148.516 517.314 150.094C517.314 151.695 516.673 153.094 515.08 153.094ZM521.723 154H522.887V147.148H525.137V146.195H522.887V144.789C522.887 144.18 523.427 143.812 524.02 143.812C524.52 143.812 524.841 144.023 524.841 144.023L525.122 143.094C524.755 142.914 524.302 142.797 523.856 142.797C522.684 142.797 521.731 143.477 521.731 144.758V146.211H520.302V147.148H521.723V154Z" fill="#A62B31"/>
<rect x="410" y="174" width="254" height="4" fill="#EBEEF2"/>
<path d="M660 147L652 155" stroke="#272A2D" stroke-width="2" stroke-linecap="round" stroke-linejoin="round"/>
<path d="M652 147L660 155" stroke="#272A2D" stroke-width="2" stroke-linecap="round" stroke-linejoin="round"/>
</g>
<defs>
<filter id="filter0_d" x="0" y="0" width="820" height="545" filterUnits="userSpaceOnUse" color-interpolation-filters="sRGB">
<feFlood flood-opacity="0" result="BackgroundImageFix"/>
<feColorMatrix in="SourceAlpha" type="matrix" values="0 0 0 0 0 0 0 0 0 0 0 0 0 0 0 0 0 0 127 0"/>
<feOffset dy="4"/>
<feGaussianBlur stdDeviation="2"/>
<feColorMatrix type="matrix" values="0 0 0 0 0 0 0 0 0 0 0 0 0 0 0 0 0 0 0.25 0"/>
<feBlend mode="normal" in2="BackgroundImageFix" result="effect1_dropShadow"/>
<feBlend mode="normal" in="SourceGraphic" in2="effect1_dropShadow" result="shape"/>
</filter>
<filter id="filter1_d" x="47" y="66" width="693" height="406" filterUnits="userSpaceOnUse" color-interpolation-filters="sRGB">
<feFlood flood-opacity="0" result="BackgroundImageFix"/>
<feColorMatrix in="SourceAlpha" type="matrix" values="0 0 0 0 0 0 0 0 0 0 0 0 0 0 0 0 0 0 127 0"/>
<feOffset dy="2"/>
<feGaussianBlur stdDeviation="2"/>
<feColorMatrix type="matrix" values="0 0 0 0 0 0 0 0 0 0 0 0 0 0 0 0 0 0 0.153109 0"/>
<feBlend mode="normal" in2="BackgroundImageFix" result="effect1_dropShadow"/>
<feBlend mode="normal" in="SourceGraphic" in2="effect1_dropShadow" result="shape"/>
</filter>
</defs>
</svg>
