<svg width="30" height="30" viewBox="0 0 30 30" fill="none" xmlns="http://www.w3.org/2000/svg">
<path fill-rule="evenodd" clip-rule="evenodd" d="M15 29C22.732 29 29 22.732 29 15C29 7.26801 22.732 1 15 1C7.26801 1 1 7.26801 1 15C1 22.732 7.26801 29 15 29Z" fill="#90E19E" stroke="#256830" stroke-width="2"/>
<path d="M21.4616 8.28743C20.8794 7.79897 20.0651 7.94843 19.6411 8.61914L13.5872 18.2132L10.2523 14.302C9.76104 13.6969 8.93658 13.6677 8.41162 14.2363C7.88666 14.8013 7.85974 15.7527 8.35441 16.3542C8.35441 16.3542 12.406 21.2241 12.9882 21.7126C13.5704 22.201 14.3847 22.0516 14.8087 21.3809L21.751 10.3834C22.175 9.70904 22.0438 8.77223 21.4616 8.28743Z" fill="#256830"/>
</svg>
