<svg width="30" height="30" viewBox="0 0 30 30" fill="none" xmlns="http://www.w3.org/2000/svg">
<path fill-rule="evenodd" clip-rule="evenodd" d="M15 29C22.732 29 29 22.732 29 15C29 7.26801 22.732 1 15 1C7.26801 1 1 7.26801 1 15C1 22.732 7.26801 29 15 29Z" fill="#FFBCBF" stroke="#A62B31" stroke-width="2"/>
<path d="M17.8 15L21.4 11.4C22.2 10.6 22.2 9.4 21.4 8.6C20.6 7.8 19.4 7.8 18.6 8.6L15 12.2L11.4 8.6C10.6 7.8 9.4 7.8 8.6 8.6C7.8 9.4 7.8 10.6 8.6 11.4L12.2 15L8.6 18.6C7.8 19.4 7.8 20.6 8.6 21.4C9 21.8 9.5 22 10 22C10.5 22 11 21.8 11.4 21.4L15 17.8L18.6 21.4C19 21.8 19.5 22 20 22C20.5 22 21 21.8 21.4 21.4C22.2 20.6 22.2 19.4 21.4 18.6L17.8 15Z" fill="#A62B31"/>
</svg>
