<?xml version="1.0" encoding="UTF-8"?>
<svg width="1044px" height="584px" viewBox="0 0 1044 584" version="1.1" xmlns="http://www.w3.org/2000/svg" xmlns:xlink="http://www.w3.org/1999/xlink">
    <!-- Generator: Sketch 58 (84663) - https://sketch.com -->
    <title>Cards</title>
    <desc>Created with Sketch.</desc>
    <defs>
        <rect id="path-1" x="568" y="0" width="471" height="437" rx="8"></rect>
        <filter x="-1.8%" y="-1.5%" width="103.6%" height="103.9%" filterUnits="objectBoundingBox" id="filter-2">
            <feOffset dx="0" dy="2" in="SourceAlpha" result="shadowOffsetOuter1"></feOffset>
            <feGaussianBlur stdDeviation="2.5" in="shadowOffsetOuter1" result="shadowBlurOuter1"></feGaussianBlur>
            <feColorMatrix values="0 0 0 0 0   0 0 0 0 0   0 0 0 0 0  0 0 0 0.244973776 0" type="matrix" in="shadowBlurOuter1"></feColorMatrix>
        </filter>
        <rect id="path-3" x="61" y="0" width="471" height="556" rx="8"></rect>
        <filter x="-1.8%" y="-1.2%" width="103.6%" height="103.1%" filterUnits="objectBoundingBox" id="filter-4">
            <feOffset dx="0" dy="2" in="SourceAlpha" result="shadowOffsetOuter1"></feOffset>
            <feGaussianBlur stdDeviation="2.5" in="shadowOffsetOuter1" result="shadowBlurOuter1"></feGaussianBlur>
            <feColorMatrix values="0 0 0 0 0   0 0 0 0 0   0 0 0 0 0  0 0 0 0.244973776 0" type="matrix" in="shadowBlurOuter1"></feColorMatrix>
        </filter>
    </defs>
    <g id="Bridge---Design-System" stroke="none" stroke-width="1" fill="none" fill-rule="evenodd">
        <g id="Cards" transform="translate(-111.000000, -2535.000000)">
            <g transform="translate(111.000000, 2538.000000)">
                <g id="Rectangle-Copy-49">
                    <use fill="black" fill-opacity="1" filter="url(#filter-2)" xlink:href="#path-1"></use>
                    <use fill="#FFFFFF" fill-rule="evenodd" xlink:href="#path-1"></use>
                </g>
                <path d="M575,0 L1032,0 C1035.86599,-7.10171439e-16 1039,3.13400675 1039,7 L1039,236 L1039,236 L568,236 L568,7 C568,3.13400675 571.134007,7.10171439e-16 575,0 Z" id="Rectangle-Copy-65" fill="#155DA1"></path>
                <text id="Image-Copy-5" font-family="Chivo-Regular, Chivo" font-size="32" font-weight="normal" letter-spacing="0.941176471" fill="#FFFFFF">
                    <tspan x="747" y="129">Image</tspan>
                </text>
                <text id="Card-Title-Copy-17" font-family="Chivo-Regular, Chivo" font-size="32" font-weight="normal" line-spacing="36" fill="#0A162A">
                    <tspan x="597" y="289">Card Title</tspan>
                </text>
                <text id="Optional-Subtitle-Copy-6" font-family="HKGrotesk-Regular, HK Grotesk" font-size="20" font-weight="normal" letter-spacing="0.5" fill="#363949">
                    <tspan x="597" y="317">Optional Subtitle </tspan>
                </text>
                <text id="Here-is-some-optiona-Copy-5" font-family="HKGrotesk-Regular, HK Grotesk" font-size="16" font-weight="normal" line-spacing="24" letter-spacing="0.3" fill="#0A162A">
                    <tspan x="597" y="351">Here is some optional text that you can include in the </tspan>
                    <tspan x="597" y="375">card’s body so you can learn more about what the card is </tspan>
                    <tspan x="597" y="399">supposed to be for.  </tspan>
                </text>
                <g id="Rectangle-Copy-49">
                    <use fill="black" fill-opacity="1" filter="url(#filter-4)" xlink:href="#path-3"></use>
                    <use fill="#FFFFFF" fill-rule="evenodd" xlink:href="#path-3"></use>
                </g>
                <rect id="Rectangle" fill-opacity="0.45" fill="#4CDDD1" x="89" y="455" width="121" height="25"></rect>
                <path d="M68,0 L525,0 C528.865993,-7.10171439e-16 532,3.13400675 532,7 L532,236 L532,236 L61,236 L61,7 C61,3.13400675 64.1340068,7.10171439e-16 68,0 Z" id="Rectangle-Copy-63" fill="#155DA1"></path>
                <text id="Image-Copy-4" font-family="Chivo-Regular, Chivo" font-size="32" font-weight="normal" letter-spacing="0.941176471" fill="#FFFFFF">
                    <tspan x="239" y="129">Image</tspan>
                </text>
                <text id="Card-Title" font-family="Chivo-Regular, Chivo" font-size="32" font-weight="normal" line-spacing="32" fill="#0A162A">
                    <tspan x="88" y="314">Card Title</tspan>
                </text>
                <rect id="Rectangle" fill-opacity="0.48" fill="#5A67E6" x="89" y="319" width="159" height="8"></rect>
                <rect id="Rectangle-Copy-70" fill-opacity="0.48" fill="#5A67E6" x="89" y="277" width="159" height="8"></rect>
                <path d="M89.5,319.5 L247.5,319.5" id="Line-26" stroke="#5A67E6" stroke-linecap="square" stroke-dasharray="2"></path>
                <path d="M89.5,277.5 L247.5,277.5" id="Line-26-Copy-2" stroke="#5A67E6" stroke-linecap="square" stroke-dasharray="2"></path>
                <path d="M90,326.5 L248,326.5" id="Line-26-Copy" stroke="#5A67E6" stroke-linecap="square" stroke-dasharray="2"></path>
                <path d="M90,284.5 L248,284.5" id="Line-26-Copy-3" stroke="#5A67E6" stroke-linecap="square" stroke-dasharray="2"></path>
                <text id="Optional-Subtitle-Copy-5" font-family="HKGrotesk-Regular, HK Grotesk" font-size="20" font-weight="normal" letter-spacing="0.5" fill="#363949">
                    <tspan x="88" y="345">Optional Subtitle </tspan>
                </text>
                <text id="Here-is-some-optiona-Copy-4" font-family="HKGrotesk-Regular, HK Grotesk" font-size="16" font-weight="normal" line-spacing="24" letter-spacing="0.3" fill="#0A162A">
                    <tspan x="88" y="379">Here is some optional text that you can include in the </tspan>
                    <tspan x="88" y="403">card’s body so you can learn more about what the card is </tspan>
                    <tspan x="88" y="427">supposed to be for. This particular card has an overline </tspan>
                    <tspan x="88" y="451">and actions at the bottom.</tspan>
                </text>
                <rect id="Rectangle" fill-opacity="0.48" fill="#83ED52" x="89" y="351" width="159" height="16"></rect>
                <text id="OPTIONAL-OVERLINE-Copy-2" font-family="HKGrotesk-Bold, HK Grotesk" font-size="12" font-weight="bold" line-spacing="12" letter-spacing="2" fill="#0A162A">
                    <tspan x="88" y="276">OPTIONAL OVERLINE</tspan>
                </text>
                <path d="M89.5,351.5 L247.5,351.5" id="Line-24" stroke="#83ED52" stroke-linecap="square" stroke-dasharray="2"></path>
                <path d="M90,366.5 L248,366.5" id="Line-24-Copy" stroke="#83ED52" stroke-linecap="square" stroke-dasharray="2"></path>
                <rect id="Rectangle-Copy-64" fill="#155DA1" x="88" y="480" width="122" height="48" rx="13"></rect>
                <path d="M88.921875,455.5 L210,455.5" id="Line-21" stroke="#4CDDD1" stroke-linecap="square" stroke-dasharray="2"></path>
                <path d="M90,480 L210,480" id="Line-21-Copy" stroke="#4CDDD1" stroke-linecap="square" stroke-dasharray="2"></path>
                <text id="ACTION-Copy" font-family="Chivo-Bold, Chivo" font-size="14" font-weight="bold" letter-spacing="2" fill="#FFFFFF">
                    <tspan x="116.998" y="509">ACTION</tspan>
                </text>
                <rect id="Rectangle" fill-opacity="0.24" fill="#E260D7" x="61" y="236" width="471" height="28"></rect>
                <rect id="Rectangle-Copy-69" fill-opacity="0.24" fill="#E260D7" x="89" y="528" width="416" height="28"></rect>
                <path d="M62,236.5 L531,236.5" id="Line-18" stroke="#E260D7" stroke-linecap="square" stroke-dasharray="4"></path>
                <path d="M90,528.5 L504,528.5" id="Line-18-Copy-6" stroke="#E260D7" stroke-linecap="square" stroke-dasharray="4"></path>
                <path d="M-53,405.5 L230,405.5" id="Line-18-Copy-2" stroke="#E260D7" stroke-linecap="square" stroke-dasharray="4" transform="translate(88.500000, 405.500000) rotate(90.000000) translate(-88.500000, -405.500000) "></path>
                <path d="M387.5,409 L675.5,408.5" id="Line-18-Copy-4" stroke="#E260D7" stroke-linecap="square" stroke-dasharray="4" transform="translate(531.500000, 408.500000) rotate(90.000000) translate(-531.500000, -408.500000) "></path>
                <path d="M360,410.5 L651,410" id="Line-18-Copy-5" stroke="#E260D7" stroke-linecap="square" stroke-dasharray="4" transform="translate(505.500000, 410.000000) rotate(90.000000) translate(-505.500000, -410.000000) "></path>
                <g id="Group-8" transform="translate(61.000000, 263.000000)">
                    <path d="M-145,145.5 L146,145.5" id="Line-18-Copy-3" stroke="#E260D7" stroke-linecap="square" stroke-dasharray="4" transform="translate(0.500000, 145.500000) rotate(90.000000) translate(-0.500000, -145.500000) "></path>
                    <polygon id="Rectangle-Copy-68" fill-opacity="0.24" fill="#E260D7" points="0 1 28 1 28 31.3716657 28 293 0 293"></polygon>
                </g>
                <path d="M62,263.5 L531,263.5" id="Line-18-Copy" stroke="#E260D7" stroke-linecap="square" stroke-dasharray="4"></path>
                <path d="M90,555.5 L504,555.5" id="Line-18-Copy-7" stroke="#E260D7" stroke-linecap="square" stroke-dasharray="4"></path>
                <rect id="Rectangle" fill-opacity="0.24" fill="#E260D7" x="504" y="264" width="28" height="292"></rect>
                <g id="Group-5" transform="translate(36.000000, 236.000000)" stroke="#E260D7" stroke-linecap="square">
                    <path d="M0.5,0.5 L16.5,0.5" id="Line-19"></path>
                    <path d="M0.5,27.5 L16.5,27.5" id="Line-19-Copy"></path>
                    <path d="M8.5,0.5 L8.5,27.5" id="Line-20"></path>
                </g>
                <g id="Group-5-Copy-2" transform="translate(74.500000, 572.000000) rotate(90.000000) translate(-74.500000, -572.000000) translate(66.000000, 558.000000)" stroke="#E260D7" stroke-linecap="square">
                    <path d="M0.5,0.5 L16.5,0.5" id="Line-19"></path>
                    <path d="M0.5,27.5 L16.5,27.5" id="Line-19-Copy"></path>
                    <path d="M8.5,0.5 L8.5,27.5" id="Line-20"></path>
                </g>
                <g id="Group-5-Copy-3" transform="translate(518.500000, 572.000000) rotate(90.000000) translate(-518.500000, -572.000000) translate(510.000000, 558.000000)" stroke="#E260D7" stroke-linecap="square">
                    <path d="M0.5,0.5 L16.5,0.5" id="Line-19"></path>
                    <path d="M0.5,27.5 L16.5,27.5" id="Line-19-Copy"></path>
                    <path d="M8.5,0.5 L8.5,27.5" id="Line-20"></path>
                </g>
                <text id="28-px" font-family="TTCommons-Light, TT Commons" font-size="12" font-weight="300" letter-spacing="0.51200016" fill="#E260D7">
                    <tspan x="0" y="230">28 px</tspan>
                </text>
                <text id="24-px" font-family="TTCommons-Light, TT Commons" font-size="12" font-weight="300" letter-spacing="0.51200016" fill="#4CDDD1">
                    <tspan x="245" y="470">24 px</tspan>
                </text>
                <text id="16-px" font-family="TTCommons-Light, TT Commons" font-size="12" font-weight="300" letter-spacing="0.51200016" fill="#609946">
                    <tspan x="287" y="362">16 px</tspan>
                </text>
                <text id="8-px" font-family="TTCommons-Light, TT Commons" font-size="12" font-weight="300" letter-spacing="0.51200016" fill="#5A67E6">
                    <tspan x="287" y="327">8 px</tspan>
                </text>
                <text id="8-px-copy-3" font-family="TTCommons-Light, TT Commons" font-size="12" font-weight="300" letter-spacing="0.51200016" fill="#5A67E6">
                    <tspan x="287" y="285">8 px</tspan>
                </text>
                <path d="M221.5,455.5 L239.5,455.5" id="Line-22" stroke="#4CDDD1" stroke-linecap="square"></path>
                <path d="M260,351.5 L278,351.5" id="Line-22-Copy-2" stroke="#83ED52" stroke-linecap="square"></path>
                <path d="M260,319.5 L278,319.5" id="Line-22-Copy-4" stroke="#5A67E6" stroke-linecap="square"></path>
                <path d="M260,277.5 L278,277.5" id="Line-22-Copy-6" stroke="#5A67E6" stroke-linecap="square"></path>
                <path d="M260,327.5 L278,327.5" id="Line-22-Copy-5" stroke="#5A67E6" stroke-linecap="square"></path>
                <path d="M260,285.5 L278,285.5" id="Line-22-Copy-7" stroke="#5A67E6" stroke-linecap="square"></path>
                <path d="M269.5,319.5 L269.5,326.5" id="Line-27" stroke="#5A67E6" stroke-linecap="square"></path>
                <path d="M269.5,277.5 L269.5,284.5" id="Line-27-Copy" stroke="#5A67E6" stroke-linecap="square"></path>
                <path d="M260,366.5 L278,366.5" id="Line-22-Copy-3" stroke="#83ED52" stroke-linecap="square"></path>
                <path d="M221.5,479.5 L239.5,479.5" id="Line-22-Copy" stroke="#4CDDD1" stroke-linecap="square"></path>
                <path d="M230.5,456.5 L230.5,478.5" id="Line-23" stroke="#4CDDD1" stroke-linecap="square"></path>
                <path d="M269.5,352.5 L269.5,366.5" id="Line-25" stroke="#83ED52" stroke-linecap="square"></path>
            </g>
        </g>
    </g>
</svg>