<?xml version="1.0" encoding="UTF-8"?>
<svg width="316px" height="107px" viewBox="0 0 316 107" version="1.1" xmlns="http://www.w3.org/2000/svg" xmlns:xlink="http://www.w3.org/1999/xlink">
    <!-- Generator: Sketch 58 (84663) - https://sketch.com -->
    <title>MedButton</title>
    <desc>Created with Sketch.</desc>
    <g id="Bridge---Design-System" stroke="none" stroke-width="1" fill="none" fill-rule="evenodd">
        <g id="Buttons" transform="translate(-649.000000, -4951.000000)">
            <g id="MedButton" transform="translate(649.000000, 4951.000000)">
                <rect id="Rectangle-Copy-37" fill="#155DA1" x="46" y="32" width="121" height="44" rx="13"></rect>
                <rect id="Rectangle-Copy-38" stroke="#155DA1" stroke-width="2" fill="#FFFFFF" x="183" y="32" width="132" height="44" rx="13"></rect>
                <rect id="Rectangle" fill-opacity="0.34" fill="#84D2D7" x="46" y="32" width="121" height="12"></rect>
                <text id="16-px" font-family="TTCommons-Light, TT Commons" font-size="12" font-weight="300" letter-spacing="0.51200016" fill="#985FA8">
                    <tspan x="41" y="105">16 px</tspan>
                </text>
                <text id="12-px" font-family="TTCommons-Light, TT Commons" font-size="12" font-weight="300" letter-spacing="0.51200016" fill="#76BABE">
                    <tspan x="0" y="42">12 px</tspan>
                </text>
                <path d="M46.5,81 L46.5,93" id="Line-13-Copy-8" stroke="#C584D7" stroke-linecap="square"></path>
                <path d="M61.5,81 L61.5,93" id="Line-13-Copy-9" stroke="#C584D7" stroke-linecap="square"></path>
                <path d="M46.5,87 L61.5,87" id="Line-14-Copy-4" stroke="#C584D7" stroke-linecap="square"></path>
                <g id="Group-2" transform="translate(36.500000, 38.000000) scale(1, -1) rotate(90.000000) translate(-36.500000, -38.000000) translate(29.500000, 31.500000)" stroke="#84D2D7" stroke-linecap="square">
                    <path d="M1,0.5 L1,12.5" id="Line-13-Copy-8"></path>
                    <path d="M13,0.5 L13,12.5" id="Line-13-Copy-9"></path>
                    <path d="M1,6.5 L12,6.5" id="Line-14-Copy-4"></path>
                </g>
                <path d="M61.5,44.25 L61.5,76.25" id="Line-15-Copy-6" stroke="#C584D7" stroke-linecap="square" stroke-dasharray="2"></path>
                <path d="M46.5,44.25 L46.5,76.25" id="Line-15-Copy-5" stroke="#C584D7" stroke-linecap="square" stroke-dasharray="2"></path>
                <path d="M108,-16 L107.5,104.5" id="Line-15-Copy-6" stroke="#84D2D7" stroke-linecap="square" stroke-dasharray="2" transform="translate(107.500000, 44.500000) rotate(-90.000000) translate(-107.500000, -44.500000) "></path>
                <path d="M108,-28 L107.5,92.5" id="Line-15-Copy-5" stroke="#84D2D7" stroke-linecap="square" stroke-dasharray="2" transform="translate(107.500000, 32.500000) rotate(-90.000000) translate(-107.500000, -32.500000) "></path>
                <polygon id="Rectangle-Copy-89" fill-opacity="0.33869646" fill="#C584D7" points="46 44 62 44 62 76 46 76 46 55.5391228"></polygon>
                <g id="Group-2-Copy-2" transform="translate(162.000000, 0.000000)">
                    <text id="16-px" font-family="TTCommons-Light, TT Commons" font-size="12" font-weight="300" letter-spacing="0.51200016" fill="#985FA8">
                        <tspan x="0" y="8">16 px</tspan>
                    </text>
                    <g id="Group" transform="translate(5.000000, 16.000000)">
                        <g id="Group-3" stroke="#C584D7" stroke-linecap="square">
                            <path d="M0.5,0 L0.5,12" id="Line-13-Copy-8"></path>
                            <path d="M15.5,0 L15.5,12" id="Line-13-Copy-9"></path>
                            <path d="M0.5,6 L15.5,6" id="Line-14-Copy-4"></path>
                        </g>
                        <path d="M15.5,16 L15.5,60.25" id="Line-15-Copy-6" stroke="#C584D7" stroke-linecap="square" stroke-dasharray="2"></path>
                        <path d="M0.5,16 L0.5,60.25" id="Line-15-Copy-5" stroke="#C584D7" stroke-linecap="square" stroke-dasharray="2"></path>
                        <rect id="Rectangle-Copy-89" fill-opacity="0.33869646" fill="#C584D7" x="0" y="16" width="16" height="44"></rect>
                    </g>
                </g>
                <text id="Apply-Now" font-family="Chivo-Bold, Chivo" font-size="14" font-weight="bold" line-spacing="20" letter-spacing="2" fill="#FFFFFF">
                    <tspan x="62.332" y="57">Apply Now</tspan>
                </text>
                <text id="Learn-More" font-family="Chivo-Bold, Chivo" font-size="14" font-weight="bold" line-spacing="20" letter-spacing="2" fill="#155DA1">
                    <tspan x="199.359" y="57">Learn More</tspan>
                </text>
            </g>
        </g>
    </g>
</svg>