<?xml version="1.0" encoding="UTF-8"?>
<svg width="287px" height="104px" viewBox="0 0 287 104" version="1.1" xmlns="http://www.w3.org/2000/svg" xmlns:xlink="http://www.w3.org/1999/xlink">
    <!-- Generator: Sketch 58 (84663) - https://sketch.com -->
    <title>SmButton</title>
    <desc>Created with Sketch.</desc>
    <g id="Bridge---Design-System" stroke="none" stroke-width="1" fill="none" fill-rule="evenodd">
        <g id="Buttons" transform="translate(-1162.000000, -4952.000000)">
            <g id="SmButton" transform="translate(1162.000000, 4953.000000)">
                <path d="M102.25,-22 L102.5,86.25" id="Line-12-Copy" stroke="#37BDDC" stroke-linecap="square" stroke-dasharray="2" transform="translate(102.750000, 32.500000) rotate(-90.000000) translate(-102.750000, -32.500000) "></path>
                <g id="Group-4" transform="translate(36.500000, 39.750000) rotate(90.000000) translate(-36.500000, -39.750000) translate(29.000000, 33.250000)" stroke="#37BDDC" stroke-linecap="square">
                    <path d="M0.5,0.5 L0.5,12.5" id="Line-13"></path>
                    <path d="M14,0.5 L14,12.5" id="Line-13-Copy"></path>
                    <path d="M1,6.5 L14,6.5" id="Line-14"></path>
                </g>
                <g id="Group-4-Copy" transform="translate(155.000000, 16.000000)" stroke="#37BDDC" stroke-linecap="square">
                    <path d="M0.5,0.5 L0.5,12.5" id="Line-13"></path>
                    <path d="M14,0.5 L14,12.5" id="Line-13-Copy"></path>
                    <path d="M1,6.5 L14,6.5" id="Line-14"></path>
                </g>
                <g id="Group-5" transform="translate(47.500000, 75.250000)" stroke="#C584D7" stroke-linecap="square">
                    <path d="M1,0.5 L1,12.5" id="Line-13-Copy-8"></path>
                    <path d="M16,0.5 L16,12.5" id="Line-13-Copy-10"></path>
                    <path d="M2,6.5 L16,6.5" id="Line-14-Copy-4"></path>
                </g>
                <text id="12-px" font-family="TTCommons-Light, TT Commons" font-size="12" font-weight="300" letter-spacing="0.51200016" fill="#288FA7">
                    <tspan x="0" y="42.25">12 px</tspan>
                </text>
                <text id="12-px-copy" font-family="TTCommons-Light, TT Commons" font-size="12" font-weight="300" letter-spacing="0.51200016" fill="#288FA7">
                    <tspan x="149" y="8">12 px</tspan>
                </text>
                <text id="16-px" font-family="TTCommons-Light, TT Commons" font-size="12" font-weight="300" letter-spacing="0.51200016" fill="#985FA8">
                    <tspan x="43" y="100.25">16 px</tspan>
                </text>
                <rect id="Rectangle-Copy-39" fill="#155DA1" x="48" y="33.25" width="108" height="38" rx="13"></rect>
                <rect id="Rectangle-Copy-40" stroke="#155DA1" stroke-width="2" fill="#FFFFFF" x="168" y="33.25" width="118" height="38" rx="13"></rect>
                <rect id="Rectangle" fill-opacity="0.34" fill="#ADF5FF" x="48" y="33.25" width="108" height="12"></rect>
                <rect id="Rectangle-Copy-41" fill-opacity="0.34" fill="#ADF5FF" x="156" y="32.25" width="12" height="38"></rect>
                <path d="M102.5,-8.25 L102,100.25" id="Line-12" stroke="#37BDDC" stroke-linecap="square" stroke-dasharray="2" transform="translate(102.000000, 45.750000) rotate(-90.000000) translate(-102.000000, -45.750000) "></path>
                <g id="Group-6" transform="translate(48.000000, 45.250000)">
                    <rect id="Rectangle-Copy-89" fill-opacity="0.33869646" fill="#C584D7" x="1" y="0" width="15" height="26"></rect>
                    <path d="M15.5,0.270833333 L15.5,25.7291667" id="Line-15-Copy-4" stroke="#C584D7" stroke-linecap="square" stroke-dasharray="2"></path>
                    <path d="M0.5,1 L0.5,26" id="Line-15-Copy-5" stroke="#C584D7" stroke-linecap="square" stroke-dasharray="2"></path>
                </g>
                <text id="Apply-Now" font-family="Chivo-Bold, Chivo" font-size="12" font-weight="bold" line-spacing="16" letter-spacing="1.71428571" fill="#FFFFFF">
                    <tspan x="64.1417143" y="55.25">Apply Now</tspan>
                </text>
                <text id="Learn-More" font-family="Chivo-Bold, Chivo" font-size="12" font-weight="bold" letter-spacing="1.71428571" fill="#155DA1">
                    <tspan x="184.450571" y="56.25">Learn More</tspan>
                </text>
                <path d="M168,32.25 L168.08776,70.2498987" id="Line-12-Copy-2" stroke="#37BDDC" stroke-linecap="square" stroke-dasharray="2" transform="translate(168.043880, 51.249949) rotate(0.132323) translate(-168.043880, -51.249949) "></path>
                <path d="M156,32.25 L156.08776,70.2498987" id="Line-12-Copy-3" stroke="#37BDDC" stroke-linecap="square" stroke-dasharray="2" transform="translate(156.043880, 51.249949) rotate(0.132323) translate(-156.043880, -51.249949) "></path>
            </g>
        </g>
    </g>
</svg>